<svg width="1145" height="636" viewBox="0 0 1145 636" fill="none" xmlns="http://www.w3.org/2000/svg">
<path fill-rule="evenodd" clip-rule="evenodd" d="M699.587 169.995C704.155 174.6 702.893 172.242 705.375 182.891L692.693 179.648C695.295 170.954 693.689 173.969 699.587 169.995H699.587ZM1048.47 57.6717C1052.43 54.303 1057.3 55.0641 1062.4 55.4294C1064.13 41.2033 1064.4 45.5001 1075.98 40.4471C1081.26 38.1424 1088.04 33.1774 1091.72 29.0685C1088.01 24.6882 1089.49 26.3881 1083.03 22.7325C1065.2 12.6413 1078.67 13.1369 1066.27 0.000854492C1049.26 5.55985 1053.91 6.73298 1044.32 16.9904L1053.25 26.4453C1035.54 24.6978 1040.82 20.5521 1023.96 30.2936C993.503 47.9043 985.78 47.9618 967.372 79.3449C976.242 89.2426 979.45 80.727 984.122 93.3782L971.288 96.1421C965.463 89.2741 971.074 90.562 963.747 86.8752C963.278 106.791 966.84 98.6503 955.737 110.233C950.011 116.199 949.255 122.29 942.575 127.546C929.199 125.361 935.566 115.463 917.1 124.542C907.265 129.376 904.501 132.406 901.221 144.109C879.365 142.722 877.493 137.397 859.403 144.385C844.128 150.278 836.827 148.208 829.902 163.492C836.144 170.908 834.397 164.102 838.673 172.347C832.504 181.577 832.78 178.229 823.472 183.799C811.514 190.949 822.038 192.231 805.59 187.7L806.847 204.549C785.487 200.054 791.207 189.734 781.643 171.696L756.805 172.838C755.376 176.363 756.069 176.671 755.314 179.143L752.602 185.833C739.095 186.506 741.212 182.689 730.219 181.844C722.861 181.276 716.124 183.231 707.894 183.085C703.055 140.667 716.124 139.447 679.979 139.04C677.961 134.759 675.932 128.527 673.08 124.1C652.773 123.057 667.27 144.735 635.486 144.636C618.678 144.579 602.038 156.098 589.48 159.086L590.753 171.284C578.669 171.722 567.828 166.643 559.64 169.615C554.545 180.264 559.52 185.056 559.713 196.393L544.512 179.372C544.053 179.529 543.536 180.024 543.281 180.154C543.025 180.29 542.337 180.759 542.003 180.91C537.18 183.127 538.024 183.727 531.756 183.017C532.528 175.101 535.845 173.526 532.851 164.51C525.54 187.403 521.076 171.993 515.355 187.21C509.457 202.897 503.94 204.279 502.193 216.638C502.688 217.076 503.445 217.467 503.857 217.717C504.253 217.952 505.004 218.453 505.489 218.735L511.413 221.926C521.477 229.243 514.918 238.958 510.411 244.501C511.768 234.849 513.243 233.957 510.62 224.21C496.686 224.935 501.703 223.282 496.008 234.03C489.343 246.608 469.151 260.24 459.707 244.131C471.159 246.932 479.008 240.606 486.548 233.316C494.246 225.874 494.115 215.528 500.43 205.192C506.323 195.544 508.221 183.801 514.13 176.829C519.126 170.941 521.29 172.469 521.853 163.911C522.103 160.088 521.999 153.559 519.965 150.916L483.106 172.213C476.29 187.795 483.841 178.283 472.781 190.043L472.619 213.145C464.677 209.609 466.549 209.03 463.378 198.616C459.008 184.249 456.708 180.719 449.256 170.946C446.252 167.009 446.419 160.845 443.348 155.995C438.795 163.437 442.753 170.305 434.508 180.255C426.008 174.56 425.466 166.753 401.097 163.64C402.546 158.774 402.374 161.017 404.544 157.783C408.95 151.192 404.398 161.205 408.554 152.24C394.797 151.911 388.956 146.123 373.765 144.428C361.479 143.057 348.291 150.764 356.009 131.292C370.157 128.121 366.355 139.339 371.179 130.958C375.496 123.459 371.898 118.151 368.243 113.248C358.96 123.887 365.948 116.961 353.954 124.826C344.28 131.162 351.295 133.425 339.525 136.444C333.543 128.841 340.296 129.404 329.382 124.888C325.502 123.282 317.387 121.895 313.017 121.337C307.484 126.187 307.75 129.936 301.529 128.663C297.128 121.013 299.824 116.967 298.556 107.617C280.455 111.366 298.525 114.24 284.299 124.272C280.08 118.301 280.252 114.348 284.111 105.854C286.155 101.358 289.086 98.2916 293.628 95.3195C305.242 87.716 301.018 90.2869 308.443 79.1217C311.896 73.9281 308.955 77.1608 313.57 73.5887C314.112 99.6474 309.695 117.243 337.949 116.731C349.917 111.589 358.673 53.2349 353.266 43.7857C346.815 32.5006 326.685 29.7943 320.454 51.561C307.447 49.6001 308.793 46.315 299.74 54.93C289.289 64.8801 294.066 59.6077 281.321 65.2139C271.402 69.5734 274.348 72.2541 264.424 77.2551C251.549 83.7422 259.585 82.8977 251.919 92.7794C230.335 94.7247 222.319 86.975 206.784 85.7551L202.722 99.3968C193.919 93.5356 193.513 90.928 177.857 96.7269C171.162 99.2038 163.314 102.38 158.343 105.864C140.013 118.707 140.66 116.345 142.673 143.562C136.566 149.497 131.602 150.894 126.674 158.252C121.683 165.715 121.839 172.536 116.421 179.231L106.863 170.204L96.4434 183.424C99.9319 190.308 98.3 187.481 105.606 191.58C103.363 206.51 97.5434 206.547 95.7391 219.135C94.8162 225.597 89.8776 225.075 89.565 232.136C93.8306 247.802 97.4862 263.144 101.799 278.643C101.324 279.013 100.61 279.373 100.245 279.576L81.075 292.853C72.0219 287.712 77.6644 286.262 65.6131 285.287C57.6287 295.127 65.7482 288.906 63.4072 295.742C37.7398 284.108 64.3824 302.162 31.3098 297.421C16.009 264.369 27.5495 285.688 25.3332 257.872L8.40595 250.242C7.10251 277.542 6.54416 257.992 -0.000488281 271.738C39.3613 302.512 23.8159 288.812 25.9906 338.41C26.3764 347.276 35.6693 362.003 38.7878 369.694C41.4526 376.265 41.2599 382.033 43.1265 387.967C45.9843 397.062 49.3534 394.564 51.5222 401.328C54.5886 410.908 53.7596 430.375 56.5024 441.801L69.1432 441.441C73.3984 431.47 70.9055 424.999 76.9393 416.211C86.3158 402.554 80.9339 412.817 86.1959 394.7C110.899 385.824 100.923 393.047 120.802 393.354C138.778 362.529 127.769 375.175 127.899 356.423C127.999 342.713 142.715 334.536 153.974 330.609C158.824 336.737 153.875 336.111 156.075 344.893C170.489 343.172 157.489 340.199 171.694 338.385C176.001 337.837 186.52 339.183 191.526 339.449C198.29 345.931 205.538 353.748 207.442 363.087C210.649 378.826 207.776 382.075 222.507 386.805C241.052 392.771 238.272 396.285 243.038 406.188C245.422 411.132 258.016 421.666 263.1 417.541C268.534 413.14 267.71 419.685 265.942 408.228C265.775 407.148 263.575 402.236 262.991 398.215C269.629 394.956 272.497 395.571 277.676 389.099C285.195 390.575 282.583 390.633 288.762 393.641C286.781 386.685 286.353 382.44 289.049 376.469C312.495 384.657 324.792 394.841 357.505 396.515C365.969 396.948 366.105 401.407 375.006 407.008L369.849 422.574C389.749 440.325 377.483 423.007 386.005 444.847L413.649 442.051C412.971 456.956 418.686 454.614 420.366 471.265C421.57 483.202 423.729 493.136 424.647 505.803C445.376 508.291 429.21 504.526 440.563 513.876C447.431 519.529 450.116 515.763 460.239 518.33C463.357 525.469 465.323 533.03 468.666 538.991C475.33 550.865 475.533 542.714 484.603 549.567C495.1 557.498 493.186 561.759 522.123 548.111C557.157 531.58 559.53 554.187 570.34 558.562C572.395 559.396 578.324 560.132 581.542 560.956C589.453 562.984 600.858 568.428 602.349 555.105C603.81 542.052 602.767 564.705 602.359 551.282C601.989 538.975 601.895 541.128 611.225 530.887C617.603 532.029 625.274 535.762 632.241 538.772C645.836 544.649 639.24 543.84 644.845 554.896C653.002 570.963 670.268 555.412 687.754 560.611C699.346 564.059 727.59 598.993 765.028 555.136C777.058 555.073 791.211 558.364 803.404 560.549C818.892 549.368 813.781 550.677 818.84 531.038C820.159 525.912 824.305 518.131 824.451 515.086C824.988 503.722 821.948 511.399 817.26 502.987C822.782 497.887 829.009 490.909 839.856 487.702C848.267 485.219 867.265 487.29 872.005 491.045C880.495 497.777 893.543 521.249 902.81 533.306C911.566 533.671 921.463 531.538 929.703 535.11C939.157 539.209 936.779 546.093 944.91 549.41C965.034 555.256 963.297 524.795 978.472 530.339C978.79 530.876 979.046 531.632 979.166 532.08C979.286 532.529 979.646 533.301 979.766 533.869C979.886 534.453 980.084 535.084 980.183 535.752L980.194 544.31C980.089 549.456 980.121 551.881 980.585 557.284C981.477 567.578 981.424 571.682 979.959 582.013C967.923 587.661 971.047 579.359 961.754 593.084C963.543 601.005 968.82 605.647 970.405 614.016C972.595 625.578 966.88 621.959 967.016 635.252C974.703 629.953 975.411 622.814 980.032 613.709C992.767 618.517 991.932 622.001 1003.26 609.667C1010.87 601.37 1019.22 568.089 1022.64 553.925C1025.43 542.343 1023.65 530.834 1025.42 518.568C1031.72 474.826 1016.06 481.115 1014.13 455.229C1013.86 451.562 1014.28 447.969 1013.66 444.929C1010.25 428.017 994.159 416.278 975.589 418.687C972.94 423.876 974.129 425.305 972.814 432.929C960.419 432.992 971.469 429.571 964.591 431.015C961.123 431.746 961.092 434.431 961.034 434.259C960.904 433.868 960.549 435.213 959.323 435.99L956.294 426.671L941.244 428.46C942.897 421.446 946.291 415.146 948.763 408.805L961.78 340.548C965.383 324.585 978.582 323.5 991.332 314.249C1008.42 301.864 997.783 294.865 1019.88 289.457L1021.14 292.518C1021.31 292.894 1021.64 293.666 1021.82 294.041L1024.47 298.333C1027.97 294.421 1039.16 278.24 1041.46 274.208C1031.43 267.445 1053.26 278.74 1036.79 272.936C1034.38 272.092 1031.2 275.632 1028.89 265.275C1027.63 259.638 1029.18 253 1028.11 245.829C1024.78 223.697 1027.13 230.607 1036.64 215.984C1047.99 221.1 1038.18 223.4 1052.68 226.951C1058.05 199.088 1044.57 198.989 1046.32 181.185C1049.03 183.725 1060.85 197.92 1062.24 200.699L1071.66 263.07C1070.92 286.708 1071.91 296.241 1085.41 317.028C1092.4 327.786 1094.59 325.153 1102.74 332.902C1108.16 338.044 1135.81 361.99 1141.38 364.019C1146.8 353.756 1144.94 345.636 1139.29 335.916C1132.24 323.807 1131.47 328.547 1139.07 316.282C1120.97 294.306 1130.13 305.43 1134.75 285.279C1125.78 276.049 1125.49 281.733 1118.35 267.564C1121.07 260.628 1122.34 263.184 1123.42 255.998C1118.44 252.958 1115.36 253.709 1111.33 251.257C1104.53 247.116 1108.82 248.264 1103.82 240.739C1096.55 244.77 1101.38 244.426 1093.08 245.599C1086.38 229.438 1088.16 229.104 1078.96 216.636C1083.74 205.424 1085.51 213.288 1084.3 196.527C1088.97 199.306 1086.23 201.178 1091.69 196.704C1084.79 171.897 1102.21 174.895 1107.5 172.345C1104.04 164.126 1098.01 143.57 1096.99 132.425C1093.18 90.7428 1098.09 109.725 1103.28 92.6306C1093.41 82.3991 1071.03 82.0705 1060.59 91.7596C1063.33 82.4511 1071.44 81.997 1066.92 70.1124C1062.89 59.4848 1057.31 61.6544 1048.47 57.6698L1048.47 57.6717Z" fill="#626363"/>
<path fill-rule="evenodd" clip-rule="evenodd" d="M310.01 113.151C311.109 116.144 311.023 112.651 311.037 116.735C311.043 118.249 311.274 118.24 312.074 120.216C313.68 124.19 313.58 120.054 315.997 126.416L322.953 139.689L323.357 138.246C323.363 138.205 323.385 136.927 323.394 136.812L326.166 136.816C325.338 134.729 322.652 135.516 321.024 131.964C320.501 130.823 319.763 128.863 320.981 127.663C321.989 126.668 322.291 127.869 324.427 128.209L323.865 127.707C323.789 127.644 323.666 127.539 323.583 127.471L322.225 126.409C321.458 125.756 320.985 125.292 320.194 124.607C318.727 123.337 318.068 122.313 316.662 120.926C315.086 119.372 314.816 118.991 313.708 116.676C312.661 114.485 312.125 113.729 310.011 113.151L310.01 113.151Z" fill="#666364"/>
<path fill-rule="evenodd" clip-rule="evenodd" d="M187.942 57.776C189.491 56.0174 188.752 53.6237 190.83 52.0841C193.139 50.3742 200.368 48.1497 204.101 48.4545C207.18 48.7062 209.543 49.8024 210.973 47.2628C209.159 45.8498 208.781 47.0055 206.425 46.4564C205.292 46.1921 201.807 44.1933 197.886 46.1049L186.429 50.3976C186.076 50.9871 186.416 51.0766 186.402 52.086C186.364 54.7326 185.034 55.4661 187.943 57.7756L187.942 57.776Z" fill="#666566"/>
<path fill-rule="evenodd" clip-rule="evenodd" d="M271.534 49.6755C274.912 49.7048 275.644 50.3797 276.474 47.4031C274.27 47.8293 273.88 48.3624 272.215 48.8747C271.01 49.2467 269.754 49.0276 267.916 49.5017C267.195 49.8837 267.959 50.4528 266.959 50.7625C266.732 50.8326 265.277 50.6774 264.85 50.6682C264.864 53.8386 265.539 52.2125 263.381 53.5279C267.639 53.2943 264.17 54.7388 268.328 54.91C269.414 53.5163 268.852 54.0301 270.236 52.7126C271.314 51.6854 271.359 51.7262 271.533 49.6751L271.534 49.6755Z" fill="#736E73"/>
<path fill-rule="evenodd" clip-rule="evenodd" d="M229.404 44.3737C229.483 44.4439 229.627 44.4272 229.662 44.5609C229.696 44.6934 229.87 44.7093 229.917 44.748C232.369 46.7764 230.642 48.1337 234.45 48.5157L234.919 44.8612L233.04 44.0482C233.727 42.1366 234.209 42.2736 233.091 40.4233C231.016 40.6298 232.402 39.225 229.404 44.3737H229.404Z" fill="#716E71"/>
<path fill-rule="evenodd" clip-rule="evenodd" d="M114.941 44.0415C116.661 42.8995 115.416 44.3058 116.207 41.7476C116.7 40.1568 116.612 40.9041 117.211 39.601C115.686 38.9231 114.787 38.2586 112.843 38.1135C112.799 40.4278 112.698 43.3825 114.941 44.0411V44.0415Z" fill="#666569"/>
<path fill-rule="evenodd" clip-rule="evenodd" d="M234.176 51.169C236.213 50.856 237.089 51.009 238.441 49.6699C238.105 48.0746 237.735 47.9135 236.453 46.8365C234.843 48.271 235.106 49.0532 234.176 51.169Z" fill="#6A686D"/>
<path fill-rule="evenodd" clip-rule="evenodd" d="M303.694 33.4625C304.432 31.8795 304.776 30.9203 303.694 29.3918C302.828 29.7445 302.233 29.6629 302.302 31.3275C302.361 32.7754 302.838 32.9001 303.694 33.4625Z" fill="#55545A"/>
<path fill-rule="evenodd" clip-rule="evenodd" d="M208.199 29.4475C209.102 30.0834 208.09 29.8455 209.54 30.154C209.617 30.1699 211.188 30.2279 211.239 30.229C210.655 28.2335 209.5 26.5054 208.199 29.4479V29.4475Z" fill="#89868A"/>
<path fill-rule="evenodd" clip-rule="evenodd" d="M242.639 64.7379L245.397 65.4433C244.857 63.1278 245.132 63.6405 244.138 62.6393C242.856 63.5032 243.205 62.8479 242.639 64.7379Z" fill="#EDF1EE"/>
<path fill-rule="evenodd" clip-rule="evenodd" d="M176.033 55.0013C177.712 55.8823 178.531 55.9347 178.55 53.7109C176.797 53.1236 176.609 53.154 176.033 55.0013Z" fill="#655E65"/>
<path fill-rule="evenodd" clip-rule="evenodd" d="M213.116 207.015C220.941 205.672 227.532 211.459 228.524 218.126C229.764 226.456 224.094 232.75 217.3 233.816C199.925 236.543 194.639 210.188 213.116 207.015V207.015ZM215.065 264.408C216.428 263.364 235.905 232.628 237.287 228.895C243.549 211.99 230.553 196.468 215.059 196.644C199.936 196.814 186.305 211.895 192.899 228.832C194.535 233.034 206.09 250.657 209.323 255.732C210.851 258.13 213.19 262.566 215.065 264.408Z" fill="#E31E24"/>
<path fill-rule="evenodd" clip-rule="evenodd" d="M215.065 264.408C213.19 262.566 210.851 258.13 209.323 255.732C206.089 250.656 194.535 233.035 192.899 228.832C186.305 211.896 199.936 196.815 215.059 196.644C230.553 196.469 243.549 211.99 237.287 228.895C235.905 232.628 216.429 263.364 215.065 264.408ZM184.924 225.599C186.508 234.229 193.205 243.251 197.42 249.723C214.087 275.312 212.986 281.049 220.86 268.756L241.794 235.403C253.085 214.858 239.134 194.002 220.939 190.331C200.318 186.173 181.056 204.512 184.925 225.599H184.924Z" fill="#2B2A29"/>
<path fill-rule="evenodd" clip-rule="evenodd" d="M231.472 266.932C238.827 269.223 247.634 274.171 237.682 280.101C232.013 283.48 222.355 285.053 214.567 284.962C206.193 284.863 197.844 283.538 191.885 279.676C181.107 272.692 194.545 269.381 198.987 266.482L197.218 260.438C187.388 261.618 175.27 272.374 184.253 282.309C195.836 295.118 235.168 294.75 246.213 282.148C252.436 275.047 247.907 267.044 240.297 263.119C238.415 262.147 235.334 260.619 233.057 260.534C232.413 262.448 231.508 264.855 231.472 266.931V266.932Z" fill="#2B2A29"/>
<path fill-rule="evenodd" clip-rule="evenodd" d="M208.545 222.113C206.402 212.754 219.829 210.77 221.594 218.69C223.694 228.106 210.3 229.773 208.545 222.113ZM213.116 207.016C194.639 210.188 199.926 236.543 217.301 233.817C224.094 232.751 229.764 226.456 228.524 218.126C227.533 211.459 220.941 205.672 213.116 207.016V207.016Z" fill="#2B2A29"/>
<path fill-rule="evenodd" clip-rule="evenodd" d="M208.545 222.113C210.3 229.773 223.694 228.107 221.594 218.69C219.829 210.769 206.401 212.754 208.545 222.113Z" fill="#626363"/>
<path fill-rule="evenodd" clip-rule="evenodd" d="M369.616 292.298C377.441 290.955 384.032 296.741 385.024 303.409C386.264 311.738 380.594 318.033 373.8 319.099C356.425 321.826 351.138 295.47 369.616 292.298V292.298ZM371.565 349.691C372.928 348.646 392.404 317.91 393.787 314.178C400.048 297.272 387.053 281.751 371.559 281.927C356.436 282.097 342.805 297.178 349.398 314.114C351.035 318.317 362.589 335.939 365.823 341.015C367.351 343.413 369.69 347.849 371.565 349.691Z" fill="#E31E24"/>
<path fill-rule="evenodd" clip-rule="evenodd" d="M371.565 349.69C369.69 347.848 367.351 343.412 365.823 341.014C362.589 335.938 351.035 318.317 349.399 314.114C342.805 297.178 356.436 282.097 371.559 281.926C387.053 281.751 400.049 297.272 393.787 314.177C392.405 317.91 372.929 348.646 371.565 349.69ZM341.424 310.881C343.008 319.511 349.705 328.533 353.92 335.005C370.587 360.594 369.486 366.331 377.36 354.038L398.294 320.685C409.585 300.14 395.634 279.284 377.439 275.613C356.818 271.455 337.556 289.794 341.425 310.881H341.424Z" fill="#2B2A29"/>
<path fill-rule="evenodd" clip-rule="evenodd" d="M387.972 352.214C395.327 354.505 404.134 359.453 394.182 365.383C388.513 368.762 378.855 370.336 371.067 370.244C362.693 370.145 354.344 368.82 348.385 364.958C337.607 357.974 351.045 354.663 355.487 351.764L353.718 345.72C343.888 346.9 331.77 357.656 340.753 367.591C352.336 380.4 391.668 380.032 402.713 367.43C408.936 360.329 404.407 352.327 396.797 348.401C394.915 347.429 391.834 345.901 389.557 345.816C388.913 347.73 388.008 350.137 387.972 352.213V352.214Z" fill="#2B2A29"/>
<path fill-rule="evenodd" clip-rule="evenodd" d="M365.044 307.395C362.901 298.036 376.328 296.052 378.094 303.972C380.194 313.389 366.8 315.056 365.044 307.395ZM369.616 292.298C351.139 295.471 356.425 321.826 373.8 319.099C380.594 318.033 386.264 311.739 385.024 303.409C384.032 296.741 377.441 290.955 369.616 292.298V292.298Z" fill="#2B2A29"/>
<path fill-rule="evenodd" clip-rule="evenodd" d="M365.044 307.395C366.799 315.056 380.193 313.389 378.094 303.972C376.328 296.052 362.901 298.036 365.044 307.395Z" fill="#626363"/>
<path fill-rule="evenodd" clip-rule="evenodd" d="M518.333 272.218C526.158 270.875 532.749 276.661 533.741 283.329C534.981 291.659 529.311 297.953 522.517 299.019C505.142 301.746 499.856 275.39 518.333 272.218V272.218ZM520.282 329.611C521.646 328.566 541.122 297.83 542.504 294.098C548.766 277.192 535.77 261.671 520.276 261.847C505.153 262.017 491.522 277.098 498.116 294.034C499.752 298.237 511.307 315.859 514.54 320.935C516.068 323.333 518.407 327.769 520.282 329.611Z" fill="#E31E24"/>
<path fill-rule="evenodd" clip-rule="evenodd" d="M520.283 329.611C518.407 327.769 516.069 323.333 514.54 320.935C511.307 315.859 499.752 298.237 498.116 294.034C491.523 277.098 505.153 262.017 520.277 261.847C535.77 261.671 548.766 277.192 542.504 294.098C541.122 297.83 521.646 328.566 520.283 329.611ZM490.142 290.801C491.725 299.431 498.422 308.454 502.637 314.925C519.304 340.515 518.203 346.252 526.078 333.959L547.011 300.605C558.303 280.06 544.351 259.204 526.156 255.534C505.535 251.376 486.273 269.714 490.142 290.801H490.142Z" fill="#2B2A29"/>
<path fill-rule="evenodd" clip-rule="evenodd" d="M536.689 332.134C544.043 334.426 552.851 339.373 542.899 345.304C537.23 348.682 527.572 350.256 519.783 350.164C511.41 350.065 503.061 348.741 497.102 344.879C486.324 337.895 499.762 334.583 504.203 331.685L502.435 325.64C492.605 326.82 480.487 337.577 489.47 347.511C501.053 360.32 540.385 359.953 551.43 347.35C557.653 340.25 553.124 332.247 545.514 328.322C543.632 327.35 540.551 325.822 538.274 325.737C537.63 327.651 536.724 330.058 536.689 332.134V332.134Z" fill="#2B2A29"/>
<path fill-rule="evenodd" clip-rule="evenodd" d="M513.762 287.315C511.619 277.956 525.046 275.972 526.811 283.892C528.911 293.309 515.517 294.976 513.762 287.315ZM518.333 272.218C499.856 275.391 505.143 301.746 522.517 299.019C529.311 297.953 534.981 291.659 533.741 283.329C532.75 276.662 526.158 270.875 518.333 272.219V272.218Z" fill="#2B2A29"/>
<path fill-rule="evenodd" clip-rule="evenodd" d="M513.761 287.315C515.517 294.976 528.911 293.309 526.811 283.892C525.045 275.972 511.618 277.956 513.761 287.315Z" fill="#626363"/>
<path fill-rule="evenodd" clip-rule="evenodd" d="M691.325 241.732C699.15 240.389 705.741 246.175 706.733 252.843C707.973 261.173 702.303 267.467 695.509 268.533C678.134 271.26 672.847 244.905 691.325 241.732V241.732ZM693.274 299.125C694.637 298.08 714.113 267.344 715.496 263.612C721.757 246.707 708.762 231.185 693.268 231.361C678.145 231.531 664.514 246.612 671.107 263.548C672.744 267.751 684.299 285.373 687.532 290.449C689.06 292.847 691.399 297.283 693.274 299.125Z" fill="#E31E24"/>
<path fill-rule="evenodd" clip-rule="evenodd" d="M693.274 299.125C691.399 297.283 689.06 292.847 687.532 290.449C684.298 285.373 672.744 267.751 671.108 263.548C664.514 246.612 678.145 231.531 693.268 231.361C708.762 231.185 721.757 246.706 715.496 263.612C714.114 267.344 694.638 298.08 693.274 299.125ZM663.133 260.315C664.717 268.945 671.414 277.968 675.629 284.439C692.296 310.029 691.195 315.766 699.069 303.472L720.003 270.119C731.294 249.574 717.343 228.718 699.148 225.048C678.527 220.89 659.265 239.228 663.134 260.315H663.133Z" fill="#2B2A29"/>
<path fill-rule="evenodd" clip-rule="evenodd" d="M709.681 301.648C717.036 303.94 725.843 308.887 715.891 314.818C710.222 318.196 700.564 319.77 692.776 319.678C684.402 319.579 676.053 318.255 670.094 314.393C659.316 307.409 672.754 304.097 677.196 301.199L675.427 295.154C665.597 296.334 653.479 307.091 662.462 317.025C674.045 329.834 713.377 329.466 724.422 316.864C730.645 309.763 726.116 301.761 718.506 297.835C716.624 296.864 713.543 295.335 711.266 295.25C710.622 297.165 709.717 299.572 709.681 301.648V301.648Z" fill="#2B2A29"/>
<path fill-rule="evenodd" clip-rule="evenodd" d="M686.753 256.83C684.61 247.471 698.037 245.486 699.803 253.406C701.903 262.823 688.509 264.49 686.753 256.83ZM691.325 241.732C672.848 244.905 678.134 271.26 695.509 268.533C702.303 267.468 707.973 261.173 706.733 252.843C705.741 246.176 699.15 240.389 691.325 241.733V241.732Z" fill="#2B2A29"/>
<path fill-rule="evenodd" clip-rule="evenodd" d="M686.754 256.83C688.509 264.49 701.903 262.823 699.803 253.406C698.038 245.486 684.61 247.471 686.754 256.83Z" fill="#626363"/>
<path fill-rule="evenodd" clip-rule="evenodd" d="M693.141 360.932C700.966 359.588 707.557 365.375 708.549 372.042C709.789 380.372 704.119 386.666 697.325 387.732C679.95 390.459 674.664 364.104 693.141 360.931V360.932ZM695.09 418.324C696.454 417.28 715.93 386.544 717.312 382.811C723.574 365.906 710.578 350.385 695.084 350.56C679.961 350.731 666.331 365.812 672.924 382.748C674.56 386.951 686.115 404.573 689.348 409.648C690.876 412.046 693.215 416.482 695.09 418.324Z" fill="#E31E24"/>
<path fill-rule="evenodd" clip-rule="evenodd" d="M695.091 418.324C693.215 416.482 690.877 412.046 689.349 409.648C686.115 404.572 674.561 386.95 672.924 382.747C666.331 365.811 679.961 350.73 695.085 350.56C710.579 350.385 723.574 365.906 717.312 382.811C715.93 386.543 696.454 417.279 695.091 418.324ZM664.95 379.515C666.533 388.144 673.23 397.167 677.445 403.638C694.112 429.228 693.011 434.965 700.886 422.672L721.819 389.318C733.111 368.773 719.159 347.917 700.964 344.247C680.343 340.089 661.081 358.427 664.95 379.515H664.95Z" fill="#2B2A29"/>
<path fill-rule="evenodd" clip-rule="evenodd" d="M711.497 420.847C718.852 423.139 727.659 428.087 717.707 434.017C712.039 437.395 702.381 438.969 694.592 438.877C686.219 438.778 677.87 437.454 671.911 433.592C661.133 426.608 674.57 423.296 679.012 420.398L677.244 414.353C667.413 415.533 655.295 426.29 664.278 436.225C675.862 449.033 715.193 448.666 726.238 436.063C732.461 428.963 727.932 420.96 720.323 417.035C718.44 416.063 715.359 414.535 713.082 414.45C712.438 416.364 711.533 418.771 711.497 420.847V420.847Z" fill="#2B2A29"/>
<path fill-rule="evenodd" clip-rule="evenodd" d="M688.57 376.029C686.427 366.67 699.854 364.686 701.619 372.606C703.719 382.022 690.325 383.69 688.57 376.029ZM693.141 360.932C674.664 364.104 679.951 390.46 697.326 387.733C704.119 386.667 709.789 380.372 708.549 372.043C707.558 365.375 700.966 359.588 693.141 360.932V360.932Z" fill="#2B2A29"/>
<path fill-rule="evenodd" clip-rule="evenodd" d="M688.569 376.029C690.325 383.69 703.719 382.023 701.619 372.606C699.853 364.685 686.426 366.67 688.569 376.029Z" fill="#626363"/>
<path fill-rule="evenodd" clip-rule="evenodd" d="M941.3 168.393C949.125 167.05 955.716 172.836 956.708 179.504C957.948 187.834 952.278 194.128 945.484 195.194C928.109 197.921 922.823 171.565 941.3 168.393V168.393ZM943.249 225.786C944.612 224.741 964.089 194.005 965.471 190.273C971.732 173.367 958.737 157.846 943.243 158.022C928.12 158.192 914.489 173.273 921.083 190.209C922.719 194.412 934.274 212.034 937.507 217.11C939.035 219.508 941.374 223.944 943.249 225.786Z" fill="#E31E24"/>
<path fill-rule="evenodd" clip-rule="evenodd" d="M943.249 225.786C941.374 223.943 939.035 219.507 937.507 217.11C934.273 212.034 922.719 194.412 921.083 190.209C914.489 173.273 928.12 158.192 943.243 158.021C958.737 157.846 971.733 173.367 965.471 190.272C964.089 194.005 944.613 224.741 943.249 225.786ZM913.108 186.976C914.692 195.606 921.389 204.628 925.604 211.1C942.271 236.689 941.17 242.427 949.044 230.133L969.978 196.78C981.269 176.235 967.318 155.379 949.123 151.709C928.502 147.55 909.24 165.889 913.109 186.976H913.108Z" fill="#2B2A29"/>
<path fill-rule="evenodd" clip-rule="evenodd" d="M959.656 228.309C967.011 230.601 975.818 235.548 965.866 241.478C960.197 244.857 950.539 246.431 942.751 246.339C934.377 246.24 926.028 244.916 920.069 241.053C909.291 234.069 922.729 230.758 927.171 227.859L925.402 221.815C915.572 222.995 903.454 233.752 912.437 243.686C924.02 256.495 963.352 256.127 974.397 243.525C980.62 236.424 976.091 228.422 968.481 224.496C966.599 223.525 963.518 221.996 961.241 221.911C960.597 223.825 959.692 226.233 959.656 228.309V228.309Z" fill="#2B2A29"/>
<path fill-rule="evenodd" clip-rule="evenodd" d="M936.728 183.49C934.585 174.131 948.012 172.147 949.778 180.067C951.878 189.484 938.484 191.151 936.728 183.49ZM941.3 168.393C922.823 171.565 928.109 197.921 945.484 195.194C952.278 194.128 957.948 187.834 956.708 179.504C955.716 172.836 949.125 167.05 941.3 168.393V168.393Z" fill="#2B2A29"/>
<path fill-rule="evenodd" clip-rule="evenodd" d="M936.729 183.49C938.484 191.151 951.878 189.484 949.778 180.067C948.013 172.146 934.585 174.131 936.729 183.49Z" fill="#626363"/>
<path fill-rule="evenodd" clip-rule="evenodd" d="M859.618 362.298C867.443 360.955 874.034 366.741 875.026 373.408C876.266 381.738 870.596 388.033 863.802 389.099C846.427 391.825 841.14 365.47 859.618 362.297V362.298ZM861.567 419.69C862.93 418.646 882.406 387.91 883.789 384.177C890.05 367.272 877.055 351.751 861.561 351.926C846.438 352.097 832.807 367.178 839.4 384.114C841.037 388.317 852.591 405.939 855.825 411.015C857.353 413.412 859.691 417.848 861.567 419.69Z" fill="#E31E24"/>
<path fill-rule="evenodd" clip-rule="evenodd" d="M861.567 419.691C859.692 417.848 857.353 413.412 855.825 411.015C852.591 405.939 841.037 388.317 839.401 384.114C832.807 367.178 846.438 352.097 861.561 351.926C877.055 351.751 890.05 367.272 883.789 384.177C882.407 387.91 862.931 418.646 861.567 419.691ZM831.426 380.881C833.01 389.511 839.707 398.533 843.922 405.005C860.589 430.594 859.487 436.331 867.362 424.038L888.296 390.685C899.587 370.14 885.636 349.284 867.441 345.614C846.82 341.455 827.558 359.794 831.427 380.881H831.426Z" fill="#2B2A29"/>
<path fill-rule="evenodd" clip-rule="evenodd" d="M877.974 422.213C885.329 424.505 894.136 429.453 884.184 435.383C878.515 438.762 868.857 440.335 861.069 440.244C852.695 440.145 844.346 438.82 838.387 434.958C827.609 427.974 841.047 424.663 845.489 421.764L843.72 415.72C833.89 416.899 821.772 427.656 830.755 437.591C842.338 450.399 881.67 450.032 892.715 437.43C898.938 430.329 894.409 422.326 886.799 418.401C884.917 417.429 881.836 415.901 879.559 415.816C878.915 417.73 878.01 420.137 877.974 422.213V422.213Z" fill="#2B2A29"/>
<path fill-rule="evenodd" clip-rule="evenodd" d="M855.046 377.395C852.903 368.036 866.33 366.052 868.096 373.972C870.196 383.388 856.802 385.056 855.046 377.395ZM859.618 362.298C841.141 365.47 846.427 391.826 863.802 389.099C870.596 388.033 876.266 381.739 875.026 373.409C874.034 366.741 867.443 360.955 859.618 362.298V362.298Z" fill="#2B2A29"/>
<path fill-rule="evenodd" clip-rule="evenodd" d="M855.047 377.395C856.802 385.056 870.196 383.389 868.096 373.972C866.33 366.051 852.903 368.036 855.047 377.395Z" fill="#626363"/>
<path fill-rule="evenodd" clip-rule="evenodd" d="M291.769 219.147C296.662 219.148 302.556 218.236 302.135 222.856C301.782 226.734 296.751 225.879 292.433 225.875C287.338 225.871 277.589 224.588 277.272 233.494C277.169 236.39 278.618 238.658 280.076 239.874C282.118 241.579 284.169 241.755 287.457 241.755L322.612 241.752C325.823 241.75 328.03 242.489 329.309 240.124C329.401 237.217 327.887 237.196 325.267 237.207L288.121 237.203C285.019 237.204 281.609 237.167 281.877 233.539C282.194 229.25 289.05 230.433 295.085 230.423C300.976 230.41 308.142 229.18 306.597 220.968C306.13 218.484 304.404 216.44 302.498 215.471C299.922 214.16 296.08 214.593 292.764 214.584C290.137 214.577 284.663 213.664 284.141 216.306C283.384 220.141 288.829 219.147 291.77 219.147L291.769 219.147Z" fill="#2B2A29"/>
<path fill-rule="evenodd" clip-rule="evenodd" d="M286.463 201.617C285.592 201.222 285.842 201.285 285.11 200.351C283.047 197.716 278.385 192.455 277.652 189.919C275.839 183.642 280.876 178.333 286.464 178.385C291.966 178.436 296.706 183.553 295.074 189.691C294.35 192.416 292.425 194.201 291.069 195.98C290.228 197.083 289.549 197.832 288.694 198.905C287.958 199.829 287.409 200.705 286.463 201.617H286.463ZM283.645 174.142C274.263 176.427 270.686 185.335 273.823 192.743C274.926 195.347 278.519 199.481 280.236 201.579C287.132 210.005 285.311 210.858 295.066 198.32C297.228 195.541 299.815 192.868 299.912 187.724C300.069 179.397 292.476 171.991 283.645 174.142V174.142Z" fill="#2B2A29"/>
<path fill-rule="evenodd" clip-rule="evenodd" d="M326.925 224.224C324.852 222.231 318.968 214.527 318.337 212.28C316.643 206.252 321.663 201.125 326.943 201.004C332.625 200.874 337.472 206.312 335.806 212.48C335.126 214.999 328.013 223.769 326.925 224.225V224.224ZM323.906 196.868C319.768 197.863 316.912 200.394 315.177 203.502C313.258 206.941 312.945 212.39 314.879 216.027C316.559 219.187 319.295 222.019 321.439 224.712C327.608 232.464 326.15 233.541 336.151 220.5C338.275 217.73 340.822 215.04 340.741 209.961C340.611 201.782 333.078 194.662 323.907 196.868H323.906Z" fill="#2B2A29"/>
<path fill-rule="evenodd" clip-rule="evenodd" d="M326.078 205.729C332.268 204.18 333.652 213.395 328.142 214.485C322.433 215.614 319.981 207.255 326.078 205.729ZM326.924 224.224C328.013 223.769 335.125 214.999 335.805 212.479C337.472 206.311 332.625 200.874 326.942 201.004C321.663 201.124 316.643 206.251 318.337 212.279C318.967 214.526 324.852 222.231 326.924 224.224V224.224Z" fill="#E31E24"/>
<path fill-rule="evenodd" clip-rule="evenodd" d="M285.222 183.044C291.114 181.314 293.053 190.376 287.58 191.785C281.704 193.296 279.234 184.803 285.222 183.044ZM286.463 201.617C287.408 200.705 287.957 199.83 288.694 198.905C289.549 197.832 290.228 197.083 291.069 195.98C292.425 194.201 294.35 192.416 295.074 189.691C296.706 183.554 291.966 178.436 286.464 178.385C280.876 178.332 275.84 183.642 277.652 189.919C278.385 192.455 283.047 197.716 285.11 200.351C285.842 201.285 285.592 201.222 286.463 201.617H286.463Z" fill="#E31E24"/>
<path fill-rule="evenodd" clip-rule="evenodd" d="M285.222 183.044C279.234 184.803 281.704 193.296 287.58 191.785C293.053 190.376 291.114 181.314 285.222 183.044Z" fill="#2B2A29"/>
<path fill-rule="evenodd" clip-rule="evenodd" d="M326.078 205.729C319.98 207.255 322.433 215.614 328.143 214.485C333.653 213.395 332.268 204.18 326.078 205.729Z" fill="#2B2A29"/>
<path fill-rule="evenodd" clip-rule="evenodd" d="M822.287 290.562C827.181 290.563 833.074 289.651 832.654 294.271C832.301 298.15 827.268 297.294 822.951 297.29C817.856 297.285 808.107 296.002 807.79 304.909C807.687 307.805 809.136 310.073 810.594 311.289C812.636 312.994 814.687 313.17 817.976 313.17L853.131 313.167C856.34 313.165 858.549 313.904 859.827 311.539C859.919 308.632 858.406 308.612 855.785 308.621L818.639 308.618C815.537 308.62 812.128 308.582 812.396 304.953C812.712 300.665 819.569 301.848 825.604 301.837C831.495 301.825 838.661 300.595 837.115 292.383C836.648 289.899 834.923 287.855 833.016 286.886C830.441 285.575 826.599 286.008 823.283 285.999C820.655 285.992 815.181 285.08 814.659 287.722C813.902 291.556 819.347 290.562 822.288 290.562L822.287 290.562Z" fill="#2B2A29"/>
<path fill-rule="evenodd" clip-rule="evenodd" d="M816.981 273.031C816.11 272.637 816.36 272.7 815.628 271.766C813.565 269.131 808.903 263.87 808.17 261.334C806.357 255.057 811.394 249.747 816.982 249.8C822.484 249.851 827.224 254.968 825.592 261.106C824.868 263.831 822.943 265.616 821.587 267.395C820.746 268.498 820.067 269.247 819.212 270.32C818.476 271.244 817.927 272.12 816.981 273.031H816.981ZM814.163 245.557C804.781 247.842 801.204 256.75 804.341 264.158C805.444 266.762 809.037 270.896 810.755 272.994C817.65 281.42 815.829 282.273 825.584 269.735C827.746 266.956 830.333 264.283 830.43 259.139C830.587 250.812 822.994 243.406 814.163 245.557V245.557Z" fill="#2B2A29"/>
<path fill-rule="evenodd" clip-rule="evenodd" d="M857.443 295.639C855.37 293.646 849.486 285.941 848.855 283.695C847.161 277.666 852.181 272.54 857.461 272.419C863.143 272.289 867.99 277.727 866.324 283.895C865.644 286.414 858.532 295.184 857.443 295.639V295.639ZM854.424 268.283C850.286 269.278 847.43 271.809 845.695 274.917C843.776 278.356 843.463 283.805 845.397 287.442C847.077 290.602 849.813 293.434 851.957 296.127C858.126 303.879 856.668 304.956 866.669 291.915C868.793 289.145 871.34 286.455 871.26 281.376C871.129 273.197 863.596 266.077 854.425 268.283H854.424Z" fill="#2B2A29"/>
<path fill-rule="evenodd" clip-rule="evenodd" d="M856.597 277.144C862.787 275.595 864.171 284.81 858.661 285.9C852.951 287.029 850.499 278.67 856.597 277.144ZM857.443 295.639C858.531 295.184 865.644 286.414 866.324 283.894C867.99 277.726 863.143 272.289 857.461 272.419C852.181 272.539 847.161 277.666 848.855 283.694C849.486 285.941 855.37 293.645 857.443 295.639V295.639Z" fill="#E31E24"/>
<path fill-rule="evenodd" clip-rule="evenodd" d="M815.741 254.459C821.633 252.729 823.571 261.791 818.099 263.199C812.223 264.711 809.753 256.218 815.741 254.459ZM816.981 273.031C817.927 272.12 818.476 271.245 819.212 270.32C820.067 269.247 820.746 268.498 821.587 267.395C822.943 265.616 824.868 263.831 825.593 261.106C827.224 254.969 822.484 249.851 816.982 249.8C811.395 249.747 806.358 255.057 808.171 261.334C808.904 263.87 813.566 269.131 815.629 271.766C816.36 272.7 816.111 272.637 816.982 273.031H816.981Z" fill="#E31E24"/>
<path fill-rule="evenodd" clip-rule="evenodd" d="M815.741 254.459C809.753 256.218 812.223 264.711 818.099 263.199C823.571 261.791 821.632 252.729 815.741 254.459Z" fill="#2B2A29"/>
<path fill-rule="evenodd" clip-rule="evenodd" d="M856.596 277.144C850.498 278.67 852.951 287.029 858.661 285.9C864.171 284.81 862.786 275.595 856.596 277.144Z" fill="#2B2A29"/>
<path fill-rule="evenodd" clip-rule="evenodd" d="M155.893 273.648C151 273.65 145.106 272.737 145.526 277.357C145.879 281.236 150.912 280.38 155.229 280.376C160.324 280.371 170.073 279.089 170.39 287.996C170.493 290.892 169.044 293.159 167.586 294.375C165.544 296.08 163.493 296.256 160.204 296.256L125.049 296.253C121.84 296.251 119.631 296.99 118.353 294.625C118.261 291.718 119.775 291.698 122.395 291.707L159.541 291.704C162.643 291.706 166.052 291.668 165.785 288.039C165.468 283.751 158.612 284.935 152.577 284.924C146.685 284.912 139.52 283.681 141.065 275.469C141.532 272.985 143.258 270.941 145.164 269.972C147.74 268.661 151.582 269.094 154.898 269.085C157.525 269.078 162.999 268.166 163.521 270.808C164.278 274.642 158.834 273.648 155.893 273.648L155.893 273.648Z" fill="#2B2A29"/>
<path fill-rule="evenodd" clip-rule="evenodd" d="M161.199 256.118C162.07 255.724 161.82 255.787 162.552 254.852C164.615 252.218 169.277 246.957 170.01 244.42C171.823 238.144 166.786 232.834 161.199 232.886C155.697 232.937 150.957 238.055 152.588 244.192C153.313 246.917 155.238 248.703 156.594 250.482C157.434 251.585 158.114 252.334 158.969 253.406C159.705 254.331 160.254 255.207 161.2 256.118H161.199ZM164.018 228.643C173.399 230.928 176.976 239.836 173.839 247.245C172.736 249.848 169.143 253.982 167.426 256.081C160.53 264.507 162.351 265.36 152.596 252.821C150.435 250.043 147.847 247.37 147.751 242.225C147.593 233.898 155.186 226.493 164.018 228.643V228.643Z" fill="#2B2A29"/>
<path fill-rule="evenodd" clip-rule="evenodd" d="M120.737 278.726C122.81 276.732 128.694 269.028 129.325 266.781C131.019 260.753 125.999 255.626 120.719 255.506C115.037 255.376 110.19 260.813 111.856 266.981C112.536 269.501 119.649 278.271 120.737 278.726V278.726ZM123.756 251.369C127.894 252.365 130.75 254.895 132.485 258.004C134.404 261.443 134.717 266.891 132.783 270.529C131.103 273.689 128.367 276.52 126.223 279.213C120.054 286.966 121.512 288.043 111.511 275.001C109.387 272.232 106.84 269.541 106.921 264.462C107.051 256.284 114.584 249.164 123.755 251.369H123.756Z" fill="#2B2A29"/>
<path fill-rule="evenodd" clip-rule="evenodd" d="M121.584 260.23C115.393 258.681 114.009 267.896 119.519 268.986C125.229 270.115 127.681 261.756 121.584 260.23ZM120.737 278.725C119.649 278.27 112.536 269.5 111.856 266.981C110.19 260.812 115.037 255.375 120.719 255.505C125.999 255.625 131.019 260.752 129.325 266.781C128.694 269.027 122.81 276.732 120.737 278.725V278.725Z" fill="#E31E24"/>
<path fill-rule="evenodd" clip-rule="evenodd" d="M162.439 237.545C156.548 235.815 154.609 244.877 160.082 246.286C165.958 247.797 168.428 239.304 162.439 237.545ZM161.199 256.118C160.254 255.206 159.704 254.331 158.968 253.406C158.113 252.334 157.434 251.584 156.593 250.481C155.237 248.702 153.312 246.917 152.587 244.192C150.956 238.055 155.696 232.937 161.198 232.886C166.786 232.833 171.822 238.143 170.009 244.42C169.277 246.956 164.615 252.217 162.552 254.852C161.82 255.786 162.07 255.723 161.198 256.118H161.199Z" fill="#E31E24"/>
<path fill-rule="evenodd" clip-rule="evenodd" d="M162.439 237.545C168.427 239.304 165.957 247.797 160.081 246.286C154.609 244.877 156.548 235.815 162.439 237.545Z" fill="#2B2A29"/>
<path fill-rule="evenodd" clip-rule="evenodd" d="M121.584 260.23C127.681 261.756 125.229 270.115 119.519 268.986C114.009 267.896 115.393 258.681 121.584 260.23Z" fill="#2B2A29"/>
<path fill-rule="evenodd" clip-rule="evenodd" d="M456.006 362.85C451.113 362.851 445.219 361.939 445.639 366.558C445.992 370.438 451.025 369.582 455.342 369.577C460.437 369.573 470.186 368.29 470.503 377.197C470.606 380.093 469.157 382.361 467.699 383.577C465.657 385.282 463.606 385.458 460.317 385.458L425.162 385.455C421.953 385.453 419.744 386.192 418.466 383.826C418.374 380.92 419.888 380.9 422.508 380.909L459.654 380.906C462.756 380.907 466.165 380.87 465.898 377.241C465.581 372.953 458.725 374.136 452.69 374.125C446.798 374.113 439.633 372.883 441.178 364.671C441.646 362.187 443.371 360.143 445.277 359.173C447.853 357.862 451.695 358.296 455.011 358.287C457.638 358.28 463.112 357.368 463.634 360.009C464.391 363.844 458.947 362.849 456.006 362.849L456.006 362.85Z" fill="#2B2A29"/>
<path fill-rule="evenodd" clip-rule="evenodd" d="M461.312 345.32C462.183 344.925 461.934 344.988 462.665 344.054C464.728 341.419 469.39 336.158 470.123 333.622C471.936 327.345 466.899 322.036 461.312 322.088C455.81 322.139 451.07 327.256 452.701 333.394C453.426 336.119 455.351 337.904 456.707 339.683C457.547 340.786 458.227 341.536 459.082 342.608C459.818 343.532 460.367 344.408 461.313 345.32H461.312ZM464.131 317.845C473.512 320.13 477.089 329.038 473.953 336.447C472.849 339.05 469.256 343.184 467.539 345.282C460.643 353.708 462.464 354.561 452.709 342.023C450.548 339.244 447.96 336.571 447.864 331.427C447.706 323.1 455.299 315.694 464.131 317.845V317.845Z" fill="#2B2A29"/>
<path fill-rule="evenodd" clip-rule="evenodd" d="M420.851 367.927C422.923 365.934 428.807 358.23 429.438 355.983C431.132 349.955 426.113 344.828 420.833 344.707C415.151 344.577 410.303 350.015 411.97 356.183C412.65 358.702 419.762 367.472 420.851 367.928V367.927ZM423.87 340.571C428.007 341.566 430.864 344.097 432.598 347.205C434.517 350.644 434.831 356.093 432.897 359.73C431.216 362.891 428.48 365.722 426.337 368.415C420.168 376.167 421.625 377.244 411.624 364.203C409.501 361.433 406.954 358.743 407.034 353.664C407.165 345.486 414.698 338.366 423.869 340.571H423.87Z" fill="#2B2A29"/>
<path fill-rule="evenodd" clip-rule="evenodd" d="M421.697 349.432C415.507 347.883 414.123 357.098 419.633 358.188C425.343 359.317 427.795 350.958 421.697 349.432ZM420.851 367.927C419.762 367.472 412.65 358.702 411.97 356.183C410.303 350.014 415.151 344.577 420.833 344.707C426.112 344.827 431.132 349.954 429.438 355.983C428.808 358.229 422.924 365.934 420.851 367.927V367.927Z" fill="#E31E24"/>
<path fill-rule="evenodd" clip-rule="evenodd" d="M462.553 326.747C456.661 325.017 454.722 334.079 460.195 335.488C466.071 336.999 468.541 328.506 462.553 326.747ZM461.312 345.32C460.367 344.408 459.818 343.533 459.081 342.608C458.226 341.536 457.547 340.786 456.706 339.683C455.35 337.904 453.425 336.119 452.701 333.394C451.069 327.257 455.809 322.139 461.311 322.088C466.899 322.035 471.936 327.345 470.123 333.622C469.39 336.158 464.728 341.419 462.665 344.054C461.933 344.988 462.183 344.925 461.312 345.32H461.312Z" fill="#E31E24"/>
<path fill-rule="evenodd" clip-rule="evenodd" d="M462.552 326.747C468.541 328.506 466.071 336.999 460.195 335.488C454.722 334.079 456.661 325.017 462.552 326.747Z" fill="#2B2A29"/>
<path fill-rule="evenodd" clip-rule="evenodd" d="M421.697 349.432C427.795 350.958 425.343 359.317 419.633 358.188C414.123 357.098 415.507 347.883 421.697 349.432Z" fill="#2B2A29"/>
<path fill-rule="evenodd" clip-rule="evenodd" d="M536.268 475.647C541.161 475.649 547.054 474.737 546.634 479.356C546.282 483.235 541.249 482.379 536.932 482.375C531.837 482.371 522.088 481.088 521.77 489.995C521.667 492.891 523.117 495.158 524.574 496.374C526.617 498.08 528.668 498.255 531.956 498.255L567.112 498.253C570.321 498.25 572.529 498.989 573.808 496.624C573.899 493.718 572.386 493.697 569.765 493.706L532.62 493.703C529.518 493.705 526.108 493.667 526.376 490.039C526.693 485.751 533.549 486.934 539.584 486.923C545.476 486.911 552.641 485.68 551.095 477.468C550.628 474.985 548.903 472.941 546.996 471.971C544.421 470.66 540.579 471.093 537.263 471.084C534.636 471.077 529.161 470.165 528.64 472.807C527.883 476.641 533.327 475.647 536.268 475.647L536.268 475.647Z" fill="#2B2A29"/>
<path fill-rule="evenodd" clip-rule="evenodd" d="M530.962 458.117C530.091 457.723 530.34 457.786 529.609 456.852C527.546 454.217 522.884 448.956 522.151 446.419C520.338 440.143 525.375 434.833 530.962 434.885C536.464 434.936 541.204 440.054 539.573 446.191C538.848 448.916 536.923 450.702 535.567 452.481C534.727 453.584 534.047 454.333 533.192 455.406C532.456 456.33 531.907 457.206 530.961 458.117H530.962ZM528.143 430.642C518.762 432.927 515.185 441.836 518.321 449.244C519.425 451.847 523.018 455.981 524.735 458.08C531.631 466.506 529.81 467.359 539.565 454.821C541.726 452.042 544.314 449.369 544.41 444.224C544.568 435.897 536.975 428.492 528.143 430.643V430.642Z" fill="#2B2A29"/>
<path fill-rule="evenodd" clip-rule="evenodd" d="M571.423 480.725C569.351 478.732 563.467 471.027 562.836 468.78C561.142 462.752 566.161 457.625 571.441 457.505C577.124 457.375 581.971 462.812 580.304 468.98C579.624 471.5 572.512 480.27 571.423 480.725V480.725ZM568.405 453.369C564.267 454.364 561.41 456.894 559.676 460.003C557.757 463.442 557.444 468.89 559.377 472.528C561.058 475.688 563.794 478.52 565.937 481.213C572.106 488.965 570.649 490.042 580.65 477C582.774 474.231 585.32 471.541 585.24 466.462C585.109 458.283 577.576 451.163 568.405 453.369H568.405Z" fill="#2B2A29"/>
<path fill-rule="evenodd" clip-rule="evenodd" d="M570.577 462.229C576.767 460.681 578.151 469.896 572.641 470.985C566.932 472.115 564.48 463.756 570.577 462.229ZM571.423 480.725C572.512 480.269 579.624 471.5 580.304 468.98C581.971 462.812 577.124 457.374 571.441 457.504C566.162 457.625 561.142 462.752 562.836 468.78C563.466 471.027 569.351 478.731 571.423 480.724V480.725Z" fill="#E31E24"/>
<path fill-rule="evenodd" clip-rule="evenodd" d="M529.721 439.545C535.613 437.815 537.552 446.877 532.079 448.285C526.203 449.797 523.733 441.303 529.721 439.545ZM530.962 458.117C531.907 457.206 532.456 456.33 533.193 455.406C534.048 454.333 534.727 453.584 535.568 452.481C536.924 450.702 538.849 448.917 539.573 446.191C541.205 440.054 536.465 434.937 530.963 434.885C525.375 434.833 520.339 440.142 522.151 446.419C522.884 448.956 527.546 454.217 529.609 456.852C530.341 457.786 530.091 457.723 530.962 458.117H530.962Z" fill="#E31E24"/>
<path fill-rule="evenodd" clip-rule="evenodd" d="M529.721 439.545C523.733 441.303 526.203 449.797 532.079 448.285C537.552 446.877 535.613 437.815 529.721 439.545Z" fill="#2B2A29"/>
<path fill-rule="evenodd" clip-rule="evenodd" d="M570.577 462.229C564.479 463.756 566.932 472.115 572.642 470.985C578.152 469.896 576.767 460.681 570.577 462.229Z" fill="#2B2A29"/>
<path fill-rule="evenodd" clip-rule="evenodd" d="M599.594 272.283C604.487 272.285 610.38 271.372 609.961 275.992C609.608 279.871 604.575 279.015 600.258 279.011C595.163 279.006 585.414 277.724 585.096 286.631C584.994 289.527 586.443 291.794 587.9 293.01C589.943 294.715 591.994 294.891 595.283 294.891L630.438 294.888C633.647 294.886 635.855 295.625 637.134 293.26C637.225 290.353 635.712 290.333 633.092 290.342L595.946 290.339C592.844 290.341 589.434 290.303 589.702 286.674C590.019 282.386 596.875 283.57 602.91 283.558C608.802 283.547 615.967 282.316 614.421 274.104C613.954 271.62 612.229 269.576 610.323 268.607C607.747 267.296 603.905 267.729 600.589 267.72C597.962 267.713 592.488 266.801 591.966 269.443C591.209 273.277 596.653 272.283 599.594 272.283L599.594 272.283Z" fill="#2B2A29"/>
<path fill-rule="evenodd" clip-rule="evenodd" d="M594.288 254.753C593.417 254.358 593.667 254.421 592.935 253.487C590.872 250.852 586.21 245.591 585.477 243.055C583.664 236.778 588.701 231.469 594.288 231.521C599.79 231.572 604.53 236.689 602.899 242.827C602.174 245.552 600.249 247.337 598.893 249.116C598.053 250.219 597.373 250.968 596.519 252.041C595.782 252.965 595.233 253.841 594.287 254.753H594.288ZM591.469 227.278C582.088 229.563 578.511 238.471 581.648 245.879C582.751 248.483 586.344 252.617 588.061 254.715C594.957 263.141 593.136 263.994 602.891 251.456C605.052 248.677 607.64 246.004 607.736 240.86C607.894 232.533 600.301 225.127 591.469 227.278V227.278Z" fill="#2B2A29"/>
<path fill-rule="evenodd" clip-rule="evenodd" d="M634.749 277.36C632.677 275.367 626.793 267.663 626.162 265.416C624.468 259.388 629.488 254.261 634.767 254.14C640.45 254.01 645.297 259.448 643.631 265.616C642.95 268.135 635.838 276.905 634.749 277.361V277.36ZM631.731 250.004C627.593 250.999 624.736 253.53 623.002 256.638C621.083 260.077 620.77 265.526 622.704 269.163C624.384 272.324 627.12 275.155 629.263 277.848C635.432 285.6 633.975 286.677 643.976 273.636C646.1 270.866 648.646 268.176 648.566 263.097C648.435 254.919 640.903 247.798 631.731 250.004H631.731Z" fill="#2B2A29"/>
<path fill-rule="evenodd" clip-rule="evenodd" d="M633.903 258.865C640.093 257.316 641.478 266.531 635.968 267.621C630.258 268.75 627.806 260.391 633.903 258.865ZM634.749 277.36C635.838 276.905 642.95 268.135 643.631 265.616C645.297 259.447 640.45 254.01 634.767 254.14C629.488 254.26 624.468 259.387 626.162 265.415C626.792 267.662 632.677 275.367 634.749 277.36V277.36Z" fill="#E31E24"/>
<path fill-rule="evenodd" clip-rule="evenodd" d="M593.048 236.18C598.939 234.45 600.878 243.512 595.405 244.921C589.529 246.432 587.059 237.939 593.048 236.18ZM594.288 254.753C595.233 253.841 595.782 252.966 596.519 252.041C597.374 250.968 598.053 250.219 598.894 249.116C600.25 247.337 602.175 245.552 602.9 242.827C604.531 236.69 599.791 231.572 594.289 231.521C588.701 231.468 583.665 236.778 585.478 243.055C586.21 245.591 590.872 250.852 592.935 253.487C593.667 254.421 593.417 254.358 594.289 254.753H594.288Z" fill="#E31E24"/>
<path fill-rule="evenodd" clip-rule="evenodd" d="M593.048 236.18C587.059 237.939 589.529 246.432 595.405 244.921C600.878 243.512 598.939 234.45 593.048 236.18Z" fill="#2B2A29"/>
<path fill-rule="evenodd" clip-rule="evenodd" d="M633.903 258.865C627.805 260.391 630.258 268.75 635.967 267.621C641.477 266.531 640.093 257.316 633.903 258.865Z" fill="#2B2A29"/>
</svg>
