<svg width="2987" height="1630" viewBox="0 0 2987 1630" fill="none" xmlns="http://www.w3.org/2000/svg">
<path fill-rule="evenodd" clip-rule="evenodd" d="M2192.16 808.56C2313.7 900.479 2267.81 927.963 2381.36 862.567L2577.28 757.131C2580.59 796.3 2578.71 840.005 2578.7 879.723C2578.69 929.257 2586.94 974.255 2565.57 991.464C2540.68 1011.52 2181.01 1000.39 2148.4 1000.38C1564.77 1000.17 1619.28 1051.36 1626.4 842.215C1659.59 824.548 1747.86 804.914 1786.75 792.717C1823.57 781.184 1835.04 794.378 1857.79 813.958C1983.92 922.467 1970.03 917.221 2049.62 874.576C2079.84 858.382 2161.17 813.842 2192.16 808.56ZM1626.38 777.043C1621.35 721.168 1629.21 731.695 1726.51 682.61C1816.78 637.063 1815.28 623.285 1862.66 652.862C1887.56 668.4 1965.35 724.276 1995.14 714.854C2006.42 711.279 2093.46 644.365 2112.35 631.036C2133.92 615.821 2148.51 604.953 2170.63 588.939C2202.36 565.982 2199.24 573.464 2231.36 596.6C2316.01 657.586 2296.47 659.437 2467.32 523.597C2489.82 505.705 2554.59 451.707 2578.26 443.327L2578.66 617.196C2578.73 693.262 2584.65 687.244 2537.2 712.456C2500.41 732.009 2323.55 836.08 2310.93 835.272C2250.64 806.8 2233.44 718.078 2157.69 757.625C2114.6 780.115 2026.1 830.152 1985.89 841.891C1949.71 823.632 1859.99 735.099 1834.58 729.225C1794.5 719.956 1677.62 778.454 1626.38 777.043ZM1625.13 504.681C1625.14 476.883 1621.17 410.76 1625.72 387.497C1633.56 347.474 1678.8 358.71 1717.11 358.701L2373.43 358.683C2417.37 358.683 2535.26 348.651 2566.91 367.162C2556.82 392.374 2464.29 453.692 2437.52 475.006C2260.75 615.687 2327 585.104 2220.71 519.807C2182.5 496.337 2162.11 524.289 2133.41 545.71C2114.98 559.47 1993.53 652.215 1979.45 652.611C1938.83 653.742 1860.65 554.314 1800.23 581.466C1764.28 597.624 1655.36 665.059 1625.26 664.386L1625.13 504.681ZM1579.67 729.71L1579.69 954.729C1579.7 1024.31 1610.46 1046.41 1679.61 1046.4L2442.19 1046.38C2599.13 1046.36 2624.1 1061.76 2623.95 898.476L2624.04 410.921C2624.62 303.832 2569.49 312.077 2467.19 312.041L1685.86 311.96C1571.93 311.574 1579.65 362.016 1579.68 467.183C1579.7 554.683 1579.7 642.201 1579.67 729.71Z" fill="#383637"/>
<path fill-rule="evenodd" clip-rule="evenodd" d="M1405.28 1147.95L2794.06 1146.51C2793.32 1220.72 2754.96 1234.55 2686.18 1233.82L1710.86 1233.37C1646.3 1233.39 1581.58 1233.21 1517.04 1233.83C1446.2 1234.5 1399.67 1224.82 1405.28 1147.95ZM2678.85 1097.52L1530.06 1099.39C1521.84 947.615 1529.01 567.239 1529.42 392.167C1529.8 235.616 1513.23 259.328 1748.37 259.184L2630.1 259.363C2697.82 265.588 2678.97 331.217 2679.71 392.167C2681.63 553.443 2686.46 955.672 2678.85 1097.52ZM2844.04 1116.62L2823.3 1102.75C2822.19 1101.95 2820.31 1100.44 2818.8 1099.31L2725.56 1098.66C2727.57 847.505 2723.19 597.615 2725.92 348.408C2727.76 181.052 2632.09 213.745 2485.95 213.305L1729.61 213.26C1572.84 213.341 1482.49 184.662 1482.53 342.085C1482.57 468.234 1488.33 1023.64 1480.72 1098.7C1445.23 1101.03 1388.88 1089.72 1368.65 1113.09C1344.39 1140.29 1353.91 1235.17 1424.24 1266.31C1472.32 1287.58 1576.07 1278.29 1635.85 1278.65L2548.45 1278.73C2772.34 1278.72 2826.5 1303.34 2844.04 1116.62Z" fill="#3A3939"/>
<path fill-rule="evenodd" clip-rule="evenodd" d="M1579.67 729.71C1579.7 642.201 1579.7 554.683 1579.68 467.183C1579.65 362.016 1571.93 311.574 1685.86 311.96L2467.19 312.041C2569.49 312.077 2624.62 303.832 2624.04 410.921L2623.95 898.476C2624.1 1061.76 2599.13 1046.36 2442.19 1046.38L1679.61 1046.4C1610.46 1046.41 1579.7 1024.31 1579.69 954.729L1579.67 729.71ZM2678.85 1097.52C2686.46 955.672 2681.63 553.443 2679.71 392.167C2678.97 331.217 2697.82 265.588 2630.1 259.363L1748.37 259.184C1513.23 259.327 1529.8 235.616 1529.42 392.167C1529 567.239 1521.84 947.615 1530.06 1099.39L2678.85 1097.52Z" fill="#E31E24"/>
<path fill-rule="evenodd" clip-rule="evenodd" d="M1625.13 504.682L1625.26 664.386C1655.36 665.059 1764.28 597.624 1800.23 581.466C1860.65 554.315 1938.83 653.742 1979.45 652.611C1993.53 652.215 2114.98 559.47 2133.41 545.71C2162.11 524.289 2182.5 496.338 2220.71 519.807C2327.01 585.104 2260.75 615.687 2437.52 475.006C2464.29 453.692 2556.82 392.374 2566.92 367.162C2535.26 348.651 2417.37 358.684 2373.43 358.684L1717.11 358.701C1678.8 358.71 1633.56 347.474 1625.72 387.497C1621.18 410.76 1625.14 476.883 1625.13 504.682Z" fill="#626363"/>
<path fill-rule="evenodd" clip-rule="evenodd" d="M2192.16 808.56C2161.18 813.842 2079.85 858.382 2049.62 874.576C1970.04 917.221 1983.92 922.467 1857.79 813.958C1835.04 794.378 1823.57 781.184 1786.75 792.716C1747.86 804.914 1659.59 824.548 1626.4 842.215C1619.28 1051.36 1564.77 1000.17 2148.4 1000.38C2181.01 1000.39 2540.68 1011.52 2565.57 991.464C2586.94 974.255 2578.69 929.257 2578.7 879.722C2578.71 840.005 2580.6 796.3 2577.28 757.131L2381.36 862.567C2267.81 927.963 2313.7 900.479 2192.16 808.56Z" fill="#626363"/>
<path fill-rule="evenodd" clip-rule="evenodd" d="M1626.37 777.043C1677.62 778.453 1794.5 719.955 1834.58 729.225C1859.99 735.099 1949.71 823.632 1985.89 841.891C2026.1 830.152 2114.59 780.115 2157.69 757.625C2233.44 718.078 2250.64 806.8 2310.93 835.272C2323.55 836.08 2500.41 732.009 2537.2 712.456C2584.65 687.244 2578.73 693.262 2578.66 617.195L2578.26 443.327C2554.59 451.707 2489.82 505.705 2467.32 523.597C2296.47 659.437 2316.01 657.586 2231.36 596.6C2199.24 573.463 2202.36 565.982 2170.63 588.939C2148.51 604.953 2133.92 615.821 2112.35 631.036C2093.46 644.365 2006.42 711.279 1995.14 714.854C1965.35 724.276 1887.55 668.4 1862.66 652.862C1815.28 623.285 1816.78 637.063 1726.51 682.609C1629.21 731.695 1621.35 721.168 1626.37 777.043Z" fill="#E31E24"/>
<path fill-rule="evenodd" clip-rule="evenodd" d="M1631.33 1173.88L1627.69 1204.01C1605.56 1213.78 1568.86 1214.81 1542.13 1202.97L1541.16 1171.61C1557.96 1158.59 1611.47 1164.91 1631.33 1173.88ZM2635.85 1165.22C2669.64 1164.35 2689.54 1162.99 2682.97 1202.13C2654.15 1217.4 2626.75 1212.23 2596.66 1206.75C2589.03 1167.65 2593.7 1166.28 2635.85 1165.22ZM1673.36 1204.92C1655.38 1164.39 1690.75 1165.22 1723.36 1165.36C1739.6 1165.43 1749.73 1169.54 1760.12 1174.33C1760.68 1203.16 1758.56 1209.03 1729.97 1210.95C1710.72 1212.24 1688.24 1211.11 1673.36 1204.92ZM2686.18 1233.82C2754.96 1234.55 2793.32 1220.72 2794.06 1146.51L1405.28 1147.95C1399.67 1224.82 1446.2 1234.5 1517.04 1233.83C1581.58 1233.21 1646.3 1233.39 1710.86 1233.37L2686.18 1233.82Z" fill="#E31E24"/>
<path fill-rule="evenodd" clip-rule="evenodd" d="M2596.66 1206.75C2626.75 1212.23 2654.15 1217.4 2682.97 1202.13C2689.54 1162.99 2669.64 1164.35 2635.85 1165.22C2593.7 1166.28 2589.03 1167.65 2596.66 1206.75Z" fill="#393738"/>
<path fill-rule="evenodd" clip-rule="evenodd" d="M1541.16 1171.61L1542.13 1202.97C1568.86 1214.81 1605.56 1213.78 1627.69 1204.01L1631.32 1173.88C1611.47 1164.91 1557.96 1158.59 1541.16 1171.61Z" fill="#3B393A"/>
<path fill-rule="evenodd" clip-rule="evenodd" d="M1673.36 1204.92C1688.24 1211.11 1710.72 1212.24 1729.97 1210.95C1758.56 1209.03 1760.68 1203.16 1760.12 1174.33C1749.73 1169.54 1739.6 1165.43 1723.36 1165.36C1690.75 1165.22 1655.38 1164.39 1673.36 1204.92Z" fill="#383537"/>
<path fill-rule="evenodd" clip-rule="evenodd" d="M2844.04 1116.62L2840.84 1099.99L2818.8 1099.31C2820.31 1100.44 2822.19 1101.95 2823.3 1102.75L2844.04 1116.62Z" fill="#A3A3A5"/>
<path fill-rule="evenodd" clip-rule="evenodd" d="M2274.44 1278C2267.97 1288.74 2274.83 1279.36 2267.45 1286.58C2231.15 1322.05 2210.99 1316.17 2160.72 1316.44C2139.03 1316.57 2110.18 1320.32 2093.42 1310.58C2088.82 1307.89 2058.56 1284.72 2054.57 1278.69L2274.44 1278ZM147.812 1080.02C119.151 1047.03 143.294 896.437 154.072 848.583C159.865 822.895 168.245 820.389 195.199 819.482C240.063 817.955 361.442 815.27 392.303 826.946C403.243 865.585 395.186 909.479 393.246 948.145C391.333 985.958 400.234 1042.62 369.292 1053.51C349.227 1060.56 172.718 1082.97 147.812 1080.02ZM1801.87 1269.2C1810.45 1269.6 1818.85 1270.04 1827.05 1270.51L730.708 1279.06L1821.78 1279.8C1779.47 1317.33 1781.75 1315.53 1711.02 1315.43C1558.67 1315.19 733.726 1320.84 674.41 1314.49C658.854 1310.94 666.3 1320.05 662.007 1297.88L661.387 520.965C662.573 478.76 665.581 448.977 618.463 451.007C490.653 456.521 355.658 538.075 305.459 599.223C289.067 619.18 277.607 650.643 249.368 656.23C156.308 674.643 93.7416 618.821 58.7219 818.054C87.2029 820.066 107.026 820.542 131.124 827.736C137.716 864.202 114.974 960.782 110.537 1008.34C108.13 1034.28 109.208 1081.42 92.4393 1095.61C75.9309 1109.58 39.5998 1113.78 22.9746 1128.54C20.9447 1155.73 17.4598 1272.23 25.4086 1287.74C35.2167 1295.6 33.3036 1292.88 44.0188 1296.01C61.1559 1300.99 51.6443 1292.14 63.6798 1303.35C78.5984 1319.94 75.7153 1362.85 73.8112 1387.41C70.8203 1425.91 51.7431 1412.19 23.289 1432.05C20.6034 1466.88 47.8001 1519.35 96.6338 1521.01C136.989 1522.38 226.366 1525.31 261.556 1520.45C262.068 1519.16 262.544 1515.88 262.679 1516.46L264.987 1499.58C266.586 1448.49 257.038 1409.55 306.932 1354.52C336.033 1322.42 384.75 1284.74 451.798 1282.77C537.744 1280.25 615.293 1335.04 642.076 1413.03C655.36 1451.71 649.217 1472.1 650.663 1512.13C661.315 1506.33 651.04 1512.07 659.151 1504.71C660.094 1503.84 663.093 1500.86 664.189 1499.93C673.297 1492.18 658.63 1500.49 674.105 1492.38L676 1482.94C676.692 1465.94 697.997 1470.42 735.181 1470.34L1612.09 1470.4C1739.98 1470.06 1701.35 1484.7 1738.22 1485.44C1760.03 1425.16 1740.94 1399.53 1806.49 1334.22C1813.08 1327.64 1824.21 1320.95 1832.76 1315.08C1841.69 1308.95 1867.87 1293.51 1878.84 1293.08C1907.03 1292.01 1888 1289.06 1898.36 1299.67L1911.89 1293.19C1897.53 1285.27 1893.11 1288.97 1916.83 1283.43C1943.77 1277.14 1977.15 1286.54 2001.71 1294.1C2059.03 1311.72 2103.66 1361.39 2122.97 1415.91C2134.34 1448.04 2126.9 1494.07 2138.23 1521.86C2161.76 1521.48 2154.82 1519.44 2155.7 1493.74C2163.28 1521.69 2154.23 1494.78 2165.35 1507.23L2166.99 1492.32C2163.34 1487.24 2175.01 1484.39 2161.78 1487.74C2185.6 1483.99 2191.13 1492.64 2196.04 1468.15C2199.39 1451.46 2197.4 1442.25 2203.59 1421.07C2213.01 1388.83 2225.33 1373.38 2243.79 1353.26C2344.18 1243.84 2477.28 1275.98 2539.36 1350.5C2581.91 1401.6 2582 1438.31 2587.21 1519.08C2598.25 1523.51 2596.36 1524.79 2607.91 1523.67C2614.67 1496.08 2597.84 1447.57 2607.93 1415.69C2643.8 1395.18 2766.09 1404.51 2817.27 1404.61C2879.69 1404.72 2859.22 1409.55 2903.88 1383.59C2934.12 1365.99 2964.81 1375.57 2961.14 1333.32C2939.14 1327.43 2753.17 1330.56 2713.83 1330.6C2662.86 1330.66 2565.5 1341.34 2536.48 1317.51C2499.26 1286.97 2509.09 1299.7 2507.34 1284.03L2513.51 1280.68C2530.41 1274.93 2818.96 1278.3 2848.73 1278.29C2868.23 1278.29 2887.73 1278.15 2907.21 1278.3C2922.25 1278.41 2944.01 1281.3 2956.94 1273.63C2927.41 1265.86 2572.3 1270.51 2510.5 1270.45L1801.87 1269.2ZM2814.69 1267.46C2833.22 1267.69 2852.54 1267.8 2870.88 1267.63L2814.69 1267.46ZM2535.86 420.082C2451.2 419.966 2358.74 420.002 2263.48 420.172L2535.86 420.082Z" fill="#352F31"/>
<path fill-rule="evenodd" clip-rule="evenodd" d="M149.303 1069.75C160.485 1073.95 334.111 1050.79 361.236 1044.73C387.597 1038.83 379.639 1002.47 381.553 942.738C382.505 912.928 388.855 858.903 382.478 830.602L172.413 830.925C157.629 870.507 133.172 1031.91 149.303 1069.75Z" fill="#FEFEFE"/>
<path fill-rule="evenodd" clip-rule="evenodd" d="M674.106 1492.38C658.63 1500.49 673.297 1492.18 664.19 1499.93C663.094 1500.86 660.094 1503.84 659.151 1504.71C651.041 1512.07 661.316 1506.33 650.663 1512.13C649.217 1472.1 655.361 1451.71 642.077 1413.03C615.293 1335.04 537.745 1280.25 451.799 1282.77C384.75 1284.74 336.033 1322.42 306.933 1354.52C257.039 1409.55 266.587 1448.49 264.988 1499.58L262.68 1516.46C262.545 1515.88 262.069 1519.16 261.557 1520.45C226.367 1525.31 136.989 1522.38 96.6344 1521.01C47.8008 1519.35 20.6041 1466.88 23.2896 1432.05C51.7438 1412.19 70.821 1425.91 73.8119 1387.41C75.716 1362.85 78.5991 1319.94 63.6805 1303.35C51.645 1292.14 61.1566 1300.99 44.0195 1296.01C33.3043 1292.88 35.2174 1295.6 25.4093 1287.74C17.4605 1272.23 20.9454 1155.73 22.9753 1128.54C39.6005 1113.78 75.9316 1109.58 92.44 1095.61C109.209 1081.42 108.131 1034.28 110.538 1008.34C114.975 960.783 137.717 864.202 131.124 827.736C107.026 820.542 87.2036 820.066 58.7226 818.054C93.7423 618.821 156.309 674.643 249.369 656.23C277.607 650.643 289.068 619.18 305.46 599.223C355.659 538.075 490.654 456.521 618.464 451.007C665.582 448.977 662.573 478.76 661.388 520.965L662.007 1297.88C666.301 1320.05 658.855 1310.94 674.411 1314.49C669.301 1195 674.241 1063.7 674.241 942.864C674.241 818.701 674.33 694.528 674.241 570.374C674.205 504.87 693.075 432.217 613.713 438.504C494.633 447.935 343.407 516.6 278.452 617.204C274.589 623.168 272.434 627.489 269.946 631.18C262.671 641.931 267.503 636.749 259.132 644.132C197.203 654.236 133.576 639.353 95.1704 681.154C76.9465 700.986 42.9057 791.89 45.5374 827.835C59.01 830.943 69.1773 829.928 83.2337 829.883C141.597 829.694 121.271 837.733 105.356 955.663C99.8499 996.494 98.826 1046.8 91.6047 1086.26L11.0745 1117.89L12.4936 1304.64L62.0997 1306.01L60.2045 1405.19L10.6523 1417.15C11.1194 1472.99 36.5646 1530.32 91.8562 1533.25C152.492 1536.45 219.522 1531.99 280.481 1534.25C281.335 1505.32 257.03 1424.49 314.54 1362.24C406.423 1262.78 537.063 1279.51 601.749 1363.17C641.376 1414.42 645.095 1458.7 633.463 1533.6C663.876 1532.18 672.777 1522.37 674.106 1492.38Z" fill="#120D11"/>
<path fill-rule="evenodd" clip-rule="evenodd" d="M2005.94 1536.1C1995.02 1540.74 1999.21 1537.58 1994.97 1546.82C2002.36 1552.41 2008.13 1542.78 1990.89 1558.03C1977.43 1569.95 1950.63 1576.9 1931.13 1575.16C1905.89 1572.91 1875.8 1552.88 1866.08 1542.08C1831.97 1504.15 1830.07 1443.41 1871.06 1403C1906.48 1368.04 1962.45 1369.65 2007.66 1409.82C2066.75 1462.32 2013.65 1558.11 2005.94 1536.1ZM1896.59 1609.69L1905.92 1617.3C1906.99 1616.12 1908.63 1615.24 1909.88 1614.62C1937.13 1601.24 1931.66 1616.3 1965.85 1605.53C2128.28 1554.4 2081.53 1369.39 1966.66 1349.18C1806.87 1321.08 1751.64 1524.4 1871.34 1590.24C1900.37 1606.21 1925.51 1600.38 1896.59 1609.69Z" fill="#332D2F"/>
<path fill-rule="evenodd" clip-rule="evenodd" d="M439.35 1381.02C556.831 1350.1 603.482 1543.14 483.037 1572.23C426.668 1585.84 370.999 1543.16 362.574 1498.41C350.017 1431.86 391.181 1393.7 439.35 1381.02ZM328.353 1490.4C341.521 1652.01 593.009 1649.75 588.806 1468.55C584.926 1301.76 313.246 1305.1 328.353 1490.4Z" fill="#332D2F"/>
<path fill-rule="evenodd" clip-rule="evenodd" d="M2485.64 1503.85C2433.72 1636.82 2266.84 1565.11 2297.11 1447.75C2307.67 1406.83 2360.63 1368.9 2417.07 1382.39C2458.77 1392.36 2507.61 1447.59 2485.64 1503.85ZM2359.62 1350.96C2192.35 1392.74 2256.25 1648.25 2422.61 1603.29C2594.08 1556.95 2525.98 1309.41 2359.62 1350.96Z" fill="#342E2F"/>
<path fill-rule="evenodd" clip-rule="evenodd" d="M541.922 1499.37C556.544 1448.98 519.602 1403.62 481.627 1393.38C425.905 1378.35 385.684 1414.69 374.125 1453.02C341.099 1562.49 509.677 1610.41 541.922 1499.37Z" fill="#FEFEFE"/>
<path fill-rule="evenodd" clip-rule="evenodd" d="M2305.48 1490.4C2311.96 1533.25 2351.41 1568.86 2403.36 1562.65C2447.44 1557.36 2484.43 1515.54 2477.48 1463.32C2463.58 1358.76 2287.82 1373.69 2305.48 1490.4Z" fill="#FEFEFE"/>
<path fill-rule="evenodd" clip-rule="evenodd" d="M1994.97 1546.82C1999.21 1537.58 1995.02 1540.74 2005.94 1536.1C2007.68 1528.44 2051.48 1466.06 2001.49 1415.92C1973.05 1387.41 1913.58 1383.04 1879.62 1411.86C1848.61 1438.2 1844.16 1500.5 1873.71 1534.45C1920.69 1588.42 1979.89 1550.86 1994.97 1546.82Z" fill="#FEFEFE"/>
<path fill-rule="evenodd" clip-rule="evenodd" d="M2167 1492.32C2224.94 1508.08 2198.63 1481.68 2215.69 1424C2269.12 1243.46 2549.11 1253.25 2573.92 1454.92C2576.27 1473.92 2572.75 1505.17 2576.28 1520.51C2579.48 1534.46 2597.41 1549.14 2613.15 1533.91C2629.51 1518.09 2612.53 1445.49 2615.55 1419.71C2654.38 1410.08 2769.97 1415.53 2817.25 1415.56C2897.47 1415.62 2871.41 1421.04 2903.56 1396.99C2921.93 1383.26 2953.19 1377.55 2975.9 1369.81L2972.74 1321.68C2949.79 1313.58 2659.88 1317.34 2596.85 1317.92C2531.76 1318.54 2551.27 1308.62 2507.34 1284.03C2509.09 1299.7 2499.26 1286.97 2536.48 1317.51C2565.51 1341.34 2662.86 1330.66 2713.83 1330.6C2753.17 1330.56 2939.15 1327.43 2961.14 1333.32C2964.81 1375.57 2934.13 1365.99 2903.88 1383.59C2859.22 1409.55 2879.69 1404.72 2817.27 1404.61C2766.09 1404.51 2643.8 1395.18 2607.94 1415.69C2597.84 1447.57 2614.67 1496.08 2607.91 1523.67C2596.36 1524.79 2598.25 1523.51 2587.21 1519.08C2582.01 1438.31 2581.92 1401.6 2539.36 1350.5C2477.28 1275.98 2344.18 1243.84 2243.79 1353.26C2225.33 1373.38 2213.01 1388.83 2203.59 1421.07C2197.4 1442.25 2199.39 1451.46 2196.04 1468.15C2191.13 1492.64 2185.61 1483.99 2161.78 1487.74C2175.02 1484.39 2163.34 1487.24 2167 1492.32Z" fill="#151112"/>
<path fill-rule="evenodd" clip-rule="evenodd" d="M676 1482.94C945.443 1479.34 1227.8 1482.72 1499.66 1482.72L1700.99 1483.47C1727.16 1489.15 1710.92 1504.95 1748.53 1495.42C1767.88 1447.71 1749.76 1417 1792.84 1365.59C1818.54 1334.93 1848.62 1309.15 1898.36 1299.67C1888 1289.06 1907.03 1292.01 1878.84 1293.08C1867.87 1293.51 1841.68 1308.95 1832.76 1315.08C1824.21 1320.95 1813.08 1327.64 1806.49 1334.22C1740.94 1399.53 1760.03 1425.17 1738.22 1485.44C1701.35 1484.7 1739.98 1470.06 1612.08 1470.4L735.181 1470.34C697.996 1470.42 676.692 1465.94 676 1482.94Z" fill="#120D0E"/>
<path fill-rule="evenodd" clip-rule="evenodd" d="M2359.62 1350.96C2525.98 1309.41 2594.08 1556.95 2422.61 1603.29C2256.25 1648.25 2192.35 1392.74 2359.62 1350.96ZM2248.51 1485.91C2263.2 1675.27 2544.28 1656.17 2534.61 1467.84C2524.99 1280.34 2233.97 1298.39 2248.51 1485.91Z" fill="#151112"/>
<path fill-rule="evenodd" clip-rule="evenodd" d="M328.353 1490.4C313.246 1305.1 584.925 1301.77 588.806 1468.55C593.009 1649.75 341.521 1652.01 328.353 1490.4ZM597.823 1508.35C640.909 1331.58 365.116 1256.03 318.689 1442.61C272.792 1627.04 552.412 1694.66 597.823 1508.35Z" fill="#151112"/>
<path fill-rule="evenodd" clip-rule="evenodd" d="M149.302 1069.75C133.171 1031.91 157.629 870.507 172.412 830.925L382.477 830.602C388.854 858.903 382.504 912.928 381.552 942.738C379.639 1002.47 387.597 1038.83 361.235 1044.73C334.111 1050.79 160.485 1073.95 149.302 1069.75ZM147.812 1080.02C172.718 1082.97 349.227 1060.56 369.292 1053.51C400.234 1042.62 391.333 985.958 393.246 948.145C395.186 909.479 403.243 865.585 392.303 826.946C361.442 815.27 240.063 817.955 195.199 819.482C168.245 820.389 159.865 822.895 154.072 848.583C143.294 896.438 119.151 1047.03 147.812 1080.02Z" fill="#151112"/>
<path fill-rule="evenodd" clip-rule="evenodd" d="M1896.59 1609.69C1925.51 1600.38 1900.37 1606.21 1871.34 1590.24C1751.64 1524.4 1806.87 1321.08 1966.66 1349.18C2081.52 1369.39 2128.27 1554.4 1965.85 1605.53C1931.66 1616.3 1937.13 1601.24 1909.88 1614.62C1908.63 1615.24 1906.99 1616.12 1905.92 1617.3C2111.86 1644.15 2137.39 1378.97 1975.49 1338.51C1850.41 1307.24 1749.1 1440.05 1816.17 1551.48C1828.59 1572.11 1863.16 1610.27 1896.59 1609.69Z" fill="#120F10"/>
<path fill-rule="evenodd" clip-rule="evenodd" d="M2274.44 1278L2054.57 1278.69C2058.56 1284.72 2088.82 1307.89 2093.43 1310.59C2110.18 1320.32 2139.03 1316.57 2160.72 1316.44C2210.99 1316.17 2231.15 1322.05 2267.45 1286.58C2274.83 1279.36 2267.97 1288.74 2274.44 1278Z" fill="#FEFEFE"/>
<path fill-rule="evenodd" clip-rule="evenodd" d="M2305.48 1490.4C2287.82 1373.69 2463.58 1358.76 2477.49 1463.32C2484.43 1515.54 2447.44 1557.36 2403.36 1562.65C2351.41 1568.86 2311.96 1533.25 2305.48 1490.4ZM2485.64 1503.85C2507.61 1447.59 2458.77 1392.36 2417.07 1382.39C2360.63 1368.9 2307.67 1406.83 2297.11 1447.75C2266.84 1565.11 2433.72 1636.82 2485.64 1503.85Z" fill="#161215"/>
<path fill-rule="evenodd" clip-rule="evenodd" d="M1994.97 1546.82C1979.89 1550.86 1920.69 1588.42 1873.71 1534.45C1844.16 1500.5 1848.61 1438.2 1879.62 1411.86C1913.57 1383.04 1973.05 1387.41 2001.49 1415.92C2051.48 1466.06 2007.68 1528.44 2005.94 1536.1C2013.65 1558.11 2066.75 1462.32 2007.66 1409.82C1962.44 1369.65 1906.48 1368.04 1871.06 1403C1830.07 1443.41 1831.97 1504.15 1866.08 1542.08C1875.8 1552.88 1905.89 1572.91 1931.13 1575.16C1950.63 1576.9 1977.43 1569.95 1990.89 1558.03C2008.13 1542.78 2002.36 1552.41 1994.97 1546.82Z" fill="#161215"/>
<path fill-rule="evenodd" clip-rule="evenodd" d="M541.922 1499.37C509.678 1610.41 341.1 1562.49 374.126 1453.02C385.685 1414.69 425.905 1378.35 481.628 1393.38C519.603 1403.62 556.545 1448.98 541.922 1499.37ZM439.351 1381.02C391.182 1393.7 350.019 1431.86 362.575 1498.41C371 1543.16 426.669 1585.84 483.038 1572.23C603.483 1543.14 556.832 1350.1 439.351 1381.02Z" fill="#161215"/>
<path fill-rule="evenodd" clip-rule="evenodd" d="M1911.89 1293.19C1947.32 1300.7 1970.02 1289.9 2010.12 1308.5C2061.94 1332.55 2103.09 1375.47 2117.31 1434.97C2124.77 1466.23 2117.32 1508.52 2128.21 1535.54C2151.22 1541.32 2169.48 1537.04 2165.35 1507.23C2154.23 1494.78 2163.28 1521.69 2155.7 1493.74C2154.81 1519.44 2161.76 1521.48 2138.23 1521.86C2126.9 1494.07 2134.34 1448.04 2122.97 1415.91C2103.66 1361.39 2059.03 1311.72 2001.71 1294.1C1977.15 1286.54 1943.77 1277.14 1916.83 1283.43C1893.11 1288.98 1897.53 1285.27 1911.89 1293.19Z" fill="#151112"/>
<path fill-rule="evenodd" clip-rule="evenodd" d="M387.527 1049.49C324.654 1094.88 162.067 1060.03 105.985 1095.47C90.9588 1099.77 40.9486 1120.37 31.7064 1128.59C29.6765 1155.77 26.1826 1272.28 34.1404 1287.79C58.894 1318.08 37.6253 1423.4 38.1103 1423.92C-6.76239 1451.58 74.9893 1515.58 77.5581 1517.56L270.279 1521.85C286.94 1436.62 244.825 1487.64 306.673 1364.23C340.139 1297.46 384.536 1300.41 451.62 1278.77C526.752 1272.51 536.785 1280.16 567.709 1301.86C579.682 1310.26 618.24 1307.5 649.551 1289.66C650.539 1289.09 658.649 1282.24 656.772 1273.57L649.254 1258.63C638.162 1229.65 661.433 676.089 661.433 585.625C661.433 469.078 661.388 520.965 651.059 459.099C516.648 431.804 472.763 491.837 359.8 549.374C313.562 572.925 328.885 624.623 272.695 647.724C244.96 648.712 173.258 660.865 155.942 666.469L93.7072 705.082C77.8455 750.844 79.1838 763.625 72.69 808.255L160.926 821.997L401.035 826.982C409.684 857.484 407.026 1035.4 387.527 1049.49Z" fill="#E31E24" stroke="#2B2A29" stroke-width="2.3622" stroke-miterlimit="22.9256"/>
<path d="M2972.68 1278C2969.73 1280.16 2965.93 1282.01 2961.09 1283.47C2948.18 1290.45 2931.03 1289.76 2916.37 1289.18L2907.18 1288.89C2876.31 1288.86 2845.47 1288.85 2814.61 1288.65C2743.36 1288.12 2587.48 1286.94 2534.43 1289.18L2541.84 1295.26C2552.21 1304.02 2556.6 1307.71 2596.77 1307.34L2616.93 1307.14C2706.72 1306.21 2953.52 1303.65 2976.27 1311.67L2982.86 1314.02L2987 1377.23L2979.29 1379.85C2972.53 1382.16 2965.52 1384.18 2958.38 1386.22C2940.66 1391.3 2921.63 1396.76 2909.92 1405.5C2903.53 1410.28 2899.79 1413.59 2897 1416.05C2890.91 1421.44 2887.81 1424.17 2880.61 1425.71C2874.95 1426.93 2867.59 1426.8 2852.86 1426.53C2844.12 1426.39 2832.54 1426.15 2817.25 1426.15C2806.19 1426.14 2791.69 1425.85 2775.38 1425.52C2725.64 1424.52 2658.49 1423.16 2625.79 1428.47C2625.89 1436.75 2626.95 1447.83 2628.09 1459.55C2631.17 1491.48 2634.71 1527.82 2620.5 1541.55C2615.6 1546.28 2610.35 1549.06 2605.11 1550.27C2599.27 1551.6 2593.58 1551 2588.43 1549.05C2583.66 1547.24 2579.34 1544.21 2575.75 1540.51C2570.9 1535.54 2567.36 1529.16 2565.93 1522.89C2563.74 1513.38 2563.93 1499.57 2564.1 1485.63C2564.24 1475.08 2564.37 1464.37 2563.38 1456.21C2556.51 1400.29 2528.93 1360.1 2492.22 1335.57C2467.04 1318.75 2437.43 1309.18 2407.15 1306.89C2376.81 1304.59 2345.82 1309.61 2317.97 1321.88C2276.1 1340.35 2241.13 1375.42 2225.87 1426.98C2220.72 1444.4 2219.74 1459.11 2219.03 1470.32C2218.53 1477.91 2218.12 1484.16 2216.7 1489.42C2212.24 1505.63 2203.11 1511.15 2176.21 1505.5L2176.03 1507.19C2176.92 1514.52 2176.61 1520.75 2175.32 1525.91C2173.65 1532.6 2170.35 1537.71 2165.83 1541.42C2161.44 1545.03 2156.12 1547.12 2150.18 1547.95C2142.81 1548.96 2134.4 1548.04 2125.64 1545.84L2120.4 1544.54L2118.37 1539.49C2111.66 1522.85 2111.2 1502.25 2110.76 1481.46C2110.43 1466.07 2110.08 1450.51 2106.96 1437.43C2100.58 1410.45 2088.2 1387.07 2071.65 1367.54C2053.84 1346.51 2031.11 1329.93 2005.68 1318.13C1982.94 1307.59 1965.94 1307.31 1948.55 1307.03C1937.45 1306.85 1926.16 1306.67 1913.23 1304.28L1901.64 1309.85L1900.32 1310.09C1877.06 1314.52 1858.37 1322.78 1842.53 1333.49C1826.55 1344.29 1813.27 1357.77 1800.99 1372.4C1776.09 1402.13 1773.2 1424.62 1770.21 1448.11C1768.21 1464 1766.11 1480.33 1758.37 1499.41L1756.34 1504.39L1751.1 1505.72C1722.56 1512.94 1717.58 1507.68 1710.49 1500.16C1708.55 1498.11 1706.22 1495.64 1699.61 1494.06L1499.66 1493.31C1422.48 1493.35 1326.98 1492.96 1231.77 1492.6C1048.4 1491.87 863.773 1491.13 684.686 1493.62C683.779 1510.95 680.393 1522.74 672.291 1531.09C664.01 1539.63 651.948 1543.35 633.921 1544.19L621.015 1544.79L623 1531.98C628.649 1495.63 630.58 1466.82 626.359 1441.22C622.245 1416.2 612.024 1393.79 593.36 1369.65C587.612 1362.2 581.244 1355.28 574.4 1348.95C545.577 1322.32 508.258 1306.55 468.882 1304.66C429.398 1302.75 387.687 1314.82 350.189 1343.8C340.641 1351.17 331.309 1359.72 322.345 1369.42C279.458 1415.85 285.655 1474.8 289.409 1510.46C290.406 1520.02 291.26 1528.09 291.071 1534.54L290.757 1545.24L280.104 1544.84C251.785 1543.8 222.172 1544.21 192.541 1544.6C158.204 1545.07 123.768 1545.54 91.3083 1543.84C62.1805 1542.3 40.3549 1527.64 25.2836 1506.07C8.46079 1482.04 0.332324 1449.3 0.0628721 1417.24L0 1408.84L49.7767 1396.81L51.3036 1316.32L1.98496 1314.95L0.440105 1110.68L82.1918 1078.55C85.542 1057.98 87.4641 1034.16 89.3413 1010.6C90.8771 991.402 92.413 972.324 94.8471 954.253C98.7451 925.323 102.94 902.869 106.164 885.57C109.353 868.433 111.571 856.478 111.562 848.933C111.544 841.317 104.691 840.41 83.3594 840.473L75.4196 840.571C64.4439 840.76 55.1209 840.931 43.1662 838.182L35.5227 836.422L34.9479 828.581C33.6006 810.258 40.7142 779.747 50.5851 750.556C61.7224 717.629 76.7579 685.502 87.3653 673.969C117.104 641.617 158.285 639.919 202.745 638.123C219.756 637.432 237.297 636.713 254.497 634.126L256.662 632.285C259.788 626.186 265.778 617.618 269.533 611.483C301.427 562.057 353.215 520.22 411.839 488.981C476.202 454.68 549.062 432.953 612.877 427.915C667.917 423.568 683.078 451.267 686.186 490.553C687.345 505.185 686.59 521.567 685.818 538.372C685.333 549.105 684.83 560.072 684.83 570.374V942.864C684.875 979.177 684.309 1021.45 683.77 1064.04C682.728 1144.85 681.65 1227.03 684.623 1304.58C762.585 1308.39 1191.9 1306.68 1476.9 1305.56C1584.06 1305.14 1670.88 1304.77 1711.02 1304.84L1720.27 1304.86C1748.72 1304.94 1763.44 1304.98 1774.28 1301.5C1780.46 1299.5 1786.14 1296.03 1793.3 1290.36C1432.98 1290.12 1063.44 1298.5 704.284 1288.94L703.566 1279.39C703.53 1278.94 703.503 1278.47 703.467 1278H2972.68ZM1801.87 1269.2L1849.84 1269.22L1828.36 1288.16C1806.62 1307.41 1796.08 1316.75 1780.76 1321.67C1766.8 1326.17 1750.93 1326.12 1720.27 1326.04L1711.02 1326.02C1670.95 1325.96 1584.13 1326.31 1476.98 1326.73C1177 1327.92 717.407 1329.76 673.297 1325.04L664.217 1324.08L663.822 1314.91C660.382 1234.35 661.495 1148.33 662.591 1063.79C663.094 1024.49 663.615 985.536 663.615 942.864L663.66 570.374C663.642 559.192 664.154 548.207 664.648 537.456C665.375 521.477 666.094 505.903 665.007 492.215C662.87 465.162 652.433 446.094 614.539 449.094C553.409 453.917 483.567 474.754 421.809 507.672C366.185 537.321 317.208 576.733 287.379 622.935C285.565 625.719 284.056 628.306 282.736 630.578C281.478 632.761 280.374 634.656 278.748 637.081L275.065 642.821C274.284 644.123 273.835 644.859 272.955 645.919C271.958 647.105 271.176 647.769 269.497 649.189L263.811 654.111L260.829 654.587C241.474 657.748 222.208 658.539 203.571 659.302C163.719 660.919 126.777 662.437 102.976 688.34C94.2453 697.834 80.9972 726.854 70.6772 757.365C63.0428 779.972 57.1597 803.001 56.1538 818.889C62.45 819.617 68.4138 819.509 75.0783 819.392L83.2337 819.294C120.652 819.177 132.642 822.294 132.741 848.933C132.759 858.463 130.388 871.181 127.002 889.396C123.831 906.407 119.708 928.466 115.855 957.073C113.601 973.752 112.065 992.946 110.52 1012.27C108.436 1038.34 106.308 1064.73 102.023 1088.17L100.964 1093.98L21.7178 1125.11L23.0022 1294.34L72.8867 1295.72L70.6413 1413.58L21.5023 1425.44C22.9214 1450.75 29.7924 1475.61 42.6273 1493.96C54.1059 1510.36 70.5694 1521.51 92.3951 1522.66C124.577 1524.35 158.474 1523.88 192.281 1523.43C218.301 1523.07 244.294 1522.72 269.38 1523.32L268.32 1512.63C264.189 1473.39 257.353 1408.5 306.735 1355.05C316.462 1344.52 326.683 1335.18 337.237 1327.03C378.975 1294.76 425.608 1281.36 469.879 1283.48C514.285 1285.62 556.328 1303.37 588.77 1333.34C596.423 1340.41 603.599 1348.24 610.138 1356.7C631.074 1383.78 642.571 1409.19 647.286 1437.81C651.355 1462.48 650.295 1489.27 645.912 1521.56C651.041 1520.47 654.687 1518.79 657.085 1516.31C661.208 1512.07 662.977 1504.22 663.516 1491.93C663.813 1486.54 666.13 1478.09 667.271 1472.46L675.875 1472.35C857.674 1469.92 1045.42 1470.68 1231.81 1471.42C1316.29 1471.74 1399.95 1472.09 1499.66 1472.09L1702.78 1472.99C1716.92 1476.06 1721.85 1481.29 1725.95 1485.62C1727.74 1487.52 1729.08 1488.93 1740.61 1486.4C1745.87 1471.66 1747.56 1458.41 1749.21 1445.45C1752.6 1418.75 1755.88 1393.17 1784.71 1358.77C1798.11 1342.78 1812.74 1327.98 1830.64 1315.88C1848.38 1303.89 1869.22 1294.61 1895.06 1289.51L1910.59 1282.07L1914.09 1282.8C1926.8 1285.49 1937.94 1285.67 1948.89 1285.85C1968.6 1286.16 1987.87 1286.48 2014.57 1298.86C2042.76 1311.94 2068 1330.4 2087.86 1353.83C2106.43 1375.76 2120.33 1402.09 2127.61 1432.53C2131.2 1447.42 2131.57 1464.33 2131.94 1481.04C2132.27 1497.48 2132.65 1513.79 2136.29 1526.43C2140.43 1527.13 2144.16 1527.36 2147.26 1526.94C2149.43 1526.64 2151.19 1526.02 2152.37 1525.05C2153.39 1524.22 2154.2 1522.81 2154.72 1520.77C2155.46 1517.78 2155.54 1513.79 2154.84 1508.65L2154.65 1507.34L2157.82 1478.8L2169.78 1482.06C2189.79 1487.49 2195.22 1487.47 2196.22 1483.86C2197.09 1480.46 2197.44 1475.27 2197.85 1468.98C2198.65 1456.74 2199.7 1440.71 2205.53 1421.01C2222.74 1362.84 2262.17 1323.29 2309.42 1302.45C2340.5 1288.74 2375 1283.16 2408.73 1285.71C2442.51 1288.27 2475.67 1299.03 2504.03 1317.97C2545.59 1345.74 2576.77 1390.98 2584.47 1453.64C2585.59 1462.7 2585.43 1474.38 2585.27 1485.89C2585.12 1498.47 2584.96 1510.92 2586.61 1518.14C2587.21 1520.77 2588.78 1523.53 2590.93 1525.75C2592.37 1527.29 2594.08 1528.5 2595.91 1529.19C2597.35 1529.73 2598.88 1529.91 2600.36 1529.58C2602 1529.21 2603.85 1528.15 2605.81 1526.26C2612.62 1519.68 2609.62 1488.74 2606.99 1461.54C2605.35 1444.49 2603.82 1428.7 2605.01 1418.51L2605.87 1411.18L2613.03 1409.41C2644.19 1401.68 2720.5 1403.22 2775.8 1404.35C2792.12 1404.67 2806.63 1404.97 2817.25 1404.97C2832.91 1404.98 2844.46 1405.21 2853.2 1405.36C2866.11 1405.59 2872.56 1405.71 2876.12 1404.94C2878.04 1404.53 2879.7 1403.07 2882.96 1400.19C2886.32 1397.21 2890.81 1393.25 2897.2 1388.47C2912 1377.41 2933.02 1371.38 2952.57 1365.79L2964.76 1362.23L2962.68 1330.47C2918.82 1325.19 2700.1 1327.46 2617.11 1328.32L2596.94 1328.51C2548.85 1328.96 2542.71 1323.79 2528.12 1311.47C2522.51 1306.72 2515.32 1300.64 2502.19 1293.3L2485.39 1283.91C2491.68 1280.49 2512.16 1272.76 2519.02 1270.44L1801.87 1269.2ZM2237.92 1486.7C2232.36 1414.93 2268.59 1366.13 2318.01 1342.17C2337.72 1332.62 2359.57 1327.08 2381.6 1325.67C2403.63 1324.26 2426 1326.99 2446.82 1333.95C2499.09 1351.42 2541.51 1395.31 2545.2 1467.3C2548.9 1539.39 2512.7 1588.45 2463.92 1612.52C2444.46 1622.13 2422.95 1627.7 2401.24 1629.1C2379.55 1630.51 2357.53 1627.75 2337.02 1620.73C2285.63 1603.13 2243.53 1559.05 2237.92 1486.7ZM2327.24 1361.27C2285.15 1381.68 2254.32 1423.45 2259.1 1485.12C2263.95 1547.66 2299.94 1585.61 2343.83 1600.64C2361.69 1606.75 2380.91 1609.15 2399.9 1607.93C2418.86 1606.71 2437.61 1601.85 2454.54 1593.49C2496.27 1572.91 2527.22 1530.66 2524.02 1468.38C2520.85 1406.56 2484.68 1368.94 2440.1 1354.04C2421.95 1347.99 2402.34 1345.6 2382.94 1346.84C2363.58 1348.07 2344.44 1352.93 2327.24 1361.27ZM1978.06 1328.21C2038.75 1343.37 2075 1387.94 2087.05 1438.33C2092.37 1460.61 2092.94 1484.06 2088.78 1506.57C2084.6 1529.17 2075.63 1550.92 2061.95 1569.65C2031.86 1610.8 1979.2 1637.54 1904.55 1627.8L1901.55 1627.42L1892.71 1620.2C1877.56 1619.35 1862.74 1612.38 1849.61 1602.87C1830.69 1589.18 1814.86 1569.87 1807.08 1556.96C1783.9 1518.39 1779.49 1477.38 1788.66 1440.67C1793.62 1420.84 1802.57 1402.22 1814.67 1385.94C1826.78 1369.67 1842.04 1355.69 1859.58 1345.13C1892.73 1325.21 1934.07 1317.21 1978.06 1328.21ZM2066.44 1443.23C2056.12 1400.03 2025.01 1361.83 1972.92 1348.81C1934.77 1339.27 1899.06 1346.14 1870.54 1363.29C1855.35 1372.46 1842.13 1384.55 1831.71 1398.58C1821.27 1412.61 1813.55 1428.69 1809.26 1445.81C1801.38 1477.38 1805.21 1512.7 1825.24 1546.01C1831.96 1557.12 1845.66 1573.79 1862.07 1585.67C1873.07 1593.64 1885.1 1599.3 1896.43 1599.11L1900.28 1599.04L1910.24 1607.15C1974.44 1614.68 2019.36 1591.95 2044.83 1557.11C2056.62 1540.98 2064.34 1522.24 2067.94 1502.74C2071.58 1483.09 2071.08 1462.64 2066.44 1443.23ZM608.126 1510.84C590.531 1583.06 539.919 1619.76 484.816 1627.82C463.592 1630.93 441.641 1629.72 420.713 1624.61C399.741 1619.48 379.73 1610.45 362.431 1597.93C317.971 1565.77 290.783 1510.85 308.388 1440.07C326.189 1368.54 375.661 1332.83 429.785 1325.18C450.865 1322.2 472.646 1323.53 493.456 1328.69C514.267 1333.87 534.215 1342.91 551.586 1355.3C596.719 1387.47 624.886 1442.08 608.126 1510.84ZM481.735 1606.82C528.925 1599.91 572.325 1568.25 587.531 1505.87C601.902 1446.87 577.875 1400.09 539.29 1372.59C524.102 1361.75 506.632 1353.83 488.391 1349.3C470.14 1344.76 451.08 1343.59 432.695 1346.19C386.592 1352.7 344.342 1383.44 328.992 1445.14C313.813 1506.15 336.95 1553.29 374.897 1580.73C390.005 1591.67 407.447 1599.55 425.689 1604.01C443.985 1608.47 463.179 1609.52 481.735 1606.82Z" fill="#2B2A29"/>
</svg>
