<svg width="2987" height="1630" viewBox="0 0 2987 1630" fill="none" xmlns="http://www.w3.org/2000/svg">
<g clip-path="url(#clip0_209_233)">
<path fill-rule="evenodd" clip-rule="evenodd" d="M1539.53 699.455C1579.87 680.457 1568.15 798.49 1555.83 805.269C1520.96 824.457 1525.29 753.071 1526.86 724.994C1528.32 698.59 1524.68 706.46 1539.53 699.455ZM1340.12 1164.43L1620.94 1162.89L1619.69 338.85L1339.64 340.187L1340.12 1164.43Z" fill="#E31E24"/>
<path fill-rule="evenodd" clip-rule="evenodd" d="M1748.68 698.135C1780.7 819.671 1694.39 870.04 1717.32 699.746L1748.68 698.135ZM1658.99 1164.44L1940.06 1162.71L1938.2 338.968L1658.81 339.614L1658.99 1164.44Z" fill="#E31E24"/>
<path fill-rule="evenodd" clip-rule="evenodd" d="M1658.81 339.614L1938.2 338.968L1940.06 1162.71L1658.99 1164.44L1658.81 339.614ZM1339.64 340.187L1619.69 338.85L1620.94 1162.89L1340.12 1164.43L1339.64 340.187ZM1899.36 1261.41L1901.52 1200.65L1968.3 1195.61C1973.36 1192.19 1977.91 1209.06 1978.37 1153.49L1978.43 328.605C1976.17 308.034 1971.82 309.216 1970.2 307.833C1953.53 293.467 1483.39 300.937 1390.36 300.973C1370.92 300.973 1318.17 297.216 1308.53 308.207C1296.94 321.408 1296.49 1177.34 1309.77 1199.14L1376.83 1204.6C1379.24 1232.2 1373.51 1250.72 1382.7 1272.57C1428.33 1282.92 1415.09 1242.3 1415.73 1204.13L1864.63 1202.2C1866.46 1242.32 1850.47 1278.63 1894.52 1274.34L1899.36 1261.41Z" fill="#342E2F"/>
<path fill-rule="evenodd" clip-rule="evenodd" d="M1748.68 698.135L1717.32 699.746C1694.39 870.04 1780.7 819.671 1748.68 698.135Z" fill="#49494D"/>
<path fill-rule="evenodd" clip-rule="evenodd" d="M1539.53 699.454C1524.68 706.46 1528.32 698.59 1526.86 724.993C1525.29 753.071 1520.96 824.457 1555.83 805.268C1568.15 798.49 1579.87 680.457 1539.53 699.454Z" fill="#45434A"/>
<path fill-rule="evenodd" clip-rule="evenodd" d="M1899.36 1261.41C1904.9 1249.61 1903.59 1251.9 1904.7 1235.04C1905.4 1224.4 1905.41 1215.1 1905.42 1204.5C1932.49 1204.46 1958.23 1209.51 1968.3 1195.61L1901.52 1200.65L1899.36 1261.41Z" fill="#8B9399"/>
<path fill-rule="evenodd" clip-rule="evenodd" d="M2274.38 1278.36C2267.91 1289.09 2274.77 1279.72 2267.39 1286.93C2231.12 1322.37 2210.96 1316.51 2160.71 1316.78C2139.03 1316.91 2110.19 1320.65 2093.45 1310.92C2088.84 1308.24 2058.6 1285.07 2054.62 1279.05L2274.38 1278.36ZM148.749 1080.48C120.098 1047.49 144.227 896.971 155.009 849.141C160.795 823.456 169.166 820.963 196.106 820.053C240.952 818.525 362.278 815.841 393.122 827.505C404.058 866.136 396.006 910.009 394.059 948.659C392.148 986.453 401.056 1043.09 370.121 1053.97C350.068 1061.01 173.642 1083.41 148.749 1080.48ZM1802.03 1269.56C1810.61 1269.96 1819 1270.4 1827.21 1270.88L731.363 1279.42L1821.94 1280.15C1779.64 1317.67 1781.91 1315.88 1711.22 1315.77C1558.95 1315.53 734.383 1321.17 675.098 1314.83C659.54 1311.27 666.992 1320.39 662.697 1298.24L662.088 521.681C663.261 479.492 666.273 449.713 619.18 451.751C491.43 457.265 356.501 538.777 306.323 599.9C289.937 619.844 278.482 651.297 250.259 656.874C157.238 675.28 94.7045 619.48 59.7031 818.625C88.1628 820.636 107.97 821.109 132.062 828.305C138.65 864.754 115.922 961.287 111.491 1008.83C109.08 1034.75 110.163 1081.87 93.3944 1096.05C76.8899 1110.02 40.5783 1114.21 23.9647 1128.97C21.9358 1156.15 18.4511 1272.6 26.394 1288.1C36.202 1295.95 34.2914 1293.23 45.0002 1296.35C62.1324 1301.34 52.6246 1292.49 64.6526 1303.69C79.5557 1320.28 76.6807 1363.17 74.7791 1387.71C71.7948 1426.2 52.7156 1412.48 24.2832 1432.34C21.5901 1467.15 48.776 1519.59 97.5887 1521.26C137.931 1522.63 227.259 1525.55 262.433 1520.69C262.942 1519.41 263.425 1516.12 263.561 1516.71L265.863 1499.84C267.464 1448.77 257.92 1409.85 307.788 1354.84C336.885 1322.76 385.57 1285.1 452.589 1283.12C538.496 1280.6 616.005 1335.38 642.772 1413.33C656.056 1452 649.914 1472.37 651.361 1512.38C662.006 1506.58 651.734 1512.32 659.84 1504.96C660.787 1504.1 663.78 1501.12 664.881 1500.18C673.988 1492.44 659.322 1500.74 674.789 1492.64L676.682 1483.2C677.373 1466.21 698.672 1470.69 735.839 1470.61L1612.34 1470.67C1740.18 1470.32 1701.57 1484.97 1738.41 1485.7C1760.21 1425.45 1741.13 1399.83 1806.64 1334.55C1813.23 1327.98 1824.36 1321.28 1832.9 1315.43C1841.83 1309.3 1868 1293.86 1878.97 1293.43C1907.14 1292.36 1888.13 1289.42 1898.47 1300.02L1911.99 1293.54C1897.65 1285.63 1893.23 1289.33 1916.94 1283.79C1943.87 1277.49 1977.23 1286.9 2001.79 1294.45C2059.08 1312.06 2103.69 1361.71 2122.99 1416.21C2134.35 1448.32 2126.91 1494.33 2138.23 1522.11C2161.75 1521.73 2154.81 1519.68 2155.69 1494C2163.28 1521.94 2154.23 1495.04 2165.34 1507.49L2166.98 1492.58C2163.34 1487.5 2175 1484.65 2161.77 1488C2185.58 1484.24 2191.11 1492.9 2196.02 1468.42C2199.37 1451.74 2197.38 1442.53 2203.56 1421.36C2212.98 1389.14 2225.3 1373.69 2243.74 1353.57C2344.08 1244.21 2477.12 1276.34 2539.18 1350.82C2581.72 1401.89 2581.8 1438.6 2587.01 1519.33C2598.05 1523.76 2596.15 1525.03 2607.7 1523.91C2614.45 1496.33 2597.63 1447.84 2607.72 1415.99C2643.57 1395.49 2765.8 1404.81 2816.95 1404.9C2879.34 1405.01 2858.89 1409.85 2903.52 1383.89C2933.76 1366.31 2964.43 1375.88 2960.76 1333.66C2938.77 1327.77 2752.89 1330.89 2713.56 1330.94C2662.62 1331 2565.31 1341.66 2536.3 1317.85C2499.09 1287.32 2508.93 1300.04 2507.17 1284.39L2513.33 1281.04C2530.23 1275.28 2818.65 1278.65 2848.41 1278.64C2867.9 1278.64 2887.38 1278.51 2906.86 1278.67C2921.89 1278.77 2943.64 1281.65 2956.56 1273.99C2927.04 1266.22 2572.11 1270.88 2510.33 1270.81L1802.03 1269.56ZM2814.39 1267.82C2832.9 1268.05 2852.21 1268.17 2870.54 1267.98L2814.39 1267.82Z" fill="#352F31"/>
<path fill-rule="evenodd" clip-rule="evenodd" d="M150.231 1070.19C161.413 1074.41 334.955 1051.25 362.069 1045.19C388.417 1039.3 380.456 1002.96 382.376 943.245C383.331 913.448 389.673 859.449 383.295 831.162L173.332 831.49C158.556 871.059 134.109 1032.38 150.231 1070.19Z" fill="#FEFEFE"/>
<path fill-rule="evenodd" clip-rule="evenodd" d="M674.788 1492.64C659.321 1500.74 673.987 1492.44 664.88 1500.18C663.779 1501.12 660.786 1504.1 659.839 1504.96C651.733 1512.32 662.005 1506.58 651.36 1512.38C649.913 1472.37 656.055 1452 642.771 1413.33C616.004 1335.38 538.495 1280.6 452.588 1283.12C385.569 1285.1 336.884 1322.76 307.787 1354.84C257.919 1409.85 267.463 1448.77 265.862 1499.84L263.56 1516.71C263.424 1516.12 262.941 1519.41 262.432 1520.69C227.258 1525.55 137.93 1522.63 97.5877 1521.26C48.775 1519.59 21.589 1467.15 24.2822 1432.34C52.7146 1412.48 71.7938 1426.2 74.7781 1387.71C76.6797 1363.17 79.5547 1320.28 64.6516 1303.69C52.6236 1292.49 62.1314 1301.34 44.9991 1296.35C34.2904 1293.23 36.201 1295.95 26.393 1288.1C18.4501 1272.6 21.9348 1156.15 23.9637 1128.97C40.5773 1114.21 76.8889 1110.02 93.3934 1096.05C110.162 1081.87 109.079 1034.75 111.49 1008.83C115.921 961.287 138.649 864.754 132.061 828.306C107.969 821.109 88.1618 820.636 59.7021 818.625C94.7035 619.48 157.237 675.28 250.258 656.874C278.481 651.297 289.936 619.844 306.322 599.9C356.5 538.777 491.429 457.265 619.179 451.752C666.272 449.714 663.26 479.492 662.087 521.682L662.696 1298.24C666.991 1320.39 659.539 1311.27 675.097 1314.83C669.984 1195.4 674.934 1064.16 674.934 943.373C674.934 819.271 675.016 695.16 674.934 571.058C674.888 505.587 693.749 432.973 614.42 439.25C495.405 448.676 344.244 517.314 279.318 617.87C275.461 623.829 273.304 628.151 270.821 631.836C263.551 642.581 268.373 637.404 260.012 644.782C198.116 654.891 134.518 640.015 96.1229 681.795C77.9079 701.611 43.8891 792.476 46.5095 828.397C59.9842 831.508 70.147 830.498 84.1949 830.453C142.525 830.262 122.208 838.296 106.304 956.174C100.799 996.98 99.7804 1047.27 92.5654 1086.7L12.0722 1118.33L13.4824 1304.99L63.0685 1306.35L61.176 1405.49L11.6445 1417.45C12.1176 1473.26 37.5385 1530.56 92.8111 1533.48C153.424 1536.69 220.416 1532.24 281.347 1534.48C282.203 1505.57 257.91 1424.79 315.393 1362.55C407.232 1263.13 537.812 1279.87 602.474 1363.49C642.07 1414.72 645.792 1458.98 634.164 1533.84C664.571 1532.43 673.46 1522.6 674.788 1492.64Z" fill="#120D11"/>
<path fill-rule="evenodd" clip-rule="evenodd" d="M2006.02 1536.33C1995.09 1540.98 1999.28 1537.81 1995.04 1547.06C2002.43 1552.64 2008.19 1543.02 1990.97 1558.26C1977.5 1570.17 1950.73 1577.12 1931.23 1575.37C1906 1573.13 1875.93 1553.1 1866.21 1542.32C1832.12 1504.41 1830.23 1443.68 1871.19 1403.29C1906.6 1368.36 1962.53 1369.96 2007.73 1410.11C2066.79 1462.59 2013.71 1558.34 2006.02 1536.33ZM1896.71 1609.9L1906.04 1617.5C1907.11 1616.32 1908.74 1615.43 1909.99 1614.82C1937.23 1601.45 1931.76 1616.5 1965.93 1605.73C2128.29 1554.64 2081.55 1369.7 1966.74 1349.51C1807.03 1321.42 1751.83 1524.64 1871.48 1590.46C1900.49 1606.42 1925.61 1600.59 1896.71 1609.9Z" fill="#332D2F"/>
<path fill-rule="evenodd" clip-rule="evenodd" d="M440.142 1381.33C557.575 1350.43 604.204 1543.37 483.805 1572.45C427.468 1586.05 371.831 1543.39 363.406 1498.66C350.851 1432.15 392.003 1394.01 440.142 1381.33ZM329.196 1490.66C342.362 1652.19 593.741 1649.94 589.528 1468.81C585.652 1302.11 314.102 1305.44 329.196 1490.66Z" fill="#332D2F"/>
<path fill-rule="evenodd" clip-rule="evenodd" d="M2485.48 1504.11C2433.58 1637 2266.77 1565.34 2297.04 1448.03C2307.59 1407.13 2360.53 1369.22 2416.94 1382.71C2458.62 1392.67 2507.44 1447.87 2485.48 1504.11ZM2359.52 1351.28C2192.33 1393.04 2256.19 1648.44 2422.48 1603.5C2593.87 1557.18 2525.8 1309.75 2359.52 1351.28Z" fill="#342E2F"/>
<path fill-rule="evenodd" clip-rule="evenodd" d="M542.672 1499.62C557.293 1449.26 520.363 1403.91 482.404 1393.68C426.704 1378.67 386.508 1414.99 374.953 1453.29C341.944 1562.71 510.437 1610.61 542.672 1499.62Z" fill="#FEFEFE"/>
<path fill-rule="evenodd" clip-rule="evenodd" d="M2305.41 1490.66C2311.88 1533.48 2351.31 1569.09 2403.24 1562.87C2447.3 1557.59 2484.27 1515.79 2477.34 1463.59C2463.44 1359.08 2287.76 1374 2305.41 1490.66Z" fill="#FEFEFE"/>
<path fill-rule="evenodd" clip-rule="evenodd" d="M1995.03 1547.06C1999.27 1537.81 1995.09 1540.98 2006.02 1536.33C2007.74 1528.67 2051.53 1466.33 2001.56 1416.21C1973.13 1387.71 1913.69 1383.35 1879.75 1412.16C1848.74 1438.48 1844.3 1500.76 1873.83 1534.68C1920.79 1588.63 1979.97 1551.08 1995.03 1547.06Z" fill="#FEFEFE"/>
<path fill-rule="evenodd" clip-rule="evenodd" d="M2166.98 1492.58C2224.9 1508.33 2198.6 1481.94 2215.67 1424.28C2269.06 1243.84 2548.93 1253.62 2573.73 1455.19C2576.07 1474.18 2572.54 1505.42 2576.07 1520.75C2579.28 1534.7 2597.2 1549.37 2612.93 1534.15C2629.29 1518.33 2612.3 1445.77 2615.33 1420C2654.14 1410.37 2769.68 1415.82 2816.94 1415.86C2897.12 1415.91 2871.06 1421.33 2903.21 1397.29C2921.57 1383.56 2952.82 1377.87 2975.51 1370.12L2972.35 1322.02C2949.41 1313.92 2659.63 1317.68 2596.65 1318.26C2531.58 1318.88 2551.08 1308.95 2507.17 1284.39C2508.93 1300.04 2499.09 1287.32 2536.3 1317.85C2565.31 1341.66 2662.62 1331 2713.56 1330.94C2752.89 1330.89 2938.77 1327.77 2960.76 1333.66C2964.43 1375.88 2933.76 1366.31 2903.52 1383.89C2858.89 1409.85 2879.34 1405.01 2816.95 1404.9C2765.8 1404.81 2643.57 1395.49 2607.72 1415.99C2597.63 1447.84 2614.45 1496.33 2607.7 1523.91C2596.15 1525.03 2598.05 1523.76 2587.01 1519.33C2581.8 1438.6 2581.72 1401.89 2539.18 1350.82C2477.12 1276.34 2344.08 1244.21 2243.74 1353.57C2225.3 1373.69 2212.98 1389.14 2203.56 1421.36C2197.38 1442.53 2199.37 1451.74 2196.02 1468.42C2191.11 1492.9 2185.58 1484.24 2161.77 1488C2175 1484.65 2163.34 1487.5 2166.98 1492.58Z" fill="#151112"/>
<path fill-rule="evenodd" clip-rule="evenodd" d="M676.682 1483.2C946.002 1479.6 1228.23 1482.98 1499.97 1482.98L1701.2 1483.73C1727.35 1489.41 1711.13 1505.2 1748.71 1495.68C1768.06 1447.99 1749.94 1417.29 1793.01 1365.9C1818.7 1335.27 1848.76 1309.49 1898.47 1300.02C1888.13 1289.42 1907.14 1292.36 1878.97 1293.43C1868 1293.86 1841.83 1309.3 1832.9 1315.43C1824.36 1321.28 1813.23 1327.98 1806.64 1334.55C1741.13 1399.83 1760.21 1425.45 1738.41 1485.7C1701.57 1484.97 1740.18 1470.32 1612.34 1470.67L735.839 1470.61C698.672 1470.69 677.373 1466.21 676.682 1483.2Z" fill="#120D0E"/>
<path fill-rule="evenodd" clip-rule="evenodd" d="M2359.52 1351.28C2525.8 1309.75 2593.87 1557.18 2422.48 1603.5C2256.19 1648.44 2192.33 1393.04 2359.52 1351.28ZM2248.47 1486.17C2263.14 1675.45 2544.1 1656.35 2534.43 1468.1C2524.81 1280.7 2233.93 1298.74 2248.47 1486.17Z" fill="#151112"/>
<path fill-rule="evenodd" clip-rule="evenodd" d="M329.195 1490.66C314.101 1305.44 585.651 1302.11 589.527 1468.81C593.739 1649.94 342.361 1652.19 329.195 1490.66ZM598.553 1508.6C641.606 1331.92 365.944 1256.4 319.542 1442.89C273.668 1627.23 553.152 1694.82 598.553 1508.6Z" fill="#151112"/>
<path fill-rule="evenodd" clip-rule="evenodd" d="M150.231 1070.19C134.108 1032.38 158.556 871.059 173.331 831.49L383.294 831.162C389.672 859.449 383.331 913.448 382.375 943.245C380.456 1002.96 388.417 1039.3 362.068 1045.19C334.955 1051.25 161.412 1074.41 150.231 1070.19ZM148.748 1080.48C173.641 1083.41 350.067 1061.01 370.12 1053.97C401.054 1043.09 392.147 986.453 394.058 948.659C396.005 910.009 404.057 866.136 393.121 827.505C362.277 815.841 240.95 818.525 196.105 820.053C169.164 820.963 160.794 823.456 155.007 849.141C144.226 896.971 120.097 1047.49 148.748 1080.48Z" fill="#151112"/>
<path fill-rule="evenodd" clip-rule="evenodd" d="M1896.71 1609.9C1925.61 1600.59 1900.48 1606.42 1871.48 1590.46C1751.83 1524.64 1807.03 1321.42 1966.74 1349.51C2081.55 1369.7 2128.29 1554.64 1965.93 1605.73C1931.75 1616.5 1937.23 1601.45 1909.99 1614.82C1908.74 1615.43 1907.11 1616.32 1906.03 1617.5C2111.87 1644.34 2137.4 1379.28 1975.57 1338.84C1850.54 1307.59 1749.29 1440.33 1816.32 1551.71C1828.73 1572.33 1863.29 1610.47 1896.71 1609.9Z" fill="#120F10"/>
<path fill-rule="evenodd" clip-rule="evenodd" d="M2274.38 1278.36L2054.62 1279.05C2058.6 1285.07 2088.84 1308.24 2093.45 1310.92C2110.19 1320.65 2139.03 1316.91 2160.71 1316.78C2210.96 1316.51 2231.12 1322.37 2267.39 1286.93C2274.77 1279.72 2267.91 1289.09 2274.38 1278.36Z" fill="#FEFEFE"/>
<path fill-rule="evenodd" clip-rule="evenodd" d="M2305.41 1490.66C2287.76 1374 2463.44 1359.08 2477.34 1463.59C2484.27 1515.79 2447.31 1557.59 2403.24 1562.87C2351.31 1569.09 2311.89 1533.48 2305.41 1490.66ZM2485.48 1504.11C2507.44 1447.87 2458.62 1392.67 2416.94 1382.71C2360.53 1369.22 2307.59 1407.13 2297.04 1448.03C2266.78 1565.34 2433.59 1637 2485.48 1504.11Z" fill="#161215"/>
<path fill-rule="evenodd" clip-rule="evenodd" d="M1995.03 1547.06C1979.97 1551.08 1920.79 1588.63 1873.84 1534.68C1844.3 1500.76 1848.74 1438.48 1879.75 1412.16C1913.69 1383.35 1973.14 1387.71 2001.56 1416.21C2051.53 1466.33 2007.75 1528.67 2006.02 1536.33C2013.71 1558.34 2066.78 1462.59 2007.73 1410.11C1962.53 1369.96 1906.6 1368.36 1871.19 1403.3C1830.23 1443.68 1832.12 1504.41 1866.21 1542.32C1875.93 1553.1 1906 1573.13 1931.23 1575.37C1950.73 1577.12 1977.5 1570.17 1990.97 1558.26C2008.19 1543.02 2002.43 1552.64 1995.03 1547.06Z" fill="#161215"/>
<path fill-rule="evenodd" clip-rule="evenodd" d="M542.671 1499.62C510.435 1610.61 341.942 1562.71 374.951 1453.29C386.506 1414.99 426.703 1378.67 482.403 1393.68C520.361 1403.91 557.292 1449.26 542.671 1499.62ZM440.141 1381.33C392.002 1394.01 350.85 1432.15 363.405 1498.66C371.831 1543.39 427.467 1586.05 483.804 1572.45C604.203 1543.37 557.574 1350.43 440.141 1381.33Z" fill="#161215"/>
<path fill-rule="evenodd" clip-rule="evenodd" d="M1911.99 1293.54C1947.41 1301.04 1970.1 1290.26 2010.19 1308.84C2061.98 1332.87 2103.11 1375.78 2117.33 1435.26C2124.78 1466.5 2117.33 1508.77 2128.22 1535.79C2151.22 1541.55 2169.48 1537.28 2165.34 1507.49C2154.23 1495.04 2163.28 1521.94 2155.69 1494C2154.81 1519.68 2161.75 1521.73 2138.23 1522.11C2126.91 1494.33 2134.35 1448.32 2122.98 1416.21C2103.69 1361.71 2059.08 1312.06 2001.78 1294.45C1977.23 1286.9 1943.87 1277.49 1916.94 1283.79C1893.23 1289.33 1897.65 1285.63 1911.99 1293.54Z" fill="#151112"/>
<path fill-rule="evenodd" clip-rule="evenodd" d="M388.344 1049.94C325.502 1095.32 162.996 1060.49 106.932 1095.92C91.9192 1100.21 41.9328 1120.8 32.6889 1129.02C30.6599 1156.18 27.1753 1272.63 35.1181 1288.14C59.8657 1318.42 38.6028 1423.69 39.0941 1424.21C-5.76082 1451.85 75.9516 1515.82 78.5173 1517.81L271.148 1522.09C287.807 1436.9 245.709 1487.9 307.532 1364.55C340.978 1297.81 385.36 1300.76 452.406 1279.13C527.504 1272.87 537.53 1280.52 568.446 1302.21C580.411 1310.6 618.951 1307.85 650.25 1290.01C651.232 1289.45 659.339 1282.6 657.465 1273.93L649.949 1259C638.868 1230.03 662.123 676.727 662.123 586.307C662.123 469.812 662.087 521.682 651.751 459.831C517.404 432.554 473.541 492.567 360.63 550.069C314.42 573.606 329.732 625.285 273.568 648.376C245.845 649.359 174.178 661.505 156.863 667.11L94.6579 705.705C78.7994 751.443 80.146 764.217 73.6497 808.826L161.849 822.565L401.846 827.55C410.489 858.039 407.833 1035.88 388.344 1049.94Z" fill="#E31E24" stroke="#2B2A29" stroke-width="2.36558" stroke-miterlimit="22.9256"/>
<path d="M2972.3 1278.36C2969.34 1280.52 2965.55 1282.36 2960.71 1283.82C2947.81 1290.79 2930.66 1290.1 2916.02 1289.53L2906.82 1289.25C2875.97 1289.21 2845.15 1289.2 2814.3 1289C2743.08 1288.47 2587.28 1287.29 2534.25 1289.53L2541.66 1295.61C2552.03 1304.37 2556.4 1308.05 2596.56 1307.68L2616.72 1307.48C2706.45 1306.55 2953.15 1304 2975.88 1312.02L2982.47 1314.36L2986.61 1377.54L2978.9 1380.17C2972.15 1382.47 2965.15 1384.49 2958 1386.53C2940.29 1391.59 2921.28 1397.06 2909.57 1405.81C2903.18 1410.57 2899.44 1413.88 2896.66 1416.34C2890.56 1421.73 2887.48 1424.45 2880.27 1426C2874.61 1427.22 2867.25 1427.09 2852.53 1426.82C2843.79 1426.68 2832.23 1426.44 2816.94 1426.44C2805.88 1426.43 2791.39 1426.13 2775.09 1425.81C2725.37 1424.8 2658.25 1423.46 2625.57 1428.75C2625.66 1437.03 2626.72 1448.1 2627.86 1459.81C2630.95 1491.74 2634.49 1528.06 2620.27 1541.79C2615.38 1546.51 2610.14 1549.29 2604.89 1550.5C2599.06 1551.83 2593.37 1551.23 2588.22 1549.28C2583.45 1547.47 2579.13 1544.45 2575.56 1540.74C2570.71 1535.79 2567.17 1529.41 2565.73 1523.13C2563.55 1513.63 2563.74 1499.82 2563.91 1485.89C2564.05 1475.35 2564.18 1464.64 2563.18 1456.48C2556.32 1400.59 2528.75 1360.42 2492.06 1335.9C2466.88 1319.08 2437.3 1309.52 2407.04 1307.23C2376.7 1304.94 2345.73 1309.95 2317.89 1322.22C2276.04 1340.68 2241.08 1375.74 2225.83 1427.27C2220.69 1444.68 2219.72 1459.38 2218.99 1470.58C2218.5 1478.17 2218.09 1484.42 2216.66 1489.68C2212.21 1505.88 2203.09 1511.39 2176.2 1505.75L2176.02 1507.44C2176.9 1514.78 2176.6 1520.99 2175.31 1526.16C2173.64 1532.84 2170.34 1537.94 2165.82 1541.66C2161.44 1545.26 2156.12 1547.36 2150.18 1548.17C2142.81 1549.2 2134.41 1548.27 2125.65 1546.08L2120.41 1544.77L2118.38 1539.73C2111.68 1523.09 2111.22 1502.5 2110.77 1481.72C2110.45 1466.34 2110.09 1450.79 2106.98 1437.71C2100.59 1410.75 2088.23 1387.38 2071.69 1367.86C2053.88 1346.84 2031.16 1330.26 2005.74 1318.47C1983.02 1307.93 1966.03 1307.65 1948.64 1307.37C1937.55 1307.19 1926.26 1307.02 1913.34 1304.62L1901.75 1310.19L1900.43 1310.44C1877.19 1314.86 1858.51 1323.12 1842.66 1333.82C1826.7 1344.62 1813.42 1358.09 1801.15 1372.72C1776.26 1402.42 1773.37 1424.91 1770.39 1448.4C1768.38 1464.27 1766.28 1480.59 1758.55 1499.67L1756.52 1504.65L1751.28 1505.98C1722.77 1513.19 1717.78 1507.94 1710.69 1500.42C1708.75 1498.36 1706.43 1495.9 1699.82 1494.32L1499.96 1493.57C1422.82 1493.61 1327.36 1493.21 1232.2 1492.85C1048.91 1492.13 864.371 1491.39 685.361 1493.89C684.46 1511.19 681.076 1522.98 672.978 1531.33C664.699 1539.86 652.643 1543.58 634.628 1544.42L621.727 1545.03L623.71 1532.22C629.351 1495.88 631.289 1467.09 627.068 1441.5C622.955 1416.5 612.738 1394.1 594.086 1369.96C588.336 1362.53 581.976 1355.59 575.134 1349.27C546.32 1322.67 509.025 1306.9 469.666 1305.01C430.197 1303.1 388.499 1315.15 351.023 1344.13C341.479 1351.49 332.153 1360.04 323.191 1369.74C280.329 1416.14 286.525 1475.06 290.273 1510.7C291.274 1520.27 292.12 1528.32 291.929 1534.78L291.629 1545.48L280.975 1545.07C252.67 1544.03 223.064 1544.45 193.449 1544.84C159.13 1545.3 124.71 1545.78 92.2657 1544.07C63.1509 1542.53 41.3331 1527.88 26.2662 1506.33C9.46148 1482.31 1.32754 1449.57 1.06369 1417.53L1 1409.13L50.7499 1397.11L52.2784 1316.65L2.98344 1315.29L1.43672 1111.11L83.1492 1078.99C86.4974 1058.45 88.4171 1034.63 90.3005 1011.08C91.829 991.894 93.3757 972.824 95.805 954.755C99.6991 925.84 103.893 903.404 107.114 886.108C110.299 868.984 112.519 857.029 112.51 849.496C112.491 841.871 105.649 840.971 84.3228 841.034L76.38 841.134C65.4164 841.325 56.0997 841.489 44.1445 838.741L36.5018 836.985L35.9286 829.143C34.5912 810.837 41.697 780.339 51.5596 751.161C62.696 718.252 77.7174 686.135 88.3261 674.607C118.05 642.271 159.211 640.57 203.648 638.778C220.653 638.086 238.185 637.367 255.381 634.783L257.547 632.946C260.667 626.841 266.654 618.279 270.403 612.147C302.283 562.752 354.053 520.936 412.646 489.701C476.972 455.427 549.804 433.7 613.593 428.669C668.611 424.32 683.76 452.015 686.862 491.275C688.018 505.896 687.272 522.273 686.498 539.069C686.016 549.805 685.516 560.759 685.516 571.058V943.373C685.552 979.675 684.997 1021.94 684.451 1064.49C683.414 1145.27 682.34 1227.41 685.297 1304.92C763.234 1308.74 1192.35 1307.03 1477.21 1305.9C1584.33 1305.48 1671.1 1305.12 1711.22 1305.19L1720.46 1305.21C1748.91 1305.28 1763.62 1305.32 1774.44 1301.84C1780.63 1299.85 1786.31 1296.38 1793.47 1290.71C1433.32 1290.47 1063.94 1298.86 704.959 1289.29L704.24 1279.75C704.204 1279.3 704.176 1278.82 704.14 1278.36H2972.3ZM1802.03 1269.56L1849.98 1269.59L1828.51 1288.51C1806.78 1307.75 1796.24 1317.09 1780.93 1322.01C1766.97 1326.5 1751.13 1326.46 1720.46 1326.38L1711.22 1326.35C1671.17 1326.3 1584.4 1326.65 1477.3 1327.06C1177.45 1328.25 718.07 1330.09 673.988 1325.38L664.908 1324.4L664.517 1315.25C661.077 1234.72 662.187 1148.75 663.288 1064.24C663.78 1024.97 664.307 986.026 664.307 943.373L664.344 571.058C664.335 559.877 664.844 548.904 665.335 538.159C666.072 522.191 666.782 506.624 665.699 492.931C663.561 465.9 653.125 446.838 615.258 449.832C554.153 454.663 484.342 475.489 422.609 508.389C367.018 538.022 318.06 577.409 288.245 623.592C286.425 626.377 284.924 628.97 283.604 631.235C282.349 633.419 281.239 635.311 279.619 637.74L275.944 643.472C275.152 644.773 274.706 645.51 273.824 646.566C272.823 647.758 272.049 648.413 270.375 649.841L264.689 654.763L261.714 655.237C242.361 658.394 223.109 659.176 204.476 659.949C164.643 661.56 127.713 663.079 103.921 688.973C95.2045 698.463 81.9573 727.459 71.6397 757.957C64.0153 780.567 58.1377 803.576 57.1278 819.462C63.4148 820.19 69.3833 820.081 76.0433 819.962L84.1955 819.871C121.599 819.753 133.581 822.865 133.681 849.496C133.7 859.013 131.325 871.723 127.94 889.938C124.774 906.943 120.653 928.988 116.804 957.584C114.548 974.253 113.01 993.432 111.472 1012.74C109.389 1038.81 107.26 1065.18 102.974 1088.61L101.919 1094.42L22.7087 1125.54L23.9916 1294.69L73.8506 1296.07L71.6124 1413.87L22.4994 1425.73C23.9097 1451.02 30.779 1475.87 43.6077 1494.22C55.0807 1510.61 71.5396 1521.76 93.3484 1522.9C125.52 1524.59 159.403 1524.12 193.194 1523.67C219.197 1523.32 245.182 1522.96 270.257 1523.57L269.193 1512.88C265.071 1473.65 258.238 1408.8 307.597 1355.37C317.323 1344.84 327.531 1335.51 338.085 1327.36C379.801 1295.12 426.403 1281.71 470.667 1283.83C515.049 1285.97 557.065 1303.72 589.501 1333.67C597.143 1340.74 604.322 1348.56 610.854 1357.02C631.781 1384.08 643.272 1409.48 647.985 1438.1C652.052 1462.75 650.987 1489.53 646.611 1521.8C651.733 1520.72 655.382 1519.04 657.784 1516.56C661.905 1512.32 663.67 1504.48 664.207 1492.19C664.507 1486.8 666.818 1478.36 667.956 1472.72L676.554 1472.61C858.275 1470.19 1045.93 1470.94 1232.24 1471.69C1316.68 1472.02 1400.29 1472.35 1499.96 1472.35L1702.99 1473.26C1717.12 1476.32 1722.05 1481.56 1726.14 1485.88C1727.93 1487.77 1729.28 1489.18 1740.8 1486.65C1746.06 1471.93 1747.74 1458.68 1749.39 1445.74C1752.79 1419.04 1756.07 1393.48 1784.87 1359.1C1798.27 1343.1 1812.89 1328.32 1830.79 1316.22C1848.51 1304.24 1869.35 1294.95 1895.18 1289.87L1910.71 1282.42L1914.2 1283.16C1926.9 1285.84 1938.03 1286.03 1948.98 1286.21C1968.69 1286.52 1987.95 1286.84 2014.63 1299.21C2042.81 1312.28 2068.04 1330.73 2087.88 1354.15C2106.45 1376.07 2120.35 1402.39 2127.62 1432.82C2131.21 1447.7 2131.58 1464.6 2131.95 1481.3C2132.28 1497.73 2132.66 1514.03 2136.29 1526.67C2140.44 1527.38 2144.17 1527.6 2147.27 1527.18C2149.42 1526.88 2151.19 1526.26 2152.36 1525.3C2153.38 1524.46 2154.2 1523.06 2154.71 1521.01C2155.46 1518.03 2155.55 1514.03 2154.84 1508.9L2154.65 1507.59L2157.8 1479.07L2169.77 1482.32C2189.77 1487.76 2195.2 1487.73 2196.2 1484.12C2197.07 1480.72 2197.42 1475.54 2197.83 1469.24C2198.62 1457.02 2199.67 1441 2205.5 1421.3C2222.7 1363.16 2262.12 1323.62 2309.35 1302.79C2340.42 1289.09 2374.9 1283.51 2408.6 1286.07C2442.37 1288.62 2475.52 1299.37 2503.86 1318.31C2545.4 1346.07 2576.57 1391.29 2584.26 1453.91C2585.38 1462.97 2585.22 1474.64 2585.07 1486.14C2584.91 1498.72 2584.75 1511.17 2586.41 1518.39C2587.01 1521.01 2588.57 1523.78 2590.72 1526C2592.16 1527.52 2593.87 1528.73 2595.7 1529.43C2597.14 1529.97 2598.67 1530.15 2600.15 1529.82C2601.79 1529.45 2603.63 1528.39 2605.59 1526.51C2612.4 1519.93 2609.41 1488.99 2606.78 1461.82C2605.13 1444.77 2603.61 1428.98 2604.8 1418.8L2605.65 1411.47L2612.8 1409.7C2643.97 1401.98 2720.24 1403.52 2775.51 1404.64C2791.82 1404.96 2806.32 1405.27 2816.94 1405.27C2832.58 1405.28 2844.14 1405.51 2852.87 1405.65C2865.78 1405.89 2872.23 1406.01 2875.78 1405.24C2877.7 1404.82 2879.36 1403.37 2882.63 1400.49C2885.98 1397.52 2890.47 1393.55 2896.86 1388.78C2911.65 1377.72 2932.66 1371.7 2952.19 1366.1L2964.38 1362.54L2962.3 1330.81C2918.45 1325.52 2699.84 1327.8 2616.89 1328.64L2596.73 1328.85C2548.67 1329.3 2542.53 1324.12 2527.94 1311.8C2522.34 1307.06 2515.15 1300.98 2502.03 1293.64L2485.23 1284.26C2491.52 1280.84 2511.99 1273.12 2518.84 1270.8L1802.03 1269.56ZM2237.89 1486.95C2232.33 1415.21 2268.53 1366.45 2317.94 1342.5C2337.63 1332.95 2359.47 1327.41 2381.5 1326C2403.51 1324.6 2425.87 1327.33 2446.68 1334.27C2498.93 1351.73 2541.33 1395.62 2545.01 1467.57C2548.71 1539.62 2512.53 1588.67 2463.77 1612.73C2444.32 1622.32 2422.82 1627.9 2401.12 1629.29C2379.43 1630.69 2357.44 1627.94 2336.93 1620.93C2285.56 1603.33 2243.48 1559.28 2237.89 1486.95ZM2327.15 1361.59C2285.09 1381.98 2254.27 1423.74 2259.05 1485.38C2263.9 1547.89 2299.87 1585.82 2343.73 1600.85C2361.6 1606.95 2380.81 1609.35 2399.78 1608.13C2418.73 1606.92 2437.48 1602.06 2454.4 1593.71C2496.11 1573.13 2527.04 1530.91 2523.84 1468.65C2520.67 1406.85 2484.52 1369.25 2439.96 1354.36C2421.82 1348.3 2402.23 1345.93 2382.83 1347.17C2363.47 1348.4 2344.35 1353.25 2327.15 1361.59ZM1978.14 1328.54C2038.81 1343.69 2075.04 1388.25 2087.08 1438.62C2092.41 1460.88 2092.97 1484.32 2088.81 1506.82C2084.63 1529.42 2075.66 1551.14 2061.99 1569.87C2031.91 1611 1979.28 1637.73 1904.66 1628L1901.67 1627.62L1892.83 1620.4C1877.68 1619.55 1862.87 1612.58 1849.74 1603.08C1830.84 1589.39 1815.01 1570.1 1807.24 1557.19C1784.06 1518.64 1779.66 1477.65 1788.83 1440.94C1793.78 1421.14 1802.73 1402.52 1814.82 1386.25C1826.93 1369.99 1842.19 1356.01 1859.71 1345.46C1892.84 1325.54 1934.17 1317.55 1978.14 1328.54ZM2066.48 1443.5C2056.17 1400.33 2025.07 1362.14 1973 1349.13C1934.87 1339.61 1899.17 1346.47 1870.67 1363.61C1855.48 1372.78 1842.27 1384.86 1831.85 1398.87C1821.43 1412.9 1813.7 1428.97 1809.42 1446.08C1801.53 1477.64 1805.37 1512.95 1825.39 1546.24C1832.1 1557.34 1845.8 1574.02 1862.2 1585.88C1873.2 1593.84 1885.23 1599.51 1896.54 1599.32L1900.4 1599.26L1910.36 1607.36C1974.53 1614.89 2019.43 1592.15 2044.88 1557.33C2056.66 1541.21 2064.38 1522.47 2067.99 1502.99C2071.62 1483.35 2071.11 1462.91 2066.48 1443.5ZM608.844 1511.08C591.257 1583.28 540.67 1619.96 485.597 1628.02C464.371 1631.12 442.435 1629.92 421.517 1624.8C400.555 1619.69 380.557 1610.66 363.27 1598.14C318.824 1565.99 291.647 1511.1 309.244 1440.36C327.04 1368.85 376.48 1333.16 430.579 1325.51C451.651 1322.54 473.424 1323.87 494.222 1329.03C515.03 1334.19 534.965 1343.24 552.325 1355.62C597.443 1387.77 625.594 1442.35 608.844 1511.08ZM482.513 1607.02C529.679 1600.12 573.06 1568.48 588.254 1506.12C602.62 1447.14 578.601 1400.38 540.042 1372.9C524.857 1362.07 507.397 1354.15 489.164 1349.62C470.922 1345.08 451.87 1343.92 433.491 1346.51C387.408 1353.03 345.182 1383.74 329.833 1445.42C314.666 1506.4 337.794 1553.52 375.716 1580.94C390.82 1591.88 408.261 1599.77 426.494 1604.21C444.782 1608.68 463.961 1609.73 482.513 1607.02Z" fill="#2B2A29"/>
</g>
<defs>
<clipPath id="clip0_209_233">
<rect width="2987" height="1630" fill="white"/>
</clipPath>
</defs>
</svg>
