<svg width="2987" height="1630" viewBox="0 0 2987 1630" fill="none" xmlns="http://www.w3.org/2000/svg">
<path fill-rule="evenodd" clip-rule="evenodd" d="M2274.59 1278.32C2268.11 1289.06 2274.96 1279.69 2267.59 1286.9C2231.31 1322.35 2211.15 1316.48 2160.9 1316.75C2139.21 1316.88 2110.38 1320.62 2093.64 1310.89C2089.02 1308.2 2058.78 1285.04 2054.79 1279.01L2274.59 1278.32ZM148.754 1080.42C120.108 1047.44 144.245 896.906 155.021 849.075C160.806 823.39 169.184 820.886 196.12 819.971C240.967 818.455 362.306 815.767 393.159 827.434C404.095 866.061 396.039 909.945 394.097 948.597C392.18 986.398 401.086 1043.04 370.154 1053.92C350.102 1060.97 173.661 1083.37 148.754 1080.42ZM1802.19 1269.52C1810.77 1269.93 1819.16 1270.37 1827.37 1270.84L731.428 1279.38L1822.1 1280.12C1779.8 1317.64 1782.07 1315.84 1711.37 1315.74C1559.08 1315.5 734.445 1321.14 675.156 1314.81C659.597 1311.24 667.051 1320.36 662.758 1298.2L662.141 521.581C663.32 479.391 666.329 449.614 619.228 451.644C491.469 457.156 356.529 538.68 306.347 599.8C289.961 619.747 278.503 651.21 250.275 656.786C157.252 675.194 94.7124 619.386 59.7035 818.551C88.1728 820.557 107.984 821.039 132.072 828.236C138.66 864.681 115.928 961.227 111.499 1008.76C109.083 1034.69 110.175 1081.81 93.4045 1096C76.899 1109.97 40.5822 1114.16 23.9644 1128.92C21.9343 1156.1 18.4519 1272.56 26.3957 1288.06C36.2091 1295.92 34.2914 1293.2 45.0035 1296.32C62.1348 1301.31 52.6263 1292.45 64.6543 1303.65C79.563 1320.25 76.6824 1363.14 74.7807 1387.68C71.7957 1426.17 52.7226 1412.46 24.2854 1432.32C21.5973 1467.13 48.7828 1519.57 97.601 1521.24C137.938 1522.61 227.278 1525.53 262.455 1520.68C262.969 1519.39 263.442 1516.11 263.586 1516.7L265.889 1499.82C267.486 1448.74 257.937 1409.82 307.815 1354.81C336.91 1322.73 385.6 1285.07 452.625 1283.09C538.538 1280.58 616.059 1335.35 642.835 1413.3C656.115 1451.98 649.976 1472.35 651.42 1512.36C662.068 1506.56 651.79 1512.31 659.902 1504.94C660.841 1504.08 663.842 1501.11 664.933 1500.17C674.04 1492.43 659.38 1500.72 674.851 1492.63L676.744 1483.17C677.434 1466.2 698.73 1470.67 735.906 1470.59L1612.48 1470.65C1740.33 1470.31 1701.71 1484.96 1738.56 1485.69C1760.36 1425.43 1741.28 1399.8 1806.8 1334.51C1813.39 1327.95 1824.52 1321.25 1833.06 1315.4C1841.99 1309.27 1868.16 1293.82 1879.13 1293.4C1907.3 1292.32 1888.29 1289.39 1898.64 1299.99L1912.16 1293.5C1897.81 1285.59 1893.41 1289.3 1917.11 1283.75C1944.04 1277.46 1977.4 1286.87 2001.95 1294.42C2059.25 1312.03 2103.87 1361.68 2123.17 1416.18C2134.53 1448.3 2127.09 1494.31 2138.42 1522.09C2161.94 1521.71 2155 1519.67 2155.88 1493.98C2163.47 1521.92 2154.41 1495.03 2165.53 1507.47L2167.18 1492.56C2163.52 1487.48 2175.19 1484.63 2161.95 1487.98C2185.77 1484.23 2191.3 1492.89 2196.21 1468.4C2199.56 1451.72 2197.57 1442.51 2203.75 1421.34C2213.17 1389.12 2225.49 1373.66 2243.94 1353.55C2344.28 1244.18 2477.34 1276.3 2539.4 1350.79C2581.94 1401.87 2582.02 1438.58 2587.23 1519.31C2598.27 1523.74 2596.37 1525.02 2607.92 1523.9C2614.68 1496.31 2597.86 1447.82 2607.95 1415.97C2643.8 1395.46 2766.04 1404.78 2817.2 1404.88C2879.59 1405 2859.14 1409.83 2903.78 1383.87C2934.01 1366.28 2964.69 1375.85 2961.02 1333.62C2939.03 1327.73 2753.13 1330.86 2713.8 1330.9C2662.86 1330.97 2565.53 1341.64 2536.52 1317.82C2499.32 1287.29 2509.15 1300.01 2507.39 1284.35L2513.55 1281.01C2530.45 1275.25 2818.89 1278.62 2848.66 1278.61C2868.15 1278.61 2887.64 1278.48 2907.12 1278.63C2922.14 1278.74 2943.9 1281.61 2956.82 1273.96C2927.3 1266.18 2572.34 1270.84 2510.55 1270.78L1802.19 1269.52ZM2814.63 1267.79C2833.15 1268.01 2852.46 1268.13 2870.79 1267.95L2814.63 1267.79Z" fill="#352F31"/>
<path fill-rule="evenodd" clip-rule="evenodd" d="M150.247 1070.15C161.424 1074.36 334.984 1051.2 362.097 1045.14C388.448 1039.24 380.488 1002.9 382.406 943.189C383.361 913.387 389.708 859.378 383.329 831.093L173.348 831.422C158.567 870.988 134.126 1032.33 150.247 1070.15Z" fill="#FEFEFE"/>
<path fill-rule="evenodd" clip-rule="evenodd" d="M674.851 1492.63C659.381 1500.72 674.041 1492.43 664.934 1500.17C663.843 1501.11 660.842 1504.08 659.903 1504.94C651.79 1512.31 662.069 1506.56 651.421 1512.36C649.977 1472.35 656.115 1451.98 642.836 1413.3C616.059 1335.35 538.539 1280.58 452.626 1283.1C385.601 1285.07 336.911 1322.73 307.816 1354.81C257.938 1409.82 267.487 1448.74 265.89 1499.82L263.587 1516.7C263.443 1516.11 262.969 1519.4 262.456 1520.68C227.279 1525.53 137.939 1522.61 97.602 1521.24C48.7837 1519.57 21.5982 1467.13 24.2863 1432.32C52.7235 1412.46 71.7966 1426.17 74.7816 1387.68C76.6833 1363.14 79.5639 1320.25 64.6553 1303.65C52.6272 1292.45 62.1357 1301.31 45.0044 1296.32C34.2923 1293.2 36.21 1295.92 26.3966 1288.06C18.4528 1272.56 21.9353 1156.1 23.9653 1128.92C40.5831 1114.16 76.8999 1109.97 93.4054 1096C110.176 1081.81 109.084 1034.69 111.5 1008.76C115.929 961.227 138.661 864.681 132.073 828.236C107.985 821.039 88.1737 820.557 59.7044 818.551C94.7133 619.386 157.253 675.194 250.275 656.786C278.504 651.21 289.962 619.747 306.347 599.8C356.53 538.681 491.47 457.156 619.229 451.644C666.33 449.614 663.321 479.391 662.141 521.581L662.759 1298.2C667.052 1320.36 659.598 1311.24 675.156 1314.81C670.045 1195.35 674.988 1064.11 674.988 943.309C674.988 819.201 675.076 695.077 674.988 570.961C674.948 505.485 693.812 432.859 614.479 439.142C495.442 448.571 344.277 517.208 279.347 617.774C275.487 623.735 273.328 628.06 270.841 631.751C263.571 642.496 268.402 637.32 260.033 644.694C198.135 654.796 134.529 639.92 96.1336 681.709C77.919 701.528 43.889 792.401 46.5129 828.324C59.9933 831.43 70.1517 830.419 84.2018 830.379C142.545 830.186 122.22 838.218 106.316 956.107C100.812 996.926 99.7925 1047.21 92.5709 1086.65L12.0737 1118.27L13.4859 1304.95L63.0745 1306.32L61.1808 1405.46L11.6484 1417.43C12.1138 1473.24 37.55 1530.56 92.8196 1533.48C153.433 1536.67 220.442 1532.23 281.377 1534.47C282.227 1505.56 257.93 1424.76 315.423 1362.53C407.274 1263.1 537.857 1279.83 602.523 1363.46C642.129 1414.7 645.853 1458.96 634.226 1533.82C664.629 1532.41 673.52 1522.6 674.851 1492.63Z" fill="#120D11"/>
<path fill-rule="evenodd" clip-rule="evenodd" d="M2006.18 1536.33C1995.26 1540.96 1999.45 1537.8 1995.21 1547.05C2002.61 1552.62 2008.37 1543.01 1991.14 1558.25C1977.67 1570.16 1950.9 1577.11 1931.39 1575.37C1906.16 1573.12 1876.09 1553.1 1866.38 1542.3C1832.28 1504.39 1830.39 1443.66 1871.35 1403.27C1906.76 1368.33 1962.7 1369.94 2007.9 1410.08C2066.97 1462.57 2013.89 1558.34 2006.18 1536.33ZM1896.88 1609.9L1906.2 1617.5C1907.27 1616.32 1908.91 1615.43 1910.16 1614.82C1937.4 1601.45 1931.92 1616.49 1966.1 1605.73C2128.47 1554.62 2081.74 1369.68 1966.91 1349.48C1807.19 1321.39 1751.97 1524.63 1871.64 1590.45C1900.65 1606.41 1925.78 1600.58 1896.88 1609.9Z" fill="#332D2F"/>
<path fill-rule="evenodd" clip-rule="evenodd" d="M440.188 1381.31C557.628 1350.4 604.256 1543.35 483.855 1572.44C427.51 1586.05 371.863 1543.38 363.438 1498.65C350.889 1432.13 392.036 1393.99 440.188 1381.31ZM329.224 1490.64C342.391 1652.19 593.784 1649.94 589.58 1468.8C585.704 1302.08 314.13 1305.41 329.224 1490.64Z" fill="#332D2F"/>
<path fill-rule="evenodd" clip-rule="evenodd" d="M2485.7 1504.09C2433.8 1637 2266.97 1565.32 2297.24 1448.01C2307.79 1407.11 2360.73 1369.19 2417.16 1382.68C2458.84 1392.65 2507.65 1447.85 2485.7 1504.09ZM2359.73 1351.25C2192.52 1393.02 2256.39 1648.44 2422.7 1603.49C2594.1 1557.16 2526.02 1309.73 2359.73 1351.25Z" fill="#342E2F"/>
<path fill-rule="evenodd" clip-rule="evenodd" d="M542.711 1499.61C557.338 1449.25 520.404 1403.89 482.45 1393.66C426.739 1378.64 386.539 1414.96 374.984 1453.28C341.965 1562.7 510.478 1610.6 542.711 1499.61Z" fill="#FEFEFE"/>
<path fill-rule="evenodd" clip-rule="evenodd" d="M2305.6 1490.64C2312.08 1533.48 2351.51 1569.08 2403.45 1562.86C2447.51 1557.58 2484.49 1515.77 2477.55 1463.57C2463.65 1359.05 2287.96 1373.98 2305.6 1490.64Z" fill="#FEFEFE"/>
<path fill-rule="evenodd" clip-rule="evenodd" d="M1995.21 1547.05C1999.45 1537.8 1995.26 1540.96 2006.18 1536.33C2007.92 1528.66 2051.7 1466.32 2001.73 1416.2C1973.31 1387.68 1913.85 1383.32 1879.92 1412.14C1848.9 1438.46 1844.47 1500.75 1874 1534.67C1920.96 1588.62 1980.14 1551.07 1995.21 1547.05Z" fill="#FEFEFE"/>
<path fill-rule="evenodd" clip-rule="evenodd" d="M2167.18 1492.56C2225.1 1508.31 2198.79 1481.92 2215.86 1424.26C2269.26 1243.8 2549.15 1253.58 2573.95 1455.18C2576.28 1474.16 2572.77 1505.4 2576.3 1520.74C2579.51 1534.69 2597.43 1549.36 2613.16 1534.14C2629.52 1518.32 2612.54 1445.75 2615.56 1419.98C2654.37 1410.35 2769.92 1415.8 2817.19 1415.84C2897.37 1415.88 2871.31 1421.31 2903.46 1397.27C2921.82 1383.54 2953.08 1377.84 2975.77 1370.09L2972.62 1321.99C2949.67 1313.89 2659.87 1317.65 2596.87 1318.23C2531.8 1318.85 2551.31 1308.92 2507.39 1284.35C2509.15 1300.01 2499.32 1287.29 2536.52 1317.82C2565.53 1341.64 2662.86 1330.97 2713.8 1330.9C2753.13 1330.86 2939.03 1327.73 2961.02 1333.62C2964.69 1375.85 2934.01 1366.28 2903.78 1383.87C2859.14 1409.83 2879.59 1405 2817.2 1404.88C2766.04 1404.78 2643.8 1395.46 2607.95 1415.97C2597.86 1447.82 2614.68 1496.31 2607.92 1523.9C2596.37 1525.02 2598.27 1523.74 2587.23 1519.31C2582.02 1438.58 2581.94 1401.87 2539.4 1350.79C2477.34 1276.3 2344.29 1244.18 2243.94 1353.55C2225.49 1373.66 2213.17 1389.12 2203.75 1421.34C2197.57 1442.51 2199.56 1451.72 2196.21 1468.4C2191.3 1492.89 2185.77 1484.23 2161.96 1487.98C2175.19 1484.63 2163.52 1487.48 2167.18 1492.56Z" fill="#151112"/>
<path fill-rule="evenodd" clip-rule="evenodd" d="M676.744 1483.17C946.087 1479.59 1228.34 1482.97 1500.09 1482.97L1701.35 1483.72C1727.5 1489.39 1711.28 1505.18 1748.86 1495.67C1768.21 1447.97 1750.1 1417.26 1793.17 1365.88C1818.85 1335.24 1848.92 1309.45 1898.64 1299.99C1888.29 1289.39 1907.3 1292.32 1879.13 1293.4C1868.16 1293.82 1841.99 1309.27 1833.06 1315.4C1824.52 1321.25 1813.39 1327.95 1806.8 1334.51C1741.28 1399.8 1760.36 1425.43 1738.56 1485.69C1701.71 1484.96 1740.33 1470.31 1612.48 1470.65L735.905 1470.59C698.73 1470.67 677.434 1466.2 676.744 1483.17Z" fill="#120D0E"/>
<path fill-rule="evenodd" clip-rule="evenodd" d="M2359.73 1351.25C2526.02 1309.73 2594.1 1557.16 2422.7 1603.49C2256.39 1648.44 2192.52 1393.02 2359.73 1351.25ZM2248.66 1486.15C2263.34 1675.44 2544.32 1656.35 2534.65 1468.09C2525.04 1280.67 2234.13 1298.7 2248.66 1486.15Z" fill="#151112"/>
<path fill-rule="evenodd" clip-rule="evenodd" d="M329.223 1490.64C314.13 1305.41 585.704 1302.08 589.579 1468.8C593.784 1649.94 342.391 1652.19 329.223 1490.64ZM598.598 1508.59C641.663 1331.89 365.973 1256.37 319.57 1442.87C273.689 1627.23 553.206 1694.82 598.598 1508.59Z" fill="#151112"/>
<path fill-rule="evenodd" clip-rule="evenodd" d="M150.246 1070.15C134.126 1032.33 158.567 870.988 173.348 831.422L383.329 831.093C389.708 859.377 383.361 913.387 382.406 943.189C380.488 1002.9 388.448 1039.24 362.097 1045.14C334.984 1051.2 161.424 1074.36 150.246 1070.15ZM148.754 1080.42C173.66 1083.37 350.101 1060.97 370.153 1053.92C401.086 1043.04 392.179 986.398 394.097 948.597C396.039 909.945 404.095 866.061 393.158 827.434C362.306 815.767 240.966 818.455 196.12 819.971C169.183 820.886 160.806 823.39 155.021 849.075C144.244 896.906 120.108 1047.44 148.754 1080.42Z" fill="#151112"/>
<path fill-rule="evenodd" clip-rule="evenodd" d="M1896.88 1609.9C1925.78 1600.58 1900.65 1606.41 1871.64 1590.45C1751.97 1524.63 1807.19 1321.39 1966.91 1349.48C2081.74 1369.68 2128.47 1554.62 1966.1 1605.73C1931.92 1616.49 1937.4 1601.45 1910.16 1614.82C1908.91 1615.43 1907.27 1616.32 1906.2 1617.5C2112.05 1644.34 2137.58 1379.26 1975.74 1338.81C1850.7 1307.55 1749.44 1440.31 1816.49 1551.7C1828.89 1572.33 1863.45 1610.47 1896.88 1609.9Z" fill="#120F10"/>
<path fill-rule="evenodd" clip-rule="evenodd" d="M2274.59 1278.32L2054.79 1279.01C2058.78 1285.04 2089.02 1308.2 2093.64 1310.89C2110.38 1320.62 2139.21 1316.88 2160.89 1316.75C2211.15 1316.48 2231.31 1322.35 2267.59 1286.9C2274.96 1279.69 2268.11 1289.06 2274.59 1278.32Z" fill="#FEFEFE"/>
<path fill-rule="evenodd" clip-rule="evenodd" d="M2305.6 1490.64C2287.96 1373.98 2463.65 1359.05 2477.55 1463.57C2484.49 1515.77 2447.51 1557.58 2403.45 1562.86C2351.51 1569.08 2312.08 1533.48 2305.6 1490.64ZM2485.7 1504.09C2507.65 1447.85 2458.84 1392.65 2417.16 1382.68C2360.73 1369.19 2307.79 1407.11 2297.24 1448.01C2266.97 1565.32 2433.8 1637 2485.7 1504.09Z" fill="#161215"/>
<path fill-rule="evenodd" clip-rule="evenodd" d="M1995.21 1547.05C1980.14 1551.07 1920.96 1588.62 1874 1534.67C1844.47 1500.75 1848.9 1438.46 1879.92 1412.14C1913.85 1383.32 1973.31 1387.68 2001.73 1416.2C2051.7 1466.32 2007.92 1528.66 2006.18 1536.33C2013.89 1558.34 2066.97 1462.57 2007.9 1410.08C1962.7 1369.94 1906.76 1368.33 1871.35 1403.27C1830.38 1443.66 1832.28 1504.39 1866.38 1542.3C1876.09 1553.1 1906.16 1573.12 1931.39 1575.37C1950.9 1577.11 1977.67 1570.16 1991.14 1558.25C2008.37 1543.01 2002.61 1552.62 1995.21 1547.05Z" fill="#161215"/>
<path fill-rule="evenodd" clip-rule="evenodd" d="M542.712 1499.61C510.479 1610.6 341.966 1562.7 374.985 1453.28C386.54 1414.96 426.74 1378.64 482.451 1393.66C520.405 1403.89 557.34 1449.25 542.712 1499.61ZM440.189 1381.31C392.036 1393.99 350.889 1432.13 363.439 1498.65C371.864 1543.38 427.511 1586.05 483.856 1572.44C604.256 1543.35 557.629 1350.4 440.189 1381.31Z" fill="#161215"/>
<path fill-rule="evenodd" clip-rule="evenodd" d="M1912.16 1293.5C1947.58 1301.01 1970.28 1290.22 2010.36 1308.81C2062.16 1332.84 2103.3 1375.76 2117.51 1435.24C2124.96 1466.48 2117.52 1508.76 2128.41 1535.77C2151.4 1541.54 2169.66 1537.27 2165.52 1507.47C2154.41 1495.03 2163.47 1521.92 2155.88 1493.98C2155 1519.67 2161.94 1521.71 2138.42 1522.09C2127.09 1494.31 2134.53 1448.3 2123.17 1416.18C2103.87 1361.68 2059.25 1312.03 2001.95 1294.42C1977.4 1286.87 1944.04 1277.46 1917.11 1283.75C1893.41 1289.3 1897.81 1285.59 1912.16 1293.5Z" fill="#151112"/>
<path fill-rule="evenodd" clip-rule="evenodd" d="M388.376 1049.89C325.531 1095.27 163.012 1060.44 106.94 1095.86C91.9275 1100.15 41.9377 1120.75 32.686 1128.97C30.6559 1156.14 27.1735 1272.6 35.1253 1288.11C59.8715 1318.38 38.6077 1423.68 39.0972 1424.19C-5.75719 1451.84 75.9597 1515.82 78.5274 1517.79L271.169 1522.08C287.835 1436.88 245.732 1487.88 307.558 1364.52C341.01 1297.78 385.391 1300.72 452.448 1279.1C527.545 1272.84 537.583 1280.49 568.491 1302.18C580.463 1310.57 619.003 1307.82 650.305 1289.98C651.292 1289.42 659.396 1282.56 657.518 1273.9L650.008 1258.97C638.919 1229.99 662.18 676.638 662.18 586.215C662.18 469.706 662.14 521.581 651.813 459.732C517.451 432.45 473.583 492.462 360.661 549.97C314.442 573.513 329.76 625.188 273.592 648.281C245.869 649.276 174.19 661.416 156.874 667.017L94.6637 705.621C78.8082 751.366 80.1482 764.14 73.6568 808.754L161.857 822.491L401.88 827.474C410.522 857.965 407.866 1035.82 388.376 1049.89Z" fill="#E31E24" stroke="#2B2A29" stroke-width="2.35907" stroke-miterlimit="22.9256"/>
<path d="M2972.56 1278.32C2969.61 1280.49 2965.81 1282.32 2960.96 1283.79C2948.06 1290.77 2930.92 1290.08 2916.27 1289.5L2907.08 1289.21C2876.22 1289.18 2845.39 1289.17 2814.54 1288.97C2743.32 1288.44 2587.51 1287.26 2534.47 1289.5L2541.88 1295.58C2552.24 1304.33 2556.63 1308.03 2596.79 1307.65L2616.94 1307.45C2706.69 1306.53 2953.41 1303.97 2976.14 1311.99L2982.73 1314.32L2986.87 1377.51L2979.17 1380.14C2972.41 1382.44 2965.41 1384.46 2958.25 1386.5C2940.55 1391.57 2921.53 1397.04 2909.82 1405.78C2903.43 1410.55 2899.69 1413.85 2896.9 1416.33C2890.82 1421.71 2887.72 1424.43 2880.52 1425.98C2874.87 1427.21 2867.5 1427.07 2852.78 1426.8C2844.05 1426.65 2832.48 1426.42 2817.19 1426.42C2806.12 1426.4 2791.63 1426.11 2775.33 1425.79C2725.6 1424.78 2658.49 1423.44 2625.8 1428.73C2625.9 1437.01 2626.96 1448.09 2628.1 1459.8C2631.18 1491.72 2634.72 1528.05 2620.5 1541.77C2615.61 1546.51 2610.37 1549.28 2605.11 1550.49C2599.28 1551.82 2593.6 1551.23 2588.44 1549.27C2583.68 1547.46 2579.36 1544.43 2575.78 1540.73C2570.93 1535.77 2567.39 1529.39 2565.96 1523.11C2563.77 1513.61 2563.96 1499.81 2564.13 1485.88C2564.26 1475.33 2564.41 1464.62 2563.41 1456.46C2556.55 1400.58 2528.97 1360.39 2492.28 1335.88C2467.1 1319.05 2437.51 1309.49 2407.24 1307.21C2376.91 1304.91 2345.94 1309.91 2318.09 1322.19C2276.23 1340.65 2241.28 1375.71 2226.03 1427.25C2220.88 1444.67 2219.9 1459.36 2219.18 1470.56C2218.69 1478.16 2218.28 1484.4 2216.86 1489.66C2212.4 1505.87 2203.28 1511.38 2176.39 1505.74L2176.21 1507.42C2177.09 1514.77 2176.79 1520.98 2175.5 1526.14C2173.83 1532.83 2170.53 1537.93 2166.01 1541.65C2161.63 1545.25 2156.31 1547.34 2150.37 1548.16C2143 1549.18 2134.59 1548.26 2125.84 1546.07L2120.6 1544.76L2118.57 1539.71C2111.86 1523.09 2111.4 1502.49 2110.96 1481.71C2110.63 1466.32 2110.28 1450.77 2107.17 1437.69C2100.78 1410.73 2088.41 1387.35 2071.88 1367.83C2054.06 1346.81 2031.34 1330.24 2005.92 1318.44C1983.19 1307.9 1966.2 1307.62 1948.81 1307.34C1937.71 1307.16 1926.43 1306.98 1913.51 1304.59L1901.91 1310.16L1900.6 1310.4C1877.36 1314.82 1858.67 1323.09 1842.83 1333.79C1826.85 1344.59 1813.58 1358.06 1801.31 1372.69C1776.42 1402.4 1773.53 1424.89 1770.54 1448.37C1768.54 1464.25 1766.44 1480.57 1758.71 1499.65L1756.68 1504.63L1751.44 1505.96C1722.91 1513.18 1717.93 1507.92 1710.84 1500.4C1708.91 1498.36 1706.58 1495.88 1699.97 1494.3L1500.09 1493.55C1422.94 1493.59 1327.48 1493.2 1232.31 1492.84C1049.01 1492.11 864.451 1491.38 685.427 1493.87C684.52 1511.18 681.134 1522.97 673.038 1531.32C664.757 1539.85 652.705 1543.57 634.683 1544.41L621.78 1545.02L623.77 1532.21C629.411 1495.87 631.345 1467.08 627.124 1441.47C623.016 1416.47 612.785 1394.07 594.137 1369.94C588.392 1362.49 582.021 1355.57 575.176 1349.25C546.37 1322.64 509.066 1306.86 469.708 1304.98C430.238 1303.07 388.537 1315.12 351.057 1344.1C341.508 1351.47 332.184 1360.01 323.221 1369.71C280.357 1416.12 286.552 1475.05 290.299 1510.69C291.302 1520.25 292.152 1528.31 291.96 1534.76L291.647 1545.47L280.999 1545.06C252.69 1544.02 223.081 1544.43 193.465 1544.82C159.138 1545.3 124.723 1545.76 92.2735 1544.06C63.1542 1542.52 41.3369 1527.87 26.2677 1506.32C9.45734 1482.28 1.32899 1449.55 1.06419 1417.51L1 1409.1L50.7571 1397.08L52.2897 1316.62L2.98996 1315.26L1.4333 1111.06L83.1582 1078.95C86.5042 1058.39 88.43 1034.57 90.3076 1011.03C91.8402 991.838 93.3808 972.757 95.8121 954.695C99.7037 925.776 103.9 903.333 107.118 886.041C110.312 868.91 112.534 856.954 112.518 849.42C112.502 841.805 105.658 840.898 84.3297 840.962L76.3859 841.059C65.425 841.251 56.1011 841.42 44.1453 838.667L36.5064 836.918L35.9287 829.071C34.5886 810.76 41.6979 780.26 51.5675 751.077C62.6969 718.17 77.7259 686.05 88.3337 674.52C118.055 642.183 159.226 640.482 203.671 638.684C220.674 637.994 238.207 637.272 255.402 634.696L257.569 632.851C260.69 626.752 266.676 618.191 270.431 612.06C302.311 562.648 354.082 520.835 412.682 489.598C477.018 455.319 549.853 433.598 613.652 428.559C668.665 424.21 683.822 451.909 686.927 491.17C688.083 505.798 687.328 522.175 686.558 538.977C686.077 549.706 685.571 560.666 685.571 570.961V943.309C685.619 979.618 685.05 1021.88 684.512 1064.44C683.469 1145.23 682.394 1227.38 685.363 1304.89C763.3 1308.7 1192.45 1306.99 1477.34 1305.87C1584.46 1305.45 1671.24 1305.09 1711.37 1305.15L1720.62 1305.18C1749.05 1305.25 1763.77 1305.29 1774.6 1301.81C1780.79 1299.82 1786.46 1296.34 1793.63 1290.68C1433.44 1290.44 1064.03 1298.82 705.021 1289.26L704.299 1279.71C704.267 1279.27 704.235 1278.79 704.203 1278.32H2972.56ZM1802.19 1269.52L1850.14 1269.55L1828.66 1288.48C1806.94 1307.73 1796.4 1317.05 1781.09 1321.98C1767.13 1326.47 1751.28 1326.42 1720.62 1326.34L1711.37 1326.32C1671.32 1326.27 1584.54 1326.62 1477.42 1327.03C1177.56 1328.22 718.133 1330.06 674.041 1325.34L664.965 1324.38L664.572 1315.22C661.13 1234.69 662.245 1148.7 663.345 1064.18C663.842 1024.91 664.364 985.973 664.364 943.309L664.404 570.961C664.396 559.784 664.901 548.807 665.391 538.063C666.129 522.087 666.835 506.52 665.752 492.831C663.617 465.798 653.186 446.733 615.305 449.726C554.202 454.557 484.384 475.379 422.647 508.286C367.049 537.926 318.094 577.316 288.269 623.503C286.455 626.287 284.947 628.879 283.623 631.142C282.371 633.332 281.264 635.226 279.643 637.649L275.968 643.386C275.182 644.678 274.732 645.424 273.85 646.476C272.855 647.671 272.076 648.329 270.399 649.749L264.71 654.668L261.733 655.15C242.379 658.303 223.13 659.089 204.498 659.86C164.658 661.473 127.724 662.989 103.932 688.891C95.2103 698.383 81.9706 727.382 71.6517 757.881C64.0208 780.485 58.1392 803.506 57.1282 819.394C63.427 820.116 69.3889 820.004 76.0489 819.891L84.2013 819.795C121.609 819.675 133.597 822.788 133.686 849.42C133.71 858.944 131.343 871.654 127.948 889.869C124.787 906.872 120.663 928.922 116.811 957.52C114.564 974.193 113.024 993.379 111.475 1012.68C109.397 1038.75 107.27 1065.13 102.986 1088.56L101.926 1094.38L22.7131 1125.49L23.9969 1294.66L73.8583 1296.04L71.6196 1413.85L22.4964 1425.71C23.9086 1451 30.7772 1475.86 43.6157 1494.2C55.082 1510.59 71.5394 1521.75 93.3567 1522.89C125.525 1524.58 159.419 1524.11 193.208 1523.66C219.214 1523.3 245.196 1522.94 270.279 1523.55L269.22 1512.86C265.095 1473.63 258.259 1408.78 307.623 1355.34C317.348 1344.82 327.562 1335.48 338.114 1327.33C379.831 1295.07 426.443 1281.67 470.703 1283.8C515.092 1285.94 557.114 1303.68 589.547 1333.65C597.202 1340.71 604.376 1348.53 610.907 1356.99C631.834 1384.06 643.333 1409.46 648.043 1438.08C652.111 1462.73 651.044 1489.51 646.671 1521.79C651.79 1520.7 655.433 1519.03 657.84 1516.55C661.956 1512.31 663.722 1504.46 664.267 1492.17C664.564 1486.78 666.883 1478.34 668.015 1472.71L676.616 1472.59C858.345 1470.17 1046.02 1470.92 1232.35 1471.67C1316.79 1472 1400.42 1472.34 1500.09 1472.34L1703.13 1473.24C1717.27 1476.31 1722.2 1481.54 1726.29 1485.86C1728.09 1487.76 1729.43 1489.17 1740.95 1486.64C1746.21 1471.92 1747.9 1458.66 1749.54 1445.72C1752.95 1419.02 1756.22 1393.45 1785.03 1359.07C1798.43 1343.07 1813.05 1328.29 1830.95 1316.19C1848.67 1304.21 1869.51 1294.92 1895.35 1289.83L1910.87 1282.39L1914.36 1283.13C1927.07 1285.82 1938.2 1285.99 1949.15 1286.18C1968.86 1286.48 1988.12 1286.8 2014.81 1299.18C2042.99 1312.25 2068.22 1330.7 2088.07 1354.12C2106.64 1376.05 2120.53 1402.37 2127.8 1432.79C2131.4 1447.68 2131.77 1464.58 2132.13 1481.29C2132.47 1497.71 2132.84 1514.02 2136.48 1526.66C2140.62 1527.36 2144.35 1527.59 2147.46 1527.16C2149.61 1526.87 2151.37 1526.25 2152.55 1525.28C2153.58 1524.44 2154.4 1523.04 2154.9 1521C2155.65 1518.01 2155.73 1514.02 2155.03 1508.88L2154.84 1507.58L2157.99 1479.06L2169.96 1482.31C2189.96 1487.74 2195.39 1487.72 2196.39 1484.11C2197.26 1480.7 2197.61 1475.52 2198.01 1469.22C2198.82 1457 2199.87 1440.98 2205.69 1421.28C2222.9 1363.13 2262.31 1323.59 2309.55 1302.76C2340.62 1289.06 2375.11 1283.47 2408.81 1286.03C2442.59 1288.58 2475.73 1299.34 2504.08 1318.28C2545.62 1346.04 2576.8 1391.27 2584.49 1453.89C2585.61 1462.95 2585.45 1474.62 2585.3 1486.14C2585.13 1498.7 2584.98 1511.16 2586.64 1518.38C2587.23 1521 2588.79 1523.76 2590.95 1525.98C2592.39 1527.52 2594.1 1528.73 2595.93 1529.42C2597.36 1529.95 2598.9 1530.14 2600.38 1529.81C2602.02 1529.44 2603.86 1528.37 2605.82 1526.5C2612.63 1519.92 2609.63 1488.98 2607.01 1461.8C2605.36 1444.75 2603.83 1428.96 2605.02 1418.78L2605.89 1411.46L2613.03 1409.68C2644.19 1401.96 2720.48 1403.5 2775.75 1404.62C2792.07 1404.94 2806.57 1405.25 2817.19 1405.25C2832.84 1405.26 2844.38 1405.49 2853.12 1405.63C2866.02 1405.86 2872.48 1405.98 2876.03 1405.22C2877.96 1404.8 2879.62 1403.34 2882.87 1400.47C2886.24 1397.49 2890.72 1393.53 2897.11 1388.76C2911.9 1377.69 2932.91 1371.66 2952.45 1366.08L2964.64 1362.52L2962.56 1330.77C2918.71 1325.49 2700.07 1327.76 2617.12 1328.62L2596.95 1328.82C2548.89 1329.27 2542.74 1324.09 2528.16 1311.77C2522.56 1307.03 2515.37 1300.96 2502.25 1293.61L2485.44 1284.23C2491.73 1280.81 2512.21 1273.09 2519.06 1270.76L1802.19 1269.52ZM2238.08 1486.94C2232.53 1415.19 2268.73 1366.42 2318.13 1342.47C2337.83 1332.92 2359.68 1327.39 2381.7 1325.98C2403.71 1324.57 2426.08 1327.3 2446.89 1334.25C2499.14 1351.71 2541.55 1395.59 2545.23 1467.54C2548.93 1539.61 2512.75 1588.66 2463.99 1612.72C2444.53 1622.32 2423.03 1627.9 2401.34 1629.29C2379.65 1630.69 2357.65 1627.94 2337.14 1620.92C2285.77 1603.33 2243.68 1559.27 2238.08 1486.94ZM2327.35 1361.56C2285.28 1381.95 2254.46 1423.72 2259.25 1485.37C2264.09 1547.87 2300.06 1585.81 2343.94 1600.84C2361.8 1606.95 2381.01 1609.34 2400 1608.12C2418.94 1606.91 2437.69 1602.05 2454.62 1593.7C2496.32 1573.12 2527.27 1530.89 2524.06 1468.63C2520.89 1406.83 2484.74 1369.23 2440.17 1354.33C2422.04 1348.27 2402.44 1345.9 2383.04 1347.14C2363.68 1348.37 2344.55 1353.23 2327.35 1361.56ZM1978.32 1328.51C2038.99 1343.67 2075.22 1388.23 2087.26 1438.6C2092.59 1460.86 2093.15 1484.31 2088.99 1506.81C2084.8 1529.41 2075.85 1551.14 2062.17 1569.87C2032.09 1611 1979.45 1637.73 1904.82 1627.99L1901.83 1627.61L1893 1620.39C1877.85 1619.54 1863.03 1612.57 1849.91 1603.07C1831 1589.38 1815.16 1570.08 1807.4 1557.19C1784.22 1518.62 1779.81 1477.63 1788.98 1440.93C1793.93 1421.12 1802.89 1402.5 1814.99 1386.23C1827.09 1369.96 1842.35 1355.99 1859.87 1345.43C1893.01 1325.52 1934.34 1317.53 1978.32 1328.51ZM2066.67 1443.49C2056.35 1400.31 2025.24 1362.12 1973.17 1349.11C1935.04 1339.58 1899.34 1346.44 1870.83 1363.58C1855.65 1372.76 1842.44 1384.83 1832.01 1398.85C1821.58 1412.88 1813.86 1428.95 1809.58 1446.07C1801.69 1477.62 1805.53 1512.94 1825.55 1546.23C1832.26 1557.33 1845.96 1574.01 1862.36 1585.87C1873.36 1593.83 1885.39 1599.5 1896.7 1599.31L1900.56 1599.25L1910.52 1607.35C1974.7 1614.88 2019.6 1592.15 2045.06 1557.32C2056.84 1541.2 2064.56 1522.47 2068.16 1502.98C2071.8 1483.33 2071.3 1462.89 2066.67 1443.49ZM608.901 1511.07C591.313 1583.27 540.713 1619.96 485.636 1628.02C464.412 1631.11 442.467 1629.92 421.556 1624.81C400.589 1619.68 380.585 1610.65 363.302 1598.13C318.856 1565.98 291.671 1511.08 309.268 1440.34C327.073 1368.82 376.517 1333.13 430.623 1325.49C451.694 1322.51 473.472 1323.83 494.262 1329C515.076 1334.17 535.008 1343.21 552.372 1355.59C597.499 1387.74 625.648 1442.34 608.901 1511.07ZM482.555 1607.02C529.728 1600.12 573.106 1568.47 588.304 1506.1C602.675 1447.12 578.659 1400.36 540.087 1372.87C524.906 1362.04 507.445 1354.12 489.207 1349.6C470.96 1345.06 451.903 1343.89 433.528 1346.49C387.446 1352.99 345.207 1383.72 329.865 1445.4C314.692 1506.39 337.825 1553.51 375.755 1580.94C390.856 1591.87 408.292 1599.76 426.531 1604.21C444.818 1608.67 464.003 1609.72 482.555 1607.02Z" fill="#2B2A29"/>
<path fill-rule="evenodd" clip-rule="evenodd" d="M2058.46 1162.76C2044.43 1093.56 2093.42 1037.8 2147.73 1027.41C2300.16 998.258 2339.66 1225.19 2192.02 1253.32C2123.25 1266.42 2069.34 1216.42 2058.46 1162.76ZM1482.63 1114.72C1466.89 1117.45 1295.09 1091.32 1252.77 1086.7C1240.69 1085.38 1224.19 1086.82 1223.03 1076.32C1221.91 1066.22 1232.5 1051.99 1238.36 1046.63C1267.6 1019.87 1342.28 1040.46 1384.43 1046.22C1410.07 1049.72 1435.67 1052.97 1460.28 1056.08C1498.02 1060.85 1486.11 1081.23 1482.63 1114.72ZM2044.62 1175.22C2000.13 1176.85 1842 1180.24 1809.1 1171.83C1814.71 1163.05 1854.91 1153.7 1874.77 1144.43C1897.84 1133.67 1916.3 1123.02 1935.06 1108.74C2000.56 1058.9 1996.42 1027.55 2020.29 1005.15C2059.3 968.545 2121.07 979.61 2184.09 979.658C2245.25 979.698 2312.61 982.033 2373.04 978.944C2375.19 1022.9 2373.28 1068.96 2373.73 1113.23C2374.38 1176.38 2356.27 1175.28 2296.97 1175.73C2303.24 1128.61 2299.01 1089.3 2272.73 1058.69C2215.07 991.533 2121.49 994.968 2069.78 1057.72C2043.27 1089.89 2037.75 1124.29 2044.62 1175.22ZM1792.17 1158.52C1765.09 1107.65 1820.73 1002.88 1843.83 974.137C1941.74 852.3 2078.1 845.576 2230.61 852.838C2297.07 856.007 2368.25 905.387 2370.87 967.694C2307.34 969.764 2241.67 968.191 2177.9 968.208C2115.29 968.224 2053.6 958.86 2014.83 996.605C1986.84 1023.85 1987.54 1058.82 1927.95 1101.67C1907.22 1116.57 1823.44 1163.43 1792.17 1158.52ZM1457.46 1039.11C1436.82 1039.57 1340.25 1028.37 1326.11 1020.36C1326.69 1019.88 1327.65 1018.48 1327.94 1019.06L1336.33 1014.88C1372.15 1002.33 1390.43 1012.12 1414.84 981.664C1427.91 965.351 1458.5 919.815 1472.1 909.712L1521.44 945.845C1518.06 961.925 1468.2 1019.63 1457.46 1039.11ZM2144.25 820.012L2217 819.434L2217.6 836.22L2145.02 837.175L2144.25 820.012ZM1525.58 924.468C1514.77 921.556 1507.16 915.112 1500.28 909.584C1506.69 892.388 1750.59 569.565 1779.54 532.189C1792.32 515.676 1807.69 489.878 1821.91 477.73C1833.13 481.806 1837.46 485.947 1844.03 494.107C1837.2 508.422 1816.02 534.524 1805.29 548.703C1792.3 565.874 1778.33 583.238 1765.37 601.653C1718.54 668.285 1556.56 873.315 1525.58 924.468ZM1815.22 450.761C1817.94 440.627 1886.98 348.11 1896.2 340.768C1906.2 347.05 1914.69 354.376 1925.9 362.256C1935.15 368.763 1947.28 374.348 1953.23 385.758C1949.29 396.952 1878.63 488.851 1871.44 493.361C1860.58 486.645 1824.65 460.238 1815.22 450.761ZM1928.29 342.421C1937.84 319.44 2007.81 284.503 2054.81 341.739C2129.76 433.02 2037.69 520.137 1985.19 592.313C1938.09 657.067 1679.75 996.043 1670.13 1026.37C1653.35 1079.28 1708.6 1109.45 1772.15 1103.73C1771.12 1127.44 1771.99 1126.68 1744.5 1125.71C1708.07 1124.41 1672.06 1107.25 1655.36 1075.39C1628.32 1023.83 1680.88 972.196 1699.96 944.858C1713.6 925.327 1726.47 908.894 1740.81 889.708L1859.34 729.621C1913.15 655.992 1966.24 586.897 2019.06 514.761C2041.84 483.652 2080.69 434.914 2055.06 378.617C2046.92 360.755 2027.54 338.465 2007.98 332.824C1970.8 322.104 1960.13 344.242 1939.01 352.868L1928.29 342.421ZM1911.68 331.187L1893.29 321.277C1881.06 329.831 1848.38 376.025 1836.88 391.431L1797.45 446.035C1792.84 461.995 1800.29 456.739 1807.9 467.034L1487.58 896.898C1463.49 895.903 1466.86 888.28 1449.32 910.876C1392.89 983.614 1413.58 979.883 1348.81 995.866C1342.58 997.407 1330.54 1000.15 1324.69 1002.99C1314.3 1008.04 1313.83 1013.22 1307.56 1016.7C1296.83 1022.64 1273.19 1014.21 1254.67 1019.72C1226.62 1028.07 1203.05 1056.55 1207.07 1093.51C1222.43 1100.15 1473.97 1133.23 1493.95 1131.51C1497.26 1122.85 1502.07 1090.5 1502.2 1078.81C1502.47 1055.11 1491.59 1051.2 1475.74 1042.03C1481.56 1025.58 1530.47 967.903 1534.34 958.795C1543.75 936.633 1521.97 946.799 1561.83 899.546C1602.6 851.225 1712.52 697.011 1758.03 637.657C1766.7 626.351 1773.26 615.792 1781.4 605.272C1790.27 593.822 1798.1 584.057 1806.76 571.812L1855.96 506.376C1887.66 508.695 1863.83 534.572 1921 456.996C1931.45 442.817 1939.81 431.889 1948.85 419.861C1956.17 410.119 1971.46 392.828 1972.76 379.532C1964.91 370.978 1962.95 372.84 1955.49 364.085C1960.12 355.5 1969.73 349.313 1981.04 346.657C2024.05 336.555 2078.79 402.793 2024.91 480.402C2012.61 498.119 1999.16 515.852 1985.51 533.842L1674.4 953.323C1650.21 986.117 1613.88 1029.52 1642.78 1084.93C1651.29 1101.25 1671.8 1119.23 1689.52 1127.96C1714.06 1140.06 1740.44 1140.97 1770.41 1140.02C1780.37 1196.5 1827.02 1191.32 1883.82 1190.83C1936.18 1190.37 1996.24 1188.52 2047.89 1191.36C2057.53 1201.19 2061.07 1211.54 2067.94 1220.1C2123.17 1288.9 2235.2 1295.18 2290.43 1191.73C2313.72 1189.68 2336.86 1194.41 2357.84 1184.81C2374.71 1177.07 2387.53 1162.77 2388.81 1138.14C2391.21 1092.16 2389.85 1032.92 2388.98 986.181C2387.41 903.109 2315.94 841.372 2232.86 838.066C2234.12 794.142 2222.84 804.052 2181 803.971C2171.83 803.955 2145.95 802.904 2138.6 805.119C2124.31 809.436 2130.02 821.071 2127.96 836.75C2037.29 842.76 1974.99 846.17 1894.95 904.577C1865.66 925.953 1840.83 950.611 1819.9 981.198C1782.34 1036.06 1790.75 1047.67 1773.94 1086.95C1718.56 1102.71 1656.84 1066.45 1697.19 1007.08L2060.87 516.366C2113.59 444.671 2109.98 365.209 2049.7 315.821C2031.82 301.169 2004.39 291.019 1974.03 296.515C1940.04 302.661 1930.72 322.802 1911.68 331.187Z" fill="#0E0D0D"/>
<path fill-rule="evenodd" clip-rule="evenodd" d="M1792.17 1158.52C1823.44 1163.43 1907.22 1116.57 1927.95 1101.67C1987.54 1058.82 1986.84 1023.85 2014.83 996.605C2053.6 958.86 2115.29 968.224 2177.9 968.208C2241.67 968.191 2307.34 969.764 2370.87 967.694C2368.25 905.387 2297.07 856.007 2230.61 852.838C2078.1 845.576 1941.74 852.3 1843.83 974.137C1820.73 1002.88 1765.09 1107.65 1792.17 1158.52Z" fill="#E31E24"/>
<path fill-rule="evenodd" clip-rule="evenodd" d="M2044.62 1175.22C2037.75 1124.29 2043.27 1089.89 2069.78 1057.72C2121.49 994.968 2215.07 991.533 2272.73 1058.69C2299.01 1089.3 2303.24 1128.61 2296.97 1175.73C2356.27 1175.28 2374.38 1176.38 2373.73 1113.23C2373.28 1068.96 2375.19 1022.9 2373.04 978.944C2312.61 982.033 2245.25 979.698 2184.09 979.658C2121.07 979.61 2059.3 968.545 2020.29 1005.15C1996.42 1027.55 2000.56 1058.9 1935.06 1108.74C1916.3 1123.02 1897.84 1133.67 1874.77 1144.43C1854.91 1153.7 1814.71 1163.05 1809.1 1171.83C1842 1180.24 2000.13 1176.85 2044.62 1175.22Z" fill="#342E2F"/>
<path fill-rule="evenodd" clip-rule="evenodd" d="M2150.63 1078.69C2190.15 1065.1 2222.67 1089.51 2232.94 1119.94C2245.62 1157.49 2221.33 1191.28 2194.36 1200.74C2107.7 1231.16 2068.76 1106.84 2150.63 1078.69ZM2058.46 1162.76C2069.34 1216.42 2123.25 1266.42 2192.02 1253.32C2339.66 1225.19 2300.16 998.258 2147.73 1027.41C2093.42 1037.8 2044.43 1093.56 2058.46 1162.76Z" fill="#FEFEFE"/>
<path fill-rule="evenodd" clip-rule="evenodd" d="M1928.3 342.421L1939.01 352.868C1960.13 344.242 1970.8 322.104 2007.98 332.824C2027.54 338.465 2046.92 360.756 2055.06 378.617C2080.69 434.914 2041.84 483.652 2019.06 514.761C1966.24 586.897 1913.15 655.992 1859.34 729.621L1740.81 889.708C1726.47 908.894 1713.6 925.327 1699.96 944.858C1680.88 972.196 1628.32 1023.83 1655.36 1075.39C1672.06 1107.25 1708.07 1124.41 1744.5 1125.71C1771.99 1126.68 1771.12 1127.44 1772.16 1103.73C1708.6 1109.45 1653.35 1079.28 1670.13 1026.37C1679.75 996.043 1938.09 657.067 1985.19 592.313C2037.69 520.137 2129.76 433.02 2054.81 341.739C2007.81 284.503 1937.84 319.44 1928.3 342.421Z" fill="#342E2F"/>
<path fill-rule="evenodd" clip-rule="evenodd" d="M1525.58 924.469C1556.56 873.315 1718.54 668.285 1765.37 601.653C1778.32 583.238 1792.3 565.874 1805.29 548.703C1816.02 534.524 1837.2 508.422 1844.03 494.107C1837.46 485.947 1833.13 481.806 1821.91 477.73C1807.68 489.878 1792.32 515.676 1779.54 532.189C1750.59 569.565 1506.69 892.388 1500.28 909.584C1507.16 915.113 1514.77 921.556 1525.58 924.469Z" fill="#342E2F"/>
<path fill-rule="evenodd" clip-rule="evenodd" d="M1482.63 1114.72C1486.11 1081.23 1498.02 1060.85 1460.28 1056.08C1435.68 1052.97 1410.07 1049.72 1384.43 1046.22C1342.28 1040.46 1267.6 1019.87 1238.36 1046.63C1232.5 1051.99 1221.91 1066.22 1223.03 1076.32C1224.19 1086.82 1240.69 1085.38 1252.78 1086.7C1295.09 1091.32 1466.89 1117.45 1482.63 1114.72Z" fill="#342E2F"/>
<path fill-rule="evenodd" clip-rule="evenodd" d="M1815.22 450.761C1824.65 460.238 1860.58 486.645 1871.44 493.361C1878.63 488.851 1949.29 396.952 1953.23 385.758C1947.28 374.348 1935.15 368.763 1925.9 362.256C1914.69 354.376 1906.2 347.05 1896.2 340.768C1886.98 348.11 1817.94 440.627 1815.22 450.761Z" fill="#E31E24"/>
<path fill-rule="evenodd" clip-rule="evenodd" d="M1457.46 1039.11C1468.2 1019.63 1518.06 961.925 1521.44 945.845L1472.1 909.712C1458.5 919.815 1427.91 965.351 1414.84 981.664C1390.43 1012.12 1372.15 1002.33 1336.33 1014.88L1327.94 1019.06C1327.65 1018.48 1326.69 1019.88 1326.12 1020.36C1340.25 1028.37 1436.82 1039.57 1457.46 1039.11Z" fill="#E31E24"/>
<path fill-rule="evenodd" clip-rule="evenodd" d="M2117.33 1150.38C2129.3 1217.03 2237.97 1203.23 2224.14 1129.15C2212.16 1064.89 2104.18 1077.23 2117.33 1150.38Z" fill="#342E2F"/>
<path fill-rule="evenodd" clip-rule="evenodd" d="M2117.32 1150.38C2104.18 1077.23 2212.16 1064.89 2224.14 1129.15C2237.97 1203.23 2129.3 1217.03 2117.32 1150.38ZM2150.63 1078.69C2068.76 1106.84 2107.7 1231.16 2194.36 1200.74C2221.33 1191.28 2245.62 1157.49 2232.94 1119.94C2222.66 1089.51 2190.15 1065.1 2150.63 1078.69Z" fill="#211E21"/>
<path fill-rule="evenodd" clip-rule="evenodd" d="M2145.02 837.175L2217.6 836.22L2217 819.434L2144.25 820.012L2145.02 837.175Z" fill="#FCFCFD"/>
</svg>
