<svg width="2987" height="1630" viewBox="0 0 2987 1630" fill="none" xmlns="http://www.w3.org/2000/svg">
<path fill-rule="evenodd" clip-rule="evenodd" d="M1600.94 938.925C1582.33 965.509 1577.54 953.179 1562.55 997.546C1552.78 1026.44 1539.34 1031.89 1521.39 1049.95C1481.36 1090.21 1367.08 1218.32 1318.49 1231.04C1259.65 1246.45 1211.57 1204.24 1205.98 1157.24C1197.62 1086.8 1270.01 1037.37 1324.9 983.585C1340.72 968.079 1354.25 950.998 1370.38 935.463C1379.54 926.652 1388.83 919.938 1397.76 910.842C1457.57 849.879 1448.81 890.556 1483.34 856.024C1499.51 839.854 1510.12 769.52 1567.22 746.957C1591.51 770.686 1684.82 863.716 1691.66 876.548C1684.56 891.058 1656.31 919.056 1639.17 924.974C1617.18 908.661 1585.62 860.785 1558.42 858.756L1546.76 871.36C1548.97 890.47 1574.78 909.031 1600.94 938.925ZM1639.1 767.405C1649.95 744.283 1822.4 578.017 1855.07 546.53C1922.47 481.592 1923.53 487.624 1948.2 420.922C1959.7 389.815 1981.38 388.089 2008.67 372.516C2029.51 360.613 2054 345.334 2077.21 335.044L2103.85 354.771C2101.3 379.173 2079.9 410.708 2068.08 431.734C2050.44 463.155 2050.47 481.222 2018.74 491.683C1953.22 513.269 1951.34 524.991 1893.76 585.177L1675.59 799.072C1661.26 793.771 1648.56 777.989 1639.1 767.405ZM1609.54 739.009C1586.55 717.443 1568.61 695.335 1531.05 726.908C1515.91 739.626 1477.74 775.637 1470.72 796.512C1446.62 868.211 1448.63 822.697 1403.79 854.421L1211.37 1046.84C1163.67 1096.43 1150.86 1179.07 1204.4 1232.98C1318.62 1347.96 1437.92 1178.82 1517.65 1103.41C1536.74 1085.36 1563.7 1060.31 1580.2 1041.06C1614.83 1000.65 1575.61 989.835 1638.71 969.558C1665.68 960.899 1693.79 928.938 1710.52 911.44C1753.09 866.874 1712.93 855.92 1700.96 823.693C1731.69 803.15 1795.17 733.755 1824.53 703.084C1857.42 668.723 1972.3 544.548 2014.43 529.582C2068.36 510.424 2057.08 523.559 2084.66 474.583C2099.46 448.331 2113.3 422.943 2127.3 397.715C2154.38 348.881 2152.15 353.462 2115.54 317.47C2081.9 284.408 2078.96 292.46 2039.17 314.748C1928.86 376.499 1933.11 358.356 1909.26 429.212C1895.4 470.344 1765.55 586.116 1731.46 620.506C1693.21 659.087 1649.94 706.441 1609.54 739.009Z" fill="#4D4A4B"/>
<path fill-rule="evenodd" clip-rule="evenodd" d="M1496.86 940.831C1509.4 970.308 1478.03 985.681 1460.16 1004.38C1441.38 1024.03 1425.02 1040.17 1405.59 1058.97C1378.35 1085.36 1308.53 1168.04 1288.05 1155.26C1260.46 1138.01 1345.41 1070.53 1377.98 1036.57C1407.61 1005.7 1468.03 934.097 1496.86 940.831ZM1600.94 938.925C1574.78 909.031 1548.97 890.47 1546.76 871.36L1558.42 858.756C1585.62 860.785 1617.18 908.661 1639.17 924.974C1656.31 919.056 1684.56 891.058 1691.66 876.548C1684.82 863.716 1591.51 770.686 1567.22 746.957C1510.12 769.52 1499.52 839.854 1483.34 856.024C1448.81 890.556 1457.57 849.879 1397.76 910.842C1388.83 919.938 1379.54 926.652 1370.38 935.463C1354.25 950.998 1340.72 968.079 1324.9 983.585C1270.01 1037.37 1197.62 1086.8 1205.98 1157.24C1211.57 1204.24 1259.65 1246.45 1318.49 1231.04C1367.08 1218.32 1481.36 1090.21 1521.39 1049.95C1539.34 1031.89 1552.78 1026.44 1562.55 997.546C1577.54 953.179 1582.33 965.509 1600.94 938.925Z" fill="#E31E24"/>
<path fill-rule="evenodd" clip-rule="evenodd" d="M1215.73 564.711C1234.62 526.765 1233.35 563.345 1238.45 502.41C1240.63 476.395 1251.72 472.516 1268.96 454.724C1360.17 360.471 1411.89 290.317 1568.83 349.005L1593.33 362.017C1571.77 376.366 1464.56 401.053 1446.71 455.568C1459.17 478.491 1482.82 493.609 1494.75 512.738C1484.86 530.805 1408.58 608.072 1389.45 618.561C1357.16 603.558 1333.13 579.677 1287.84 608.603C1228.2 646.691 1281.83 658.85 1238.59 685.301C1218.38 674.394 1204.34 653.302 1189.66 639.569C1175.16 626.016 1154.36 611.98 1149.92 589.483L1164.94 575.172C1194.54 581.716 1196.15 606.725 1214.43 610.472C1235.7 614.834 1228.25 609.324 1233.19 605.085C1245.11 584.599 1226.91 583.167 1215.73 564.711ZM1102.67 595.885C1111.08 622.516 1211.14 719.965 1238.59 732.209C1277.72 708.167 1295.99 687.805 1303.52 653.985C1310.92 620.714 1339.64 628.254 1358.18 642.67C1421.03 691.532 1379.8 630.189 1443.9 692.281C1456.05 704.051 1465.29 718.476 1483.43 710.747C1500.43 684.846 1449.77 653.89 1434.63 632.275C1442.69 615.811 1493.04 565.858 1509.1 558.859C1531.39 576.035 1547.12 595.544 1567.37 615.593C1583.03 631.109 1610.36 670.496 1634.78 659.514C1655.61 640.944 1587.4 584.466 1561.28 559.324C1518.96 518.599 1548.49 537.842 1537.41 505.274C1533.7 494.377 1503.39 469.993 1493.98 455.568C1527.35 401.831 1620.93 399.754 1665.84 395.941C1774.39 386.675 1551.37 276.3 1425.13 297.762C1340.5 312.159 1288.33 385.319 1243.6 429.392C1234.21 438.629 1211.73 459.864 1207.08 470.458C1196.28 495.135 1212.5 524.527 1190.37 531.554C1166.29 539.208 1177.07 514.227 1140.98 550.333C1126.44 564.872 1111.9 575.722 1102.67 595.885Z" fill="#4D4A4B"/>
<path fill-rule="evenodd" clip-rule="evenodd" d="M1215.73 564.711C1226.91 583.167 1245.11 584.599 1233.19 605.085C1228.25 609.324 1235.7 614.834 1214.43 610.472C1196.15 606.725 1194.54 581.716 1164.94 575.172L1149.92 589.483C1154.36 611.98 1175.16 626.016 1189.66 639.569C1204.34 653.302 1218.38 674.394 1238.59 685.301C1281.83 658.85 1228.2 646.691 1287.84 608.603C1333.13 579.677 1357.16 603.558 1389.45 618.562C1408.58 608.072 1484.86 530.805 1494.75 512.738C1482.82 493.609 1459.17 478.491 1446.71 455.568C1464.56 401.053 1571.77 376.366 1593.33 362.017L1568.83 349.005C1411.89 290.317 1360.17 360.471 1268.96 454.724C1251.72 472.516 1240.63 476.395 1238.45 502.41C1233.35 563.345 1234.62 526.765 1215.73 564.711Z" fill="#E31E24"/>
<path fill-rule="evenodd" clip-rule="evenodd" d="M1639.1 767.405C1648.56 777.989 1661.26 793.771 1675.59 799.072L1893.76 585.177C1951.34 524.991 1953.21 513.269 2018.74 491.683C2050.47 481.222 2050.44 463.155 2068.08 431.734C2079.9 410.708 2101.3 379.173 2103.85 354.771L2077.21 335.044C2054 345.334 2029.51 360.613 2008.67 372.516C1981.38 388.088 1959.7 389.815 1948.2 420.922C1923.53 487.624 1922.47 481.592 1855.07 546.53C1822.4 578.017 1649.95 744.283 1639.1 767.405Z" fill="#342E2F"/>
<path fill-rule="evenodd" clip-rule="evenodd" d="M2100.52 1152.01C2086.1 1168.1 2039.86 1217.89 2022.42 1224.78C1979.68 1174.71 1928.09 1130.22 1881.53 1081.37L1775.28 974.452C1730.04 930.37 1718.45 957.409 1732.08 980.143C1734.38 983.993 1748.79 997.726 1753 1001.93C1800.37 1049.02 2011.14 1262.28 2029.33 1269.84C2047.81 1262.19 2113.88 1194.57 2134.03 1173.26C2157.77 1148.14 2131.29 1128.14 2115.81 1112.42L1807.69 806.318C1777.5 783.983 1763.05 808.955 1793.98 841.352C1846.59 896.464 2088.71 1129.32 2100.52 1152.01Z" fill="#4E4A4B"/>
<path fill-rule="evenodd" clip-rule="evenodd" d="M1496.86 940.831C1468.03 934.097 1407.61 1005.7 1377.98 1036.57C1345.41 1070.53 1260.46 1138.01 1288.05 1155.26C1308.53 1168.04 1378.35 1085.36 1405.59 1058.97C1425.02 1040.17 1441.38 1024.03 1460.16 1004.38C1478.03 985.681 1509.4 970.308 1496.86 940.831Z" fill="#4B4A4C"/>
<path fill-rule="evenodd" clip-rule="evenodd" d="M2274.64 1278.31C2268.17 1289.06 2275.03 1279.69 2267.65 1286.89C2231.36 1322.34 2211.21 1316.48 2160.95 1316.74C2139.27 1316.87 2110.43 1320.62 2093.69 1310.89C2089.07 1308.2 2058.83 1285.03 2054.85 1279.01L2274.64 1278.31ZM148.762 1080.41C120.11 1047.42 144.247 896.891 155.021 849.053C160.816 823.371 169.19 820.867 196.125 819.956C240.976 818.439 362.315 815.745 393.167 827.42C404.102 866.049 396.05 909.932 394.106 948.58C392.19 986.383 401.095 1043.02 370.158 1053.91C350.109 1060.96 173.657 1083.36 148.762 1080.41ZM1802.24 1269.51C1810.81 1269.92 1819.2 1270.37 1827.41 1270.83L731.445 1279.38L1822.14 1280.11C1779.85 1317.63 1782.12 1315.84 1711.42 1315.73C1559.12 1315.5 734.461 1321.14 675.176 1314.8C659.613 1311.23 667.067 1320.36 662.771 1298.2L662.155 521.549C663.34 479.363 666.347 449.583 619.249 451.613C491.479 457.133 356.539 538.649 306.359 599.783C289.97 619.728 278.514 651.187 250.289 656.763C157.25 675.172 94.7119 619.368 59.7061 818.534C88.1773 820.544 107.99 821.018 132.079 828.217C138.671 864.664 115.937 961.212 111.499 1008.75C109.09 1034.69 110.171 1081.8 93.403 1095.99C76.9007 1109.95 40.5861 1114.15 23.9605 1128.91C21.9309 1156.09 18.4503 1272.56 26.3979 1288.06C36.2045 1295.92 34.2982 1293.19 45.0057 1296.31C62.134 1301.3 52.6309 1292.44 64.6568 1303.64C79.5658 1320.25 76.6921 1363.14 74.7858 1387.68C71.7983 1426.17 52.7258 1412.46 24.283 1432.32C21.599 1467.13 48.7804 1519.58 97.6045 1521.25C137.94 1522.61 227.29 1525.53 262.467 1520.68C262.969 1519.4 263.453 1516.11 263.586 1516.7L265.9 1499.82C267.493 1448.74 257.943 1409.82 307.819 1354.81C336.917 1322.73 385.617 1285.07 452.642 1283.08C538.548 1280.57 616.081 1335.34 642.845 1413.3C656.132 1451.98 649.987 1472.35 651.438 1512.36C662.079 1506.57 651.808 1512.3 659.916 1504.94C660.865 1504.08 663.862 1501.1 664.952 1500.16C674.057 1492.43 659.395 1500.72 674.863 1492.62L676.76 1483.18C677.453 1466.19 698.744 1470.67 735.922 1470.59L1612.52 1470.65C1740.37 1470.31 1701.75 1484.95 1738.6 1485.68C1760.4 1425.43 1741.32 1399.8 1806.85 1334.51C1813.44 1327.94 1824.56 1321.25 1833.11 1315.4C1842.03 1309.26 1868.21 1293.82 1879.18 1293.39C1907.35 1292.32 1888.33 1289.38 1898.69 1299.98L1912.21 1293.5C1897.86 1285.59 1893.45 1289.3 1917.16 1283.75C1944.09 1277.45 1977.45 1286.86 2002.01 1294.42C2059.31 1312.02 2103.93 1361.68 2123.23 1416.18C2134.59 1448.3 2127.14 1494.31 2138.48 1522.09C2161.99 1521.71 2155.06 1519.67 2155.94 1493.98C2163.52 1521.92 2154.47 1495.02 2165.58 1507.47L2167.23 1492.56C2163.57 1487.48 2175.25 1484.63 2162.02 1487.98C2185.83 1484.23 2191.36 1492.89 2196.26 1468.4C2199.61 1451.72 2197.63 1442.5 2203.81 1421.33C2213.23 1389.12 2225.54 1373.67 2244 1353.54C2344.35 1244.17 2477.4 1276.29 2539.46 1350.79C2582.01 1401.86 2582.09 1438.58 2587.3 1519.31C2598.34 1523.74 2596.44 1525.01 2607.99 1523.9C2614.75 1496.31 2597.92 1447.82 2608.01 1415.96C2643.87 1395.46 2766.12 1404.78 2817.27 1404.88C2879.67 1404.99 2859.21 1409.83 2903.85 1383.86C2934.09 1366.28 2964.76 1375.85 2961.09 1333.61C2939.11 1327.73 2753.2 1330.85 2713.87 1330.89C2662.92 1330.96 2565.59 1341.63 2536.58 1317.81C2499.38 1287.28 2509.21 1300 2507.46 1284.35L2513.62 1281.01C2530.52 1275.24 2818.96 1278.61 2848.73 1278.6C2868.22 1278.6 2887.71 1278.47 2907.19 1278.63C2922.21 1278.73 2943.97 1281.6 2956.9 1273.95C2927.37 1266.17 2572.4 1270.83 2510.61 1270.76L1802.24 1269.51ZM2814.7 1267.79C2833.22 1268 2852.53 1268.12 2870.87 1267.94L2814.7 1267.79Z" fill="#352F31"/>
<path fill-rule="evenodd" clip-rule="evenodd" d="M150.252 1070.14C161.434 1074.34 334.993 1051.19 362.108 1045.13C388.464 1039.23 380.507 1002.89 382.413 943.174C383.371 913.375 389.716 859.363 383.343 831.072L173.355 831.404C158.569 870.971 134.129 1032.31 150.252 1070.14Z" fill="#FEFEFE"/>
<path fill-rule="evenodd" clip-rule="evenodd" d="M674.864 1492.63C659.395 1500.72 674.057 1492.43 664.953 1500.16C663.862 1501.1 660.865 1504.08 659.917 1504.94C651.808 1512.3 662.079 1506.57 651.438 1512.36C649.987 1472.35 656.133 1451.98 642.845 1413.3C616.081 1335.34 538.549 1280.57 452.642 1283.08C385.618 1285.07 336.917 1322.73 307.82 1354.81C257.943 1409.82 267.493 1448.74 265.9 1499.82L263.586 1516.7C263.453 1516.11 262.969 1519.4 262.467 1520.68C227.29 1525.53 137.941 1522.61 97.6047 1521.25C48.7806 1519.58 21.5992 1467.13 24.2832 1432.32C52.726 1412.46 71.7985 1426.17 74.786 1387.68C76.6923 1363.14 79.566 1320.25 64.657 1303.65C52.6312 1292.44 62.1342 1301.3 45.006 1296.31C34.2984 1293.19 36.2047 1295.92 26.3982 1288.06C18.4505 1272.56 21.9311 1156.09 23.9607 1128.91C40.5864 1114.15 76.901 1109.95 93.4033 1095.99C110.171 1081.8 109.09 1034.69 111.499 1008.75C115.937 961.212 138.671 864.664 132.079 828.217C107.99 821.018 88.1775 820.544 59.7063 818.534C94.7121 619.368 157.25 675.172 250.289 656.763C278.514 651.187 289.971 619.728 306.359 599.783C356.539 538.648 491.479 457.133 619.249 451.613C666.347 449.583 663.34 479.363 662.155 521.549L662.771 1298.2C667.068 1320.36 659.613 1311.23 675.177 1314.8C670.065 1195.35 675.006 1064.1 675.006 943.297C675.006 819.179 675.091 695.051 675.006 570.942C674.968 505.464 693.832 432.834 614.497 439.113C495.453 448.54 344.286 517.186 279.348 617.746C275.488 623.711 273.335 628.036 270.851 631.725C263.576 642.471 268.404 637.293 260.039 644.671C198.136 654.772 134.536 639.901 96.1347 681.688C77.9158 701.5 43.8963 792.376 46.5139 828.312C59.9908 831.413 70.1483 830.408 84.2037 830.36C142.55 830.171 122.225 838.204 106.321 956.091C100.81 996.91 99.7956 1047.2 92.5782 1086.64L12.0772 1118.27L13.4903 1304.94L63.0731 1306.32L61.1858 1405.46L11.6504 1417.43C12.1151 1473.24 37.5515 1530.55 92.8153 1533.47C153.438 1536.68 220.443 1532.22 281.378 1534.48C282.232 1505.56 257.933 1424.76 315.426 1362.52C407.279 1263.09 537.875 1279.82 602.538 1363.46C642.143 1414.69 645.871 1458.96 634.243 1533.82C664.649 1532.41 673.536 1522.59 674.864 1492.63Z" fill="#120D11"/>
<path fill-rule="evenodd" clip-rule="evenodd" d="M2006.24 1536.33C1995.32 1540.97 1999.5 1537.8 1995.26 1547.04C2002.66 1552.62 2008.41 1543 1991.19 1558.25C1977.72 1570.16 1950.95 1577.11 1931.44 1575.36C1906.21 1573.13 1876.14 1553.1 1866.43 1542.3C1832.32 1504.39 1830.43 1443.67 1871.4 1403.27C1906.81 1368.33 1962.76 1369.93 2007.95 1410.08C2067.02 1462.57 2013.94 1558.33 2006.24 1536.33ZM1896.93 1609.9L1906.25 1617.49C1907.32 1616.32 1908.95 1615.43 1910.21 1614.82C1937.45 1601.45 1931.97 1616.5 1966.15 1605.73C2128.53 1554.62 2081.79 1369.67 1966.96 1349.47C1807.24 1321.39 1752.02 1524.62 1871.69 1590.45C1900.7 1606.42 1925.84 1600.59 1896.93 1609.9Z" fill="#332D2F"/>
<path fill-rule="evenodd" clip-rule="evenodd" d="M440.2 1381.3C557.641 1350.4 604.275 1543.36 483.865 1572.44C427.52 1586.05 371.876 1543.38 363.445 1498.65C350.898 1432.13 392.04 1393.98 440.2 1381.3ZM329.236 1490.63C342.4 1652.19 593.804 1649.94 589.593 1468.8C585.714 1302.08 314.137 1305.4 329.236 1490.63Z" fill="#332D2F"/>
<path fill-rule="evenodd" clip-rule="evenodd" d="M2485.77 1504.09C2433.86 1637.01 2267.03 1565.33 2297.3 1448.01C2307.85 1407.11 2360.79 1369.19 2417.22 1382.68C2458.9 1392.64 2507.72 1447.85 2485.77 1504.09ZM2359.79 1351.25C2192.58 1393.01 2256.45 1648.44 2422.75 1603.48C2594.16 1557.16 2526.08 1309.71 2359.79 1351.25Z" fill="#342E2F"/>
<path fill-rule="evenodd" clip-rule="evenodd" d="M542.732 1499.61C557.357 1449.24 520.426 1403.88 482.461 1393.65C426.751 1378.64 386.548 1414.96 374.997 1453.28C341.982 1562.7 510.496 1610.61 542.732 1499.61Z" fill="#FEFEFE"/>
<path fill-rule="evenodd" clip-rule="evenodd" d="M2305.66 1490.63C2312.15 1533.47 2351.57 1569.08 2403.51 1562.86C2447.58 1557.58 2484.55 1515.77 2477.61 1463.57C2463.71 1359.05 2288.01 1373.97 2305.66 1490.63Z" fill="#FEFEFE"/>
<path fill-rule="evenodd" clip-rule="evenodd" d="M1995.26 1547.04C1999.5 1537.8 1995.32 1540.97 2006.24 1536.33C2007.97 1528.66 2051.76 1466.31 2001.78 1416.19C1973.36 1387.68 1913.9 1383.32 1879.96 1412.13C1848.96 1438.46 1844.51 1500.74 1874.04 1534.68C1921.01 1588.62 1980.19 1551.08 1995.26 1547.04Z" fill="#FEFEFE"/>
<path fill-rule="evenodd" clip-rule="evenodd" d="M2167.23 1492.56C2225.15 1508.31 2198.84 1481.93 2215.92 1424.25C2269.32 1243.8 2549.22 1253.57 2574.02 1455.17C2576.35 1474.17 2572.84 1505.4 2576.37 1520.75C2579.57 1534.69 2597.49 1549.36 2613.23 1534.14C2629.58 1518.32 2612.61 1445.75 2615.63 1419.98C2654.44 1410.35 2770 1415.8 2817.26 1415.83C2897.44 1415.88 2871.39 1421.3 2903.54 1397.26C2921.9 1383.54 2953.15 1377.84 2975.85 1370.09L2972.69 1321.98C2949.75 1313.89 2659.93 1317.64 2596.94 1318.23C2531.87 1318.85 2551.37 1308.92 2507.46 1284.35C2509.21 1300 2499.38 1287.28 2536.58 1317.81C2565.59 1341.63 2662.92 1330.96 2713.87 1330.89C2753.2 1330.85 2939.11 1327.73 2961.09 1333.61C2964.76 1375.85 2934.09 1366.28 2903.85 1383.86C2859.21 1409.83 2879.67 1404.99 2817.27 1404.88C2766.12 1404.78 2643.87 1395.46 2608.01 1415.96C2597.93 1447.82 2614.75 1496.31 2607.99 1523.9C2596.44 1525.01 2598.34 1523.74 2587.3 1519.31C2582.09 1438.58 2582.01 1401.86 2539.47 1350.79C2477.4 1276.29 2344.35 1244.17 2244 1353.54C2225.54 1373.67 2213.23 1389.12 2203.81 1421.33C2197.63 1442.5 2199.61 1451.72 2196.26 1468.4C2191.36 1492.89 2185.83 1484.23 2162.02 1487.98C2175.25 1484.63 2163.57 1487.48 2167.23 1492.56Z" fill="#151112"/>
<path fill-rule="evenodd" clip-rule="evenodd" d="M676.76 1483.18C946.108 1479.58 1228.37 1482.96 1500.13 1482.96L1701.39 1483.72C1727.55 1489.39 1711.32 1505.18 1748.91 1495.66C1768.26 1447.96 1750.14 1417.26 1793.22 1365.87C1818.9 1335.24 1848.97 1309.45 1898.69 1299.98C1888.33 1289.38 1907.35 1292.32 1879.18 1293.39C1868.21 1293.82 1842.03 1309.26 1833.11 1315.4C1824.56 1321.25 1813.44 1327.94 1806.85 1334.51C1741.32 1399.8 1760.4 1425.43 1738.6 1485.68C1701.75 1484.95 1740.37 1470.31 1612.52 1470.65L735.922 1470.59C698.744 1470.67 677.452 1466.19 676.76 1483.18Z" fill="#120D0E"/>
<path fill-rule="evenodd" clip-rule="evenodd" d="M2359.79 1351.25C2526.08 1309.71 2594.16 1557.16 2422.75 1603.48C2256.45 1648.44 2192.57 1393.01 2359.79 1351.25ZM2248.72 1486.16C2263.4 1675.45 2544.39 1656.35 2534.71 1468.09C2525.1 1280.66 2234.18 1298.69 2248.72 1486.16Z" fill="#151112"/>
<path fill-rule="evenodd" clip-rule="evenodd" d="M329.235 1490.63C314.136 1305.4 585.713 1302.08 589.592 1468.8C593.803 1649.94 342.399 1652.19 329.235 1490.63ZM598.621 1508.59C641.679 1331.89 365.986 1256.36 319.571 1442.87C273.696 1627.23 553.221 1694.83 598.621 1508.59Z" fill="#151112"/>
<path fill-rule="evenodd" clip-rule="evenodd" d="M150.251 1070.14C134.128 1032.31 158.568 870.971 173.354 831.403L383.341 831.071C389.715 859.363 383.37 913.374 382.412 943.173C380.506 1002.89 388.463 1039.23 362.106 1045.13C334.991 1051.19 161.432 1074.34 150.251 1070.14ZM148.762 1080.41C173.657 1083.36 350.109 1060.96 370.158 1053.91C401.096 1043.02 392.19 986.383 394.106 948.579C396.05 909.932 404.102 866.049 393.167 827.42C362.315 815.745 240.976 818.439 196.125 819.956C169.19 820.867 160.816 823.37 155.021 849.053C144.247 896.891 120.11 1047.42 148.762 1080.41Z" fill="#151112"/>
<path fill-rule="evenodd" clip-rule="evenodd" d="M1896.93 1609.9C1925.84 1600.59 1900.7 1606.42 1871.69 1590.45C1752.02 1524.62 1807.24 1321.39 1966.96 1349.47C2081.79 1369.67 2128.53 1554.62 1966.15 1605.73C1931.97 1616.5 1937.45 1601.45 1910.21 1614.82C1908.95 1615.43 1907.32 1616.32 1906.25 1617.49C2112.11 1644.34 2137.63 1379.25 1975.79 1338.8C1850.75 1307.55 1749.48 1440.3 1816.53 1551.7C1828.95 1572.33 1863.51 1610.47 1896.93 1609.9Z" fill="#120F10"/>
<path fill-rule="evenodd" clip-rule="evenodd" d="M2274.64 1278.31L2054.85 1279.01C2058.83 1285.03 2089.08 1308.2 2093.69 1310.89C2110.43 1320.62 2139.27 1316.87 2160.96 1316.74C2211.21 1316.48 2231.37 1322.34 2267.65 1286.89C2275.03 1279.69 2268.17 1289.06 2274.64 1278.31Z" fill="#FEFEFE"/>
<path fill-rule="evenodd" clip-rule="evenodd" d="M2305.66 1490.63C2288.01 1373.97 2463.71 1359.05 2477.61 1463.57C2484.55 1515.77 2447.58 1557.58 2403.51 1562.86C2351.57 1569.08 2312.15 1533.47 2305.66 1490.63ZM2485.77 1504.09C2507.72 1447.85 2458.9 1392.64 2417.21 1382.68C2360.79 1369.19 2307.85 1407.11 2297.3 1448.01C2267.03 1565.33 2433.86 1637.01 2485.77 1504.09Z" fill="#161215"/>
<path fill-rule="evenodd" clip-rule="evenodd" d="M1995.26 1547.04C1980.19 1551.08 1921.01 1588.62 1874.04 1534.68C1844.51 1500.74 1848.96 1438.46 1879.96 1412.13C1913.89 1383.32 1973.36 1387.68 2001.78 1416.19C2051.76 1466.31 2007.97 1528.66 2006.24 1536.33C2013.94 1558.33 2067.02 1462.57 2007.95 1410.08C1962.76 1369.93 1906.81 1368.33 1871.4 1403.27C1830.43 1443.67 1832.32 1504.39 1866.43 1542.3C1876.14 1553.1 1906.21 1573.13 1931.44 1575.36C1950.95 1577.11 1977.72 1570.16 1991.19 1558.25C2008.41 1543 2002.66 1552.62 1995.26 1547.04Z" fill="#161215"/>
<path fill-rule="evenodd" clip-rule="evenodd" d="M542.731 1499.61C510.495 1610.61 341.982 1562.7 374.996 1453.28C386.547 1414.96 426.75 1378.64 482.46 1393.65C520.425 1403.88 557.356 1449.24 542.731 1499.61ZM440.199 1381.3C392.039 1393.98 350.897 1432.13 363.444 1498.65C371.876 1543.38 427.519 1586.05 483.864 1572.44C604.274 1543.36 557.64 1350.4 440.199 1381.3Z" fill="#161215"/>
<path fill-rule="evenodd" clip-rule="evenodd" d="M1912.21 1293.5C1947.63 1301 1970.32 1290.22 2010.41 1308.8C2062.22 1332.85 2103.35 1375.75 2117.56 1435.24C2125.02 1466.48 2117.57 1508.76 2128.46 1535.77C2151.46 1541.54 2169.72 1537.27 2165.58 1507.47C2154.47 1495.02 2163.52 1521.92 2155.94 1493.98C2155.06 1519.67 2161.99 1521.71 2138.48 1522.09C2127.14 1494.31 2134.59 1448.3 2123.23 1416.18C2103.93 1361.68 2059.31 1312.02 2002.01 1294.42C1977.45 1286.86 1944.09 1277.45 1917.16 1283.75C1893.45 1289.3 1897.86 1285.59 1912.21 1293.5Z" fill="#151112"/>
<path fill-rule="evenodd" clip-rule="evenodd" d="M388.387 1049.88C325.536 1095.26 163.016 1060.43 106.946 1095.85C91.9236 1100.14 41.9329 1120.74 32.6859 1128.96C30.6564 1156.13 27.1757 1272.59 35.1234 1288.1C59.8768 1318.37 38.6135 1423.68 39.0972 1424.19C-5.76257 1451.83 75.9619 1515.81 78.5226 1517.79L271.182 1522.08C287.846 1436.88 245.737 1487.88 307.563 1364.52C341.023 1297.77 385.399 1300.71 452.461 1279.09C527.566 1272.83 537.591 1280.48 568.509 1302.17C580.478 1310.57 619.021 1307.82 650.319 1289.97C651.305 1289.41 659.414 1282.55 657.536 1273.89L650.025 1258.97C638.938 1229.98 662.202 676.614 662.202 586.183C662.202 469.68 662.155 521.549 651.827 459.703C517.465 432.417 473.601 492.432 360.674 549.944C314.449 573.484 329.766 625.172 273.601 648.266C245.879 649.252 174.189 661.401 156.88 666.997L94.6645 705.597C78.8166 751.348 80.1538 764.123 73.6572 808.737L161.869 822.479L401.892 827.458C410.532 857.949 407.877 1035.8 388.387 1049.88Z" fill="#E31E24" stroke="#2B2A29" stroke-width="2.36154" stroke-miterlimit="22.9256"/>
<path d="M2972.63 1278.31C2969.68 1280.48 2965.89 1282.32 2961.04 1283.79C2948.13 1290.76 2931 1290.06 2916.34 1289.49L2907.15 1289.21C2876.3 1289.17 2845.47 1289.16 2814.62 1288.96C2743.39 1288.43 2587.58 1287.25 2534.53 1289.49L2541.94 1295.57C2552.32 1304.33 2556.69 1308.02 2596.85 1307.65L2617.02 1307.44C2706.76 1306.52 2953.48 1303.96 2976.22 1311.98L2982.81 1314.31L2986.95 1377.51L2979.24 1380.13C2972.49 1382.44 2965.48 1384.46 2958.33 1386.5C2940.62 1391.57 2921.6 1397.03 2909.89 1405.78C2903.5 1410.55 2899.77 1413.85 2896.98 1416.32C2890.89 1421.71 2887.8 1424.42 2880.59 1425.98C2874.94 1427.2 2867.58 1427.06 2852.86 1426.8C2844.12 1426.65 2832.54 1426.42 2817.26 1426.42C2806.2 1426.41 2791.7 1426.1 2775.4 1425.79C2725.68 1424.78 2658.56 1423.43 2625.87 1428.73C2625.96 1437.01 2627.02 1448.09 2628.16 1459.8C2631.24 1491.72 2634.78 1528.05 2620.57 1541.77C2615.67 1546.5 2610.43 1549.28 2605.18 1550.49C2599.35 1551.82 2593.67 1551.23 2588.51 1549.26C2583.75 1547.46 2579.42 1544.44 2575.85 1540.74C2571 1535.77 2567.46 1529.39 2566.02 1523.12C2563.85 1513.61 2564.03 1499.8 2564.2 1485.87C2564.33 1475.33 2564.47 1464.62 2563.47 1456.46C2556.6 1400.57 2529.04 1360.39 2492.35 1335.87C2467.17 1319.05 2437.57 1309.49 2407.3 1307.2C2376.97 1304.91 2346 1309.9 2318.15 1322.19C2276.29 1340.64 2241.33 1375.71 2226.08 1427.24C2220.94 1444.66 2219.97 1459.36 2219.24 1470.57C2218.75 1478.16 2218.34 1484.4 2216.91 1489.66C2212.46 1505.86 2203.33 1511.38 2176.44 1505.74L2176.26 1507.42C2177.14 1514.76 2176.85 1520.98 2175.55 1526.14C2173.88 1532.83 2170.59 1537.93 2166.07 1541.65C2161.69 1545.25 2156.36 1547.35 2150.42 1548.16C2143.06 1549.18 2134.65 1548.26 2125.89 1546.07L2120.66 1544.76L2118.63 1539.71C2111.91 1523.08 2111.46 1502.49 2111.01 1481.71C2110.68 1466.33 2110.33 1450.76 2107.22 1437.68C2100.84 1410.72 2088.46 1387.35 2071.93 1367.82C2054.12 1346.81 2031.39 1330.23 2005.98 1318.43C1983.24 1307.89 1966.25 1307.61 1948.86 1307.33C1937.77 1307.15 1926.48 1306.97 1913.56 1304.58L1901.96 1310.15L1900.65 1310.4C1877.4 1314.82 1858.73 1323.09 1842.88 1333.79C1826.91 1344.59 1813.63 1358.05 1801.36 1372.68C1776.47 1402.4 1773.58 1424.89 1770.59 1448.37C1768.58 1464.25 1766.48 1480.57 1758.75 1499.65L1756.72 1504.63L1751.48 1505.96C1722.96 1513.18 1717.97 1507.91 1710.89 1500.4C1708.95 1498.35 1706.62 1495.89 1700.01 1494.3L1500.13 1493.54C1422.98 1493.59 1327.51 1493.19 1232.34 1492.83C1049.04 1492.11 864.47 1491.37 685.439 1493.87C684.538 1511.18 681.152 1522.97 673.052 1531.32C664.773 1539.86 652.718 1543.57 634.699 1544.41L621.791 1545.02L623.783 1532.21C629.426 1495.87 631.36 1467.07 627.14 1441.48C623.024 1416.47 612.809 1394.07 594.154 1369.93C588.407 1362.49 582.043 1355.56 575.196 1349.24C546.383 1322.63 509.082 1306.86 469.723 1304.96C430.25 1303.07 388.549 1315.11 351.067 1344.09C341.517 1351.46 332.194 1360.01 323.232 1369.71C280.363 1416.12 286.557 1475.05 290.312 1510.69C291.308 1520.25 292.162 1528.31 291.963 1534.76L291.659 1545.46L281.008 1545.06C252.698 1544.02 223.089 1544.44 193.47 1544.83C159.147 1545.29 124.72 1545.76 92.2749 1544.06C63.1588 1542.52 41.3453 1527.87 26.2751 1506.31C9.45981 1482.29 1.33194 1449.55 1.06639 1417.51L1 1409.11L50.7536 1397.08L52.29 1316.61L2.99166 1315.25L1.43627 1111.05L83.1607 1078.94C86.5086 1058.38 88.4339 1034.56 90.3117 1011.01C91.8387 991.817 93.3846 972.745 95.8125 954.678C99.7105 925.761 103.902 903.321 107.127 886.022C110.314 868.894 112.533 856.944 112.523 849.404C112.504 841.789 105.657 840.878 84.3273 840.944L76.3891 841.039C65.4255 841.229 56.1026 841.4 44.1431 838.649L36.5084 836.895L35.9299 829.051C34.5927 810.747 41.7057 780.246 51.5692 751.064C62.7035 718.144 77.7263 686.031 88.339 674.499C118.062 642.158 159.233 640.46 203.675 638.668C220.68 637.975 238.216 637.255 255.411 634.665L257.573 632.835C260.703 626.727 266.687 618.163 270.434 612.036C302.319 562.624 354.093 520.809 412.695 489.578C477.026 455.293 549.873 433.565 613.663 428.529C668.68 424.185 683.836 451.878 686.937 491.143C688.104 505.767 687.345 522.146 686.577 538.952C686.093 549.678 685.59 560.642 685.59 570.942V943.297C685.638 979.602 685.069 1021.86 684.528 1064.43C683.485 1145.21 682.413 1227.36 685.382 1304.88C763.322 1308.7 1192.49 1306.98 1477.38 1305.85C1584.5 1305.45 1671.29 1305.09 1711.42 1305.14L1720.67 1305.17C1749.1 1305.25 1763.82 1305.29 1774.65 1301.8C1780.83 1299.81 1786.5 1296.33 1793.67 1290.67C1433.48 1290.42 1064.06 1298.82 705.042 1289.25L704.312 1279.71C704.284 1279.26 704.255 1278.78 704.217 1278.31H2972.63ZM1802.24 1269.51L1850.19 1269.55L1828.71 1288.47C1806.99 1307.72 1796.44 1317.05 1781.13 1321.97C1767.18 1326.46 1751.32 1326.43 1720.67 1326.34L1711.42 1326.32C1671.36 1326.26 1584.58 1326.62 1477.46 1327.03C1177.59 1328.22 718.149 1330.06 674.058 1325.34L664.981 1324.37L664.593 1315.22C661.15 1234.68 662.269 1148.69 663.36 1064.17C663.862 1024.9 664.374 985.956 664.374 943.297L664.422 570.942C664.412 559.76 664.925 548.777 665.408 538.032C666.148 522.061 666.859 506.497 665.769 492.802C663.635 465.773 653.202 446.7 615.323 449.697C554.217 454.525 484.395 475.352 422.663 508.261C367.058 537.899 318.101 577.296 288.283 623.474C286.462 626.262 284.954 628.852 283.636 631.118C282.384 633.309 281.274 635.197 279.652 637.624L275.972 643.362C275.185 644.662 274.739 645.401 273.857 646.454C272.862 647.649 272.084 648.304 270.405 649.726L264.715 654.648L261.746 655.123C242.389 658.281 223.136 659.068 204.5 659.836C164.658 661.448 127.726 662.966 103.94 688.867C95.215 698.361 81.9657 727.363 71.647 757.864C64.0218 780.464 58.1417 803.482 57.1364 819.368C63.4243 820.098 69.3898 819.985 76.0476 819.871L84.204 819.776C121.609 819.662 133.597 822.773 133.692 849.404C133.711 858.926 131.34 871.635 127.954 889.854C124.786 906.859 120.661 928.909 116.82 957.504C114.563 974.177 113.026 993.363 111.48 1012.67C109.403 1038.74 107.269 1065.12 102.992 1088.56L101.93 1094.37L22.7091 1125.49L23.9989 1294.64L73.8568 1296.03L71.6186 1413.84L22.5004 1425.71C23.9136 1451 30.7801 1475.86 43.612 1494.2C55.0783 1510.6 71.5427 1521.74 93.3656 1522.89C125.536 1524.58 159.422 1524.11 193.214 1523.66C219.22 1523.31 245.206 1522.95 270.282 1523.55L269.22 1512.85C265.104 1473.64 258.266 1408.78 307.63 1355.34C317.351 1344.81 327.566 1335.47 338.122 1327.33C379.842 1295.07 426.456 1281.67 470.719 1283.79C515.104 1285.93 557.128 1303.68 589.564 1333.64C597.218 1340.71 604.388 1348.52 610.922 1356.98C631.853 1384.05 643.348 1409.46 648.052 1438.07C652.13 1462.73 651.059 1489.51 646.687 1521.79C651.808 1520.7 655.45 1519.02 657.849 1516.54C661.975 1512.3 663.739 1504.46 664.28 1492.17C664.583 1486.78 666.897 1478.34 668.035 1472.71L676.628 1472.59C858.372 1470.17 1046.05 1470.93 1232.38 1471.67C1316.82 1472 1400.45 1472.34 1500.13 1472.34L1703.18 1473.24C1717.32 1476.3 1722.25 1481.54 1726.34 1485.86C1728.13 1487.76 1729.47 1489.17 1740.99 1486.64C1746.25 1471.91 1747.94 1458.66 1749.59 1445.72C1752.99 1419.02 1756.26 1393.45 1785.07 1359.06C1798.47 1343.07 1813.1 1328.28 1830.99 1316.19C1848.72 1304.2 1869.56 1294.91 1895.4 1289.83L1910.93 1282.38L1914.41 1283.12C1927.12 1285.81 1938.26 1285.99 1949.2 1286.17C1968.9 1286.48 1988.17 1286.79 2014.86 1299.18C2043.04 1312.25 2068.27 1330.69 2088.13 1354.12C2106.69 1376.05 2120.59 1402.36 2127.86 1432.79C2131.45 1447.68 2131.82 1464.58 2132.18 1481.28C2132.52 1497.72 2132.89 1514.02 2136.53 1526.65C2140.68 1527.37 2144.41 1527.58 2147.51 1527.17C2149.67 1526.86 2151.43 1526.25 2152.61 1525.28C2153.63 1524.44 2154.45 1523.04 2154.96 1521C2155.7 1518.01 2155.79 1514.02 2155.08 1508.88L2154.89 1507.58L2158.05 1479.05L2170.01 1482.31C2190.01 1487.73 2195.45 1487.71 2196.44 1484.1C2197.32 1480.7 2197.67 1475.52 2198.08 1469.22C2198.87 1457 2199.93 1440.97 2205.75 1421.28C2222.95 1363.13 2262.37 1323.59 2309.61 1302.75C2340.68 1289.06 2375.16 1283.47 2408.88 1286.03C2442.65 1288.57 2475.8 1299.33 2504.14 1318.27C2545.7 1346.03 2576.86 1391.26 2584.55 1453.89C2585.67 1462.95 2585.51 1474.62 2585.37 1486.13C2585.21 1498.7 2585.05 1511.16 2586.71 1518.37C2587.3 1521 2588.86 1523.76 2591.02 1525.98C2592.45 1527.52 2594.16 1528.72 2595.99 1529.41C2597.42 1529.95 2598.97 1530.13 2600.45 1529.81C2602.08 1529.43 2603.93 1528.37 2605.88 1526.49C2612.7 1519.91 2609.7 1488.98 2607.08 1461.79C2605.43 1444.75 2603.9 1428.96 2605.09 1418.77L2605.95 1411.45L2613.1 1409.68C2644.26 1401.95 2720.55 1403.49 2775.83 1404.62C2792.14 1404.94 2806.63 1405.25 2817.26 1405.25C2832.9 1405.26 2844.45 1405.48 2853.2 1405.63C2866.1 1405.86 2872.55 1405.98 2876.1 1405.21C2878.03 1404.8 2879.69 1403.34 2882.95 1400.47C2886.31 1397.49 2890.79 1393.53 2897.18 1388.76C2911.97 1377.69 2932.99 1371.66 2952.53 1366.07L2964.72 1362.51L2962.64 1330.77C2918.79 1325.49 2700.14 1327.76 2617.19 1328.62L2597.02 1328.82C2548.96 1329.26 2542.81 1324.08 2528.24 1311.77C2522.62 1307.03 2515.43 1300.95 2502.32 1293.61L2485.51 1284.22C2491.8 1280.8 2512.28 1273.09 2519.12 1270.75L1802.24 1269.51ZM2238.14 1486.93C2232.58 1415.2 2268.79 1366.41 2318.19 1342.47C2337.9 1332.91 2359.73 1327.38 2381.76 1325.97C2403.78 1324.57 2426.15 1327.3 2446.96 1334.24C2499.21 1351.71 2541.61 1395.58 2545.3 1467.54C2549 1539.61 2512.82 1588.66 2464.06 1612.72C2444.6 1622.32 2423.1 1627.9 2401.4 1629.29C2379.71 1630.69 2357.7 1627.94 2337.2 1620.93C2285.82 1603.33 2243.74 1559.27 2238.14 1486.93ZM2327.42 1361.55C2285.35 1381.96 2254.53 1423.71 2259.31 1485.37C2264.15 1547.88 2300.12 1585.82 2344 1600.84C2361.86 1606.96 2381.07 1609.35 2400.06 1608.12C2419.01 1606.91 2437.75 1602.05 2454.68 1593.7C2496.39 1573.13 2527.33 1530.89 2524.13 1468.63C2520.96 1406.83 2484.8 1369.22 2440.23 1354.33C2422.1 1348.28 2402.5 1345.9 2383.1 1347.14C2363.74 1348.37 2344.61 1353.23 2327.42 1361.55ZM1978.37 1328.5C2039.04 1343.66 2075.28 1388.22 2087.31 1438.59C2092.64 1460.86 2093.2 1484.31 2089.05 1506.8C2084.86 1529.4 2075.9 1551.14 2062.23 1569.86C2032.14 1611.01 1979.5 1637.73 1904.87 1627.99L1901.88 1627.61L1893.05 1620.39C1877.89 1619.55 1863.08 1612.57 1849.95 1603.08C1831.05 1589.38 1815.21 1570.09 1807.44 1557.18C1784.27 1518.62 1779.86 1477.63 1789.03 1440.92C1793.98 1421.11 1802.94 1402.5 1815.03 1386.22C1827.13 1369.95 1842.39 1355.98 1859.92 1345.42C1893.06 1325.51 1934.39 1317.52 1978.37 1328.5ZM2066.72 1443.49C2056.4 1400.31 2025.29 1362.11 1973.22 1349.1C1935.09 1339.57 1899.39 1346.44 1870.87 1363.57C1855.69 1372.75 1842.48 1384.83 1832.06 1398.85C1821.63 1412.87 1813.9 1428.95 1809.63 1446.07C1801.74 1477.62 1805.58 1512.93 1825.6 1546.23C1832.31 1557.34 1846.01 1574.01 1862.41 1585.88C1873.41 1593.84 1885.44 1599.5 1896.76 1599.31L1900.62 1599.25L1910.57 1607.35C1974.75 1614.88 2019.65 1592.15 2045.12 1557.33C2056.89 1541.2 2064.62 1522.46 2068.22 1502.97C2071.85 1483.34 2071.35 1462.89 2066.72 1443.49ZM608.911 1511.07C591.328 1583.27 540.73 1619.96 485.647 1628.02C464.421 1631.12 442.485 1629.92 421.563 1624.8C400.603 1619.68 380.601 1610.65 363.311 1598.14C318.859 1565.98 291.678 1511.08 309.28 1440.34C327.082 1368.82 376.523 1333.13 430.629 1325.48C451.703 1322.5 473.479 1323.83 494.277 1329C515.085 1334.16 535.021 1343.2 552.386 1355.59C597.512 1387.74 625.66 1442.34 608.911 1511.07ZM482.564 1607.01C529.738 1600.12 573.119 1568.47 588.322 1506.1C602.69 1447.12 578.667 1400.35 540.104 1372.87C524.92 1362.04 507.46 1354.12 489.222 1349.6C470.975 1345.05 451.921 1343.89 433.541 1346.48C387.448 1352.99 345.216 1383.72 329.87 1445.39C314.696 1506.39 337.837 1553.5 375.764 1580.94C390.863 1591.88 408.304 1599.76 426.542 1604.21C444.827 1608.67 464.013 1609.73 482.564 1607.01Z" fill="#2B2A29"/>
</svg>
