<svg width="2987" height="1630" viewBox="0 0 2987 1630" fill="none" xmlns="http://www.w3.org/2000/svg">
<path fill-rule="evenodd" clip-rule="evenodd" d="M2225.92 812.896C2203.26 877.989 2181.77 934.321 2135.73 986.719C2076.28 1054.39 2140.38 857.136 2138.76 804.384L2050.62 805.4C2045.14 811.279 2032.83 854.256 2028.25 865.294C2021.08 882.615 2010.57 904.799 2001.47 920.068C1990.89 937.853 1980.73 954.01 1969.44 969.575C1946.92 1000.65 1942.75 1009.82 1925.59 1004.96C1918.75 983.237 1953.65 849.728 1956.79 810.973L1855.22 830.296C1848.86 845.773 1845.87 865.58 1839.72 882.191C1822.04 929.922 1809.49 948.447 1776.96 982.605C1770.23 989.668 1768.71 992.341 1756.62 990.941C1746.05 977.141 1756.26 947.283 1759.37 926.036C1762.78 902.747 1767.8 878.61 1770.78 855.864C1744.94 861.19 1685.47 891.413 1664.85 904.325C1604.35 942.242 1621.04 933.67 1581.55 970.098C1543.39 1005.3 1512.37 1074.94 1531.91 1134.17C1576.98 1270.74 1947.39 1245.88 2093.32 1245.88C2228.43 1245.88 2545.79 1257.2 2620.89 1173.36C2681.78 1105.38 2636.29 1008.1 2589.93 962.759C2551.48 925.148 2447.47 859.286 2399.97 854.226C2388.72 911.674 2319.44 1017.68 2299.07 994.472C2291.83 984.095 2308.87 930.07 2312.55 913.38C2315.57 899.729 2318.99 885.939 2321.97 872.376L2326.96 830.277L2225.92 812.896Z" fill="#E31E24"/>
<path fill-rule="evenodd" clip-rule="evenodd" d="M2329.35 945.369L2352.98 839.243L2379.26 845.95C2375.04 870.798 2358.85 900.34 2346.76 922.11C2340.94 932.605 2338.7 938.455 2329.35 945.369ZM1780.22 942.41L1795.54 847.864L1828.27 837.517C1825.75 860.352 1804.68 910.411 1790.85 931.727L1780.22 942.41ZM2225.92 812.896L2326.96 830.277L2321.97 872.376C2318.99 885.939 2315.57 899.729 2312.55 913.38C2308.87 930.07 2291.83 984.095 2299.07 994.472C2319.44 1017.68 2388.72 911.674 2399.97 854.226C2447.47 859.287 2551.49 925.148 2589.94 962.759C2636.29 1008.1 2681.78 1105.38 2620.89 1173.36C2545.79 1257.2 2228.43 1245.88 2093.33 1245.88C1947.39 1245.88 1576.98 1270.74 1531.91 1134.17C1512.37 1074.94 1543.39 1005.3 1581.55 970.098C1621.04 933.67 1604.35 942.242 1664.86 904.325C1685.47 891.413 1744.94 861.19 1770.78 855.864C1767.8 878.61 1762.79 902.747 1759.37 926.036C1756.27 947.283 1746.06 977.141 1756.62 990.941C1768.71 992.341 1770.23 989.668 1776.96 982.605C1809.49 948.447 1822.04 929.922 1839.72 882.191C1845.87 865.58 1848.86 845.773 1855.22 830.296L1956.79 810.973C1953.65 849.728 1918.75 983.237 1925.59 1004.96C1942.75 1009.82 1946.93 1000.65 1969.44 969.575C1980.73 954.01 1990.89 937.853 2001.47 920.068C2010.57 904.799 2021.08 882.615 2028.25 865.294C2032.83 854.256 2045.14 811.279 2050.62 805.4L2138.76 804.384C2140.38 857.136 2076.28 1054.39 2135.73 986.719C2181.78 934.321 2203.26 877.989 2225.92 812.896ZM2140.41 939.865L2163.08 806.82L2202.25 809.73C2198.49 832.753 2161.19 918.993 2145.66 935.219C2141.95 939.096 2144.78 936.669 2140.41 939.865ZM1955.63 947.342L1981.2 810.273C1994.89 807.027 2011.12 804.729 2024.56 807.116C2013.47 844.451 1977.65 930.228 1955.63 947.342ZM2021.39 783.206C1896.2 790.407 1788.17 817.414 1688.06 865.59C1610.48 902.915 1504.77 982.704 1503.06 1093.3C1501.15 1216.43 1631.32 1249.57 1749.66 1260.29C1882.73 1272.32 2023.74 1269.03 2158.05 1269.01C2268.57 1269 2444.39 1271.67 2543.32 1239.26C2588.26 1224.53 2643.55 1199.79 2662.44 1152.91C2687.11 1091.69 2668.44 1035.77 2639.18 989.54C2594.62 919.161 2495.99 860.687 2389.19 825.67C2276.26 788.631 2145.95 776.035 2021.39 783.206Z" fill="#565354"/>
<path fill-rule="evenodd" clip-rule="evenodd" d="M1955.63 947.342C1977.65 930.228 2013.47 844.451 2024.56 807.116C2011.12 804.729 1994.89 807.027 1981.2 810.273L1955.63 947.342Z" fill="#342E2F"/>
<path fill-rule="evenodd" clip-rule="evenodd" d="M2140.41 939.865C2144.78 936.669 2141.95 939.096 2145.66 935.219C2161.19 918.993 2198.49 832.753 2202.25 809.73L2163.08 806.82L2140.41 939.865Z" fill="#342E2F"/>
<path fill-rule="evenodd" clip-rule="evenodd" d="M1790.85 931.727C1804.68 910.411 1825.75 860.352 1828.27 837.517L1795.54 847.864L1780.22 942.41L1790.85 931.727Z" fill="#342E2F"/>
<path fill-rule="evenodd" clip-rule="evenodd" d="M2329.35 945.369C2338.7 938.455 2340.94 932.605 2346.76 922.11C2358.85 900.34 2375.04 870.798 2379.26 845.951L2352.98 839.243L2329.35 945.369Z" fill="#342E2F"/>
<path fill-rule="evenodd" clip-rule="evenodd" d="M2273.79 1278.29C2267.32 1289.03 2274.17 1279.66 2266.79 1286.86C2230.51 1322.31 2210.35 1316.45 2160.09 1316.72C2138.41 1316.85 2109.56 1320.59 2092.82 1310.86C2088.22 1308.16 2057.96 1285 2053.98 1278.98L2273.79 1278.29ZM147.772 1080.37C119.117 1047.38 143.254 896.829 154.035 848.998C159.826 823.313 168.2 820.807 195.138 819.9C239.99 818.381 361.346 815.688 392.19 827.357C403.129 865.994 395.071 909.869 393.127 948.526C391.214 986.334 400.121 1042.98 369.188 1053.86C349.134 1060.91 172.678 1083.32 147.772 1080.37ZM1801.35 1269.48C1809.92 1269.88 1818.33 1270.34 1826.53 1270.8L730.494 1279.34L1821.26 1280.08C1778.96 1317.6 1781.23 1315.81 1710.53 1315.7C1558.23 1315.47 733.512 1321.12 674.22 1314.76C658.665 1311.21 666.112 1320.33 661.821 1298.16L661.2 521.476C662.383 479.278 665.392 449.499 618.282 451.531C490.514 457.045 355.556 538.57 305.378 599.707C288.984 619.652 277.532 651.118 249.301 656.691C156.265 675.097 93.7174 619.297 58.7103 818.47C87.1776 820.482 106.994 820.955 131.082 828.156C137.671 864.613 114.945 961.161 110.506 1008.71C108.099 1034.64 109.184 1081.76 92.4154 1095.95C75.9031 1109.91 39.594 1114.11 22.9634 1128.88C20.9412 1156.05 17.4494 1272.53 25.3997 1288.03C35.2144 1295.88 33.3008 1293.16 44.013 1296.29C61.1467 1301.27 51.628 1292.42 63.662 1303.62C78.5762 1320.22 75.696 1363.12 73.7922 1387.66C70.8035 1426.15 51.7266 1412.43 23.2889 1432.29C20.596 1467.11 47.781 1519.56 96.6075 1521.23C136.951 1522.6 226.299 1525.53 261.483 1520.66C261.986 1519.38 262.47 1516.1 262.608 1516.68L264.916 1499.8C266.504 1448.73 256.966 1409.79 306.838 1354.78C335.936 1322.69 384.635 1285.03 451.67 1283.05C537.585 1280.54 615.115 1335.31 641.886 1413.27C655.173 1451.95 649.028 1472.33 650.478 1512.34C661.131 1506.55 650.852 1512.29 658.961 1504.92C659.907 1504.06 662.896 1501.08 663.991 1500.16C673.105 1492.4 658.438 1500.71 673.914 1492.61L675.808 1483.16C676.499 1466.18 697.795 1470.65 734.972 1470.57L1611.62 1470.62C1739.49 1470.29 1700.87 1484.94 1737.71 1485.67C1759.52 1425.41 1740.43 1399.78 1805.97 1334.48C1812.56 1327.91 1823.68 1321.22 1832.23 1315.37C1841.15 1309.23 1867.33 1293.79 1878.3 1293.36C1906.47 1292.29 1887.46 1289.34 1897.81 1299.96L1911.34 1293.47C1896.98 1285.56 1892.57 1289.27 1916.29 1283.71C1943.22 1277.42 1976.58 1286.83 2001.14 1294.38C2058.45 1311.99 2103.06 1361.65 2122.36 1416.16C2133.72 1448.28 2126.28 1494.3 2137.61 1522.07C2161.13 1521.7 2154.2 1519.66 2155.07 1493.97C2162.66 1521.91 2153.6 1495.01 2164.72 1507.46L2166.37 1492.54C2162.72 1487.46 2174.39 1484.61 2161.15 1487.96C2184.97 1484.21 2190.49 1492.88 2195.41 1468.38C2198.75 1451.7 2196.77 1442.48 2202.95 1421.31C2212.37 1389.09 2224.68 1373.64 2243.14 1353.52C2343.49 1244.14 2476.56 1276.26 2538.63 1350.77C2581.18 1401.84 2581.25 1438.56 2586.46 1519.29C2597.51 1523.72 2595.61 1525 2607.16 1523.89C2613.91 1496.3 2597.1 1447.8 2607.18 1415.94C2643.03 1395.43 2765.3 1404.75 2816.45 1404.85C2878.85 1404.97 2858.39 1409.8 2903.05 1383.84C2933.28 1366.25 2963.95 1375.82 2960.29 1333.59C2938.29 1327.71 2752.37 1330.83 2713.05 1330.87C2662.09 1330.93 2564.76 1341.6 2535.75 1317.78C2498.54 1287.25 2508.37 1299.98 2506.61 1284.32L2512.78 1280.97C2529.68 1275.21 2818.15 1278.58 2847.92 1278.57C2867.41 1278.57 2886.9 1278.44 2906.38 1278.59C2921.4 1278.7 2943.16 1281.58 2956.08 1273.92C2926.56 1266.14 2571.57 1270.8 2509.77 1270.74L1801.35 1269.48ZM2813.89 1267.75C2832.41 1267.97 2851.71 1268.09 2870.05 1267.91L2813.89 1267.75Z" fill="#352F31"/>
<path fill-rule="evenodd" clip-rule="evenodd" d="M149.261 1070.09C160.437 1074.3 334.012 1051.14 361.128 1045.08C387.485 1039.19 379.525 1002.84 381.438 943.12C382.395 913.321 388.737 859.306 382.365 831.016L172.362 831.342C157.586 870.906 133.133 1032.26 149.261 1070.09Z" fill="#FEFEFE"/>
<path fill-rule="evenodd" clip-rule="evenodd" d="M673.914 1492.61C658.437 1500.71 673.105 1492.4 663.99 1500.16C662.896 1501.08 659.907 1504.06 658.96 1504.92C650.852 1512.29 661.13 1506.55 650.477 1512.34C649.027 1472.33 655.172 1451.95 641.885 1413.28C615.115 1335.31 537.584 1280.54 451.669 1283.05C384.634 1285.03 335.936 1322.69 306.837 1354.78C256.965 1409.79 266.503 1448.73 264.915 1499.8L262.607 1516.68C262.469 1516.1 261.986 1519.38 261.482 1520.66C226.298 1525.53 136.95 1522.6 96.6067 1521.23C47.7802 1519.56 20.5952 1467.11 23.2881 1432.29C51.7258 1412.43 70.8026 1426.15 73.7914 1387.66C75.6952 1363.12 78.5754 1320.22 63.6612 1303.62C51.6272 1292.42 61.1459 1301.27 44.0122 1296.29C33.2999 1293.16 35.2136 1295.88 25.3989 1288.03C17.4486 1272.53 20.9404 1156.05 22.9625 1128.88C39.5931 1114.11 75.9023 1109.91 92.4145 1095.95C109.183 1081.76 108.098 1034.64 110.505 1008.71C114.944 961.161 137.67 864.613 131.081 828.156C106.993 820.955 87.1768 820.482 58.7095 818.47C93.7166 619.297 156.264 675.097 249.301 656.691C277.531 651.118 288.983 619.652 305.377 599.707C355.555 538.57 490.513 457.045 618.281 451.531C665.391 449.499 662.383 479.278 661.199 521.476L661.82 1298.16C666.111 1320.33 658.664 1311.21 674.219 1314.76C669.11 1195.31 674.052 1064.05 674.052 943.248C674.052 819.121 674.131 694.983 674.052 570.865C674.002 505.378 692.872 432.75 613.536 439.033C494.488 448.453 343.304 517.107 278.37 617.679C274.513 623.637 272.353 627.967 269.867 631.656C262.597 642.398 267.421 637.22 259.056 644.598C197.15 654.708 133.537 639.824 95.137 681.617C76.9282 701.434 42.8976 792.32 45.5214 828.255C58.9955 831.352 69.1554 830.346 83.2016 830.296C141.557 830.109 121.237 838.148 105.326 956.042C99.8224 996.859 98.7965 1047.16 91.5761 1086.59L11.0765 1118.22L12.487 1304.92L62.0731 1306.29L60.1891 1405.43L10.6523 1417.41C11.1159 1473.22 36.5452 1530.54 91.8227 1533.46C152.446 1536.66 219.452 1532.2 280.402 1534.46C281.25 1505.54 256.955 1424.74 314.452 1362.5C406.305 1263.07 536.903 1279.8 601.581 1363.43C641.185 1414.68 644.904 1458.94 633.284 1533.81C663.685 1532.4 672.582 1522.58 673.914 1492.61Z" fill="#120D11"/>
<path fill-rule="evenodd" clip-rule="evenodd" d="M2005.37 1536.31C1994.44 1540.95 1998.63 1537.79 1994.39 1547.03C2001.79 1552.61 2007.55 1543 1990.32 1558.24C1976.85 1570.15 1950.07 1577.1 1930.57 1575.36C1905.34 1573.11 1875.26 1553.08 1865.55 1542.3C1831.44 1504.37 1829.54 1443.65 1870.52 1403.24C1905.93 1368.31 1961.88 1369.9 2007.07 1410.06C2066.15 1462.56 2013.07 1558.32 2005.37 1536.31ZM1896.05 1609.88L1905.37 1617.49C1906.44 1616.3 1908.08 1615.43 1909.33 1614.81C1936.58 1601.44 1931.1 1616.49 1965.28 1605.72C2127.66 1554.62 2080.93 1369.65 1966.09 1349.45C1806.34 1321.36 1751.13 1524.61 1870.8 1590.44C1899.82 1606.4 1924.96 1600.58 1896.05 1609.88Z" fill="#332D2F"/>
<path fill-rule="evenodd" clip-rule="evenodd" d="M439.221 1381.28C556.671 1350.37 603.308 1543.34 482.899 1572.43C426.546 1586.04 370.893 1543.37 362.47 1498.64C349.913 1432.11 391.065 1393.96 439.221 1381.28ZM328.252 1490.62C341.42 1652.19 592.842 1649.93 588.63 1468.78C584.754 1302.05 313.15 1305.37 328.252 1490.62Z" fill="#332D2F"/>
<path fill-rule="evenodd" clip-rule="evenodd" d="M2484.92 1504.07C2433.02 1637 2266.18 1565.32 2296.44 1447.99C2307 1407.08 2359.95 1369.16 2416.37 1382.65C2458.05 1392.62 2506.88 1447.83 2484.92 1504.07ZM2358.94 1351.22C2191.72 1392.99 2255.6 1648.43 2421.91 1603.48C2593.33 1557.15 2525.25 1309.68 2358.94 1351.22Z" fill="#342E2F"/>
<path fill-rule="evenodd" clip-rule="evenodd" d="M541.766 1499.59C556.385 1449.22 519.454 1403.86 481.488 1393.63C425.776 1378.61 385.571 1414.94 374.02 1453.25C340.996 1562.68 509.531 1610.6 541.766 1499.59Z" fill="#FEFEFE"/>
<path fill-rule="evenodd" clip-rule="evenodd" d="M2304.81 1490.62C2311.3 1533.46 2350.73 1569.07 2402.67 1562.85C2446.74 1557.56 2483.71 1515.75 2476.78 1463.55C2462.87 1359.02 2287.16 1373.95 2304.81 1490.62Z" fill="#FEFEFE"/>
<path fill-rule="evenodd" clip-rule="evenodd" d="M1994.39 1547.03C1998.63 1537.79 1994.44 1540.95 2005.37 1536.31C2007.1 1528.64 2050.89 1466.29 2000.91 1416.18C1972.48 1387.66 1913.02 1383.3 1879.09 1412.11C1848.07 1438.44 1843.63 1500.73 1873.16 1534.66C1920.13 1588.61 1979.32 1551.06 1994.39 1547.03Z" fill="#FEFEFE"/>
<path fill-rule="evenodd" clip-rule="evenodd" d="M2166.37 1492.54C2224.3 1508.29 2197.99 1481.91 2215.06 1424.23C2268.46 1243.76 2548.38 1253.54 2573.18 1455.16C2575.51 1474.15 2572 1505.38 2575.52 1520.73C2578.74 1534.67 2596.65 1549.35 2612.4 1534.12C2628.75 1518.31 2611.77 1445.73 2614.8 1419.95C2653.62 1410.33 2769.17 1415.78 2816.44 1415.81C2896.64 1415.86 2870.57 1421.28 2902.72 1397.25C2921.09 1383.52 2952.35 1377.81 2975.03 1370.07L2971.88 1321.95C2948.93 1313.86 2659.11 1317.61 2596.1 1318.21C2531.03 1318.82 2550.53 1308.89 2506.62 1284.32C2508.37 1299.98 2498.54 1287.25 2535.75 1317.78C2564.76 1341.6 2662.09 1330.93 2713.05 1330.87C2752.38 1330.83 2938.29 1327.71 2960.29 1333.59C2963.95 1375.82 2933.28 1366.25 2903.05 1383.84C2858.39 1409.8 2878.85 1404.97 2816.45 1404.85C2765.3 1404.75 2643.03 1395.43 2607.18 1415.94C2597.1 1447.8 2613.92 1496.3 2607.16 1523.89C2595.61 1525 2597.51 1523.72 2586.46 1519.29C2581.26 1438.56 2581.18 1401.84 2538.63 1350.77C2476.56 1276.26 2343.5 1244.14 2243.14 1353.52C2224.68 1373.64 2212.37 1389.09 2202.95 1421.31C2196.77 1442.48 2198.75 1451.69 2195.41 1468.38C2190.5 1492.88 2184.97 1484.21 2161.15 1487.96C2174.39 1484.61 2162.72 1487.46 2166.37 1492.54Z" fill="#151112"/>
<path fill-rule="evenodd" clip-rule="evenodd" d="M675.809 1483.16C945.173 1479.57 1227.45 1482.94 1499.23 1482.94L1700.5 1483.7C1726.66 1489.38 1710.43 1505.17 1748.02 1495.65C1767.37 1447.95 1749.25 1417.24 1792.33 1365.85C1818.01 1335.2 1848.09 1309.43 1897.81 1299.96C1887.47 1289.34 1906.47 1292.29 1878.3 1293.36C1867.33 1293.79 1841.15 1309.23 1832.23 1315.37C1823.69 1321.22 1812.56 1327.91 1805.97 1334.48C1740.43 1399.78 1759.52 1425.41 1737.71 1485.67C1700.87 1484.94 1739.49 1470.29 1611.62 1470.62L734.972 1470.57C697.795 1470.65 676.499 1466.18 675.809 1483.16Z" fill="#120D0E"/>
<path fill-rule="evenodd" clip-rule="evenodd" d="M2358.94 1351.22C2525.25 1309.68 2593.33 1557.15 2421.91 1603.48C2255.6 1648.43 2191.72 1392.99 2358.94 1351.22ZM2247.86 1486.13C2262.54 1675.44 2543.54 1656.34 2533.88 1468.07C2524.26 1280.63 2233.32 1298.67 2247.86 1486.13Z" fill="#151112"/>
<path fill-rule="evenodd" clip-rule="evenodd" d="M328.251 1490.62C313.15 1305.37 584.753 1302.05 588.63 1468.78C592.842 1649.93 341.42 1652.19 328.251 1490.62ZM597.655 1508.57C640.721 1331.86 365.004 1256.33 318.595 1442.85C272.717 1627.22 552.252 1694.82 597.655 1508.57Z" fill="#151112"/>
<path fill-rule="evenodd" clip-rule="evenodd" d="M149.261 1070.09C133.134 1032.26 157.586 870.906 172.362 831.342L382.366 831.016C388.738 859.306 382.395 913.321 381.438 943.12C379.525 1002.84 387.485 1039.19 361.129 1045.08C334.013 1051.14 160.437 1074.3 149.261 1070.09ZM147.772 1080.37C172.678 1083.32 349.134 1060.91 369.187 1053.86C400.121 1042.98 391.214 986.334 393.127 948.526C395.07 909.869 403.129 865.994 392.19 827.357C361.346 815.688 239.99 818.381 195.138 819.9C168.2 820.807 159.825 823.313 154.035 848.998C143.254 896.829 119.117 1047.38 147.772 1080.37Z" fill="#151112"/>
<path fill-rule="evenodd" clip-rule="evenodd" d="M1896.05 1609.88C1924.96 1600.58 1899.82 1606.4 1870.81 1590.44C1751.14 1524.61 1806.34 1321.36 1966.09 1349.45C2080.93 1369.65 2127.66 1554.62 1965.28 1605.72C1931.1 1616.49 1936.58 1601.44 1909.33 1614.81C1908.08 1615.43 1906.44 1616.3 1905.37 1617.49C2111.25 1644.33 2136.78 1379.22 1974.92 1338.77C1849.87 1307.52 1748.59 1440.28 1815.65 1551.69C1828.06 1572.32 1862.63 1610.47 1896.05 1609.88Z" fill="#120F10"/>
<path fill-rule="evenodd" clip-rule="evenodd" d="M2273.79 1278.29L2053.98 1278.98C2057.96 1285 2088.22 1308.16 2092.82 1310.86C2109.56 1320.59 2138.41 1316.85 2160.09 1316.72C2210.35 1316.45 2230.51 1322.31 2266.79 1286.86C2274.17 1279.66 2267.32 1289.03 2273.79 1278.29Z" fill="#FEFEFE"/>
<path fill-rule="evenodd" clip-rule="evenodd" d="M2304.81 1490.62C2287.16 1373.95 2462.87 1359.02 2476.78 1463.55C2483.71 1515.75 2446.74 1557.56 2402.67 1562.85C2350.72 1569.07 2311.3 1533.46 2304.81 1490.62ZM2484.92 1504.07C2506.88 1447.83 2458.05 1392.62 2416.37 1382.65C2359.95 1369.16 2307 1407.08 2296.44 1447.99C2266.18 1565.32 2433.02 1637 2484.92 1504.07Z" fill="#161215"/>
<path fill-rule="evenodd" clip-rule="evenodd" d="M1994.39 1547.03C1979.32 1551.06 1920.14 1588.61 1873.16 1534.66C1843.63 1500.73 1848.07 1438.44 1879.09 1412.11C1913.02 1383.3 1972.48 1387.66 2000.91 1416.18C2050.89 1466.29 2007.11 1528.64 2005.37 1536.31C2013.07 1558.32 2066.15 1462.56 2007.08 1410.06C1961.88 1369.9 1905.93 1368.31 1870.52 1403.24C1829.54 1443.65 1831.44 1504.37 1865.55 1542.3C1875.26 1553.08 1905.34 1573.11 1930.57 1575.36C1950.07 1577.1 1976.85 1570.15 1990.32 1558.24C2007.55 1543 2001.79 1552.61 1994.39 1547.03Z" fill="#161215"/>
<path fill-rule="evenodd" clip-rule="evenodd" d="M541.767 1499.59C509.532 1610.6 340.996 1562.68 374.021 1453.25C385.572 1414.94 425.777 1378.61 481.489 1393.63C519.455 1403.86 556.385 1449.22 541.767 1499.59ZM439.222 1381.28C391.066 1393.96 349.913 1432.11 362.47 1498.64C370.894 1543.37 426.546 1586.04 482.899 1572.43C603.308 1543.34 556.671 1350.37 439.222 1381.28Z" fill="#161215"/>
<path fill-rule="evenodd" clip-rule="evenodd" d="M1911.34 1293.47C1946.76 1300.97 1969.45 1290.18 2009.54 1308.78C2061.35 1332.81 2102.49 1375.73 2116.69 1435.21C2124.16 1466.46 2116.7 1508.74 2127.6 1535.76C2150.6 1541.53 2168.85 1537.25 2164.72 1507.46C2153.6 1495.01 2162.66 1521.91 2155.07 1493.97C2154.2 1519.66 2161.13 1521.7 2137.62 1522.07C2126.28 1494.3 2133.72 1448.28 2122.37 1416.16C2103.06 1361.65 2058.45 1311.99 2001.14 1294.38C1976.58 1286.83 1943.22 1277.42 1916.29 1283.71C1892.58 1289.27 1896.98 1285.56 1911.34 1293.47Z" fill="#151112"/>
<path fill-rule="evenodd" clip-rule="evenodd" d="M387.416 1049.84C324.563 1095.21 162.025 1060.37 105.948 1095.81C90.9352 1100.1 40.9349 1120.7 31.6924 1128.92C29.6604 1156.09 26.1784 1272.57 34.1288 1288.07C58.8774 1318.35 37.6108 1423.65 38.104 1424.16C-6.75724 1451.81 74.9655 1515.8 77.5301 1517.77L270.193 1522.06C286.863 1436.85 244.754 1487.87 306.591 1364.5C340.039 1297.74 384.427 1300.69 451.492 1279.06C526.596 1272.8 536.628 1280.45 567.551 1302.14C579.516 1310.54 618.064 1307.79 649.362 1289.95C650.349 1289.37 658.457 1282.52 656.573 1273.86L649.067 1258.93C637.98 1229.94 661.239 676.547 661.239 586.115C661.239 469.602 661.199 521.476 650.872 459.619C516.495 432.336 472.63 492.348 359.698 549.874C313.476 573.41 328.784 625.097 272.619 648.188C244.892 649.175 173.2 661.327 155.889 666.93L93.6774 705.527C77.8162 751.286 79.1577 764.06 72.6672 808.675L160.88 822.415L400.919 827.396C409.56 857.896 406.907 1035.76 387.416 1049.84Z" fill="#E31E24" stroke="#2B2A29" stroke-width="2.35748" stroke-miterlimit="22.9256"/>
<path d="M2971.83 1278.29C2968.87 1280.45 2965.08 1282.29 2960.23 1283.75C2947.33 1290.73 2930.18 1290.03 2915.53 1289.46L2906.34 1289.18C2875.49 1289.15 2844.65 1289.14 2813.8 1288.93C2742.57 1288.4 2586.74 1287.22 2533.7 1289.46L2541.11 1295.54C2551.48 1304.3 2555.86 1307.99 2596.02 1307.61L2616.18 1307.42C2705.94 1306.49 2952.67 1303.92 2975.41 1311.95L2982 1314.29L2986.14 1377.49L2978.44 1380.11C2971.68 1382.42 2964.68 1384.43 2957.52 1386.47C2939.82 1391.54 2920.79 1397.01 2909.08 1405.76C2902.69 1410.52 2898.95 1413.83 2896.16 1416.29C2890.08 1421.69 2886.98 1424.41 2879.78 1425.96C2874.13 1427.18 2866.76 1427.05 2852.04 1426.78C2843.3 1426.63 2831.73 1426.39 2816.44 1426.39C2805.38 1426.38 2790.88 1426.09 2774.58 1425.76C2724.85 1424.76 2657.73 1423.41 2625.03 1428.71C2625.13 1436.99 2626.2 1448.07 2627.33 1459.77C2630.41 1491.7 2633.95 1528.03 2619.74 1541.76C2614.84 1546.49 2609.6 1549.27 2604.36 1550.47C2598.52 1551.8 2592.84 1551.21 2587.68 1549.26C2582.91 1547.44 2578.59 1544.42 2575.01 1540.72C2570.16 1535.76 2566.63 1529.38 2565.19 1523.1C2563.01 1513.6 2563.19 1499.79 2563.36 1485.85C2563.5 1475.31 2563.64 1464.61 2562.64 1456.44C2555.77 1400.55 2528.21 1360.36 2491.5 1335.84C2466.33 1319.02 2436.73 1309.46 2406.46 1307.17C2376.12 1304.87 2345.14 1309.88 2317.3 1322.15C2275.43 1340.62 2240.49 1375.67 2225.23 1427.22C2220.09 1444.64 2219.11 1459.34 2218.38 1470.55C2217.9 1478.14 2217.48 1484.38 2216.05 1489.64C2211.6 1505.85 2202.48 1511.36 2175.59 1505.72L2175.4 1507.4C2176.29 1514.75 2175.99 1520.96 2174.69 1526.13C2173.03 1532.82 2169.73 1537.92 2165.2 1541.63C2160.82 1545.23 2155.5 1547.33 2149.56 1548.14C2142.19 1549.17 2133.79 1548.24 2125.03 1546.05L2119.79 1544.75L2117.76 1539.7C2111.05 1523.07 2110.6 1502.47 2110.15 1481.69C2109.82 1466.3 2109.47 1450.75 2106.36 1437.66C2099.96 1410.7 2087.59 1387.32 2071.06 1367.8C2053.25 1346.78 2030.52 1330.2 2005.1 1318.4C1982.37 1307.86 1965.37 1307.58 1947.99 1307.31C1936.89 1307.13 1925.61 1306.94 1912.68 1304.55L1901.09 1310.13L1899.77 1310.36C1876.53 1314.79 1857.84 1323.06 1841.99 1333.76C1826.02 1344.56 1812.75 1358.03 1800.47 1372.66C1775.58 1402.38 1772.69 1424.87 1769.7 1448.35C1767.7 1464.23 1765.6 1480.56 1757.86 1499.63L1755.83 1504.62L1750.59 1505.95C1722.07 1513.16 1717.09 1507.9 1709.99 1500.38C1708.06 1498.33 1705.73 1495.87 1699.12 1494.29L1499.23 1493.53C1422.07 1493.58 1326.6 1493.18 1231.41 1492.82C1048.1 1492.1 863.529 1491.36 684.488 1493.85C683.581 1511.16 680.198 1522.96 672.089 1531.31C663.814 1539.84 651.76 1543.56 633.738 1544.4L620.836 1545.01L622.819 1532.19C628.471 1495.85 630.404 1467.05 626.183 1441.46C622.069 1416.45 611.84 1394.04 593.188 1369.9C587.447 1362.47 581.075 1355.54 574.229 1349.22C545.417 1322.61 508.111 1306.83 468.744 1304.94C429.279 1303.04 387.574 1315.09 350.091 1344.07C340.543 1351.44 331.211 1359.98 322.255 1369.69C279.376 1416.1 285.571 1475.03 289.329 1510.67C290.325 1520.24 291.174 1528.3 290.986 1534.75L290.68 1545.45L280.027 1545.05C251.718 1544 222.106 1544.42 192.485 1544.81C158.158 1545.28 123.733 1545.75 91.2809 1544.05C62.1625 1542.5 40.3435 1527.85 25.2714 1506.29C8.46326 1482.26 0.32551 1449.53 0.0591836 1417.49L0 1409.08L49.7636 1397.06L51.2925 1316.59L1.98265 1315.23L0.434013 1111L82.1666 1078.89C85.5105 1058.34 87.434 1034.52 89.318 1010.96C90.8469 991.769 92.3857 972.692 94.8221 954.631C98.7084 925.71 102.91 903.26 106.136 885.969C109.322 868.835 111.541 856.88 111.532 849.344C111.512 841.729 104.666 840.821 83.3306 840.89L75.4 840.979C64.4313 841.176 55.1098 841.344 43.1449 838.592L35.5102 836.836L34.9381 828.994C33.5966 810.687 40.7085 780.178 50.5724 750.99C61.7088 718.084 76.7316 685.957 87.3452 674.427C117.065 642.093 158.237 640.386 202.684 638.591C219.69 637.9 237.228 637.18 254.421 634.596L256.591 632.761C259.718 626.655 265.705 618.094 269.453 611.958C301.334 562.55 353.119 520.727 411.721 489.497C476.063 455.21 548.908 433.48 612.708 428.449C667.73 424.099 682.881 451.797 685.988 491.066C687.142 505.694 686.392 522.068 685.623 538.866C685.139 549.608 684.636 560.567 684.636 570.865V943.248C684.676 979.548 684.114 1021.81 683.571 1064.39C682.535 1145.17 681.46 1227.33 684.419 1304.85C762.364 1308.67 1191.56 1306.96 1476.47 1305.83C1583.61 1305.41 1670.39 1305.06 1710.53 1305.12L1719.77 1305.14C1748.22 1305.22 1762.93 1305.26 1773.76 1301.77C1779.95 1299.78 1785.62 1296.31 1792.79 1290.65C1432.57 1290.4 1063.14 1298.78 704.088 1289.22L703.358 1279.68C703.329 1279.22 703.299 1278.75 703.269 1278.29H2971.83ZM1801.35 1269.48L1849.3 1269.52L1827.83 1288.45C1806.11 1307.69 1795.56 1317.02 1780.24 1321.94C1766.29 1326.44 1750.44 1326.39 1719.77 1326.31L1710.53 1326.28C1670.47 1326.24 1583.68 1326.59 1476.56 1327.01C1176.66 1328.19 717.197 1330.03 673.105 1325.31L664.031 1324.34L663.636 1315.19C660.193 1234.65 661.308 1148.66 662.403 1064.13C662.896 1024.84 663.419 985.91 663.419 943.248L663.468 570.865C663.458 559.679 663.962 548.701 664.455 537.959C665.185 521.979 665.895 506.414 664.81 492.723C662.679 465.686 652.243 446.619 614.366 449.617C553.249 454.441 483.422 475.274 421.683 508.18C366.08 537.821 317.116 577.217 287.297 623.41C285.482 626.192 283.973 628.786 282.651 631.045C281.398 633.235 280.294 635.129 278.666 637.555L274.987 643.286C274.198 644.588 273.754 645.328 272.876 646.383C271.88 647.577 271.101 648.238 269.424 649.658L263.732 654.58L260.763 655.054C241.4 658.21 222.146 658.999 203.513 659.769C163.672 661.377 126.742 662.896 102.94 688.798C94.2204 698.287 80.9731 727.297 70.6554 757.797C63.0207 780.405 57.1517 803.427 56.1357 819.308C62.4289 820.038 68.3867 819.929 75.0547 819.811L83.2023 819.712C120.616 819.594 132.601 822.711 132.7 849.344C132.719 858.872 130.352 871.577 126.959 889.796C123.792 906.801 119.669 928.857 115.822 957.453C113.573 974.132 112.035 993.318 110.486 1012.62C108.405 1038.69 106.284 1065.08 101.993 1088.5L100.938 1094.32L21.7105 1125.45L23.0027 1294.62L72.8649 1296L70.6258 1413.82L21.5034 1425.68C22.9139 1450.98 29.7792 1475.83 42.6221 1494.18C54.084 1510.58 70.5469 1521.73 92.3659 1522.87C124.542 1524.57 158.435 1524.1 192.228 1523.64C218.24 1523.29 244.221 1522.93 269.305 1523.53L268.24 1512.84C264.117 1473.61 257.281 1408.75 306.65 1355.31C316.376 1344.78 326.585 1335.45 337.14 1327.3C378.864 1295.05 425.481 1281.64 469.75 1283.77C514.138 1285.9 556.168 1303.65 588.601 1333.61C596.255 1340.68 603.427 1348.5 609.966 1356.96C630.888 1384.03 642.389 1409.43 647.094 1438.05C651.168 1462.71 650.103 1489.49 645.723 1521.77C650.852 1520.68 654.492 1519.01 656.899 1516.53C661.022 1512.29 662.788 1504.45 663.33 1492.15C663.626 1486.76 665.944 1478.33 667.079 1472.69L675.68 1472.58C857.423 1470.15 1045.11 1470.9 1231.45 1471.65C1315.91 1471.98 1399.54 1472.32 1499.23 1472.32L1702.29 1473.22C1716.42 1476.29 1721.36 1481.52 1725.45 1485.84C1727.24 1487.74 1728.59 1489.15 1740.11 1486.62C1745.36 1471.9 1747.05 1458.64 1748.7 1445.7C1752.1 1419 1755.38 1393.43 1784.19 1359.03C1797.59 1343.04 1812.21 1328.26 1830.12 1316.16C1847.84 1304.17 1868.68 1294.89 1894.52 1289.79L1910.04 1282.35L1913.54 1283.09C1926.24 1285.77 1937.38 1285.95 1948.33 1286.14C1968.03 1286.44 1987.3 1286.76 2013.99 1299.15C2042.17 1312.22 2067.4 1330.66 2087.26 1354.09C2105.82 1376.02 2119.72 1402.35 2126.99 1432.78C2130.59 1447.66 2130.96 1464.56 2131.32 1481.27C2131.66 1497.7 2132.03 1514.01 2135.67 1526.64C2139.81 1527.35 2143.54 1527.57 2146.65 1527.14C2148.8 1526.85 2150.57 1526.24 2151.75 1525.27C2152.77 1524.43 2153.58 1523.02 2154.1 1520.98C2154.84 1518 2154.93 1514.01 2154.23 1508.87L2154.03 1507.56L2157.18 1479.04L2169.16 1482.28C2189.15 1487.72 2194.59 1487.7 2195.58 1484.09C2196.46 1480.69 2196.81 1475.5 2197.21 1469.2C2198.01 1456.98 2199.07 1440.95 2204.89 1421.26C2222.09 1363.11 2261.52 1323.56 2308.75 1302.73C2339.84 1289.03 2374.32 1283.44 2408.03 1286C2441.81 1288.55 2474.95 1299.31 2503.3 1318.25C2544.86 1346 2576.03 1391.24 2583.72 1453.87C2584.84 1462.93 2584.68 1474.6 2584.53 1486.11C2584.37 1498.69 2584.21 1511.15 2585.87 1518.36C2586.46 1520.98 2588.03 1523.75 2590.18 1525.97C2591.62 1527.5 2593.33 1528.71 2595.16 1529.4C2596.59 1529.95 2598.13 1530.12 2599.61 1529.8C2601.25 1529.42 2603.09 1528.36 2605.06 1526.48C2611.86 1519.9 2608.86 1488.96 2606.24 1461.78C2604.59 1444.73 2603.06 1428.94 2604.26 1418.75L2605.12 1411.43L2612.27 1409.66C2643.43 1401.93 2719.72 1403.47 2775 1404.59C2791.32 1404.92 2805.82 1405.23 2816.44 1405.23C2832.09 1405.24 2843.65 1405.45 2852.38 1405.61C2865.28 1405.84 2871.73 1405.96 2875.29 1405.2C2877.21 1404.78 2878.87 1403.32 2882.13 1400.44C2885.5 1397.46 2889.98 1393.5 2896.37 1388.73C2911.16 1377.67 2932.17 1371.64 2951.71 1366.05L2963.91 1362.49L2961.83 1330.74C2917.97 1325.46 2699.32 1327.74 2616.35 1328.58L2596.19 1328.79C2548.12 1329.23 2541.98 1324.06 2527.4 1311.74C2521.79 1307 2514.59 1300.92 2501.48 1293.58L2484.67 1284.2C2490.96 1280.77 2511.44 1273.05 2518.28 1270.72L1801.35 1269.48ZM2237.28 1486.92C2231.73 1415.17 2267.94 1366.39 2317.35 1342.44C2337.04 1332.89 2358.88 1327.35 2380.92 1325.94C2402.92 1324.54 2425.31 1327.27 2446.11 1334.22C2498.37 1351.68 2540.77 1395.56 2544.46 1467.53C2548.16 1539.59 2511.97 1588.66 2463.21 1612.71C2443.75 1622.31 2422.25 1627.89 2400.55 1629.29C2378.86 1630.69 2356.86 1627.93 2336.34 1620.92C2284.97 1603.32 2242.88 1559.25 2237.28 1486.92ZM2326.57 1361.53C2284.49 1381.93 2253.67 1423.69 2258.45 1485.35C2263.3 1547.86 2299.27 1585.81 2343.15 1600.83C2361.01 1606.94 2380.23 1609.33 2399.21 1608.11C2418.15 1606.9 2436.91 1602.04 2453.84 1593.69C2495.56 1573.11 2526.49 1530.88 2523.29 1468.61C2520.13 1406.8 2483.96 1369.19 2439.39 1354.31C2421.25 1348.24 2401.65 1345.86 2382.26 1347.11C2362.9 1348.34 2343.76 1353.2 2326.57 1361.53ZM1977.49 1328.47C2038.17 1343.64 2074.41 1388.2 2086.45 1438.58C2091.78 1460.84 2092.34 1484.29 2088.18 1506.79C2083.99 1529.39 2075.04 1551.12 2061.36 1569.86C2031.27 1610.99 1978.63 1637.72 1904 1627.98L1901 1627.61L1892.17 1620.39C1877.01 1619.54 1862.19 1612.57 1849.07 1603.07C1830.17 1589.38 1814.33 1570.07 1806.56 1557.17C1783.38 1518.6 1778.97 1477.61 1788.14 1440.9C1793.1 1421.09 1802.05 1402.47 1814.15 1386.2C1826.25 1369.93 1841.52 1355.96 1859.04 1345.4C1892.18 1325.49 1933.51 1317.49 1977.49 1328.47ZM2065.85 1443.46C2055.54 1400.28 2024.43 1362.08 1972.34 1349.08C1934.21 1339.54 1898.51 1346.41 1870 1363.55C1854.82 1372.72 1841.6 1384.81 1831.17 1398.82C1820.75 1412.85 1813.02 1428.92 1808.74 1446.04C1800.85 1477.6 1804.69 1512.92 1824.71 1546.21C1831.43 1557.32 1845.13 1574 1861.53 1585.86C1872.53 1593.82 1884.56 1599.5 1895.88 1599.3L1899.74 1599.24L1909.7 1607.35C1973.87 1614.87 2018.78 1592.14 2044.24 1557.31C2056.02 1541.19 2063.74 1522.45 2067.35 1502.96C2070.98 1483.32 2070.49 1462.87 2065.85 1443.46ZM607.954 1511.06C590.367 1583.26 539.765 1619.95 484.684 1628C463.457 1631.11 441.51 1629.91 420.589 1624.8C399.628 1619.68 379.624 1610.64 362.332 1598.13C317.885 1565.97 290.7 1511.07 308.297 1440.32C326.102 1368.79 375.55 1333.1 429.663 1325.45C450.733 1322.48 472.512 1323.8 493.305 1328.97C514.118 1334.14 534.053 1343.18 551.424 1355.56C596.551 1387.72 624.703 1442.31 607.954 1511.06ZM481.597 1607C528.776 1600.11 572.158 1568.45 587.358 1506.08C601.73 1447.1 577.711 1400.33 539.133 1372.84C523.953 1362.01 506.484 1354.09 488.255 1349.56C470.007 1345.03 450.95 1343.85 432.573 1346.45C386.479 1352.97 344.242 1383.69 328.893 1445.37C313.713 1506.37 336.854 1553.49 374.79 1580.92C389.892 1591.86 407.331 1599.75 425.57 1604.2C443.858 1608.67 463.043 1609.72 481.597 1607Z" fill="#2B2A29"/>
</svg>
