<svg width="2987" height="1630" viewBox="0 0 2987 1630" fill="none" xmlns="http://www.w3.org/2000/svg">
<path fill-rule="evenodd" clip-rule="evenodd" d="M2392.54 1216.48L1284.59 1215.57L1281.03 1140.13L2471.76 1138.69C2483.62 1231.44 2470.38 1216.75 2392.54 1216.48ZM1348.54 1016.42L2404.99 1015.7L2404.25 1080.55L1348.97 1082.85L1348.54 1016.42ZM1573.54 958.625C1565.84 931.572 1565.86 488.705 1571.66 444.394L1787.98 446.051C1797.17 479.664 1796.35 931.317 1786.6 960.116L1573.54 958.625ZM2187.41 958.468C2136.81 964.058 2055.31 961.557 2002.36 960.626C1956.9 959.831 1967.32 950.928 1968.2 906.362C1971.06 759.446 1960.01 587.192 1969.9 444.943L2189.5 446.512L2187.41 958.468ZM1447.54 445.678L1515 445.423L1512.63 950.859L1447.59 951.565L1447.54 445.678ZM2245.56 446.198L2310.19 445.198C2317.32 501.305 2319.11 916.481 2307.18 946.192C2287.43 954.732 2270.69 954.026 2243.6 946.859L2245.56 446.198ZM1849.55 445.472L1909.71 448.091C1919.78 474.075 1920.23 918.079 1910.43 945.015C1891.57 954.075 1873.11 952.997 1847.02 948.123L1849.55 445.472ZM1334.4 389.306C1340.82 369.901 1877.77 63.1744 1878.67 63.0862C1901.35 60.9388 2418.6 386.698 2419.71 389.336L1334.4 389.306ZM1390.49 446.806L1391.87 959.184C1275.27 970.068 1300.93 955.566 1292.41 1081.24C1238.38 1099.38 1226.1 1085.11 1225.95 1156.31C1225.8 1204.77 1218.16 1256.24 1263.12 1267.2C1293.6 1274.63 2362.36 1269.74 2386.25 1269.71C2455.29 1269.62 2526.1 1288.27 2528.43 1212.83C2532.75 1072.9 2520.51 1100.79 2462.77 1081.24C2449.27 984.62 2488.05 964.587 2370.71 959.135C2361.51 849.735 2366.8 578.69 2368.02 445.845C2412.72 442.08 2495.86 450.875 2530.85 443.629C2557.77 438.059 2561.23 416.85 2545.35 397.759L2084.7 117.997C2048.52 95.8072 1904.32 -4.57197 1873.8 1.24271L1200.34 401.338C1151.17 467.123 1341.38 440.03 1390.49 446.806Z" fill="#363536"/>
<path fill-rule="evenodd" clip-rule="evenodd" d="M2128.64 284.564C2128.52 316.157 2132.58 324.139 2102.94 327.767L1890.03 328.316C1821.3 328.11 1667.02 340.7 1620.53 317.53C1613.96 271.071 1642.55 269.002 1727.49 218.602C1753.92 202.923 1840.66 146.571 1862.88 140.04C1896.37 130.195 1971.74 187.577 1998.03 203.698C2043.5 231.575 2088.8 256.755 2128.64 284.564ZM1334.39 389.306L2419.71 389.336C2418.6 386.698 1901.35 60.9388 1878.67 63.0863C1877.77 63.1745 1340.82 369.901 1334.39 389.306Z" fill="#E31E24"/>
<path fill-rule="evenodd" clip-rule="evenodd" d="M1573.54 958.625L1786.6 960.116C1796.35 931.317 1797.17 479.664 1787.98 446.051L1571.66 444.394C1565.85 488.705 1565.84 931.572 1573.54 958.625Z" fill="#FEFEFD"/>
<path fill-rule="evenodd" clip-rule="evenodd" d="M2187.41 958.468L2189.5 446.512L1969.9 444.943C1960.01 587.192 1971.06 759.446 1968.2 906.362C1967.32 950.928 1956.9 959.831 2002.36 960.626C2055.31 961.557 2136.81 964.058 2187.41 958.468Z" fill="#FCFCFE"/>
<path fill-rule="evenodd" clip-rule="evenodd" d="M2392.54 1216.48C2470.38 1216.75 2483.62 1231.44 2471.76 1138.69L1281.03 1140.13L1284.59 1215.57L2392.54 1216.48Z" fill="#E31E24"/>
<path fill-rule="evenodd" clip-rule="evenodd" d="M1348.97 1082.85L2404.25 1080.55L2404.99 1015.7L1348.54 1016.42L1348.97 1082.85Z" fill="#E31E24"/>
<path fill-rule="evenodd" clip-rule="evenodd" d="M2128.64 284.564C2088.8 256.755 2043.5 231.575 1998.03 203.698C1971.75 187.577 1896.37 130.195 1862.88 140.04C1840.67 146.57 1753.93 202.923 1727.49 218.602C1642.55 269.002 1613.96 271.071 1620.53 317.53C1667.02 340.7 1821.3 328.11 1890.04 328.316L2102.94 327.767C2132.59 324.139 2128.53 316.157 2128.64 284.564Z" fill="#342E2F"/>
<path fill-rule="evenodd" clip-rule="evenodd" d="M2243.6 946.859C2270.69 954.027 2287.43 954.733 2307.18 946.192C2319.11 916.481 2317.32 501.305 2310.19 445.198L2245.56 446.198L2243.6 946.859Z" fill="#E31E24"/>
<path fill-rule="evenodd" clip-rule="evenodd" d="M1847.02 948.124C1873.11 952.997 1891.57 954.076 1910.43 945.015C1920.23 918.079 1919.78 474.075 1909.71 448.091L1849.55 445.473L1847.02 948.124Z" fill="#E31E24"/>
<path fill-rule="evenodd" clip-rule="evenodd" d="M1447.59 951.565L1512.63 950.859L1515 445.423L1447.54 445.678L1447.59 951.565Z" fill="#E31E24"/>
<path fill-rule="evenodd" clip-rule="evenodd" d="M2274.44 1278.05C2267.97 1288.8 2274.82 1279.42 2267.45 1286.63C2231.15 1322.1 2210.99 1316.22 2160.72 1316.49C2139.03 1316.62 2110.17 1320.37 2093.43 1310.63C2088.81 1307.95 2058.56 1284.77 2054.57 1278.74L2274.44 1278.05ZM147.819 1080.08C119.158 1047.08 143.299 896.488 154.075 848.637C159.87 822.946 168.244 820.446 195.2 819.534C240.06 818.014 361.442 815.318 392.31 826.996C403.243 865.64 395.193 909.529 393.242 948.202C391.33 986.012 400.243 1042.68 369.297 1053.56C349.235 1060.61 172.725 1083.02 147.819 1080.08ZM1801.87 1269.25C1810.45 1269.65 1818.85 1270.1 1827.06 1270.57L730.709 1279.11L1821.79 1279.84C1779.47 1317.38 1781.74 1315.59 1711.02 1315.48C1558.68 1315.24 733.729 1320.89 674.415 1314.55C658.854 1310.99 666.306 1320.11 662.011 1297.94L661.394 521.024C662.57 478.811 665.581 449.022 618.465 451.062C490.66 456.572 355.667 538.125 305.463 599.272C289.068 619.227 277.615 650.702 249.375 656.282C156.311 674.696 93.7417 618.874 58.7261 818.102C87.2112 820.112 107.028 820.593 131.12 827.79C137.719 864.257 114.98 960.841 110.539 1008.39C108.126 1034.33 109.215 1081.47 92.4375 1095.66C75.925 1109.63 39.6054 1113.83 22.9752 1128.59C20.9454 1155.79 17.4547 1272.28 25.407 1287.8C35.2223 1295.65 33.3102 1292.94 44.0277 1296.05C61.1579 1301.04 51.6466 1292.19 63.6779 1303.4C78.5922 1320 75.7191 1362.91 73.8169 1387.45C70.8262 1425.96 51.7446 1412.24 23.289 1432.11C20.6022 1466.93 47.8028 1519.39 96.6343 1521.06C136.994 1522.43 226.371 1525.36 261.554 1520.5C262.063 1519.22 262.544 1515.93 262.681 1516.51L264.995 1499.64C266.584 1448.54 257.043 1409.6 306.934 1354.57C336.036 1322.48 384.75 1284.8 451.8 1282.83C537.746 1280.31 615.298 1335.1 642.077 1413.08C655.363 1451.77 649.215 1472.15 650.666 1512.18C661.315 1506.38 651.039 1512.13 659.148 1504.75C660.099 1503.89 663.09 1500.92 664.188 1499.98C673.298 1492.23 658.628 1500.54 674.111 1492.44L676.004 1482.99C676.69 1465.99 697.998 1470.47 735.18 1470.4L1612.09 1470.45C1739.99 1470.11 1701.36 1484.76 1738.22 1485.5C1760.02 1425.21 1740.93 1399.58 1806.48 1334.27C1813.08 1327.7 1824.21 1321 1832.75 1315.14C1841.69 1309.01 1867.87 1293.56 1878.84 1293.13C1907.03 1292.06 1888.01 1289.12 1898.36 1299.73L1911.88 1293.24C1897.53 1285.32 1893.12 1289.03 1916.83 1283.48C1943.78 1277.19 1977.15 1286.6 2001.71 1294.15C2059.03 1311.77 2103.67 1361.44 2122.98 1415.97C2134.34 1448.1 2126.9 1494.12 2138.23 1521.91C2161.76 1521.53 2154.82 1519.49 2155.7 1493.79C2163.29 1521.75 2154.23 1494.84 2165.35 1507.28L2166.99 1492.37C2163.34 1487.29 2175.01 1484.44 2161.78 1487.79C2185.6 1484.04 2191.13 1492.7 2196.04 1468.21C2199.39 1451.52 2197.4 1442.3 2203.59 1421.12C2213.01 1388.89 2225.33 1373.43 2243.79 1353.31C2344.18 1243.89 2477.28 1276.03 2539.36 1350.55C2581.91 1401.65 2582 1438.36 2587.21 1519.13C2598.26 1523.56 2596.36 1524.84 2607.91 1523.72C2614.67 1496.13 2597.84 1447.62 2607.93 1415.74C2643.8 1395.24 2766.09 1404.56 2817.27 1404.66C2879.68 1404.77 2859.21 1409.61 2903.88 1383.64C2934.13 1366.05 2964.81 1375.63 2961.14 1333.37C2939.14 1327.48 2753.18 1330.61 2713.83 1330.65C2662.86 1330.72 2565.5 1341.38 2536.48 1317.57C2499.26 1287.02 2509.1 1299.75 2507.34 1284.09L2513.51 1280.74C2530.41 1274.98 2818.96 1278.34 2848.73 1278.33C2868.24 1278.33 2887.73 1278.21 2907.22 1278.35C2922.25 1278.46 2944.01 1281.35 2956.94 1273.68C2927.4 1265.91 2572.31 1270.57 2510.5 1270.5L1801.87 1269.25ZM2814.7 1267.51C2833.23 1267.73 2852.55 1267.85 2870.88 1267.68L2814.7 1267.51Z" fill="#352F31"/>
<path fill-rule="evenodd" clip-rule="evenodd" d="M149.299 1069.8C160.487 1074.01 334.113 1050.85 361.235 1044.79C387.602 1038.88 379.64 1002.52 381.552 942.789C382.504 912.981 388.848 858.952 382.474 830.653L172.41 830.977C157.624 870.562 133.178 1031.96 149.299 1069.8Z" fill="#FEFEFE"/>
<path fill-rule="evenodd" clip-rule="evenodd" d="M674.11 1492.44C658.627 1500.54 673.296 1492.23 664.187 1499.98C663.089 1500.92 660.098 1503.89 659.147 1504.75C651.038 1512.13 661.314 1506.38 650.665 1512.18C649.214 1472.15 655.362 1451.77 642.076 1413.08C615.297 1335.1 537.745 1280.31 451.799 1282.83C384.749 1284.8 336.035 1322.48 306.932 1354.57C257.042 1409.6 266.583 1448.54 264.994 1499.64L262.68 1516.51C262.543 1515.93 262.062 1519.22 261.552 1520.5C226.37 1525.36 136.993 1522.43 96.6331 1521.06C47.8016 1519.39 20.6011 1466.93 23.2878 1432.11C51.7434 1412.24 70.825 1425.96 73.8157 1387.45C75.7179 1362.91 78.591 1320 63.6768 1303.4C51.6454 1292.19 61.1567 1301.04 44.0265 1296.05C33.309 1292.94 35.2211 1295.65 25.4058 1287.8C17.4535 1272.28 20.9442 1155.79 22.974 1128.59C39.6042 1113.83 75.9239 1109.63 92.4364 1095.66C109.214 1081.47 108.125 1034.33 110.537 1008.39C114.979 960.841 137.718 864.257 131.119 827.79C107.027 820.593 87.21 820.112 58.725 818.102C93.7405 618.874 156.31 674.696 249.374 656.282C277.614 650.702 289.067 619.227 305.462 599.272C355.666 538.125 490.659 456.572 618.464 451.062C665.579 449.022 662.569 478.811 661.393 521.024L662.01 1297.94C666.305 1320.11 658.853 1310.99 674.414 1314.55C669.296 1195.06 674.248 1063.76 674.248 942.917C674.248 818.759 674.326 694.582 674.248 570.424C674.199 504.923 693.074 432.274 613.708 438.56C494.63 447.983 343.409 516.651 278.447 617.256C274.594 623.217 272.437 627.542 269.946 631.228C262.67 641.985 267.495 636.808 259.13 644.182C197.208 654.291 133.58 639.406 95.1721 681.207C76.9436 701.034 42.9086 791.941 45.5365 827.888C59.0093 830.987 69.1777 829.977 83.229 829.938C141.592 829.751 121.265 837.782 105.35 955.713C99.8494 996.553 98.8296 1046.86 91.6029 1086.3L11.0799 1117.95L12.4919 1304.69L62.0981 1306.06L60.2056 1405.24L10.6484 1417.21C11.1191 1473.04 36.5645 1530.38 91.848 1533.3C152.495 1536.5 219.516 1532.04 280.477 1534.3C281.33 1505.37 257.032 1424.55 314.541 1362.29C406.429 1262.82 537.058 1279.56 601.755 1363.22C641.37 1414.47 645.096 1458.76 633.466 1533.65C663.883 1532.24 672.777 1522.41 674.11 1492.44Z" fill="#120D11"/>
<path fill-rule="evenodd" clip-rule="evenodd" d="M2005.95 1536.15C1995.01 1540.8 1999.21 1537.63 1994.96 1546.88C2002.37 1552.46 2008.12 1542.84 1990.89 1558.09C1977.42 1570 1950.63 1576.95 1931.12 1575.21C1905.89 1572.96 1875.8 1552.93 1866.08 1542.13C1831.97 1504.21 1830.07 1443.46 1871.06 1403.05C1906.48 1368.09 1962.44 1369.7 2007.66 1409.87C2066.74 1462.37 2013.65 1558.16 2005.95 1536.15ZM1896.59 1609.75L1905.92 1617.35C1906.99 1616.17 1908.63 1615.29 1909.88 1614.67C1937.13 1601.3 1931.66 1616.35 1965.84 1605.58C2128.28 1554.46 2081.52 1369.45 1966.66 1349.24C1806.86 1321.14 1751.64 1524.44 1871.35 1590.3C1900.37 1606.26 1925.51 1600.44 1896.59 1609.75Z" fill="#332D2F"/>
<path fill-rule="evenodd" clip-rule="evenodd" d="M439.346 1381.08C556.836 1350.16 603.481 1543.19 483.029 1572.28C426.667 1585.89 371.001 1543.21 362.568 1498.46C350.017 1431.91 391.181 1393.76 439.346 1381.08ZM328.347 1490.45C341.526 1652.06 593.008 1649.81 588.802 1468.6C584.919 1301.82 313.247 1305.14 328.347 1490.45Z" fill="#332D2F"/>
<path fill-rule="evenodd" clip-rule="evenodd" d="M2485.64 1503.91C2433.72 1636.87 2266.83 1565.17 2297.11 1447.8C2307.66 1406.89 2360.63 1368.96 2417.07 1382.45C2458.77 1392.42 2507.61 1447.65 2485.64 1503.91ZM2359.62 1351.01C2192.35 1392.79 2256.24 1648.31 2422.61 1603.34C2594.08 1557 2525.97 1309.47 2359.62 1351.01Z" fill="#342E2F"/>
<path fill-rule="evenodd" clip-rule="evenodd" d="M541.921 1499.42C556.551 1449.04 519.604 1403.67 481.627 1393.43C425.902 1378.41 385.68 1414.74 374.129 1453.07C341.094 1562.54 509.671 1610.46 541.921 1499.42Z" fill="#FEFEFE"/>
<path fill-rule="evenodd" clip-rule="evenodd" d="M2305.48 1490.45C2311.96 1533.3 2351.41 1568.91 2403.35 1562.7C2447.44 1557.41 2484.43 1515.59 2477.48 1463.36C2463.58 1358.81 2287.82 1373.74 2305.48 1490.45Z" fill="#FEFEFE"/>
<path fill-rule="evenodd" clip-rule="evenodd" d="M1994.96 1546.88C1999.21 1537.63 1995.01 1540.8 2005.95 1536.15C2007.68 1528.48 2051.48 1466.11 2001.49 1415.97C1973.05 1387.45 1913.57 1383.1 1879.63 1411.92C1848.61 1438.25 1844.16 1500.56 1873.71 1534.5C1920.69 1588.46 1979.89 1550.91 1994.96 1546.88Z" fill="#FEFEFE"/>
<path fill-rule="evenodd" clip-rule="evenodd" d="M2166.99 1492.37C2224.93 1508.13 2198.63 1481.73 2215.7 1424.04C2269.12 1243.52 2549.12 1253.3 2573.92 1454.97C2576.27 1473.96 2572.75 1505.21 2576.28 1520.56C2579.48 1534.51 2597.41 1549.19 2613.16 1533.96C2629.51 1518.14 2612.53 1445.54 2615.56 1419.76C2654.38 1410.13 2769.98 1415.58 2817.26 1415.61C2897.47 1415.67 2871.4 1421.09 2903.57 1397.04C2921.93 1383.3 2953.2 1377.61 2975.89 1369.86L2972.73 1321.73C2949.79 1313.63 2659.88 1317.39 2596.86 1317.98C2531.76 1318.6 2551.27 1308.66 2507.34 1284.09C2509.1 1299.75 2499.26 1287.02 2536.48 1317.57C2565.5 1341.38 2662.86 1330.72 2713.83 1330.65C2753.18 1330.61 2939.14 1327.48 2961.14 1333.37C2964.81 1375.63 2934.13 1366.05 2903.88 1383.64C2859.22 1409.61 2879.68 1404.77 2817.27 1404.66C2766.09 1404.56 2643.8 1395.24 2607.93 1415.74C2597.84 1447.62 2614.68 1496.13 2607.91 1523.72C2596.36 1524.84 2598.26 1523.56 2587.21 1519.13C2582 1438.36 2581.91 1401.65 2539.36 1350.55C2477.28 1276.03 2344.18 1243.89 2243.79 1353.31C2225.33 1373.43 2213.01 1388.89 2203.59 1421.12C2197.4 1442.3 2199.39 1451.52 2196.04 1468.21C2191.14 1492.7 2185.6 1484.04 2161.78 1487.79C2175.01 1484.44 2163.34 1487.29 2166.99 1492.37Z" fill="#151112"/>
<path fill-rule="evenodd" clip-rule="evenodd" d="M676.004 1482.99C945.44 1479.39 1227.81 1482.77 1499.66 1482.77L1701 1483.53C1727.16 1489.2 1710.93 1505 1748.52 1495.48C1767.89 1447.76 1749.76 1417.05 1792.84 1365.64C1818.54 1334.99 1848.62 1309.2 1898.36 1299.73C1888.01 1289.12 1907.03 1292.06 1878.84 1293.13C1867.87 1293.56 1841.69 1309.01 1832.75 1315.14C1824.21 1321 1813.08 1327.7 1806.48 1334.27C1740.93 1399.58 1760.02 1425.21 1738.22 1485.5C1701.36 1484.76 1739.99 1470.11 1612.09 1470.45L735.18 1470.4C697.998 1470.47 676.69 1465.99 676.004 1482.99Z" fill="#120D0E"/>
<path fill-rule="evenodd" clip-rule="evenodd" d="M2359.62 1351.01C2525.97 1309.47 2594.08 1557 2422.61 1603.34C2256.24 1648.31 2192.35 1392.79 2359.62 1351.01ZM2248.52 1485.96C2263.19 1675.32 2544.28 1656.22 2534.61 1467.89C2524.98 1280.39 2233.97 1298.44 2248.52 1485.96Z" fill="#151112"/>
<path fill-rule="evenodd" clip-rule="evenodd" d="M328.348 1490.45C313.248 1305.14 584.92 1301.82 588.803 1468.6C593.009 1649.81 341.527 1652.06 328.348 1490.45ZM597.824 1508.4C640.909 1331.64 365.109 1256.09 318.69 1442.66C272.79 1627.09 552.414 1694.72 597.824 1508.4Z" fill="#151112"/>
<path fill-rule="evenodd" clip-rule="evenodd" d="M149.299 1069.8C133.179 1031.96 157.624 870.562 172.411 830.977L382.475 830.653C388.848 858.952 382.504 912.98 381.553 942.789C379.641 1002.52 387.603 1038.88 361.236 1044.79C334.114 1050.85 160.487 1074.01 149.299 1069.8ZM147.819 1080.08C172.725 1083.02 349.234 1060.61 369.296 1053.56C400.242 1042.68 391.329 986.012 393.241 948.202C395.192 909.529 403.243 865.639 392.31 826.996C361.442 815.317 240.059 818.014 195.199 819.534C168.243 820.446 159.87 822.946 154.074 848.637C143.298 896.488 119.157 1047.08 147.819 1080.08Z" fill="#151112"/>
<path fill-rule="evenodd" clip-rule="evenodd" d="M1896.6 1609.75C1925.51 1600.44 1900.37 1606.26 1871.35 1590.3C1751.64 1524.44 1806.87 1321.14 1966.66 1349.24C2081.52 1369.45 2128.28 1554.46 1965.84 1605.58C1931.66 1616.35 1937.13 1601.3 1909.88 1614.67C1908.63 1615.29 1906.99 1616.17 1905.92 1617.35C2111.86 1644.21 2137.39 1379.03 1975.49 1338.56C1850.4 1307.29 1749.1 1440.1 1816.17 1551.54C1828.58 1572.17 1863.16 1610.32 1896.6 1609.75Z" fill="#120F10"/>
<path fill-rule="evenodd" clip-rule="evenodd" d="M2274.44 1278.05L2054.57 1278.74C2058.56 1284.77 2088.81 1307.95 2093.43 1310.63C2110.17 1320.37 2139.03 1316.62 2160.72 1316.49C2210.99 1316.22 2231.15 1322.1 2267.45 1286.63C2274.82 1279.42 2267.97 1288.8 2274.44 1278.05Z" fill="#FEFEFE"/>
<path fill-rule="evenodd" clip-rule="evenodd" d="M2305.48 1490.45C2287.82 1373.74 2463.58 1358.81 2477.49 1463.36C2484.43 1515.59 2447.44 1557.41 2403.36 1562.7C2351.41 1568.91 2311.96 1533.3 2305.48 1490.45ZM2485.64 1503.91C2507.61 1447.65 2458.77 1392.42 2417.07 1382.45C2360.63 1368.96 2307.66 1406.89 2297.11 1447.8C2266.83 1565.17 2433.72 1636.87 2485.64 1503.91Z" fill="#161215"/>
<path fill-rule="evenodd" clip-rule="evenodd" d="M1994.96 1546.88C1979.89 1550.91 1920.69 1588.46 1873.71 1534.5C1844.17 1500.56 1848.61 1438.25 1879.63 1411.92C1913.57 1383.1 1973.05 1387.45 2001.49 1415.97C2051.48 1466.11 2007.68 1528.48 2005.95 1536.15C2013.65 1558.16 2066.74 1462.37 2007.66 1409.87C1962.44 1369.7 1906.48 1368.09 1871.06 1403.05C1830.07 1443.46 1831.97 1504.2 1866.08 1542.13C1875.8 1552.93 1905.89 1572.96 1931.12 1575.21C1950.63 1576.95 1977.42 1570 1990.9 1558.09C2008.12 1542.84 2002.37 1552.46 1994.96 1546.88Z" fill="#161215"/>
<path fill-rule="evenodd" clip-rule="evenodd" d="M541.922 1499.42C509.672 1610.46 341.095 1562.54 374.13 1453.07C385.681 1414.74 425.903 1378.41 481.628 1393.43C519.605 1403.67 556.552 1449.04 541.922 1499.42ZM439.347 1381.08C391.182 1393.76 350.018 1431.91 362.569 1498.46C371.002 1543.21 426.668 1585.89 483.03 1572.28C603.481 1543.19 556.837 1350.16 439.347 1381.08Z" fill="#161215"/>
<path fill-rule="evenodd" clip-rule="evenodd" d="M1911.88 1293.24C1947.32 1300.75 1970.02 1289.95 2010.12 1308.55C2061.94 1332.6 2103.09 1375.53 2117.31 1435.03C2124.77 1466.29 2117.32 1508.57 2128.21 1535.59C2151.22 1541.37 2169.48 1537.09 2165.35 1507.28C2154.23 1494.84 2163.29 1521.75 2155.7 1493.79C2154.81 1519.49 2161.76 1521.53 2138.23 1521.91C2126.9 1494.12 2134.34 1448.1 2122.98 1415.97C2103.67 1361.44 2059.03 1311.77 2001.71 1294.15C1977.15 1286.6 1943.78 1277.19 1916.83 1283.48C1893.12 1289.03 1897.53 1285.32 1911.88 1293.24Z" fill="#151112"/>
<path fill-rule="evenodd" clip-rule="evenodd" d="M387.524 1049.53C324.651 1094.93 162.075 1060.08 105.977 1095.52C90.9553 1099.82 40.9471 1120.43 31.7005 1128.64C29.6708 1155.82 26.18 1272.33 34.1323 1287.84C58.8912 1318.13 37.623 1423.46 38.1133 1423.97C-6.76659 1451.64 74.9919 1515.63 77.5512 1517.61L270.269 1521.9C286.938 1436.66 244.824 1487.69 306.677 1364.29C340.143 1297.51 384.533 1300.46 451.622 1278.82C526.752 1272.56 536.783 1280.22 567.71 1301.92C579.683 1310.31 618.238 1307.56 649.547 1289.71C650.537 1289.15 658.646 1282.29 656.764 1273.63L649.253 1258.69C638.163 1229.7 661.431 676.138 661.431 585.682C661.431 469.133 661.392 521.024 651.057 459.151C516.653 431.862 472.763 491.892 359.794 549.431C313.56 572.974 328.887 624.669 272.701 647.77C244.961 648.761 173.253 660.92 155.937 666.519L93.7009 705.133C77.8355 750.895 79.1789 763.672 72.6876 808.307L160.918 822.054L401.036 827.035C409.674 857.54 407.017 1035.46 387.524 1049.53Z" fill="#E31E24" stroke="#2B2A29" stroke-width="2.36313" stroke-miterlimit="22.9256"/>
<path d="M2972.68 1278.05C2969.73 1280.22 2965.94 1282.06 2961.08 1283.52C2948.18 1290.49 2931.03 1289.81 2916.37 1289.23L2907.17 1288.94C2876.32 1288.91 2845.48 1288.91 2814.61 1288.7C2743.36 1288.17 2587.48 1286.99 2534.43 1289.23L2541.84 1295.32C2552.21 1304.07 2556.6 1307.76 2596.77 1307.39L2616.94 1307.19C2706.72 1306.26 2953.52 1303.7 2976.26 1311.73L2982.86 1314.07L2987 1377.28L2979.29 1379.91C2972.54 1382.21 2965.53 1384.23 2958.38 1386.27C2940.66 1391.34 2921.64 1396.81 2909.92 1405.56C2903.53 1410.33 2899.79 1413.64 2897 1416.1C2890.91 1421.5 2887.82 1424.21 2880.61 1425.77C2874.95 1426.99 2867.59 1426.85 2852.86 1426.58C2844.12 1426.44 2832.54 1426.2 2817.26 1426.2C2806.19 1426.19 2791.69 1425.9 2775.38 1425.57C2725.64 1424.56 2658.5 1423.22 2625.79 1428.53C2625.89 1436.8 2626.95 1447.88 2628.09 1459.6C2631.17 1491.54 2634.71 1527.87 2620.5 1541.6C2615.6 1546.34 2610.36 1549.11 2605.1 1550.32C2599.27 1551.65 2593.58 1551.06 2588.42 1549.09C2583.66 1547.29 2579.34 1544.26 2575.75 1540.56C2570.9 1535.59 2567.36 1529.22 2565.93 1522.93C2563.74 1513.43 2563.93 1499.63 2564.1 1485.68C2564.23 1475.13 2564.37 1464.42 2563.37 1456.26C2556.51 1400.34 2528.93 1360.15 2492.22 1335.63C2467.04 1318.8 2437.43 1309.23 2407.15 1306.95C2376.81 1304.65 2345.83 1309.65 2317.97 1321.93C2276.09 1340.4 2241.12 1375.47 2225.88 1427.04C2220.73 1444.46 2219.75 1459.16 2219.02 1470.37C2218.54 1477.97 2218.12 1484.21 2216.7 1489.47C2212.25 1505.69 2203.11 1511.2 2176.21 1505.56L2176.03 1507.24C2176.92 1514.58 2176.62 1520.8 2175.32 1525.96C2173.65 1532.65 2170.36 1537.76 2165.83 1541.48C2161.44 1545.08 2156.12 1547.17 2150.18 1548C2142.81 1549.02 2134.4 1548.08 2125.64 1545.9L2120.4 1544.59L2118.37 1539.54C2111.66 1522.9 2111.21 1502.3 2110.76 1481.52C2110.42 1466.12 2110.08 1450.56 2106.96 1437.47C2100.57 1410.5 2088.2 1387.13 2071.65 1367.59C2053.84 1346.56 2031.11 1329.98 2005.68 1318.18C1982.94 1307.63 1965.94 1307.36 1948.55 1307.08C1937.46 1306.9 1926.16 1306.72 1913.24 1304.33L1901.64 1309.9L1900.31 1310.14C1877.06 1314.57 1858.37 1322.84 1842.53 1333.54C1826.54 1344.35 1813.27 1357.82 1800.99 1372.45C1776.1 1402.18 1773.2 1424.67 1770.21 1448.17C1768.2 1464.05 1766.11 1480.38 1758.37 1499.46L1756.34 1504.45L1751.1 1505.77C1722.57 1513 1717.58 1507.74 1710.49 1500.21C1708.55 1498.16 1706.22 1495.7 1699.61 1494.12L1499.66 1493.36C1422.48 1493.4 1326.98 1493.01 1231.77 1492.64C1048.41 1491.93 863.779 1491.18 684.681 1493.68C683.779 1511 680.386 1522.8 672.287 1531.14C664.011 1539.68 651.95 1543.4 633.918 1544.24L621.014 1544.85L623.004 1532.03C628.652 1495.67 630.584 1466.88 626.358 1441.26C622.249 1416.25 612.022 1393.84 593.362 1369.7C587.616 1362.26 581.242 1355.33 574.398 1349C545.58 1322.38 508.26 1306.6 468.881 1304.71C429.404 1302.81 387.681 1314.86 350.185 1343.86C340.644 1351.22 331.309 1359.77 322.347 1369.48C279.458 1415.91 285.655 1474.85 289.41 1510.51C290.41 1520.08 291.263 1528.13 291.067 1534.59L290.763 1545.29L280.105 1544.89C251.786 1543.85 222.164 1544.26 192.541 1544.65C158.202 1545.12 123.765 1545.59 91.3091 1543.89C62.1769 1542.35 40.3596 1527.69 25.2787 1506.13C8.46217 1482.09 0.333388 1449.34 0.0686387 1417.3L0 1408.89L49.7729 1396.86L51.3025 1316.36L1.99052 1315.01L0.431443 1110.73L82.19 1078.6C85.5336 1058.04 87.4653 1034.22 89.348 1010.65C90.8777 991.454 92.4171 972.373 94.8489 954.301C98.7417 925.375 102.938 902.92 106.164 885.623C109.351 868.483 111.577 856.53 111.567 848.99C111.538 841.371 104.694 840.459 83.3568 840.528L75.4143 840.626C64.442 840.812 55.1267 840.988 43.1639 838.233L35.5156 836.478L34.9469 828.633C33.6036 810.317 40.7126 779.802 50.5867 750.611C61.7258 717.684 76.7577 685.561 87.3673 674.02C117.098 641.671 158.291 639.975 202.749 638.171C219.752 637.484 237.294 636.759 254.493 634.18L256.67 632.336C259.788 626.237 265.779 617.667 269.534 611.529C301.422 562.109 353.215 520.279 411.842 489.029C476.196 454.739 549.061 433.01 612.885 427.97C667.923 423.616 683.083 451.326 686.181 490.607C687.338 505.237 686.583 521.612 685.818 538.419C685.328 549.156 684.828 560.119 684.828 570.424V942.917C684.877 979.227 684.308 1021.51 683.769 1064.08C682.73 1144.9 681.651 1227.08 684.622 1304.62C762.586 1308.45 1191.9 1306.73 1476.9 1305.6C1584.06 1305.19 1670.87 1304.83 1711.02 1304.89L1720.27 1304.92C1748.72 1304.99 1763.44 1305.04 1774.27 1301.54C1780.46 1299.55 1786.14 1296.08 1793.3 1290.42C1432.98 1290.17 1063.44 1298.55 704.292 1288.98L703.566 1279.44C703.537 1278.99 703.498 1278.52 703.468 1278.05H2972.68ZM1801.87 1269.25L1849.84 1269.27L1828.36 1288.21C1806.62 1307.47 1796.08 1316.8 1780.76 1321.72C1766.8 1326.22 1750.93 1326.18 1720.27 1326.09L1711.02 1326.07C1670.95 1326.02 1584.13 1326.37 1476.99 1326.78C1177 1327.97 717.402 1329.81 673.297 1325.09L664.217 1324.13L663.825 1314.96C660.383 1234.4 661.501 1148.38 662.589 1063.83C663.089 1024.54 663.609 985.591 663.609 942.917L663.658 570.424C663.648 559.236 664.158 548.254 664.648 537.507C665.374 521.534 666.09 505.953 665.001 492.265C662.874 465.221 652.431 446.149 614.542 449.14C553.414 453.974 483.57 474.811 421.805 507.718C366.188 537.37 317.209 576.778 287.38 622.982C285.557 625.767 284.056 628.365 282.733 630.63C281.478 632.817 280.37 634.709 278.752 637.131L275.065 642.877C274.28 644.172 273.839 644.917 272.957 645.966C271.956 647.162 271.182 647.819 269.495 649.241L263.808 654.164L260.837 654.644C241.471 657.801 222.213 658.586 203.573 659.351C163.723 660.969 126.776 662.489 102.968 688.395C94.241 697.887 80.9937 726.901 70.6783 757.416C63.0398 780.027 57.1662 803.051 56.1563 818.946C62.4514 819.671 68.4132 819.563 75.0809 819.446L83.2293 819.348C120.647 819.23 132.639 822.348 132.737 848.99C132.757 858.511 130.394 871.229 127.001 889.447C123.834 906.46 119.706 928.522 115.862 957.125C113.607 973.804 112.058 992.994 110.518 1012.31C108.439 1038.39 106.312 1064.78 102.027 1088.23L100.968 1094.04L21.7193 1125.16L23.0038 1294.39L72.8845 1295.77L70.639 1413.63L21.5035 1425.5C22.9253 1450.79 29.7892 1475.66 42.6344 1494.01C54.0971 1510.41 70.5704 1521.56 92.3975 1522.71C124.579 1524.4 158.477 1523.93 192.286 1523.48C218.301 1523.13 244.295 1522.77 269.378 1523.37L268.319 1512.68C264.19 1473.44 257.356 1408.55 306.737 1355.1C316.464 1344.57 326.681 1335.24 337.242 1327.08C378.974 1294.82 425.609 1281.4 469.881 1283.53C514.29 1285.67 556.327 1303.43 588.773 1333.39C596.421 1340.46 603.599 1348.29 610.139 1356.75C631.074 1383.83 642.576 1409.24 647.283 1437.87C651.352 1462.53 650.293 1489.32 645.91 1521.61C651.038 1520.52 654.686 1518.84 657.088 1516.36C661.207 1512.13 662.972 1504.27 663.521 1491.98C663.815 1486.58 666.129 1478.15 667.266 1472.51L675.876 1472.4C857.67 1469.97 1045.42 1470.73 1231.81 1471.47C1316.28 1471.8 1399.95 1472.14 1499.66 1472.14L1702.78 1473.04C1716.92 1476.1 1721.85 1481.35 1725.95 1485.67C1727.74 1487.57 1729.08 1488.98 1740.61 1486.45C1745.86 1471.72 1747.56 1458.46 1749.21 1445.51C1752.61 1418.81 1755.89 1393.23 1784.7 1358.83C1798.11 1342.83 1812.74 1328.04 1830.64 1315.94C1848.37 1303.95 1869.22 1294.65 1895.07 1289.56L1910.6 1282.12L1914.08 1282.86C1926.8 1285.54 1937.94 1285.73 1948.89 1285.9C1968.6 1286.22 1987.88 1286.53 2014.57 1298.92C2042.77 1312 2068 1330.45 2087.86 1353.88C2106.43 1375.81 2120.34 1402.15 2127.6 1432.59C2131.2 1447.48 2131.58 1464.37 2131.94 1481.09C2132.27 1497.53 2132.64 1513.83 2136.28 1526.47C2140.43 1527.19 2144.17 1527.41 2147.26 1526.98C2149.42 1526.69 2151.19 1526.07 2152.37 1525.1C2153.39 1524.27 2154.21 1522.86 2154.72 1520.82C2155.46 1517.83 2155.55 1513.83 2154.84 1508.7L2154.66 1507.39L2157.82 1478.86L2169.78 1482.11C2189.79 1487.55 2195.22 1487.53 2196.22 1483.91C2197.1 1480.51 2197.45 1475.32 2197.85 1469.02C2198.65 1456.8 2199.69 1440.77 2205.53 1421.05C2222.74 1362.9 2262.17 1323.34 2309.42 1302.51C2340.5 1288.8 2375.01 1283.21 2408.73 1285.77C2442.51 1288.32 2475.67 1299.07 2504.02 1318.02C2545.59 1345.79 2576.78 1391.04 2584.47 1453.69C2585.58 1462.76 2585.42 1474.43 2585.28 1485.94C2585.12 1498.52 2584.95 1510.98 2586.62 1518.2C2587.21 1520.82 2588.78 1523.58 2590.94 1525.81C2592.37 1527.34 2594.08 1528.55 2595.91 1529.24C2597.34 1529.78 2598.89 1529.96 2600.36 1529.63C2602 1529.26 2603.85 1528.2 2605.81 1526.32C2612.62 1519.74 2609.62 1488.79 2607 1461.59C2605.35 1444.54 2603.82 1428.74 2605.01 1418.56L2605.87 1411.24L2613.03 1409.46C2644.2 1401.73 2720.51 1403.28 2775.81 1404.39C2792.13 1404.72 2806.63 1405.02 2817.26 1405.02C2832.91 1405.04 2844.47 1405.26 2853.2 1405.4C2866.11 1405.64 2872.56 1405.76 2876.12 1404.99C2878.05 1404.58 2879.71 1403.12 2882.96 1400.25C2886.33 1397.27 2890.82 1393.3 2897.2 1388.53C2912 1377.46 2933.02 1371.43 2952.57 1365.84L2964.76 1362.28L2962.68 1330.52C2918.81 1325.24 2700.09 1327.52 2617.11 1328.36L2596.94 1328.57C2548.85 1329.01 2542.71 1323.83 2528.12 1311.52C2522.51 1306.77 2515.32 1300.69 2502.2 1293.35L2485.39 1283.96C2491.68 1280.54 2512.17 1272.81 2519.01 1270.49L1801.87 1269.25ZM2237.93 1486.75C2232.37 1414.97 2268.59 1366.18 2318.01 1342.23C2337.72 1332.67 2359.56 1327.14 2381.61 1325.72C2403.62 1324.31 2426.01 1327.05 2446.81 1334C2499.09 1351.46 2541.51 1395.36 2545.2 1467.35C2548.9 1539.44 2512.7 1588.51 2463.92 1612.58C2444.46 1622.18 2422.95 1627.75 2401.24 1629.15C2379.55 1630.56 2357.53 1627.8 2337.02 1620.78C2285.63 1603.18 2243.53 1559.11 2237.93 1486.75ZM2327.23 1361.32C2285.15 1381.72 2254.32 1423.51 2259.11 1485.17C2263.95 1547.7 2299.94 1585.66 2343.83 1600.69C2361.69 1606.8 2380.92 1609.19 2399.9 1607.98C2418.86 1606.76 2437.62 1601.91 2454.55 1593.54C2496.27 1572.96 2527.22 1530.72 2524.02 1468.43C2520.85 1406.61 2484.67 1368.99 2440.1 1354.09C2421.95 1348.03 2402.35 1345.65 2382.95 1346.89C2363.57 1348.13 2344.44 1352.98 2327.23 1361.32ZM1978.06 1328.26C2038.76 1343.42 2075.01 1388 2087.05 1438.39C2092.37 1460.66 2092.94 1484.11 2088.78 1506.62C2084.6 1529.23 2075.63 1550.97 2061.95 1569.71C2031.85 1610.85 1979.2 1637.59 1904.55 1627.85L1901.55 1627.47L1892.71 1620.25C1877.55 1619.4 1862.74 1612.43 1849.61 1602.93C1830.69 1589.23 1814.86 1569.92 1807.08 1557.02C1783.89 1518.44 1779.49 1477.44 1788.66 1440.71C1793.61 1420.9 1802.57 1402.28 1814.67 1386C1826.78 1369.72 1842.05 1355.74 1859.58 1345.19C1892.72 1325.26 1934.07 1317.26 1978.06 1328.26ZM2066.45 1443.27C2056.12 1400.08 2025.01 1361.88 1972.91 1348.87C1934.77 1339.33 1899.06 1346.2 1870.54 1363.34C1855.34 1372.52 1842.14 1384.61 1831.7 1398.63C1821.27 1412.66 1813.54 1428.73 1809.26 1445.86C1801.37 1477.43 1805.21 1512.76 1825.24 1546.06C1831.96 1557.16 1845.67 1573.84 1862.07 1585.72C1873.07 1593.69 1885.1 1599.35 1896.43 1599.16L1900.28 1599.09L1910.24 1607.21C1974.45 1614.73 2019.36 1591.99 2044.84 1557.15C2056.61 1541.03 2064.34 1522.29 2067.95 1502.79C2071.59 1483.14 2071.08 1462.69 2066.45 1443.27ZM608.129 1510.89C590.538 1583.12 539.922 1619.81 484.815 1627.87C463.586 1630.98 441.641 1629.77 420.716 1624.67C399.742 1619.54 379.729 1610.51 362.432 1597.99C317.974 1565.82 290.783 1510.9 308.384 1440.13C326.191 1368.58 375.66 1332.88 429.786 1325.23C450.868 1322.25 472.646 1323.58 493.454 1328.74C514.271 1333.91 534.215 1342.96 551.581 1355.35C596.725 1387.52 624.887 1442.13 608.129 1510.89ZM481.736 1606.87C528.93 1599.97 572.319 1568.31 587.528 1505.91C601.903 1446.91 577.869 1400.14 539.294 1372.63C524.106 1361.8 506.632 1353.88 488.394 1349.36C470.136 1344.82 451.074 1343.64 432.698 1346.24C386.593 1352.75 344.341 1383.49 328.985 1445.2C313.806 1506.21 336.947 1553.34 374.895 1580.78C390.005 1591.72 407.449 1599.6 425.688 1604.06C443.985 1608.53 463.174 1609.58 481.736 1606.87Z" fill="#2B2A29"/>
</svg>
