<?xml version="1.0" encoding="UTF-8"?>
<!DOCTYPE svg PUBLIC "-//W3C//DTD SVG 1.1//EN" "http://www.w3.org/Graphics/SVG/1.1/DTD/svg11.dtd">
<!-- Creator: CorelDRAW 2020 (64-Bit) -->
<svg xmlns="http://www.w3.org/2000/svg" xml:space="preserve" width="1153px" height="411px" version="1.1" style="shape-rendering:geometricPrecision; text-rendering:geometricPrecision; image-rendering:optimizeQuality; fill-rule:evenodd; clip-rule:evenodd"
viewBox="0 0 1115.95 397.62"
 xmlns:xlink="http://www.w3.org/1999/xlink"
 xmlns:xodm="http://www.corel.com/coreldraw/odm/2003">
 <defs>
  <style type="text/css">
   <![CDATA[
    .str0 {stroke:#2B2A29;stroke-width:2.29;stroke-miterlimit:22.9256}
    .fil10 {fill:#E31E24}
    .fil7 {fill:#120D0E}
    .fil3 {fill:#120D11}
    .fil8 {fill:#120F10}
    .fil6 {fill:#151112}
    .fil9 {fill:#161215}
    .fil1 {fill:#191616}
    .fil4 {fill:#332D2F}
    .fil5 {fill:#342E2F}
    .fil0 {fill:#352F31}
    .fil2 {fill:#FEFEFE}
    .fil11 {fill:#2B2A29;fill-rule:nonzero}
   ]]>
  </style>
 </defs>
 <g id="Слой_x0020_1">
  <metadata id="CorelCorpID_0Corel-Layer"/>
  <g id="_1003334992">
   <path class="fil0" d="M235.64 284.5l351.86 0.24c-13.65,12.11 -12.91,11.53 -35.72,11.49 -49.13,-0.07 -315.17,1.75 -334.29,-0.3 -5.02,-1.15 -2.62,1.79 -4,-5.36l-0.2 -250.54c0.38,-13.61 1.35,-23.22 -13.85,-22.56 -41.21,1.78 -84.74,28.08 -100.93,47.8 -5.29,6.43 -8.99,16.58 -18.09,18.38 -30.01,5.94 -50.19,-12.06 -61.48,52.19 9.18,0.64 15.57,0.8 23.35,3.12 2.12,11.76 -5.21,42.91 -6.64,58.24 -0.78,8.37 -0.43,23.57 -5.84,28.14 -5.32,4.51 -17.04,5.86 -22.4,10.62 -0.66,8.77 -1.78,46.34 0.78,51.34 3.17,2.54 2.55,1.66 6.01,2.67 5.52,1.61 2.45,-1.25 6.34,2.36 4.81,5.36 3.88,19.2 3.26,27.11 -0.96,12.42 -7.11,7.99 -16.29,14.4 -0.87,11.23 7.9,28.15 23.65,28.69 13.02,0.44 41.84,1.38 53.19,-0.18 0.16,-0.42 0.32,-1.48 0.36,-1.29l0.75 -5.44c0.51,-16.48 -2.57,-29.04 13.52,-46.78 9.39,-10.35 25.1,-22.5 46.72,-23.14 27.71,-0.81 52.72,16.86 61.36,42.01 4.28,12.47 2.3,19.05 2.77,31.95 3.43,-1.87 0.12,-0.01 2.74,-2.39 0.3,-0.28 1.27,-1.24 1.62,-1.54 2.94,-2.5 -1.79,0.18 3.2,-2.43l0.61 -3.05c0.22,-5.48 7.09,-4.04 19.08,-4.06l282.79 0.02c41.25,-0.11 28.79,4.61 40.68,4.85 7.03,-19.44 0.87,-27.71 22.01,-48.77 2.13,-2.12 5.72,-4.28 8.48,-6.17 2.87,-1.98 11.32,-6.96 14.86,-7.09 9.09,-0.35 2.95,-1.3 6.29,2.12l4.36 -2.09c-4.63,-2.55 -6.05,-1.36 1.6,-3.15 8.69,-2.03 19.45,1.01 27.37,3.44 18.49,5.69 32.88,21.7 39.11,39.29 3.66,10.36 1.26,25.2 4.92,34.16 7.58,-0.12 5.34,-0.78 5.63,-9.06 2.45,9.01 -0.47,0.33 3.11,4.35l0.53 -4.81c-1.18,-1.64 2.59,-2.56 -1.68,-1.48 7.68,-1.21 9.47,1.58 11.05,-6.32 1.08,-5.38 0.44,-8.35 2.43,-15.18 3.04,-10.4 7.01,-15.38 12.97,-21.87 32.37,-35.28 75.29,-24.92 95.31,-0.89 13.73,16.48 13.76,28.32 15.44,54.37 3.56,1.43 2.94,1.84 6.67,1.48 2.18,-8.9 -3.25,-24.55 0.01,-34.83 11.56,-6.61 203.69,-3.6 220.2,-3.57 20.13,0.04 13.53,1.6 27.93,-6.78 9.75,-5.67 19.65,-2.58 18.46,-16.21 -7.09,-1.9 -67.06,-0.89 -79.75,-0.88 -16.44,0.02 -200.53,3.47 -209.88,-4.22 -12.01,-9.85 -8.84,-5.74 -9.4,-10.79l1.99 -1.08c5.45,-1.86 251.19,-0.77 260.8,-0.78 6.28,0 12.57,-0.04 18.85,0.01 4.85,0.03 11.87,0.96 16.04,-1.51 -9.53,-2.5 -276.73,-1 -296.74,-1 10.88,-3 208.59,-1.48 224.14,-1.41 15.01,0.07 60.46,1.77 71.94,-1.5 3.74,-12.77 1.1,-114.19 1.1,-136.04 0,-19.18 2.95,-125.49 -2.05,-133.15 -4.88,-4.26 -620.22,-0.96 -690.64,-0.96 -27.49,0 -163.03,-1.81 -178.55,0.95l-0.8 270.36c19.86,3.15 66.82,0.69 89.44,0.61 78.32,-0.3 193.99,-2.92 265.1,1.14l-353.56 2.75z"/>
   <path class="fil0" d="M47.67 220.32c-9.24,-10.64 -1.46,-59.21 2.02,-74.64 1.87,-8.28 4.57,-9.09 13.26,-9.38 14.47,-0.49 53.61,-1.36 63.56,2.4 3.53,12.46 0.93,26.62 0.3,39.09 -0.61,12.19 2.26,30.47 -7.72,33.98 -6.47,2.27 -63.39,9.5 -71.42,8.55z"/>
   <path class="fil0" d="M733.47 284.16c-2.08,3.47 0.13,0.44 -2.25,2.77 -11.71,11.43 -18.21,9.54 -34.42,9.63 -7,0.04 -16.3,1.25 -21.7,-1.89 -1.49,-0.87 -11.25,-8.34 -12.53,-10.29l70.9 -0.22z"/>
   <path class="fil1" d="M235.64 284.5l353.56 -2.75c-71.11,-4.06 -186.78,-1.44 -265.1,-1.14 -22.62,0.08 -69.58,2.54 -89.44,-0.61l0.8 -270.36c15.52,-2.76 151.06,-0.95 178.55,-0.95 70.42,0 685.76,-3.3 690.64,0.96 5,7.66 2.05,113.97 2.05,133.15 0,21.85 2.64,123.27 -1.1,136.04 -11.48,3.27 -56.93,1.57 -71.94,1.5 -15.55,-0.07 -213.26,-1.59 -224.14,1.41 20.01,0 287.21,-1.5 296.74,1 6.32,-1.77 4.76,-6.96 4.68,-14 -0.49,-43.79 2.74,-256.04 -2.01,-261.67 -4.03,-4.78 -8.23,-3.07 -20.16,-3.04l-769.02 0.22c-14.34,0 -79.5,-3.14 -87.06,2.5 -4.23,7.29 -2.16,120.51 -2.14,138.93 0.03,26.18 -1.55,121.32 -0.25,138.67l5.34 0.14z"/>
   <path class="fil2" d="M48.15 217c3.6,1.36 59.6,-6.11 68.34,-8.06 8.5,-1.91 5.94,-13.63 6.55,-32.9 0.31,-9.61 2.36,-27.03 0.3,-36.16l-67.74 0.11c-4.77,12.76 -12.65,64.81 -7.45,77.01z"/>
   <path class="fil3" d="M217.39 353.3c-4.99,2.61 -0.26,-0.07 -3.2,2.43 -0.35,0.3 -1.32,1.26 -1.62,1.54 -2.62,2.38 0.69,0.52 -2.74,2.39 -0.47,-12.9 1.51,-19.48 -2.77,-31.95 -8.64,-25.15 -33.65,-42.82 -61.36,-42.01 -21.62,0.64 -37.33,12.79 -46.72,23.14 -16.09,17.74 -13.01,30.3 -13.52,46.78l-0.75 5.44c-0.04,-0.19 -0.2,0.87 -0.36,1.29 -11.35,1.56 -40.17,0.62 -53.19,0.18 -15.75,-0.54 -24.52,-17.46 -23.65,-28.69 9.18,-6.41 15.33,-1.98 16.29,-14.4 0.62,-7.91 1.55,-21.75 -3.26,-27.11 -3.89,-3.61 -0.82,-0.75 -6.34,-2.36 -3.46,-1.01 -2.84,-0.13 -6.01,-2.67 -2.56,-5 -1.44,-42.57 -0.78,-51.34 5.36,-4.76 17.08,-6.11 22.4,-10.62 5.41,-4.57 5.06,-19.77 5.84,-28.14 1.43,-15.33 8.76,-46.48 6.64,-58.24 -7.78,-2.32 -14.17,-2.48 -23.35,-3.12 11.29,-64.25 31.47,-46.25 61.48,-52.19 9.1,-1.8 12.8,-11.95 18.09,-18.38 16.19,-19.72 59.72,-46.02 100.93,-47.8 15.2,-0.66 14.23,8.95 13.85,22.56l0.2 250.54c1.38,7.15 -1.02,4.21 4,5.36 -1.65,-38.53 -0.06,-80.87 -0.06,-119.84 0,-40.04 0.03,-80.09 0,-120.13 -0.01,-21.12 6.07,-44.55 -19.52,-42.52 -38.4,3.04 -87.17,25.18 -108.11,57.62 -1.25,1.93 -1.94,3.32 -2.75,4.51 -2.34,3.47 -0.79,1.8 -3.48,4.18 -19.97,3.26 -40.49,-1.54 -52.88,11.94 -5.88,6.39 -16.85,35.71 -16.01,47.3 4.35,1 7.63,0.68 12.16,0.66 18.82,-0.06 12.27,2.53 7.14,40.56 -1.78,13.17 -2.11,29.39 -4.44,42.12l-25.97 10.2 0.46 60.22 16 0.44 -0.62 31.99 -15.97 3.86c0.15,18 8.35,36.49 26.18,37.44 19.56,1.03 41.17,-0.41 60.83,0.32 0.27,-9.33 -7.56,-35.4 10.98,-55.47 29.64,-32.08 71.76,-26.68 92.63,0.3 12.77,16.53 13.97,30.81 10.22,54.96 9.81,-0.46 12.68,-3.63 13.11,-13.29z"/>
   <path class="fil4" d="M646.89 367.39c-3.53,1.5 -2.18,0.48 -3.55,3.46 2.39,1.8 4.25,-1.3 -1.31,3.62 -4.34,3.84 -12.98,6.08 -19.27,5.52 -8.14,-0.72 -17.84,-7.19 -20.98,-10.67 -11,-12.23 -11.61,-31.82 1.61,-44.85 11.42,-11.27 29.47,-10.75 44.05,2.2 19.05,16.93 1.93,47.82 -0.55,40.72zm-35.27 23.74l3.01 2.45c0.35,-0.38 0.87,-0.67 1.28,-0.86 8.78,-4.32 7.02,0.54 18.04,-2.94 52.39,-16.48 37.31,-76.15 0.27,-82.66 -51.53,-9.06 -69.34,56.5 -30.74,77.73 9.36,5.15 17.47,3.28 8.14,6.28z"/>
   <path class="fil4" d="M141.68 317.38c37.89,-9.96 52.93,52.28 14.09,61.67 -18.18,4.39 -36.13,-9.38 -38.85,-23.81 -4.04,-21.46 9.23,-33.77 24.76,-37.86zm-35.79 35.28c4.25,52.11 85.35,51.39 83.99,-7.05 -1.25,-53.78 -88.86,-52.71 -83.99,7.05z"/>
   <path class="fil5" d="M801.58 357c-16.74,42.87 -70.56,19.75 -60.8,-18.1 3.41,-13.19 20.49,-25.42 38.69,-21.07 13.44,3.21 29.19,21.02 22.11,39.17zm-40.64 -49.31c-53.94,13.47 -33.34,95.87 20.31,81.37 55.3,-14.94 33.34,-94.77 -20.31,-81.37z"/>
   <path class="fil2" d="M174.76 355.55c4.72,-16.25 -7.2,-30.88 -19.44,-34.18 -17.97,-4.85 -30.94,6.87 -34.67,19.23 -10.65,35.3 43.71,50.76 54.11,14.95z"/>
   <path class="fil2" d="M743.48 352.66c2.09,13.82 14.81,25.3 31.57,23.29 14.21,-1.7 26.14,-15.19 23.9,-32.03 -4.48,-33.71 -61.16,-28.9 -55.47,8.74z"/>
   <path class="fil2" d="M643.34 370.85c1.37,-2.98 0.02,-1.96 3.55,-3.46 0.56,-2.47 14.68,-22.58 -1.44,-38.75 -9.17,-9.2 -28.35,-10.6 -39.3,-1.31 -10,8.49 -11.44,28.59 -1.91,39.53 15.15,17.41 34.24,5.29 39.1,3.99z"/>
   <path class="fil6" d="M698.82 353.28c18.69,5.08 10.2,-3.44 15.71,-22.04 17.23,-58.21 107.52,-55.06 115.52,9.98 0.75,6.12 -0.38,16.2 0.76,21.15 1.03,4.5 6.81,9.23 11.89,4.32 5.28,-5.1 -0.2,-28.52 0.78,-36.83 12.52,-3.11 202.48,-1.35 217.73,-1.34 25.87,0.02 17.46,1.77 27.84,-5.99 5.92,-4.43 16,-6.26 23.32,-8.76l-1.02 -15.52c-7.4,-2.61 -253.58,-1.4 -273.91,-1.21 -20.99,0.2 -14.7,-3.01 -28.86,-10.93 0.56,5.05 -2.61,0.94 9.4,10.79 9.35,7.69 193.44,4.24 209.88,4.22 12.69,-0.01 72.66,-1.02 79.75,0.88 1.19,13.63 -8.71,10.54 -18.46,16.21 -14.4,8.38 -7.8,6.82 -27.93,6.78 -16.51,-0.03 -208.64,-3.04 -220.2,3.57 -3.26,10.28 2.17,25.93 -0.01,34.83 -3.73,0.36 -3.11,-0.05 -6.67,-1.48 -1.68,-26.05 -1.71,-37.89 -15.44,-54.37 -20.02,-24.03 -62.94,-34.39 -95.31,0.89 -5.96,6.49 -9.93,11.47 -12.97,21.87 -1.99,6.83 -1.35,9.8 -2.43,15.18 -1.58,7.9 -3.37,5.11 -11.05,6.32 4.27,-1.08 0.5,-0.16 1.68,1.48z"/>
   <path class="fil7" d="M218 350.25c86.89,-1.16 177.95,-0.07 265.62,-0.07l64.92 0.24c8.44,1.83 3.21,6.93 15.33,3.86 6.25,-15.39 0.4,-25.29 14.3,-41.87 8.28,-9.89 17.98,-18.2 34.02,-21.26 -3.34,-3.42 2.8,-2.47 -6.29,-2.12 -3.54,0.13 -11.99,5.11 -14.86,7.09 -2.76,1.89 -6.35,4.05 -8.48,6.17 -21.14,21.06 -14.98,29.33 -22.01,48.77 -11.89,-0.24 0.57,-4.96 -40.68,-4.85l-282.79 -0.02c-11.99,0.02 -18.86,-1.42 -19.08,4.06z"/>
   <path class="fil6" d="M760.94 307.69c53.65,-13.4 75.61,66.43 20.31,81.37 -53.65,14.5 -74.25,-67.9 -20.31,-81.37zm-35.83 43.52c4.74,61.06 95.38,54.9 92.26,-5.83 -3.1,-60.46 -96.95,-54.64 -92.26,5.83z"/>
   <path class="fil6" d="M105.89 352.66c-4.87,-59.76 82.74,-60.83 83.99,-7.05 1.36,58.44 -79.74,59.16 -83.99,7.05zm86.9 5.79c13.89,-57.01 -75.05,-81.37 -90.02,-21.2 -14.8,59.47 75.37,81.28 90.02,21.2z"/>
   <path class="fil6" d="M48.15 217c-5.2,-12.2 2.68,-64.25 7.45,-77.01l67.74 -0.11c2.06,9.13 0.01,26.55 -0.3,36.16 -0.61,19.27 1.95,30.99 -6.55,32.9 -8.74,1.95 -64.74,9.42 -68.34,8.06zm-0.48 3.32c8.03,0.95 64.95,-6.28 71.42,-8.55 9.98,-3.51 7.11,-21.79 7.72,-33.98 0.63,-12.47 3.23,-26.63 -0.3,-39.09 -9.95,-3.76 -49.09,-2.89 -63.56,-2.4 -8.69,0.29 -11.39,1.1 -13.26,9.38 -3.48,15.43 -11.26,64 -2.02,74.64z"/>
   <path class="fil8" d="M611.62 391.13c9.33,-3 1.22,-1.13 -8.14,-6.28 -38.6,-21.23 -20.79,-86.79 30.74,-77.73 37.04,6.51 52.12,66.18 -0.27,82.66 -11.02,3.48 -9.26,-1.38 -18.04,2.94 -0.41,0.19 -0.93,0.48 -1.28,0.86 66.41,8.66 74.64,-76.86 22.43,-89.91 -40.33,-10.08 -73,32.75 -51.37,68.69 4,6.65 15.15,18.95 25.93,18.77z"/>
   <path class="fil2" d="M733.47 284.16l-70.9 0.22c1.28,1.95 11.04,9.42 12.53,10.29 5.4,3.14 14.7,1.93 21.7,1.89 16.21,-0.09 22.71,1.8 34.42,-9.63 2.38,-2.33 0.17,0.7 2.25,-2.77z"/>
   <path class="fil9" d="M743.48 352.66c-5.69,-37.64 50.99,-42.45 55.47,-8.74 2.24,16.84 -9.69,30.33 -23.9,32.03 -16.76,2.01 -29.48,-9.47 -31.57,-23.29zm58.1 4.34c7.08,-18.15 -8.67,-35.96 -22.11,-39.17 -18.2,-4.35 -35.28,7.88 -38.69,21.07 -9.76,37.85 44.06,60.97 60.8,18.1z"/>
   <path class="fil9" d="M643.34 370.85c-4.86,1.3 -23.95,13.42 -39.1,-3.99 -9.53,-10.94 -8.09,-31.04 1.91,-39.53 10.95,-9.29 30.13,-7.89 39.3,1.31 16.12,16.17 2,36.28 1.44,38.75 2.48,7.1 19.6,-23.79 0.55,-40.72 -14.58,-12.95 -32.63,-13.47 -44.05,-2.2 -13.22,13.03 -12.61,32.62 -1.61,44.85 3.14,3.48 12.84,9.95 20.98,10.67 6.29,0.56 14.93,-1.68 19.27,-5.52 5.56,-4.92 3.7,-1.82 1.31,-3.62z"/>
   <path class="fil9" d="M174.76 355.55c-10.4,35.81 -64.76,20.35 -54.11,-14.95 3.73,-12.36 16.7,-24.08 34.67,-19.23 12.24,3.3 24.16,17.93 19.44,34.18zm-33.08 -38.17c-15.53,4.09 -28.8,16.4 -24.76,37.86 2.72,14.43 20.67,28.2 38.85,23.81 38.84,-9.39 23.8,-71.63 -14.09,-61.67z"/>
   <path class="fil6" d="M616.55 289.06c11.43,2.42 18.75,-1.06 31.68,4.94 16.71,7.75 29.98,21.6 34.57,40.78 2.41,10.08 0,23.72 3.52,32.44 7.41,1.86 13.3,0.48 11.97,-9.13 -3.58,-4.02 -0.66,4.66 -3.11,-4.35 -0.29,8.28 1.95,8.94 -5.63,9.06 -3.66,-8.96 -1.26,-23.8 -4.92,-34.16 -6.23,-17.59 -20.62,-33.6 -39.11,-39.29 -7.92,-2.43 -18.68,-5.47 -27.37,-3.44 -7.65,1.79 -6.23,0.6 -1.6,3.15z"/>
   <path class="fil10 str0" d="M124.97 210.47c-20.27,14.64 -72.7,3.4 -90.79,14.83 -4.85,1.38 -20.97,8.03 -23.96,10.68 -0.65,8.76 -1.78,46.34 0.79,51.34 7.98,9.77 1.12,43.73 1.28,43.9 -14.47,8.92 11.89,29.56 12.72,30.2l62.15 1.38c5.37,-27.49 -8.21,-11.03 11.74,-50.83 10.79,-21.53 25.11,-20.58 46.74,-27.56 24.23,-2.02 27.46,0.45 37.44,7.45 3.86,2.71 16.29,1.82 26.39,-3.94 0.32,-0.18 2.93,-2.39 2.33,-5.19l-2.43 -4.81c-3.57,-9.35 3.93,-187.87 3.93,-217.04 0,-37.58 -0.01,-20.85 -3.34,-40.8 -43.35,-8.8 -57.5,10.56 -93.93,29.11 -14.91,7.6 -9.97,24.27 -28.09,31.72 -8.94,0.32 -32.07,4.23 -37.65,6.04l-20.07 12.45c-5.12,14.76 -4.69,18.88 -6.78,33.28l28.46 4.43 77.43 1.61c2.79,9.83 1.93,67.21 -4.36,71.75z"/>
   <path class="fil11" d="M1111.54 4.87c4.2,4.98 3.52,115.44 3.03,194.15 -0.19,31.11 -0.35,57.25 -0.22,69.7l0.13 3.28c0.33,6.74 0.57,11.66 -6.88,13.93 -4.17,2.25 -9.7,2.02 -14.42,1.84l-2.97 -0.1c-9.95,-0.01 -19.9,-0.01 -29.85,-0.07 -22.98,-0.18 -225.94,-0.56 -243.05,0.17l2.39 1.96c3.35,2.82 4.76,4.01 17.72,3.89l6.5 -0.06c28.95,-0.3 261.24,-1.13 268.57,1.46l2.13 0.76 1.33 20.38 -2.48 0.85c-2.18,0.74 -4.44,1.39 -6.75,2.05 -5.71,1.64 -11.85,3.4 -15.62,6.22 -2.07,1.54 -3.27,2.61 -4.17,3.4 -1.96,1.74 -2.96,2.62 -5.29,3.12 -1.82,0.39 -4.2,0.35 -8.94,0.26 -2.82,-0.05 -6.56,-0.12 -11.49,-0.12 -3.57,-0.01 -8.24,-0.1 -13.5,-0.2 -16.04,-0.33 -190.39,-0.77 -200.93,0.95 0.03,2.67 0.37,6.24 0.74,10.02 0.99,10.3 2.13,22.01 -2.45,26.44 -1.58,1.53 -3.27,2.42 -4.96,2.81 -1.89,0.43 -3.72,0.24 -5.38,-0.39 -1.54,-0.58 -2.94,-1.56 -4.09,-2.75 -1.56,-1.6 -2.71,-3.66 -3.17,-5.69 -0.7,-3.06 -0.64,-7.52 -0.59,-12.01 0.05,-3.4 0.09,-6.86 -0.23,-9.49 -2.22,-18.03 -11.11,-30.99 -22.95,-38.9 -8.12,-5.43 -17.67,-8.51 -27.43,-9.25 -9.79,-0.74 -19.78,0.87 -28.76,4.83 -13.51,5.96 -24.78,17.27 -29.7,33.9 -1.66,5.61 -1.98,10.36 -2.21,13.97 -0.16,2.45 -0.29,4.46 -0.75,6.16 -1.44,5.23 -4.38,7.01 -13.05,5.19l-0.06 0.54c0.28,2.37 0.19,4.37 -0.23,6.04 -0.54,2.16 -1.6,3.8 -3.06,5 -1.42,1.16 -3.13,1.84 -5.05,2.1 -2.38,0.33 -5.09,0.03 -7.91,-0.67l-1.69 -0.42 -0.66 -1.63c-2.16,-5.37 -2.31,-12.01 -2.45,-18.71 -0.11,-4.97 -0.22,-9.99 -1.23,-14.21 -2.06,-8.7 -6.05,-16.23 -11.38,-22.53 -5.75,-6.78 -13.08,-12.13 -21.28,-15.94 -7.33,-3.4 -12.81,-3.49 -18.42,-3.58 -3.58,-0.05 -7.22,-0.11 -11.39,-0.88l-3.74 1.79 -0.43 0.08c-7.5,1.43 -13.52,4.09 -18.63,7.55 -5.16,3.48 -9.44,7.82 -13.4,12.54 -8.03,9.59 -8.96,16.84 -9.92,24.42 -0.65,5.12 -1.33,10.39 -3.82,16.54l-0.66 1.61 -1.69 0.43c-9.2,2.33 -10.81,0.63 -13.09,-1.79 -0.63,-0.67 -1.38,-1.46 -3.51,-1.97l-64.48 -0.24c-24.89,0.01 -55.69,-0.12 -86.39,-0.23 -59.14,-0.24 -118.68,-0.48 -176.41,0.26l-0.03 0.14c-0.28,5.51 -1.38,9.32 -3.99,12.01 -2.67,2.75 -6.56,3.95 -12.37,4.22l-4.16 0.2 0.64 -4.13c1.82,-11.73 2.44,-21.01 1.08,-29.27 -1.32,-8.07 -4.62,-15.3 -10.64,-23.08 -1.85,-2.4 -3.91,-4.64 -6.12,-6.68 -9.29,-8.58 -21.32,-13.67 -34.02,-14.28 -12.74,-0.61 -26.19,3.27 -38.28,12.62 -3.08,2.38 -6.09,5.13 -8.98,8.26 -13.83,14.98 -11.83,33.99 -10.62,45.49 0.32,3.08 0.6,5.68 0.53,7.76l-0.09 3.45 -3.44 -0.13c-9.13,-0.33 -18.68,-0.2 -28.24,-0.07 -11.07,0.15 -22.18,0.3 -32.64,-0.25 -9.4,-0.5 -16.44,-5.22 -21.3,-12.18 -5.42,-7.75 -8.04,-18.31 -8.13,-28.64l-0.02 -2.72 16.05 -3.87 0.5 -25.96 -15.91 -0.44 -0.5 -65.88 26.36 -10.36c1.08,-6.63 1.71,-14.31 2.31,-21.91 0.5,-6.19 0.99,-12.35 1.78,-18.17 1.25,-9.33 2.61,-16.57 3.65,-22.15 1.02,-5.53 1.74,-9.38 1.74,-11.81 -0.01,-2.46 -2.22,-2.75 -9.1,-2.73l-2.56 0.03c-3.54,0.06 -6.54,0.11 -10.4,-0.77l-2.47 -0.57 -0.18 -2.53c-0.43,-5.91 1.86,-15.75 5.04,-25.16 3.6,-10.62 8.44,-20.98 11.86,-24.7 9.59,-10.43 22.87,-10.98 37.21,-11.56 5.49,-0.22 11.14,-0.45 16.69,-1.29l0.7 -0.59c1.01,-1.97 2.94,-4.73 4.15,-6.71 10.28,-15.94 26.99,-29.43 45.89,-39.51 20.76,-11.06 44.25,-18.06 64.83,-19.69 17.75,-1.4 22.64,7.53 23.64,20.2 0.38,4.72 0.13,10 -0.11,15.42 -0.16,3.47 -0.32,7 -0.32,10.32l0 120.13c0.01,11.71 -0.17,25.34 -0.34,39.07 -0.34,26.06 -0.69,52.56 0.27,77.57 25.14,1.23 163.59,0.68 255.5,0.32 34.56,-0.14 62.55,-0.25 75.5,-0.23l2.98 0c9.17,0.03 13.92,0.04 17.42,-1.08 1.99,-0.64 3.82,-1.76 6.13,-3.59 -116.19,-0.08 -235.37,2.62 -351.19,-0.46l-0.23 -3.08c-0.91,-12.06 -0.42,-61.73 -0.05,-99.76 0.16,-16.71 0.3,-31.18 0.29,-39.16l-0.14 -16.28c-0.4,-37.39 -1.24,-117.5 2.74,-124.37l0.36 -0.62 0.55 -0.41c6.98,-5.2 50.56,-4.08 75.27,-3.45 5.8,0.15 10.51,0.27 13.84,0.27l769.02 -0.21c2.67,0 5.07,-0.1 7.12,-0.19 7.78,-0.32 11.5,-0.48 15.65,4.44zm-3.8 194.12c0.48,-77.65 1.16,-186.64 -1.43,-189.7 -1.99,-2.37 -4.64,-2.26 -10.15,-2.03 -2.04,0.08 -4.44,0.18 -7.39,0.19l-769.02 0.22c-2.43,0.02 -7.6,-0.12 -14,-0.28 -23.03,-0.59 -63.07,-1.62 -70.36,1.74 -2.75,9.23 -1.95,84.52 -1.57,120.22l0.14 16.34c0.01,8.03 -0.13,22.51 -0.29,39.22 -0.34,35.15 -0.79,80.3 -0.12,96.12l2.18 0.06 360.81 0.24 -6.92 6.11c-7.01,6.21 -10.41,9.22 -15.35,10.8 -4.5,1.45 -9.62,1.44 -19.51,1.41l-2.98 0c-12.92,-0.02 -40.92,0.09 -75.47,0.23 -96.75,0.38 -244.96,0.97 -259.18,-0.55l-2.93 -0.31 -0.13 -2.96c-1.11,-25.98 -0.75,-53.72 -0.39,-80.98 0.16,-12.67 0.32,-25.23 0.32,-38.99l0.02 -120.13c0,-3.6 0.16,-7.15 0.32,-10.61 0.23,-5.15 0.46,-10.18 0.11,-14.59 -0.69,-8.72 -4.05,-14.88 -16.27,-13.91 -19.71,1.56 -42.24,8.28 -62.15,18.89 -17.94,9.56 -33.73,22.27 -43.35,37.17 -0.59,0.9 -1.08,1.74 -1.5,2.47 -0.41,0.7 -0.76,1.31 -1.29,2.1l-1.18 1.85c-0.26,0.41 -0.4,0.65 -0.69,0.99 -0.32,0.39 -0.57,0.6 -1.11,1.06l-1.84 1.59 -0.96 0.15c-6.24,1.02 -12.45,1.27 -18.46,1.52 -12.85,0.52 -24.77,1.01 -32.44,9.37 -2.82,3.06 -7.09,12.41 -10.42,22.25 -2.46,7.3 -4.36,14.72 -4.68,19.85 2.03,0.23 3.95,0.2 6.1,0.16l2.63 -0.03c12.07,-0.04 15.94,0.96 15.97,9.56 0,3.07 -0.76,7.17 -1.85,13.04 -1.03,5.49 -2.36,12.6 -3.6,21.83 -0.72,5.38 -1.22,11.57 -1.72,17.8 -0.67,8.41 -1.36,16.91 -2.74,24.47l-0.34 1.88 -25.56 10.04 0.42 54.57 16.08 0.45 -0.72 38 -15.84 3.83c0.45,8.16 2.67,16.18 6.81,22.09 3.7,5.29 9.01,8.89 16.05,9.26 10.37,0.55 21.31,0.4 32.21,0.25 8.39,-0.12 16.77,-0.23 24.86,-0.04l-0.34 -3.45c-1.33,-12.65 -3.54,-33.57 12.39,-50.81 3.14,-3.4 6.43,-6.41 9.83,-9.04 13.46,-10.4 28.5,-14.73 42.78,-14.04 14.32,0.69 27.88,6.41 38.34,16.08 2.47,2.28 4.78,4.8 6.89,7.53 6.75,8.73 10.46,16.93 11.98,26.16 1.31,7.95 0.97,16.59 -0.44,27 1.65,-0.35 2.83,-0.89 3.6,-1.69 1.33,-1.36 1.9,-3.89 2.07,-7.86 0.1,-1.74 0.85,-4.46 1.21,-6.28l2.78 -0.04c58.63,-0.78 119.17,-0.53 179.28,-0.29 27.24,0.1 54.22,0.21 86.38,0.21l65.35 0.26 0.3 0.06c4.41,0.96 6,2.65 7.32,4.05 0.58,0.61 1.01,1.06 4.73,0.25 1.7,-4.76 2.24,-9.03 2.77,-13.21 1.1,-8.61 2.15,-16.86 11.45,-27.95 4.32,-5.16 9.04,-9.93 14.81,-13.83 5.72,-3.87 12.44,-6.86 20.78,-8.51l5.01 -2.4 1.12 0.24c4.1,0.87 7.7,0.93 11.23,0.98 6.35,0.1 12.57,0.21 21.18,4.2 9.09,4.22 17.23,10.17 23.63,17.73 5.99,7.07 10.48,15.56 12.82,25.38 1.16,4.8 1.28,10.25 1.4,15.64 0.11,5.3 0.23,10.56 1.4,14.63 1.34,0.23 2.54,0.31 3.54,0.17 0.7,-0.1 1.26,-0.3 1.65,-0.61 0.32,-0.27 0.59,-0.72 0.75,-1.38 0.24,-0.96 0.27,-2.25 0.04,-3.91l-0.06 -0.42 1.02 -9.2 3.86 1.05c6.45,1.75 8.2,1.74 8.53,0.58 0.28,-1.1 0.39,-2.77 0.52,-4.8 0.26,-3.95 0.6,-9.12 2.48,-15.47 5.55,-18.76 18.26,-31.51 33.5,-38.23 10.03,-4.42 21.15,-6.23 32.03,-5.4 10.89,0.82 21.59,4.29 30.73,10.4 13.4,8.96 23.46,23.55 25.94,43.75 0.36,2.92 0.31,6.69 0.26,10.4 -0.05,4.06 -0.1,8.08 0.43,10.4 0.2,0.85 0.7,1.74 1.4,2.46 0.46,0.49 1.01,0.88 1.6,1.11 0.46,0.17 0.96,0.23 1.44,0.12 0.52,-0.12 1.12,-0.46 1.75,-1.07 2.2,-2.12 1.23,-12.1 0.39,-20.87 -0.54,-5.5 -1.03,-10.59 -0.65,-13.88l0.28 -2.36 2.31 -0.57c10.05,-2.49 187.35,-2 205.19,-1.63 5.26,0.1 9.94,0.2 13.36,0.2 5.05,0 8.78,0.07 11.6,0.12 4.16,0.08 6.24,0.12 7.39,-0.13 0.62,-0.14 1.15,-0.6 2.2,-1.53 1.09,-0.96 2.53,-2.24 4.59,-3.78 4.78,-3.57 11.56,-5.51 17.86,-7.32l3.93 -1.15 -0.67 -10.24c-14.15,-1.7 -237.37,-0.97 -264.13,-0.69l-6.51 0.06c-15.5,0.15 -17.49,-1.52 -22.19,-5.5 -1.81,-1.53 -4.13,-3.49 -8.36,-5.86l-5.42 -3.02c2.03,-1.11 5.9,-3.57 7.97,-4.28 5.07,-1.73 223.51,-1.23 250.92,-1.02l29.86 0.08 3.19 0.09c3.95,0.15 8.59,0.34 11.08,-1.13l0.38 -0.23 0.43 -0.12c2.63,-0.74 2.5,-3.43 2.32,-7.13l-0.13 -3.56c-0.13,-12.48 0.03,-38.64 0.22,-69.78zm-386.04 152.47c-1.8,-23.14 9.88,-38.88 25.82,-46.6 6.36,-3.08 13.4,-4.87 20.51,-5.33 7.1,-0.45 14.32,0.43 21.03,2.67 16.86,5.64 30.54,19.79 31.73,43.01 1.19,23.24 -10.48,39.07 -26.21,46.83 -6.28,3.1 -13.22,4.9 -20.22,5.35 -6.99,0.45 -14.09,-0.44 -20.71,-2.7 -16.57,-5.68 -30.15,-19.89 -31.95,-43.23zm28.8 -40.45c-13.57,6.58 -23.52,20.06 -21.97,39.95 1.56,20.16 13.16,32.4 27.32,37.25 5.76,1.97 11.96,2.74 18.08,2.35 6.11,-0.39 12.16,-1.96 17.62,-4.66 13.46,-6.63 23.44,-20.26 22.41,-40.34 -1.02,-19.94 -12.69,-32.07 -27.07,-36.88 -5.85,-1.95 -12.17,-2.72 -18.43,-2.32 -6.24,0.4 -12.41,1.97 -17.96,4.65zm-112.61 -10.66c19.58,4.89 31.27,19.27 35.15,35.52 1.72,7.18 1.9,14.74 0.56,22 -1.35,7.29 -4.24,14.3 -8.65,20.34 -9.71,13.28 -26.69,21.9 -50.76,18.76l-0.97 -0.13 -2.85 -2.32c-4.89,-0.28 -9.67,-2.53 -13.9,-5.59 -6.1,-4.42 -11.21,-10.64 -13.71,-14.81 -7.48,-12.44 -8.9,-25.66 -5.95,-37.5 1.6,-6.39 4.49,-12.4 8.39,-17.65 3.91,-5.25 8.83,-9.76 14.48,-13.16 10.69,-6.42 24.03,-9 38.21,-5.46zm28.51 37.09c-3.33,-13.93 -13.37,-26.25 -30.17,-30.44 -12.3,-3.08 -23.81,-0.86 -33.01,4.67 -4.9,2.95 -9.16,6.85 -12.52,11.37 -3.37,4.53 -5.86,9.71 -7.24,15.24 -2.55,10.18 -1.31,21.57 5.15,32.31 2.17,3.58 6.59,8.96 11.88,12.79 3.55,2.57 7.43,4.4 11.08,4.33l1.24 -0.02 3.21 2.62c20.71,2.43 35.19,-4.91 43.41,-16.14 3.8,-5.2 6.29,-11.25 7.45,-17.53 1.17,-6.34 1.01,-12.94 -0.48,-19.2zm-470.29 21.81c-5.67,23.29 -21.99,35.13 -39.76,37.72 -6.85,1.01 -13.93,0.62 -20.68,-1.03 -6.76,-1.65 -13.21,-4.57 -18.79,-8.61 -14.34,-10.37 -23.11,-28.08 -17.43,-50.9 5.74,-23.07 21.69,-34.59 39.15,-37.05 6.8,-0.96 13.82,-0.54 20.53,1.13 6.71,1.67 13.14,4.58 18.75,8.58 14.55,10.37 23.64,27.98 18.23,50.16zm-40.76 30.95c15.22,-2.23 29.22,-12.44 34.12,-32.56 4.63,-19.02 -3.11,-34.11 -15.56,-42.98 -4.9,-3.49 -10.53,-6.04 -16.41,-7.51 -5.89,-1.46 -12.03,-1.84 -17.96,-1 -14.87,2.1 -28.5,12.01 -33.45,31.91 -4.89,19.68 2.57,34.88 14.81,43.73 4.87,3.52 10.5,6.07 16.38,7.5 5.9,1.44 12.09,1.78 18.07,0.91z"/>
   <path class="fil0" d="M47.67 220.32c-9.24,-10.64 -1.46,-59.21 2.02,-74.64 1.87,-8.28 4.57,-9.09 13.26,-9.38 14.47,-0.49 53.61,-1.36 63.56,2.4 3.53,12.46 0.93,26.62 0.3,39.09 -0.61,12.19 2.26,30.47 -7.72,33.98 -6.47,2.27 -63.39,9.5 -71.42,8.55z"/>
   <path class="fil0" d="M733.47 284.16c-2.08,3.47 0.13,0.44 -2.25,2.77 -11.71,11.43 -18.21,9.54 -34.42,9.63 -7,0.04 -16.3,1.25 -21.7,-1.89 -1.49,-0.87 -11.25,-8.34 -12.53,-10.29l70.9 -0.22z"/>
   <path class="fil2" d="M48.15 217c3.6,1.36 59.6,-6.11 68.34,-8.06 8.5,-1.91 5.94,-13.63 6.55,-32.9 0.31,-9.61 2.36,-27.03 0.3,-36.16l-67.74 0.11c-4.77,12.76 -12.65,64.81 -7.45,77.01z"/>
   <path class="fil3" d="M217.39 353.3c-4.99,2.61 -0.26,-0.07 -3.2,2.43 -0.35,0.3 -1.32,1.26 -1.62,1.54 -2.62,2.38 0.69,0.52 -2.74,2.39 -0.47,-12.9 1.51,-19.48 -2.77,-31.95 -8.64,-25.15 -33.65,-42.82 -61.36,-42.01 -21.62,0.64 -37.33,12.79 -46.72,23.14 -16.09,17.74 -13.01,30.3 -13.52,46.78l-0.75 5.44c-0.04,-0.19 -0.2,0.87 -0.36,1.29 -11.35,1.56 -40.17,0.62 -53.19,0.18 -15.75,-0.54 -24.52,-17.46 -23.65,-28.69 9.18,-6.41 15.33,-1.98 16.29,-14.4 0.62,-7.91 1.55,-21.75 -3.26,-27.11 -3.89,-3.61 -0.82,-0.75 -6.34,-2.36 -3.46,-1.01 -2.84,-0.13 -6.01,-2.67 -2.56,-5 -1.44,-42.57 -0.78,-51.34 5.36,-4.76 17.08,-6.11 22.4,-10.62 5.41,-4.57 5.06,-19.77 5.84,-28.14 1.43,-15.33 8.76,-46.48 6.64,-58.24 -7.78,-2.32 -14.17,-2.48 -23.35,-3.12 11.29,-64.25 31.47,-46.25 61.48,-52.19 9.1,-1.8 12.8,-11.95 18.09,-18.38 16.19,-19.72 59.72,-46.02 100.93,-47.8 15.2,-0.66 14.23,8.95 13.85,22.56l0.2 250.54c1.38,7.15 -1.02,4.21 4,5.36 -1.65,-38.53 -0.06,-80.87 -0.06,-119.84 0,-40.04 0.03,-80.09 0,-120.13 -0.01,-21.12 6.07,-44.55 -19.52,-42.52 -38.4,3.04 -87.17,25.18 -108.11,57.62 -1.25,1.93 -1.94,3.32 -2.75,4.51 -2.34,3.47 -0.79,1.8 -3.48,4.18 -19.97,3.26 -40.49,-1.54 -52.88,11.94 -5.88,6.39 -16.85,35.71 -16.01,47.3 4.35,1 7.63,0.68 12.16,0.66 18.82,-0.06 12.27,2.53 7.14,40.56 -1.78,13.17 -2.11,29.39 -4.44,42.12l-25.97 10.2 0.46 60.22 16 0.44 -0.62 31.99 -15.97 3.86c0.15,18 8.35,36.49 26.18,37.44 19.56,1.03 41.17,-0.41 60.83,0.32 0.27,-9.33 -7.56,-35.4 10.98,-55.47 29.64,-32.08 71.76,-26.68 92.63,0.3 12.77,16.53 13.97,30.81 10.22,54.96 9.81,-0.46 12.68,-3.63 13.11,-13.29z"/>
   <path class="fil4" d="M646.89 367.39c-3.53,1.5 -2.18,0.48 -3.55,3.46 2.39,1.8 4.25,-1.3 -1.31,3.62 -4.34,3.84 -12.98,6.08 -19.27,5.52 -8.14,-0.72 -17.84,-7.19 -20.98,-10.67 -11,-12.23 -11.61,-31.82 1.61,-44.85 11.42,-11.27 29.47,-10.75 44.05,2.2 19.05,16.93 1.93,47.82 -0.55,40.72zm-35.27 23.74l3.01 2.45c0.35,-0.38 0.87,-0.67 1.28,-0.86 8.78,-4.32 7.02,0.54 18.04,-2.94 52.39,-16.48 37.31,-76.15 0.27,-82.66 -51.53,-9.06 -69.34,56.5 -30.74,77.73 9.36,5.15 17.47,3.28 8.14,6.28z"/>
   <path class="fil4" d="M141.68 317.38c37.89,-9.96 52.93,52.28 14.09,61.67 -18.18,4.39 -36.13,-9.38 -38.85,-23.81 -4.04,-21.46 9.23,-33.77 24.76,-37.86zm-35.79 35.28c4.25,52.11 85.35,51.39 83.99,-7.05 -1.25,-53.78 -88.86,-52.71 -83.99,7.05z"/>
   <path class="fil5" d="M801.58 357c-16.74,42.87 -70.56,19.75 -60.8,-18.1 3.41,-13.19 20.49,-25.42 38.69,-21.07 13.44,3.21 29.19,21.02 22.11,39.17zm-40.64 -49.31c-53.94,13.47 -33.34,95.87 20.31,81.37 55.3,-14.94 33.34,-94.77 -20.31,-81.37z"/>
   <path class="fil2" d="M174.76 355.55c4.72,-16.25 -7.2,-30.88 -19.44,-34.18 -17.97,-4.85 -30.94,6.87 -34.67,19.23 -10.65,35.3 43.71,50.76 54.11,14.95z"/>
   <path class="fil2" d="M743.48 352.66c2.09,13.82 14.81,25.3 31.57,23.29 14.21,-1.7 26.14,-15.19 23.9,-32.03 -4.48,-33.71 -61.16,-28.9 -55.47,8.74z"/>
   <path class="fil2" d="M643.34 370.85c1.37,-2.98 0.02,-1.96 3.55,-3.46 0.56,-2.47 14.68,-22.58 -1.44,-38.75 -9.17,-9.2 -28.35,-10.6 -39.3,-1.31 -10,8.49 -11.44,28.59 -1.91,39.53 15.15,17.41 34.24,5.29 39.1,3.99z"/>
   <path class="fil7" d="M218 350.25c86.89,-1.16 177.95,-0.07 265.62,-0.07l64.92 0.24c8.44,1.83 3.21,6.93 15.33,3.86 6.25,-15.39 0.4,-25.29 14.3,-41.87 8.28,-9.89 17.98,-18.2 34.02,-21.26 -3.34,-3.42 2.8,-2.47 -6.29,-2.12 -3.54,0.13 -11.99,5.11 -14.86,7.09 -2.76,1.89 -6.35,4.05 -8.48,6.17 -21.14,21.06 -14.98,29.33 -22.01,48.77 -11.89,-0.24 0.57,-4.96 -40.68,-4.85l-282.79 -0.02c-11.99,0.02 -18.86,-1.42 -19.08,4.06z"/>
   <path class="fil6" d="M760.94 307.69c53.65,-13.4 75.61,66.43 20.31,81.37 -53.65,14.5 -74.25,-67.9 -20.31,-81.37zm-35.83 43.52c4.74,61.06 95.38,54.9 92.26,-5.83 -3.1,-60.46 -96.95,-54.64 -92.26,5.83z"/>
   <path class="fil6" d="M105.89 352.66c-4.87,-59.76 82.74,-60.83 83.99,-7.05 1.36,58.44 -79.74,59.16 -83.99,7.05zm86.9 5.79c13.89,-57.01 -75.05,-81.37 -90.02,-21.2 -14.8,59.47 75.37,81.28 90.02,21.2z"/>
   <path class="fil6" d="M48.15 217c-5.2,-12.2 2.68,-64.25 7.45,-77.01l67.74 -0.11c2.06,9.13 0.01,26.55 -0.3,36.16 -0.61,19.27 1.95,30.99 -6.55,32.9 -8.74,1.95 -64.74,9.42 -68.34,8.06zm-0.48 3.32c8.03,0.95 64.95,-6.28 71.42,-8.55 9.98,-3.51 7.11,-21.79 7.72,-33.98 0.63,-12.47 3.23,-26.63 -0.3,-39.09 -9.95,-3.76 -49.09,-2.89 -63.56,-2.4 -8.69,0.29 -11.39,1.1 -13.26,9.38 -3.48,15.43 -11.26,64 -2.02,74.64z"/>
   <path class="fil8" d="M611.62 391.13c9.33,-3 1.22,-1.13 -8.14,-6.28 -38.6,-21.23 -20.79,-86.79 30.74,-77.73 37.04,6.51 52.12,66.18 -0.27,82.66 -11.02,3.48 -9.26,-1.38 -18.04,2.94 -0.41,0.19 -0.93,0.48 -1.28,0.86 66.41,8.66 74.64,-76.86 22.43,-89.91 -40.33,-10.08 -73,32.75 -51.37,68.69 4,6.65 15.15,18.95 25.93,18.77z"/>
   <path class="fil2" d="M733.47 284.16l-70.9 0.22c1.28,1.95 11.04,9.42 12.53,10.29 5.4,3.14 14.7,1.93 21.7,1.89 16.21,-0.09 22.71,1.8 34.42,-9.63 2.38,-2.33 0.17,0.7 2.25,-2.77z"/>
   <path class="fil9" d="M743.48 352.66c-5.69,-37.64 50.99,-42.45 55.47,-8.74 2.24,16.84 -9.69,30.33 -23.9,32.03 -16.76,2.01 -29.48,-9.47 -31.57,-23.29zm58.1 4.34c7.08,-18.15 -8.67,-35.96 -22.11,-39.17 -18.2,-4.35 -35.28,7.88 -38.69,21.07 -9.76,37.85 44.06,60.97 60.8,18.1z"/>
   <path class="fil9" d="M643.34 370.85c-4.86,1.3 -23.95,13.42 -39.1,-3.99 -9.53,-10.94 -8.09,-31.04 1.91,-39.53 10.95,-9.29 30.13,-7.89 39.3,1.31 16.12,16.17 2,36.28 1.44,38.75 2.48,7.1 19.6,-23.79 0.55,-40.72 -14.58,-12.95 -32.63,-13.47 -44.05,-2.2 -13.22,13.03 -12.61,32.62 -1.61,44.85 3.14,3.48 12.84,9.95 20.98,10.67 6.29,0.56 14.93,-1.68 19.27,-5.52 5.56,-4.92 3.7,-1.82 1.31,-3.62z"/>
   <path class="fil9" d="M174.76 355.55c-10.4,35.81 -64.76,20.35 -54.11,-14.95 3.73,-12.36 16.7,-24.08 34.67,-19.23 12.24,3.3 24.16,17.93 19.44,34.18zm-33.08 -38.17c-15.53,4.09 -28.8,16.4 -24.76,37.86 2.72,14.43 20.67,28.2 38.85,23.81 38.84,-9.39 23.8,-71.63 -14.09,-61.67z"/>
   <path class="fil6" d="M616.55 289.06c11.43,2.42 18.75,-1.06 31.68,4.94 16.71,7.75 29.98,21.6 34.57,40.78 2.41,10.08 0,23.72 3.52,32.44 7.41,1.86 13.3,0.48 11.97,-9.13 -3.58,-4.02 -0.66,4.66 -3.11,-4.35 -0.29,8.28 1.95,8.94 -5.63,9.06 -3.66,-8.96 -1.26,-23.8 -4.92,-34.16 -6.23,-17.59 -20.62,-33.6 -39.11,-39.29 -7.92,-2.43 -18.68,-5.47 -27.37,-3.44 -7.65,1.79 -6.23,0.6 -1.6,3.15z"/>
   <path class="fil10 str0" d="M124.97 210.47c-20.27,14.64 -72.7,3.4 -90.79,14.83 -4.85,1.38 -20.97,8.03 -23.96,10.68 -0.65,8.76 -1.78,46.34 0.79,51.34 7.98,9.77 1.12,43.73 1.28,43.9 -14.47,8.92 11.89,29.56 12.72,30.2l62.15 1.38c5.37,-27.49 -8.21,-11.03 11.74,-50.83 10.79,-21.53 25.11,-20.58 46.74,-27.56 24.23,-2.02 27.46,0.45 37.44,7.45 3.86,2.71 16.29,1.82 26.39,-3.94 0.32,-0.18 2.93,-2.39 2.33,-5.19l-2.43 -4.81c-3.57,-9.35 3.93,-187.87 3.93,-217.04 0,-37.58 -0.01,-20.85 -3.34,-40.8 -43.35,-8.8 -57.5,10.56 -93.93,29.11 -14.91,7.6 -9.97,24.27 -28.09,31.72 -8.94,0.32 -32.07,4.23 -37.65,6.04l-20.07 12.45c-5.12,14.76 -4.69,18.88 -6.78,33.28l28.46 4.43 77.43 1.61c2.79,9.83 1.93,67.21 -4.36,71.75z"/>
  </g>
 </g>
</svg>
