<svg width="337" height="460" viewBox="0 0 337 460" fill="none" xmlns="http://www.w3.org/2000/svg">
<path fill-rule="evenodd" clip-rule="evenodd" d="M31.8027 327.875C16.3289 246.053 78.3986 177.843 144.716 166.486C229.221 152.016 294.678 213.253 305.501 280.89C318.938 364.847 259.25 428.895 191.062 440.112C107.894 453.793 44.1221 393.016 31.8027 327.875ZM272.312 143.875C273.388 133.78 276.811 131.826 282.365 125.961C290.889 127.373 314.316 144.123 318.052 149.875C315.209 157.639 312.273 162.013 306.365 166.114C299.293 163.901 278.449 149.274 272.312 143.875ZM163.062 134.422L174.985 135.861L175.063 146.544L162.329 147.066L163.062 134.422ZM17.9708 147.169C30.4477 142.26 42.3419 127.476 54.9561 125.536L64.9817 141.875C59.9598 149.156 38.37 163.917 27.7877 166.339C24.139 160.114 19.862 156.312 17.9708 147.169ZM139.51 94.8831C147.719 92.7809 191.207 92.6437 199.363 94.9058L199.541 115.294C189.584 118.1 148.25 118.657 139.355 114.846L139.51 94.8831ZM124.16 80.2983C117.716 63.8925 111.266 53.5268 125.346 36.8659C134.064 26.5489 147.947 18.6595 166.435 18.4656C201.443 18.0971 228.659 43.593 212.455 78.0669C198.366 77.8571 182.191 76.2073 166.366 76.0452C124.725 75.6166 140.066 78.9025 124.16 80.2983ZM144.59 148.117C93.598 161.234 81.6414 175.987 72.3654 177.742C67.9592 172.989 66.467 171.764 64.8796 165.875C72.1919 158.108 78.9599 159.451 81.6131 147.053C84.0101 135.86 78.0029 127.655 73.1046 121.091C56.3009 98.5795 45.9884 107.328 26.8761 120.454C14.2608 129.119 -9.29853 139.591 4.11615 162.176C7.8386 168.442 15.567 179.104 20.4222 181.756C31.365 187.736 40.8225 180.708 48.365 177.666L59.0357 189.574C54.5978 201.084 12.467 232.358 12.526 303.875C12.6144 411.802 124.466 494.387 233.859 445.287C318.203 407.431 351.762 302.73 300.134 218.131C294.629 209.11 282.849 199.196 278.389 189.874L287.669 177.118C313.23 189.716 320.278 183.077 332.496 161.976C344.966 140.437 322.205 128.944 309.608 120.692C292.423 109.433 279.56 97.0953 263.119 120.623C247.794 142.555 251.128 154.212 272.736 165.262C270.414 173.37 269.084 172.641 264.684 177.947C258.588 176.728 241.512 164.612 232.022 160.257C217.486 153.589 206.002 152.877 192.693 147.868C192.29 127.247 194.138 138.141 207.595 131.013C214.595 127.305 217.026 120.19 217.44 109.681C218.214 90.0041 218.176 98.1055 226.995 86.4869C250.104 56.0382 226.584 0.2014 166.354 0.930471C129.412 1.37721 96.9928 25.4581 99.7049 64.0047C101.506 89.5937 120.119 92.2798 121.519 106.128C126.039 150.794 145.161 118.622 144.59 148.117Z" fill="#2B2A29"/>
<path fill-rule="evenodd" clip-rule="evenodd" d="M162.141 310.197C157.844 297.818 170.365 284.278 177.131 272.595C181.608 264.865 193.532 236.833 204.775 247.53C212.888 255.249 194.29 277.965 190.044 285.555C183.662 296.96 177.316 315.822 162.141 310.197ZM165.978 223.951C163.89 219.408 164.06 219.81 162.973 213.704C162.595 211.59 162.525 210.312 162.043 208.151L160.365 202.922C149.455 203.516 139.49 206.964 131.507 209.212L136.689 224.392C137.632 230.132 136.289 233.807 131.64 235.34C122.69 238.291 118.852 226.131 114.364 220.06C105.164 222.328 93.6976 233.629 89.7336 241.875C96.5425 248.149 110.072 251.146 104.365 263.761C93.2055 271.548 88.8061 260.539 78.4053 258.07C74.4186 268.464 68.7108 279.982 68.9047 293.375C83.2015 294.156 83.9101 291.21 93.3677 298.643C93.8008 314.696 83.2559 310.547 68.5078 311.465C69.3219 323.153 72.6872 334.48 76.3677 343.742C91.041 341.724 89.3799 331.835 104.182 339.855C105.526 353.277 97.0992 354.723 86.8718 360.289C90.5614 368.909 101.485 380.594 110.365 384.463C120.539 377.004 116.111 367.139 131.729 368.739C140.806 383.051 130.052 380.874 128.417 396.04C137.698 399.151 151.319 403.912 162.005 403.659L164.091 382.024C182.013 376.918 179.488 387.406 180.543 402.56C192.29 402.334 202.769 397.793 211.269 395.007C208.915 382.491 202.776 384.464 207.219 370.759C223.363 365.656 219.03 374.425 228.365 383.284C235.659 380.824 247.589 366.98 250.077 361.875C245.622 355.724 232.302 352.264 238.945 342.828C246.71 333.617 250.949 341.493 260.365 343.759C266.06 334.79 268.548 323.131 269.15 311.12C258.677 311.274 257.643 311.419 250.044 308.474C248.657 292.427 254.332 293.927 268.229 293.613C269.008 282.639 264.865 273.195 262.04 263.907C251.243 265.136 238.564 277.998 238.313 255.123L251.302 248.5C247.509 236.28 239.373 228.735 230.365 224.01C222.395 230.605 222.193 240.943 209.987 234.447C207.286 230.835 209.026 238.799 207.603 229.533C206.736 223.888 211.194 221.009 212.994 213.875C205.174 207.311 192.494 203.925 180.293 203.639C180.272 219.018 182.808 225.089 165.978 223.951Z" fill="#626363"/>
<path fill-rule="evenodd" clip-rule="evenodd" d="M131.508 209.212C139.49 206.964 149.455 203.516 160.365 202.922L162.043 208.151C162.525 210.312 162.596 211.59 162.973 213.703C164.061 219.81 163.891 219.408 165.978 223.951C182.808 225.089 180.273 219.018 180.293 203.639C192.494 203.925 205.174 207.311 212.995 213.875C211.194 221.009 206.737 223.888 207.603 229.533C209.026 238.799 207.287 230.835 209.988 234.447C222.194 240.943 222.395 230.605 230.365 224.01C239.374 228.735 247.509 236.28 251.302 248.5L238.314 255.123C238.564 277.998 251.243 265.136 262.041 263.907C264.865 273.195 269.008 282.639 268.229 293.613C254.333 293.927 248.658 292.427 250.045 308.474C257.644 311.419 258.678 311.274 269.15 311.12C268.548 323.131 266.06 334.79 260.365 343.759C250.949 341.493 246.71 333.617 238.945 342.828C232.302 352.264 245.622 355.724 250.077 361.875C247.59 366.98 235.659 380.824 228.365 383.284C219.03 374.425 223.364 365.656 207.22 370.759C202.776 384.464 208.915 382.491 211.269 395.007C202.769 397.793 192.29 402.334 180.544 402.56C179.488 387.406 182.013 376.918 164.091 382.024L162.005 403.659C151.319 403.912 137.698 399.151 128.418 396.04C130.053 380.874 140.806 383.051 131.73 368.739C116.111 367.139 120.54 377.004 110.366 384.463C101.485 380.594 90.5617 368.909 86.8721 360.289C97.0995 354.723 105.526 353.277 104.183 339.855C89.3802 331.835 91.0413 341.724 76.368 343.742C72.6875 334.48 69.3222 323.153 68.5081 311.465C83.2562 310.547 93.8011 314.696 93.368 298.643C83.9105 291.209 83.2018 294.156 68.905 293.375C68.7111 279.982 74.4189 268.464 78.4056 258.07C88.8065 260.539 93.2058 271.548 104.365 263.761C110.072 251.146 96.5428 248.149 89.734 241.875C93.6979 233.629 105.165 222.328 114.365 220.06C118.853 226.131 122.691 238.291 131.64 235.34C136.289 233.807 137.633 230.132 136.689 224.392L131.508 209.212ZM148.005 186.84C89.7952 197.818 39.9848 251.535 52.0842 324.019C61.8592 382.576 117.408 429.794 188.544 420.084C247.601 412.023 296.374 353.762 285.59 283.472C276.667 225.309 219.124 173.427 148.005 186.84Z" fill="#2B2A29"/>
<path fill-rule="evenodd" clip-rule="evenodd" d="M148.005 186.84C219.124 173.427 276.667 225.309 285.589 283.472C296.374 353.762 247.601 412.023 188.544 420.084C117.408 429.794 61.8589 382.576 52.0839 324.019C39.9845 251.535 89.7949 197.818 148.005 186.84ZM31.8025 327.875C44.1219 393.016 107.893 453.793 191.062 440.112C259.25 428.895 318.937 364.847 305.501 280.89C294.677 213.253 229.221 152.016 144.716 166.486C78.3984 177.843 16.3288 246.053 31.8025 327.875Z" fill="#E31E24"/>
<path fill-rule="evenodd" clip-rule="evenodd" d="M124.16 80.2983C140.066 78.9025 124.725 75.6166 166.366 76.0452C182.191 76.2073 198.367 77.8571 212.455 78.0669C228.659 43.593 201.443 18.0971 166.435 18.4656C147.947 18.6595 134.064 26.5489 125.346 36.8659C111.266 53.5268 117.716 63.8925 124.16 80.2983Z" fill="#E31E24"/>
<path fill-rule="evenodd" clip-rule="evenodd" d="M139.355 114.846C148.25 118.657 189.584 118.1 199.541 115.294L199.363 94.9058C191.207 92.6437 147.719 92.7809 139.51 94.8831L139.355 114.846Z" fill="#626363"/>
<path fill-rule="evenodd" clip-rule="evenodd" d="M162.141 310.197C177.316 315.822 183.663 296.96 190.044 285.555C194.29 277.965 212.888 255.249 204.775 247.53C193.532 236.833 181.608 264.865 177.132 272.595C170.365 284.278 157.845 297.818 162.141 310.197Z" fill="#E31E24"/>
<path fill-rule="evenodd" clip-rule="evenodd" d="M17.9707 147.169C19.862 156.312 24.1389 160.114 27.7876 166.339C38.3699 163.917 59.9597 149.156 64.9816 141.875L54.956 125.536C42.3418 127.476 30.4477 142.26 17.9707 147.169Z" fill="#E31E24"/>
<path fill-rule="evenodd" clip-rule="evenodd" d="M272.312 143.875C278.448 149.274 299.293 163.901 306.365 166.114C312.273 162.013 315.209 157.639 318.052 149.875C314.316 144.123 290.889 127.373 282.365 125.961C276.811 131.826 273.388 133.78 272.312 143.875Z" fill="#E31E24"/>
<path fill-rule="evenodd" clip-rule="evenodd" d="M162.329 147.066L175.063 146.544L174.985 135.861L163.062 134.422L162.329 147.066Z" fill="#FEFEFE"/>
</svg>
