<svg width="1003" height="582" viewBox="0 0 1003 582" fill="none" xmlns="http://www.w3.org/2000/svg">
<path fill-rule="evenodd" clip-rule="evenodd" d="M217.886 173.012C209.435 208.309 174.909 239.522 129.142 229.191C36.5309 208.285 63.6289 64.0578 161.974 84.299C197.468 91.6032 228.141 130.173 217.885 173.012H217.886ZM59.1593 257.187C76.7611 261.823 251.757 261.482 279.596 259.453C300.087 257.958 294.836 239.224 294.796 219.013C294.741 189.884 299.198 64.0178 289.921 56.6106C284.027 51.905 94.6322 51.9231 71.4857 53.4833C49.9639 54.9334 55.2115 72.4007 55.2195 93.0129C55.2262 111.656 55.2965 130.377 55.0416 149.013C54.7127 173.023 51.2941 241.367 59.1597 257.188L59.1593 257.187Z" fill="#626363"/>
<path fill-rule="evenodd" clip-rule="evenodd" d="M62.3374 37.1297C79.9178 32.6214 164.286 35.6477 189.455 35.6468C315.564 35.6414 312.585 24.8024 312.443 107.013L312.501 235.017C312.743 257.12 307.499 272.945 289.076 276.463C270.909 279.932 133.602 277.213 95.4552 277.183C72.1544 277.166 55.3747 280.611 43.3531 265.089C32.7766 251.431 37.4141 224.021 37.3901 205.013L37.348 77.0008C37.2471 52.318 41.8244 42.39 62.337 37.1297H62.3374ZM329.127 252.925C325.976 246.805 322.446 203.21 327.581 194.822C332.639 186.56 343.093 188.198 344.057 202.811L343.839 237.013C343.771 250.363 343.676 254.821 329.127 252.925ZM328.677 123.293C324.616 112.008 326.069 99.2313 326.11 84.9879C326.155 69.546 323.534 56.7153 341.986 62.5421C345.547 72.6699 343.815 88.6085 343.931 101.038C344.078 116.721 345.14 126.054 328.677 123.293ZM357.635 275.013C361.792 263.841 359.553 143.814 359.551 121.013C359.548 41.9093 371.472 18.5256 307.455 18.6026H75.4549C49.3036 18.5597 27.698 18.3759 20.769 40.36C16.2017 54.8519 18.9946 170.035 19.0014 195.012C19.0228 275.097 7.21618 297.287 71.4546 297.145L303.455 297.31C331.838 297.071 348.994 298.243 357.635 275.013H357.635Z" fill="#E31E24"/>
<path fill-rule="evenodd" clip-rule="evenodd" d="M357.636 275.013C348.994 298.243 331.838 297.071 303.455 297.31L71.455 297.144C7.21623 297.287 19.0233 275.096 19.0018 195.012C18.9951 170.035 16.2022 54.8518 20.7694 40.3599C27.6985 18.3754 49.304 18.5592 75.4554 18.6026H307.456C371.472 18.5256 359.549 41.9088 359.552 121.013C359.553 143.815 361.792 263.841 357.636 275.013H357.636ZM43.0697 1.95617C-11.9892 13.0441 1.44454 76.9948 1.44454 133.013C1.44454 161.679 1.45464 190.346 1.45001 219.013C1.44454 247.572 -2.99483 275.269 11.7704 294.727C27.3566 315.266 46.962 314.723 77.4547 314.861C110.118 315.008 322.478 316.732 336.202 313.887C391.109 302.509 377.577 238.497 377.28 183.013C377.126 154.348 377.321 125.677 377.28 97.0119C377.182 28.383 381.722 0.697454 301.455 0.763481L129.455 0.753388C108.462 0.753388 60.5888 -1.57228 43.0693 1.95659L43.0697 1.95617Z" fill="#363535"/>
<path fill-rule="evenodd" clip-rule="evenodd" d="M59.1594 257.187C51.2938 241.366 54.7124 173.022 55.0413 149.013C55.2966 130.377 55.2259 111.656 55.2192 93.0124C55.2112 72.4002 49.964 54.9329 71.4854 53.4829C94.6319 51.9226 284.027 51.9045 289.92 56.6101C299.197 64.0178 294.74 189.884 294.796 219.012C294.835 239.223 300.086 257.958 279.595 259.452C251.757 261.482 76.7608 261.822 59.159 257.187L59.1594 257.187ZM62.3375 37.1296C41.825 42.3895 37.2477 52.3175 37.3486 77.0007L37.3907 205.013C37.4146 224.021 32.7772 251.431 43.3537 265.089C55.3748 280.611 72.1549 277.166 95.4557 277.183C133.602 277.213 270.91 279.932 289.076 276.463C307.499 272.945 312.743 257.12 312.502 235.017L312.444 107.013C312.585 24.8023 315.564 35.6409 189.455 35.6467C164.286 35.648 79.9184 32.6217 62.3379 37.1296H62.3375Z" fill="#383639"/>
<path fill-rule="evenodd" clip-rule="evenodd" d="M113.507 111.013C119.768 105.888 126.949 101.712 136.064 102.34C137.248 111.835 133.357 127.161 145.551 127.325C156.865 127.476 153.767 111.895 154.395 101.864C165.318 101.605 174.353 106.791 179.019 113.013C172.697 120.27 162.021 125.533 167.527 137.012C179.434 143.944 184.15 131.586 191.455 127.392C198.251 132.324 200.33 137.232 200.612 149.013C191.041 153.692 173.625 145.493 178.663 165.715C187.847 169.474 189.77 168.176 199.975 168.48C198.426 178.854 194.753 183.053 191.197 190.921C182.418 186.254 176.144 172.322 166.942 184.656C162.313 195.618 171.013 194.353 174.244 205.722C168.391 207.994 163.049 211.709 154.021 210.689L153.59 195.303C138.15 187.688 136.58 194.544 135.7 211.371C127.429 210.751 120.643 208.741 115.902 203.013C120.045 193.533 125.823 197.157 124.429 184.063C119.052 180.139 118.446 177.94 111.865 181.298C106.541 184.014 107.606 186.658 99.454 189.165C94.9187 182.479 92.2141 177.712 91.7221 169.172C100.413 168.415 111.662 171.152 112.969 160.38C114.406 148.552 100.652 151.289 90.8511 150.95C90.4882 141.259 93.5792 133.803 97.5169 127.4C105.046 130.562 114.327 145.78 122.862 136.488C126.964 132.021 124.403 127.244 121.28 123.284C114.237 114.353 118.402 122.476 113.507 111.013L113.507 111.013ZM217.885 173.012C228.141 130.173 197.468 91.6032 161.974 84.299C63.629 64.0573 36.531 208.285 129.142 229.191C174.909 239.522 209.435 208.309 217.886 173.012H217.885Z" fill="#363435"/>
<path fill-rule="evenodd" clip-rule="evenodd" d="M167.528 137.012C162.022 125.533 172.697 120.269 179.019 113.013C174.354 106.79 165.318 101.605 154.395 101.863C153.767 111.895 156.866 127.475 145.551 127.324C133.356 127.161 137.248 111.835 136.064 102.34C126.949 101.711 119.769 105.887 113.507 111.012C118.404 122.476 114.238 114.351 121.281 123.283C124.404 127.243 126.965 132.02 122.863 136.486C114.328 145.779 105.046 130.561 97.5175 127.399C93.5795 133.802 90.4888 141.258 90.8517 150.949C100.653 151.288 114.407 148.551 112.97 160.379C111.662 171.151 100.413 168.414 91.7227 169.171C92.2148 177.711 94.9189 182.478 99.4546 189.163C107.606 186.658 106.541 184.013 111.866 181.297C118.447 177.939 119.052 180.138 124.429 184.062C125.824 197.156 120.046 193.532 115.902 203.012C120.643 208.739 127.429 210.75 135.701 211.37C136.581 194.542 138.151 187.687 153.591 195.302L154.022 210.687C163.05 211.708 168.391 207.993 174.244 205.721C171.014 194.352 162.314 195.617 166.942 184.655C176.145 172.321 182.418 186.253 191.198 190.92C194.753 183.052 198.427 178.853 199.976 168.478C189.771 168.174 187.848 169.473 178.664 165.714C173.626 145.492 191.041 153.691 200.613 149.012C200.331 137.232 198.251 132.323 191.456 127.391C184.15 131.585 179.435 143.943 167.528 137.011L167.528 137.012Z" fill="#E31E24"/>
<path fill-rule="evenodd" clip-rule="evenodd" d="M329.127 252.925C343.675 254.821 343.77 250.362 343.839 237.012L344.056 202.811C343.092 188.198 332.638 186.559 327.58 194.821C322.446 203.21 325.976 246.804 329.127 252.925Z" fill="#3A3636"/>
<path fill-rule="evenodd" clip-rule="evenodd" d="M320.996 338.647L322.982 324.504C310.796 320.895 262.315 317.006 259.997 329.518C257.564 342.661 275.163 339.92 285.451 339.821C297.192 339.709 309.462 340.681 320.996 338.647Z" fill="#363535"/>
<path fill-rule="evenodd" clip-rule="evenodd" d="M53.5532 325.012C31.9451 346.152 108.454 341.016 112.083 337.345C115.2 334.19 115.884 327.091 110.807 323.811C107.236 321.502 58.8417 319.838 53.5532 325.012V325.012Z" fill="#3A3636"/>
<path fill-rule="evenodd" clip-rule="evenodd" d="M328.677 123.292C345.139 126.053 344.078 116.72 343.931 101.037C343.815 88.6076 345.548 72.669 341.986 62.5417C323.534 56.7149 326.155 69.5456 326.11 84.9875C326.069 99.2308 324.616 112.007 328.677 123.292Z" fill="#383636"/>
<path fill-rule="evenodd" clip-rule="evenodd" d="M436.815 304.987C458.765 304.994 485.199 300.903 483.315 321.623C481.734 339.025 459.158 335.184 439.792 335.166C416.939 335.145 373.208 329.393 371.785 369.345C371.324 382.337 377.826 392.507 384.362 397.961C393.524 405.611 402.724 406.399 417.476 406.399L575.169 406.388C589.563 406.378 599.47 409.692 605.205 399.082C605.616 386.044 598.827 385.953 587.072 385.995L420.45 385.982C406.537 385.989 391.243 385.82 392.445 369.542C393.865 350.309 424.621 355.616 451.691 355.567C478.118 355.514 510.259 349.993 503.325 313.157C501.231 302.018 493.492 292.849 484.939 288.499C473.388 282.619 456.154 284.563 441.279 284.52C429.495 284.489 404.938 280.398 402.598 292.248C399.203 309.45 423.624 304.987 436.816 304.987L436.815 304.987Z" fill="#2B2A29"/>
<path fill-rule="evenodd" clip-rule="evenodd" d="M841.093 414.023C832.642 449.32 798.116 480.533 752.349 470.203C659.738 449.296 686.836 305.069 785.181 325.31C820.675 332.614 851.348 371.184 841.092 414.023H841.093ZM682.366 498.198C699.968 502.834 874.964 502.494 902.803 500.464C923.294 498.97 918.043 480.235 918.003 460.024C917.948 430.895 922.405 305.029 913.128 297.622C907.234 292.916 717.839 292.934 694.693 294.495C673.171 295.945 678.419 313.412 678.427 334.024C678.433 352.667 678.504 371.388 678.249 390.024C677.92 414.034 674.501 482.378 682.367 498.199L682.366 498.198Z" fill="#626363"/>
<path fill-rule="evenodd" clip-rule="evenodd" d="M685.544 278.141C703.125 273.633 787.493 276.659 812.662 276.658C938.771 276.653 935.792 265.814 935.65 348.024L935.708 476.029C935.95 498.131 930.706 513.956 912.283 517.475C894.116 520.943 756.809 518.224 718.662 518.195C695.361 518.178 678.582 521.622 666.56 506.101C655.984 492.442 660.621 465.032 660.597 446.025L660.555 318.012C660.454 293.329 665.031 283.401 685.544 278.141H685.544ZM952.334 493.937C949.183 487.816 945.653 444.222 950.788 435.833C955.846 427.571 966.3 429.209 967.264 443.822L967.046 478.024C966.978 491.374 966.883 495.832 952.334 493.937ZM951.884 364.304C947.823 353.019 949.276 340.242 949.317 325.999C949.362 310.557 946.741 297.727 965.193 303.553C968.754 313.681 967.022 329.62 967.138 342.049C967.285 357.732 968.346 367.065 951.884 364.304ZM980.842 516.024C984.999 504.852 982.76 384.825 982.758 362.024C982.755 282.921 994.679 259.537 930.662 259.614H698.662C672.511 259.571 650.905 259.387 643.976 281.371C639.409 295.863 642.202 411.046 642.208 436.024C642.23 516.108 630.423 538.299 694.662 538.156L926.662 538.321C955.045 538.082 972.201 539.255 980.842 516.024H980.842Z" fill="#E31E24"/>
<path fill-rule="evenodd" clip-rule="evenodd" d="M980.843 516.024C972.202 539.255 955.045 538.082 926.663 538.321L694.662 538.156C630.423 538.299 642.231 516.108 642.209 436.024C642.202 411.046 639.41 295.863 643.977 281.371C650.906 259.387 672.511 259.57 698.663 259.614H930.663C994.679 259.537 982.756 282.92 982.759 362.024C982.76 384.826 985 504.852 980.843 516.024H980.843ZM666.277 242.967C611.218 254.055 624.652 318.006 624.652 374.024C624.652 402.691 624.662 431.358 624.657 460.024C624.652 488.583 620.212 516.28 634.978 535.738C650.564 556.277 670.169 555.734 700.662 555.872C733.325 556.02 945.685 557.743 959.409 554.898C1014.32 543.52 1000.78 479.508 1000.49 424.024C1000.33 395.359 1000.53 366.688 1000.49 338.023C1000.39 269.394 1004.93 241.709 924.662 241.775L752.662 241.765C731.669 241.765 683.796 239.439 666.277 242.968L666.277 242.967Z" fill="#363535"/>
<path fill-rule="evenodd" clip-rule="evenodd" d="M682.367 498.198C674.501 482.378 677.92 414.033 678.249 390.024C678.504 371.388 678.433 352.667 678.426 334.024C678.418 313.411 673.171 295.944 694.693 294.494C717.839 292.934 907.234 292.916 913.128 297.621C922.405 305.029 917.948 430.895 918.003 460.023C918.043 480.234 923.294 498.969 902.803 500.464C874.964 502.493 699.968 502.833 682.366 498.198L682.367 498.198ZM685.545 278.141C665.032 283.401 660.455 293.329 660.556 318.012L660.598 446.024C660.622 465.032 655.984 492.442 666.561 506.101C678.582 521.622 695.362 518.177 718.663 518.194C756.809 518.224 894.117 520.943 912.284 517.474C930.706 513.956 935.951 498.131 935.709 476.028L935.651 348.024C935.793 265.814 938.771 276.652 812.663 276.658C787.493 276.659 703.126 273.633 685.545 278.141H685.545Z" fill="#383639"/>
<path fill-rule="evenodd" clip-rule="evenodd" d="M736.714 352.024C742.975 346.899 750.156 342.723 759.271 343.352C760.455 352.846 756.564 368.173 768.758 368.336C780.073 368.487 776.974 352.907 777.602 342.876C788.525 342.617 797.56 347.802 802.226 354.025C795.904 361.282 785.228 366.545 790.734 378.024C802.641 384.955 807.357 372.597 814.662 368.404C821.458 373.336 823.537 378.244 823.819 390.025C814.248 394.703 796.832 386.505 801.87 406.727C811.054 410.486 812.978 409.188 823.182 409.491C821.633 419.866 817.96 424.065 814.404 431.933C805.625 427.266 799.351 413.334 790.149 425.668C785.52 436.63 794.22 435.365 797.451 446.734C791.598 449.006 786.256 452.721 777.228 451.7L776.797 436.315C761.357 428.7 759.787 435.556 758.907 452.383C750.636 451.763 743.85 449.752 739.109 444.025C743.252 434.545 749.03 438.169 747.636 425.075C742.259 421.151 741.653 418.952 735.072 422.309C729.748 425.026 730.813 427.67 722.661 430.176C718.126 423.491 715.421 418.724 714.929 410.184C723.62 409.427 734.869 412.164 736.176 401.392C737.613 389.563 723.859 392.301 714.058 391.962C713.695 382.271 716.786 374.815 720.724 368.412C728.253 371.574 737.534 386.792 746.069 377.499C750.171 373.033 747.61 368.256 744.487 364.296C737.444 355.364 741.609 363.488 736.714 352.025L736.714 352.024ZM841.092 414.024C851.348 371.184 820.675 332.615 785.181 325.311C686.836 305.069 659.738 449.297 752.349 470.203C798.116 480.533 832.642 449.321 841.093 414.024H841.092Z" fill="#363435"/>
<path fill-rule="evenodd" clip-rule="evenodd" d="M790.735 378.023C785.229 366.544 795.904 361.281 802.226 354.024C797.561 347.802 788.525 342.617 777.602 342.875C776.974 352.906 780.073 368.486 768.758 368.335C756.563 368.172 760.455 352.846 759.271 343.351C750.156 342.722 742.976 346.899 736.714 352.023C741.611 363.487 737.445 355.363 744.488 364.294C747.611 368.254 750.172 373.031 746.07 377.498C737.535 386.79 728.253 371.572 720.725 368.41C716.786 374.813 713.696 382.269 714.059 391.96C723.86 392.299 737.614 389.562 736.177 401.39C734.869 412.162 723.621 409.425 714.93 410.182C715.422 418.723 718.126 423.489 722.662 430.175C730.813 427.669 729.748 425.025 735.073 422.308C741.654 418.95 742.259 421.149 747.636 425.073C749.031 438.167 743.253 434.543 739.11 444.024C743.85 449.751 750.636 451.761 758.908 452.381C759.788 435.554 761.358 428.699 776.798 436.313L777.229 451.699C786.257 452.719 791.598 449.005 797.451 446.732C794.221 435.363 785.521 436.628 790.149 425.666C799.352 413.332 805.625 427.264 814.405 431.931C817.96 424.063 821.634 419.864 823.183 409.49C812.978 409.186 811.055 410.484 801.871 406.725C796.833 386.503 814.248 394.702 823.82 390.023C823.538 378.243 821.458 373.334 814.663 368.402C807.357 372.596 802.642 384.954 790.735 378.023L790.735 378.023Z" fill="#E31E24"/>
<path fill-rule="evenodd" clip-rule="evenodd" d="M952.334 493.937C966.883 495.832 966.978 491.374 967.046 478.024L967.264 443.822C966.3 429.209 955.846 427.571 950.788 435.833C945.654 444.222 949.183 487.816 952.334 493.937Z" fill="#3A3636"/>
<path fill-rule="evenodd" clip-rule="evenodd" d="M944.204 579.658L946.189 565.516C934.003 561.907 885.522 558.018 883.204 570.53C880.771 583.672 898.371 580.932 908.658 580.833C920.399 580.72 932.669 581.692 944.204 579.658Z" fill="#363535"/>
<path fill-rule="evenodd" clip-rule="evenodd" d="M676.76 566.024C655.152 587.163 731.661 582.028 735.29 578.356C738.407 575.202 739.091 568.103 734.014 564.823C730.443 562.514 682.049 560.85 676.76 566.023V566.024Z" fill="#3A3636"/>
<path fill-rule="evenodd" clip-rule="evenodd" d="M951.884 364.304C968.346 367.065 967.285 357.732 967.138 342.048C967.022 329.619 968.755 313.68 965.193 303.553C946.741 297.726 949.362 310.557 949.317 325.999C949.276 340.242 947.823 353.019 951.884 364.304Z" fill="#383636"/>
</svg>
