<svg width="353" height="423" viewBox="0 0 353 423" fill="none" xmlns="http://www.w3.org/2000/svg">
<path fill-rule="evenodd" clip-rule="evenodd" d="M86.1938 264.386C92.0762 258.439 94.3054 254.01 100.111 248.342C107.092 241.526 117.023 241.87 113.571 253.381C111.954 258.772 91.8064 281.368 86.1938 283.894C79.1888 280.795 78.6196 278.702 73.3324 273.453C64.6561 264.843 63.7241 262.714 68.4228 258.638C77.2748 253.725 77.835 261.112 86.1938 264.386ZM133.689 192.425C138.545 185.415 203.119 190.162 213.458 191.15C214.576 198.522 214.958 195.625 212.743 201.321C200.898 206.201 167.534 203.173 152.143 203.3C144.72 203.361 126.015 203.505 133.689 192.425ZM86.1938 198.277C90.7632 193.033 93.5956 189.757 97.8963 184.242C102.787 177.972 104.701 175.276 113.418 179.324C115.217 190.341 94.5231 212.465 88.1939 216.672C79.7682 214.919 66.6426 205.773 66.6733 196.667C66.7277 180.557 84.6585 197.621 86.1938 198.277ZM206.243 127.305C215.172 128.33 217.823 134.896 212.12 139.982C212.117 139.986 112.591 151.189 134.888 128.591L206.243 127.305ZM83.5076 136.618C93.9346 132.564 100.496 115.102 108.329 115.408C127.992 116.178 91.0546 153.769 88.1973 156C83.0099 154.671 62.5936 144.241 67.1461 129.479C78.2681 126.672 78.886 131.21 83.5076 136.618ZM167.787 326.313C164.467 317.38 157.166 308.494 167.172 299.603C183.497 285.098 173.282 293.637 177.56 269.984C148.271 269.866 131.343 274.956 132.962 259.246C144.165 252.514 181.64 256.634 198.194 255.729C201.964 251.944 204.296 246.573 208.052 244.467C214.759 240.705 221.516 243.946 230.194 243.069C233.277 240.894 240.183 234.358 243.35 230.591C244.992 199.631 243.554 164.064 243.515 132.591C243.461 89.3169 253.887 70.9722 202.593 77.188C194.924 95.7969 193.993 90.9315 144.194 90.7535C81.181 90.529 97.4428 94.6676 84.1936 76.9635C35.4411 72.9111 43.5017 79.856 43.5097 138.591L43.4847 294.592C43.3044 315.608 40.1546 325.564 64.0824 326.885C89.6123 328.295 143.288 328.994 167.787 326.313Z" fill="#626363"/>
<path fill-rule="evenodd" clip-rule="evenodd" d="M337.479 326.591C332.453 341.9 326.534 326.856 330.058 360.591C317.207 369.599 313.474 368.12 311 387.621C293.553 391.816 290.78 387.392 282.62 404.85C274.974 403.517 272.898 400.602 264.313 401.011C253.928 401.506 255.596 404.933 248.194 408.413C242.562 404.251 243.705 401.728 236.061 398.688C228.787 395.797 222.292 397.755 214.194 396.464C209.903 383.036 205.565 378.199 190.571 376.078C190.145 352.814 190.044 357.793 176.848 344.591C178.984 336.889 181.761 337.967 182.067 328.516C182.421 317.589 179.061 318.065 177.076 310.592C182.064 304.27 184.28 305.99 187.829 300.224C191.623 294.059 190.367 286.33 190.807 278.687C206.547 275.259 210.632 273.211 213.84 257.799C250.007 255.587 227.604 261.417 248.194 246.7C273.794 259.554 257.901 253.529 282.256 250.642C289.678 264.635 292.568 264.41 311.262 267.387C313.179 287.629 317.758 286.134 330.516 294.591C327.206 315.003 325.976 312.442 337.479 326.591ZM167.787 326.313C143.288 328.994 89.6123 328.295 64.0823 326.885C40.1545 325.564 43.3044 315.608 43.4847 294.592L43.5096 138.591C43.5017 79.856 35.4411 72.9111 84.1936 76.9635C97.4427 94.6676 81.1809 90.529 144.194 90.7535C193.993 90.9315 194.924 95.7969 202.593 77.188C253.887 70.9722 243.461 89.3169 243.515 132.591C243.554 164.064 244.992 199.631 243.35 230.591C240.183 234.358 233.277 240.894 230.194 243.069C221.516 243.946 214.759 240.705 208.052 244.467C204.296 246.573 201.964 251.944 198.194 255.729C181.64 256.634 144.164 252.514 132.962 259.246C131.343 274.956 148.271 269.866 177.56 269.984C173.282 293.637 183.497 285.098 167.172 299.603C157.166 308.494 164.467 317.38 167.787 326.313ZM101.628 50.1976C113.863 49.1398 179.626 47.8279 185.462 51.3122C189.004 56.1867 187.669 68.1739 187.401 76.603L100.256 75.9669L101.628 50.1976ZM270.88 239.338C256.793 241.95 257.556 233.113 257.632 220.59L257.707 128.592C257.708 65.956 259.616 63.8833 202.718 61.8945L203.451 49.6194C213.407 47.2927 254.393 47.4163 262.472 52.2329C276.419 60.5487 272.008 86.3541 272.027 106.591L270.88 239.338ZM167.253 357.471C144.017 360.162 58.5605 359.933 34.7528 357.542C10.5631 355.114 14.4783 332.789 14.6473 310.592L14.7811 110.592C14.8049 91.1821 10.0699 60.5237 23.9937 52.3463C33.2437 46.9117 72.736 47.8132 86.0543 49.294L85.8445 62.1088C65.7718 62.7982 48.3115 59.0406 36.1497 72.5506C26.0493 83.7712 29.2491 104.153 29.1334 122.591C28.8896 161.24 29.0699 199.937 29.0699 238.592C29.0699 258.6 29.054 278.608 29.1107 298.617C29.1674 318.403 31.1766 331.857 46.52 338.275C59.8156 343.835 139.05 340.601 160.465 340.929L167.253 357.471ZM116.397 34.0958C119.597 7.53852 166.084 9.1758 171.425 34.5198L116.397 34.0958ZM174.194 372.685C178.461 381.178 175.9 384.177 184.559 388.282C194.501 392.996 194.82 387.373 199.86 396.988C214.209 424.36 211.214 405.756 229.241 411.776C236.907 414.336 233.06 420.563 244.593 422.491C255.605 424.332 256.25 419.139 262.189 416.471C274.327 411.017 280.782 430.917 295.454 409.863C306.59 393.885 320.546 411.242 325.16 390.043C327.981 377.086 323.65 380.758 334.766 374.98C339.849 372.338 344.608 368.793 344.848 360.625C345.216 348.171 337.598 351.188 346.042 340.533C362.218 320.125 344.031 319.35 342.871 308.505C342.23 302.523 345.568 297.778 344.09 286.446C341.252 284.502 330.303 278.692 327.3 275.066C320.091 254.779 326.376 253.107 299.904 252.278C286.543 230.581 286.19 241.743 286.085 224.745L286.118 100.591C286.271 69.3508 290.575 49.4312 266.462 38.274C250.163 30.7327 209.529 35.8963 188.193 34.2352C181.036 24.2357 183.22 18.7592 172.667 10.101C152.683 -6.29569 110.05 -5.58363 100.762 34.9405C25.005 33.8043 0.334563 25.1235 0.47176 88.5912L0.488775 318.592C0.466098 344.904 2.83473 363.269 24.7431 370.154C48.5281 377.63 140.503 369.323 174.194 372.685Z" fill="#3A3738"/>
<path fill-rule="evenodd" clip-rule="evenodd" d="M206.952 334.591C214.968 395.988 314.976 389.898 306.005 318.571C303.117 295.613 277.074 272.914 249.417 277.874C224.395 282.362 202.934 303.817 206.952 334.591Z" fill="#E31E24"/>
<path fill-rule="evenodd" clip-rule="evenodd" d="M167.253 357.471L160.465 340.929C139.05 340.601 59.8156 343.835 46.52 338.275C31.1766 331.857 29.1674 318.403 29.1108 298.617C29.0541 278.608 29.07 258.6 29.07 238.592C29.07 199.937 28.8897 161.24 29.1334 122.591C29.2491 104.153 26.0493 83.7712 36.1498 72.5505C48.3115 59.0406 65.7718 62.7982 85.8445 62.1088L86.0543 49.294C72.736 47.8131 33.2437 46.9117 23.9937 52.3463C10.0699 60.5237 14.8049 91.1821 14.7811 110.591L14.6473 310.592C14.4783 332.789 10.5631 355.114 34.7528 357.542C58.5605 359.933 144.017 360.162 167.253 357.471Z" fill="#E31E24"/>
<path fill-rule="evenodd" clip-rule="evenodd" d="M237.27 266.85C276.616 252.187 309.307 280.872 317.914 308.776C330.055 348.136 303.45 380.186 276.081 388.642C199.387 412.34 153.503 298.069 237.27 266.85ZM337.48 326.591C325.977 312.442 327.206 315.003 330.517 294.591C317.758 286.134 313.179 287.629 311.263 267.387C292.569 264.41 289.678 264.635 282.256 250.642C257.901 253.529 273.794 259.554 248.194 246.7C227.604 261.417 250.007 255.587 213.84 257.799C210.633 273.211 206.547 275.259 190.807 278.687C190.367 286.33 191.623 294.059 187.83 300.224C184.281 305.99 182.064 304.27 177.076 310.592C179.061 318.065 182.421 317.589 182.067 328.516C181.761 337.967 178.984 336.889 176.848 344.591C190.044 357.793 190.145 352.814 190.571 376.078C205.565 378.199 209.904 383.036 214.194 396.464C222.292 397.755 228.787 395.797 236.062 398.688C243.705 401.728 242.562 404.251 248.194 408.413C255.596 404.933 253.928 401.506 264.313 401.011C272.898 400.602 274.975 403.517 282.62 404.85C290.781 387.392 293.553 391.816 311.001 387.621C313.475 368.12 317.207 369.599 330.058 360.591C326.534 326.856 332.453 341.9 337.48 326.591Z" fill="#626363"/>
<path fill-rule="evenodd" clip-rule="evenodd" d="M206.952 334.591C202.933 303.817 224.395 282.362 249.417 277.874C277.074 272.913 303.117 295.613 306.005 318.571C314.976 389.898 214.968 395.988 206.952 334.591ZM237.27 266.85C153.503 298.069 199.387 412.339 276.081 388.642C303.45 380.185 330.055 348.136 317.913 308.776C309.306 280.872 276.616 252.186 237.27 266.85Z" fill="#393939"/>
<path fill-rule="evenodd" clip-rule="evenodd" d="M203.451 49.6193L202.718 61.8945C259.616 63.8833 257.708 65.956 257.707 128.591L257.632 220.59C257.556 233.113 256.793 241.95 270.88 239.338L272.028 106.591C272.008 86.3541 276.419 60.5486 262.473 52.2329C254.393 47.4163 213.407 47.2926 203.451 49.6193Z" fill="#E31E24"/>
<path fill-rule="evenodd" clip-rule="evenodd" d="M100.256 75.9668L187.401 76.6029C187.67 68.1738 189.004 56.1867 185.462 51.3122C179.626 47.8279 113.863 49.1397 101.628 50.1976L100.256 75.9668Z" fill="#626363"/>
<path fill-rule="evenodd" clip-rule="evenodd" d="M212.742 201.321C214.958 195.625 214.576 198.522 213.458 191.15C203.119 190.162 138.545 185.415 133.689 192.425C126.015 203.505 144.72 203.361 152.143 203.3C167.534 203.173 200.898 206.201 212.742 201.321Z" fill="#343434"/>
<path fill-rule="evenodd" clip-rule="evenodd" d="M134.888 128.592C112.591 151.189 212.117 139.986 212.12 139.982C217.823 134.896 215.172 128.33 206.243 127.305L134.888 128.592Z" fill="#3C3A3C"/>
<path fill-rule="evenodd" clip-rule="evenodd" d="M83.5078 136.618C78.8861 131.21 78.2682 126.672 67.1462 129.479C62.5937 144.241 83.01 154.671 88.1974 156C91.0547 153.769 127.992 116.178 108.329 115.408C100.496 115.102 93.9347 132.565 83.5078 136.618Z" fill="#E31E24"/>
<path fill-rule="evenodd" clip-rule="evenodd" d="M86.1939 198.277C84.6587 197.621 66.7278 180.557 66.6734 196.667C66.6428 205.773 79.7683 214.919 88.194 216.672C94.5232 212.465 115.217 190.341 113.418 179.324C104.701 175.276 102.787 177.972 97.8964 184.242C93.5957 189.757 90.7633 193.033 86.1939 198.277Z" fill="#E31E24"/>
<path fill-rule="evenodd" clip-rule="evenodd" d="M86.1939 264.386C77.8351 261.112 77.275 253.725 68.423 258.638C63.7242 262.714 64.6563 264.843 73.3326 273.453C78.6197 278.702 79.1889 280.795 86.1939 283.894C91.8065 281.368 111.954 258.772 113.571 253.381C117.024 241.87 107.092 241.526 100.111 248.342C94.3055 254.01 92.0764 258.439 86.1939 264.386Z" fill="#E31E24"/>
<path fill-rule="evenodd" clip-rule="evenodd" d="M116.397 34.0958L171.425 34.5198C166.084 9.17582 119.597 7.53854 116.397 34.0958Z" fill="#FEFDFE"/>
</svg>
