<svg width="393" height="438" viewBox="0 0 393 438" fill="none" xmlns="http://www.w3.org/2000/svg">
<path fill-rule="evenodd" clip-rule="evenodd" d="M89.0609 231.82C83.2759 236.996 85.5185 233.661 80.0003 236.546C74.4875 239.429 62.9268 257.387 59.1328 241.552C56.0795 228.806 73.7096 216.399 88.0475 221.421L89.0614 231.821L89.0609 231.82ZM242.784 177.753C244.399 191.721 241.699 191.693 228.207 189.732C183.35 183.214 157.11 196.087 153.997 185.065C148.296 164.87 230.129 170.185 242.784 177.753ZM17.1931 246.006L16.8417 301.836C19.1445 315.556 13.4716 290.977 17.7909 305.501L37.5109 310.145C52.2649 333.127 54.649 344.038 74.6383 360.454C96.337 378.273 106.355 379.551 103.433 419.365L139.313 419.744C145.143 405.054 144.967 399.316 156.391 390.947C176.036 376.551 207.705 376.45 226.195 390.944C237.04 399.446 237.586 406.034 243.284 419.702L282.605 420.768C280.403 373.258 290.611 383.495 311.288 359.833C356.906 307.631 347.512 211.26 278.3 174.882C206.36 137.072 96.6851 160.182 45.6864 228.242C35.1268 242.334 39.3981 244.552 17.1936 246.006H17.1931Z" fill="#626363"/>
<path fill-rule="evenodd" clip-rule="evenodd" d="M17.1934 246.006C39.3978 244.552 35.1265 242.334 45.6861 228.242C96.6848 160.182 206.36 137.071 278.3 174.882C347.512 211.26 356.906 307.631 311.287 359.833C290.61 383.495 280.403 373.258 282.605 420.768L243.284 419.702C237.585 406.034 237.04 399.446 226.194 390.944C207.705 376.45 176.036 376.551 156.391 390.947C144.967 399.317 145.143 405.054 139.312 419.744L103.432 419.365C106.354 379.551 96.3367 378.273 74.638 360.454C54.6492 344.038 52.2646 333.127 37.5106 310.145L17.7906 305.501C13.4718 290.977 19.1442 315.556 16.8414 301.836L17.1929 246.006H17.1934ZM72.9613 177.716C69.1095 170.131 61.1147 157.576 59.787 148.35C77.6702 146.14 95.8119 151.348 103.62 161.985C95.413 165.755 81.8779 176.411 72.9613 177.716ZM139.757 148.374C133.48 150.644 127.122 153.563 118.649 154.015C111.093 144.293 104.217 144.904 102.559 126.843C118.831 128.101 133.714 136.822 139.757 148.374ZM86.3999 132.983C70.5111 133.088 53.2716 128.837 42.2974 139.006C38.0966 155.892 57.8391 176.127 60.4753 189.82C50.3157 198.951 44.1146 204.735 36.4238 214.916C23.9775 231.394 28.2283 228.526 13.2921 230.124C-4.58569 232.037 0.742558 241.576 0.746964 273.82C0.757245 331.09 -4.64444 324.91 27.6829 325.997C33.4361 333.232 37.3456 342.69 43.9276 351.172C63.8836 376.887 82.7048 381.362 86.817 394.463C91.595 409.684 83.5003 422.933 87.284 433.727C99.3788 438.702 137.487 435.49 153.454 434.468C155.972 424.219 154.657 396.24 191.299 395.866C228.468 395.487 224.168 426.31 230.159 432.98C235.65 438.612 292.96 438.679 298.464 433.2C301.395 430.345 300.337 433.021 300.838 427.721C301.93 416.171 287.491 401.767 310.375 382.88C322.513 372.862 332.833 361.354 341.109 343.652C363.223 296.351 354.334 265.184 343.795 223.82C363.579 209.903 384.163 222.525 391.882 192.404C396.791 173.254 382.632 135.191 364.972 145.474C357.745 160.618 386.843 164.708 374.551 193.209C370.908 183.357 371.519 157.629 349.05 167.486C327.233 177.057 343.549 195.481 346.172 206.052C330.914 207.15 333.105 199.426 311.053 178.057C299.83 167.181 286.749 160.765 270.969 154.25C228.936 136.899 203.546 142.589 157.108 143.918C148.668 126.135 117.691 107.117 93.3319 110.109C79.2495 111.839 86.0513 121.63 86.3994 132.982L86.3999 132.983Z" fill="#383536"/>
<path fill-rule="evenodd" clip-rule="evenodd" d="M159.909 63.8194C152.981 11.9194 230.17 -0.606688 238.248 52.5965C246.129 104.515 166.583 113.819 159.909 63.8194ZM186.561 2.20773C105.854 27.4577 144.666 132.087 214.349 113.047C240.753 105.834 263.089 77.8807 254.828 44.07C248.8 19.4061 219.345 -8.04881 186.561 2.20773Z" fill="#383536"/>
<path fill-rule="evenodd" clip-rule="evenodd" d="M159.909 63.8194C166.583 113.819 246.129 104.515 238.248 52.5965C230.17 -0.606724 152.981 11.9194 159.909 63.8194Z" fill="#E31E24"/>
<path fill-rule="evenodd" clip-rule="evenodd" d="M242.784 177.753C230.129 170.185 148.296 164.87 153.997 185.065C157.11 196.087 183.35 183.214 228.207 189.732C241.699 191.693 244.399 191.721 242.784 177.753Z" fill="#383637"/>
<path fill-rule="evenodd" clip-rule="evenodd" d="M72.9614 177.716C81.878 176.411 95.413 165.755 103.62 161.985C95.812 151.348 77.6703 146.14 59.7871 148.35C61.1148 157.576 69.1096 170.131 72.9614 177.716Z" fill="#E31E24"/>
<path fill-rule="evenodd" clip-rule="evenodd" d="M118.649 154.015C127.121 153.563 133.48 150.644 139.757 148.374C133.713 136.822 118.83 128.1 102.559 126.843C104.216 144.904 111.093 144.293 118.649 154.015Z" fill="#E31E24"/>
<path fill-rule="evenodd" clip-rule="evenodd" d="M89.0611 231.82L88.0473 221.42C73.7094 216.399 56.0792 228.805 59.1325 241.552C62.9266 257.387 74.4872 239.428 80.0001 236.546C85.5187 233.662 83.2756 236.996 89.0606 231.82L89.0611 231.82Z" fill="#3D3C3B"/>
</svg>
