<?xml version="1.0" encoding="UTF-8"?>
<!DOCTYPE svg PUBLIC "-//W3C//DTD SVG 1.1//EN" "http://www.w3.org/Graphics/SVG/1.1/DTD/svg11.dtd">
<!-- Creator: CorelDRAW 2020 (64-Bit) -->
<svg xmlns="http://www.w3.org/2000/svg" xml:space="preserve" width="44.2113mm" height="44.4948mm" version="1.1" style="shape-rendering:geometricPrecision; text-rendering:geometricPrecision; image-rendering:optimizeQuality; fill-rule:evenodd; clip-rule:evenodd"
viewBox="0 0 3194.05 3214.53"
 xmlns:xlink="http://www.w3.org/1999/xlink"
 xmlns:xodm="http://www.corel.com/coreldraw/odm/2003">
 <defs>
  <style type="text/css">
   <![CDATA[
    .fil5 {fill:#010100}
    .fil4 {fill:#020103}
    .fil3 {fill:#030305}
    .fil6 {fill:#060303}
    .fil0 {fill:#0A0A0A}
    .fil2 {fill:#BDC3C4}
    .fil1 {fill:#FDFEFE}
   ]]>
  </style>
 </defs>
 <g id="Слой_x0020_1">
  <metadata id="CorelCorpID_0Corel-Layer"/>
  <path class="fil0" d="M1114.56 944.51c44.43,0.59 55.35,-2.58 53.62,-46.71 -50.46,4.27 -50.52,1.13 -53.62,46.71z"/>
  <path class="fil0" d="M1285.44 885.32c24.53,-8.76 11.05,1.69 28.8,-15.93 -16.82,-28.7 -2.64,-17.66 -37.67,-27.98l8.86 43.91z"/>
  <path class="fil0" d="M591.49 1590.25l1594.63 0.69 -4.51 -1579.63c-37.95,-12.53 -1466.43,-15.52 -1588.43,-4.55l-1.69 1583.49z"/>
  <path class="fil0" d="M2435.61 1803.56l412.58 -2.15 -0.5 411.17 -408.63 -0.43 -3.45 -408.59zm-522.03 -0.15l410.78 -1.52 -0.2 410.52 -407.4 -0.17 -3.19 -408.83zm956.95 1394.15l321.42 -3.77 2.1 -1582.49 -1582.3 -3.81 0.22 1588.58 1258.56 1.5z"/>
  <path class="fil0" d="M320.79 2308.67c55.05,-23.56 337.54,-135.09 385.23,-139.12l136.65 375.47c-36.93,25.14 -318.75,131.08 -377.64,145 -24.38,-27.24 -131.97,-330.89 -144.24,-381.35zm484.92 -185.81c85.11,-21.91 331.71,-136.35 388.82,-133.29l138.95 372.79c-25.16,18.29 -344.22,140.01 -383.62,145.04l-144.15 -384.53zm779.55 1073.9l0.95 -1585.94 -1586.22 -4.9 6.61 1589.36 1578.66 1.47z"/>
  <path class="fil1" d="M415.85 2438.64c14.85,-111.73 63.5,-86.24 107.11,-173.13 41.33,47.44 84.7,-18.73 188.04,57.67l-55.07 28.7c-39.66,21.07 -27.27,4.44 -68.49,14.35 -14.13,57.54 118.84,265.59 -39.38,200.35 13.2,-13.61 35.83,-10.92 54.01,-21.09 -1.69,-38.02 -32.1,-132.84 -54.64,-155.72l-131.58 48.87zm-95.06 -129.98c12.27,50.46 119.85,354.1 144.24,381.35 58.89,-13.91 340.71,-119.85 377.64,-145l-136.65 -375.47c-47.68,4.03 -330.17,115.56 -385.23,139.12z"/>
  <path class="fil1" d="M1959.96 1958.23c25.36,-59.1 74.17,-74.97 116.3,-91.05 41.7,-15.91 13.63,-9.62 45.84,-27.79 55.55,59.15 119.01,26.7 157.31,123.37 -62.72,-22.65 -47.88,-4.31 -69.83,-1.17 -42.57,6.09 -6.24,-21.48 -74.25,-7.74 -10.97,68.36 18.1,156.72 -29.43,192.01 -36.93,11.4 -51.06,2.6 -61.73,-27.55 36.15,-8.82 18.36,1.5 59.8,5.27l1.32 -171.96c-63.81,-4.68 -39.73,13.03 -72.95,10.42 -37.02,-2.9 10.23,-3.27 -30.97,-8.63 -39.06,-5.07 -2.08,1.65 -41.4,4.81zm-43.2 254.01l407.4 0.17 0.2 -410.52 -410.78 1.52 3.19 408.83z"/>
  <path class="fil1" d="M930.45 2162.85c14.07,15.45 19.38,50.3 20,73.84 -31.01,-13.18 -71.5,-44.52 -45.97,-83.72 42.42,1.95 12.79,-4.57 25.96,9.88zm19.22 -22.48c26.46,-9.12 182.08,-74.54 199.48,-67.43 22.91,9.36 52.58,94.19 -55.79,180.61l31.82 88.51c34.11,-3.42 37.84,-16.93 62.46,-7.35 -1.13,30.82 16.54,17.51 -28.37,34.61 -24.82,9.47 -97.73,38.17 -116.54,29.54 5.03,-37.8 7.8,-24.84 52.43,-33.55l-33.31 -97.36c-28.18,0.07 -49.7,5.07 -75.47,-6.46 -35.37,-15.8 -16.21,-28.24 -18.57,-63.03 -3.12,-45.71 -5.79,-14.41 -18.14,-58.11zm0.2 367.02c39.4,-5.03 358.46,-126.75 383.62,-145.04l-138.95 -372.79c-57.11,-3.06 -303.71,111.38 -388.82,133.29l144.15 384.53z"/>
  <path class="fil1" d="M2540.42 1968.11c16.23,-49.09 38.32,-33.27 21.91,-102.75l219.03 -1.37c0.52,96.34 -39.12,138.15 -122.48,156.01l2.86 94.76c47.01,13.94 47.75,-14.2 64.22,30.32 -25.14,8.58 -49.31,6.59 -82.01,6.83 -11.99,0.11 -35.22,0.85 -46.12,-0.13 -35.39,-3.14 -14.37,4.1 -36.15,-9.54 13.2,-38.82 -8.06,-9.77 27.29,-22.13 10.77,-3.77 9.99,5.18 35.09,-5.33l-0.13 -91.57c-41.83,-15.15 -64.46,-17.23 -83.51,-55.09zm-15.5 -23.06c-27.61,-20.72 -27.03,-49.7 -15.58,-83.2l25.6 -1.39c9.23,13.35 5.48,1.58 6.98,22.91 4.98,71.02 4.96,49.35 -16.99,61.68zm-85.87 267.1l408.63 0.43 0.5 -411.17 -412.58 2.15 3.45 408.59z"/>
  <path class="fil2" d="M-0 1605.92l1586.22 4.9 -0.95 1585.94c-22.58,-1.3 -5.77,-4.16 -12.42,17.77l1287.91 0 9.77 -16.97 -1258.56 -1.5 -0.22 -1588.58 1582.3 3.81c-1.73,-2.12 -4.72,-3.99 -6.57,-4.98 -68.45,-37.13 -1001.17,13.91 -1001.36,-15.37l-1594.63 -0.69c-50.69,33.55 -498.32,-23.65 -591.49,15.67z"/>
  <path class="fil3" d="M2540.42 1968.11c19.05,37.86 41.68,39.94 83.51,55.09l0.13 91.57c-25.1,10.51 -24.32,1.56 -35.09,5.33 -35.35,12.35 -14.09,-16.69 -27.29,22.13 21.78,13.63 0.76,6.39 36.15,9.54 10.9,0.98 34.14,0.24 46.12,0.13 32.71,-0.24 56.87,1.76 82.01,-6.83 -16.47,-44.52 -17.21,-16.39 -64.22,-30.32l-2.86 -94.76c83.36,-17.86 123,-59.67 122.48,-156.01l-219.03 1.37c16.41,69.49 -5.68,53.66 -21.91,102.75z"/>
  <path class="fil4" d="M949.67 2140.37c12.35,43.69 15.02,12.4 18.14,58.11 2.36,34.79 -16.8,47.23 18.57,63.03 25.77,11.53 47.29,6.52 75.47,6.46l33.31 97.36c-44.63,8.71 -47.4,-4.25 -52.43,33.55 18.81,8.63 91.72,-20.07 116.54,-29.54 44.91,-17.1 27.24,-3.79 28.37,-34.61 -24.62,-9.58 -28.35,3.92 -62.46,7.35l-31.82 -88.51c108.37,-86.41 78.7,-171.24 55.79,-180.61 -17.4,-7.11 -173.02,58.3 -199.48,67.43z"/>
  <path class="fil5" d="M415.85 2438.64l131.58 -48.87c22.54,22.89 52.95,117.71 54.64,155.72 -18.18,10.16 -40.81,7.48 -54.01,21.09 158.22,65.24 25.25,-142.81 39.38,-200.35 41.22,-9.9 28.83,6.72 68.49,-14.35l55.07 -28.7c-103.34,-76.4 -146.71,-10.23 -188.04,-57.67 -43.61,86.89 -92.26,61.4 -107.11,173.13z"/>
  <path class="fil5" d="M2001.36 1953.42c41.2,5.35 -6.05,5.72 30.97,8.63 33.23,2.6 9.15,-15.11 72.95,-10.42l-1.32 171.96c-41.44,-3.77 -23.65,-14.09 -59.8,-5.27 10.66,30.15 24.79,38.95 61.73,27.55 47.53,-35.28 18.47,-123.65 29.43,-192.01 68.01,-13.74 31.69,13.83 74.25,7.74 21.96,-3.14 7.11,-21.48 69.83,1.17 -38.3,-96.66 -101.76,-64.22 -157.31,-123.37 -32.21,18.16 -4.14,11.88 -45.84,27.79 -42.13,16.08 -90.94,31.95 -116.3,91.05 39.32,-3.16 2.34,-9.88 41.4,-4.81z"/>
  <path class="fil6" d="M2524.93 1945.05c21.96,-12.33 21.98,9.34 16.99,-61.68 -1.5,-21.33 2.25,-9.56 -6.98,-22.91l-25.6 1.39c-11.44,33.51 -12.03,62.48 15.58,83.2z"/>
  <path class="fil5" d="M950.45 2236.69c-0.63,-23.54 -5.94,-58.39 -20,-73.84 -13.18,-14.46 16.45,-7.93 -25.96,-9.88 -25.53,39.21 14.95,70.55 45.97,83.72z"/>
  <path class="fil3" d="M2540.42 1968.11c19.05,37.86 41.68,39.94 83.51,55.09l0.13 91.57c-25.1,10.51 -24.32,1.56 -35.09,5.33 -35.35,12.35 -14.09,-16.69 -27.29,22.13 21.78,13.63 0.76,6.39 36.15,9.54 10.9,0.98 34.14,0.24 46.12,0.13 32.71,-0.24 56.87,1.76 82.01,-6.83 -16.47,-44.52 -17.21,-16.39 -64.22,-30.32l-2.86 -94.76c83.36,-17.86 123,-59.67 122.48,-156.01l-219.03 1.37c16.41,69.49 -5.68,53.66 -21.91,102.75z"/>
  <path class="fil1" d="M1610.54 519.58c16.23,-49.09 38.32,-33.27 21.91,-102.75l219.03 -1.37c0.52,96.34 -39.12,138.15 -122.48,156.01l2.86 94.76c47.01,13.94 47.75,-14.2 64.22,30.32 -25.14,8.58 -49.31,6.59 -82.01,6.83 -11.99,0.11 -35.22,0.85 -46.12,-0.13 -35.39,-3.14 -14.37,4.1 -36.15,-9.54 13.2,-38.82 -8.06,-9.77 27.29,-22.13 10.77,-3.77 9.99,5.18 35.09,-5.33l-0.13 -91.57c-41.83,-15.15 -64.46,-17.23 -83.51,-55.09zm-15.5 -23.06c-27.61,-20.72 -27.03,-49.7 -15.58,-83.2l25.6 -1.39c9.23,13.35 5.48,1.58 6.98,22.91 4.98,71.02 4.96,49.35 -16.99,61.68zm-85.87 267.1l408.63 0.43 0.5 -411.17 -412.58 2.15 3.45 408.59z"/>
  <path class="fil1" d="M1032.9 505.49c25.36,-59.1 74.17,-74.97 116.3,-91.05 41.7,-15.91 13.63,-9.62 45.84,-27.79 55.55,59.15 119.01,26.7 157.31,123.37 -62.72,-22.65 -47.88,-4.31 -69.83,-1.17 -42.57,6.09 -6.24,-21.48 -74.25,-7.74 -10.97,68.36 18.1,156.72 -29.43,192.01 -36.93,11.4 -51.06,2.6 -61.73,-27.55 36.15,-8.82 18.36,1.5 59.8,5.27l1.32 -171.96c-63.81,-4.68 -39.73,13.03 -72.95,10.42 -37.02,-2.9 10.23,-3.27 -30.97,-8.63 -39.06,-5.07 -2.08,1.65 -41.4,4.81zm-43.2 254.01l407.4 0.17 0.2 -410.52 -410.78 1.52 3.19 408.83z"/>
 </g>
</svg>
