<?xml version="1.0" encoding="UTF-8"?>
<!DOCTYPE svg PUBLIC "-//W3C//DTD SVG 1.1//EN" "http://www.w3.org/Graphics/SVG/1.1/DTD/svg11.dtd">
<!-- Creator: CorelDRAW 2020 (64-Bit) -->
<svg xmlns="http://www.w3.org/2000/svg" xml:space="preserve" width="84.2907mm" height="34.7935mm" version="1.1" style="shape-rendering:geometricPrecision; text-rendering:geometricPrecision; image-rendering:optimizeQuality; fill-rule:evenodd; clip-rule:evenodd"
viewBox="0 0 7943.09 3278.75"
 xmlns:xlink="http://www.w3.org/1999/xlink"
 xmlns:xodm="http://www.corel.com/coreldraw/odm/2003">
 <defs>
  <style type="text/css">
   <![CDATA[
    .str0 {stroke:#2B2A29;stroke-width:18.85;stroke-miterlimit:22.9256}
    .fil10 {fill:#E31E24}
    .fil7 {fill:#120D0E}
    .fil3 {fill:#120D11}
    .fil8 {fill:#120F10}
    .fil6 {fill:#151112}
    .fil9 {fill:#161215}
    .fil1 {fill:#191616}
    .fil4 {fill:#332D2F}
    .fil5 {fill:#342E2F}
    .fil0 {fill:#352F31}
    .fil2 {fill:#FEFEFE}
    .fil11 {fill:#2B2A29;fill-rule:nonzero}
   ]]>
  </style>
 </defs>
 <g id="Слой_x0020_1">
  <metadata id="CorelCorpID_0Corel-Layer"/>
  <path class="fil0" d="M6048.24 2343.2c-17.22,28.58 1.02,3.65 -18.6,22.81 -96.51,94.31 -150.14,78.7 -283.83,79.41 -57.67,0.34 -134.4,10.32 -178.92,-15.58 -12.27,-7.15 -92.73,-68.78 -103.33,-84.81l584.69 -1.84zm-5655.17 -526.45c-76.22,-87.75 -12.01,-488.2 16.65,-615.45 15.41,-68.33 37.68,-74.97 109.35,-77.4 119.3,-4.04 442.09,-11.2 524.16,19.85 29.09,102.76 7.66,219.49 2.49,322.31 -5.09,100.56 18.6,251.24 -63.69,280.19 -53.35,18.74 -522.72,78.34 -588.96,70.51zm1550.04 529.28l2901.41 1.95c-112.52,99.82 -106.47,95.04 -294.55,94.76 -405.11,-0.62 -2598.84,14.39 -2756.56,-2.49 -41.39,-9.47 -21.57,14.79 -32.99,-44.16l-1.64 -2066c3.14,-112.23 11.14,-191.45 -114.16,-186.05 -339.87,14.67 -698.84,231.53 -832.34,394.15 -43.59,53.06 -74.07,136.74 -149.15,151.59 -247.48,48.96 -413.85,-99.48 -506.97,430.33 75.74,5.34 128.43,6.62 192.52,25.75 17.53,96.97 -42.94,353.8 -54.73,480.26 -6.42,68.98 -3.53,194.33 -48.14,232.07 -43.9,37.15 -140.5,48.31 -184.72,87.58 -5.4,72.29 -14.67,382.1 6.47,423.35 26.09,20.89 21,13.65 49.5,21.97 45.57,13.26 20.27,-10.29 52.27,19.51 39.66,44.16 32,158.26 26.94,223.53 -7.94,102.4 -58.69,65.9 -134.34,118.74 -7.15,92.61 65.16,232.13 195.04,236.57 107.31,3.65 344.98,11.42 438.56,-1.5 1.36,-3.42 2.63,-12.16 3,-10.6l6.13 -44.89c4.24,-135.87 -21.15,-239.42 111.53,-385.75 77.4,-85.35 206.94,-185.54 385.24,-190.8 228.54,-6.7 434.77,139.01 505.98,346.4 35.34,102.88 19,157.07 22.84,263.51 28.33,-15.41 0.99,-0.14 22.56,-19.73 2.52,-2.29 10.49,-10.21 13.4,-12.69 24.23,-20.61 -14.79,1.47 26.38,-20.07l5.03 -25.13c1.84,-45.18 58.49,-33.27 157.38,-33.47l2331.88 0.14c340.12,-0.9 237.39,38.05 335.4,40 58.01,-160.29 7.24,-228.45 181.55,-402.15 17.53,-17.47 47.13,-35.28 69.86,-50.86 23.75,-16.31 93.38,-57.39 122.55,-58.52 74.94,-2.86 24.37,-10.69 51.9,17.53l35.96 -17.24c-38.16,-21.06 -49.9,-11.2 13.17,-25.95 71.64,-16.74 160.38,8.28 225.71,28.38 152.43,46.84 271.11,178.92 322.45,323.92 30.22,85.43 10.43,207.84 40.57,281.74 62.56,-1.02 44.1,-6.45 46.45,-74.78 20.19,74.32 -3.9,2.77 25.67,35.88l4.38 -39.66c-9.73,-13.51 21.32,-21.09 -13.88,-12.18 63.35,-9.98 78.05,13.06 91.12,-52.07 8.91,-44.38 3.62,-68.89 20.07,-125.21 25.05,-85.72 57.81,-126.82 106.89,-180.34 266.96,-290.96 620.9,-205.5 786,-7.32 113.17,135.87 113.39,233.51 127.24,448.28 29.37,11.79 24.31,15.18 55.04,12.21 17.98,-73.39 -26.77,-202.39 0.06,-287.14 95.38,-54.53 420.58,-29.74 556.67,-29.49 165.98,0.31 111.55,13.17 230.32,-55.89 80.43,-46.79 162.02,-21.32 152.26,-133.66 -58.49,-15.66 -553.02,-7.35 -657.65,-7.24 -135.53,0.17 -394.43,28.55 -471.61,-34.8 -98.97,-81.22 -72.82,-47.38 -77.49,-89.02l16.4 -8.91c44.95,-15.32 812.26,-6.36 891.45,-6.39 51.85,0 103.7,-0.34 155.52,0.06 39.97,0.28 97.84,7.94 132.22,-12.44 -78.54,-20.67 -1022.82,-8.28 -1187.81,-8.28 89.67,-24.71 460.92,-12.18 589.15,-11.59 123.8,0.57 498.58,14.59 593.25,-12.35 30.84,-105.36 9.05,-941.66 9.05,-1121.82 0,-158.17 24.34,-1034.78 -16.93,-1097.96 -40.26,-35.14 -3855.2,-7.89 -4435.93,-7.89 -226.7,0 -1344.37,-14.93 -1472.32,7.83l-6.62 2229.37c163.8,26.01 551.05,5.74 737.52,5.03 645.89,-2.43 1599.71,-24.03 2186.03,9.39l-2915.44 22.73z"/>
  <path class="fil1" d="M1943.11 2346.02l2915.44 -22.73c-586.33,-33.42 -1540.14,-11.82 -2186.03,-9.39 -186.47,0.71 -573.72,20.98 -737.52,-5.03l6.62 -2229.37c127.95,-22.76 1245.62,-7.83 1472.32,-7.83 580.73,0 4395.67,-27.25 4435.93,7.89 41.27,63.18 16.93,939.79 16.93,1097.96 0,180.17 21.8,1016.46 -9.05,1121.82 -94.68,26.94 -469.46,12.92 -593.25,12.35 -128.23,-0.59 -499.48,-13.12 -589.15,11.59 164.99,0 1109.27,-12.38 1187.81,8.28 52.16,-14.62 39.24,-57.42 38.59,-115.48 -4.01,-361.04 22.59,-2111.29 -16.59,-2157.73 -33.22,-39.35 -67.82,-25.3 -166.2,-25.08l-5082.3 1.84c-118.2,0 -655.53,-25.92 -717.87,20.58 -34.89,60.19 -17.84,993.73 -17.67,1145.68 0.25,215.87 -12.78,1000.4 -2.01,1143.42l44.02 1.22z"/>
  <path class="fil2" d="M397.03 1789.41c29.74,11.2 491.45,-50.41 563.57,-66.52 70.11,-15.69 48.94,-112.37 54.02,-271.23 2.54,-79.27 19.42,-222.94 2.46,-298.2l-558.59 0.88c-39.32,105.25 -104.35,534.45 -61.46,635.07z"/>
  <path class="fil3" d="M1792.59 2913.3c-41.16,21.54 -2.15,-0.54 -26.38,20.07 -2.91,2.49 -10.88,10.4 -13.4,12.69 -21.57,19.59 5.77,4.33 -22.56,19.73 -3.84,-106.44 12.5,-160.63 -22.84,-263.51 -71.21,-207.39 -277.45,-353.1 -505.98,-346.4 -178.3,5.26 -307.84,105.45 -385.24,190.8 -132.67,146.33 -107.29,249.88 -111.53,385.75l-6.13 44.89c-0.37,-1.55 -1.64,7.18 -3,10.6 -93.57,12.92 -331.24,5.15 -438.56,1.5 -129.87,-4.44 -202.19,-143.95 -195.04,-236.57 75.65,-52.84 126.4,-16.34 134.34,-118.74 5.06,-65.28 12.72,-179.38 -26.94,-223.53 -32,-29.8 -6.7,-6.25 -52.27,-19.51 -28.5,-8.31 -23.41,-1.07 -49.5,-21.97 -21.15,-41.25 -11.87,-351.06 -6.47,-423.35 44.21,-39.27 140.81,-50.43 184.72,-87.58 44.61,-37.74 41.73,-163.09 48.14,-232.07 11.79,-126.45 72.26,-383.29 54.73,-480.26 -64.09,-19.14 -116.78,-20.41 -192.52,-25.75 93.12,-529.81 259.49,-381.37 506.97,-430.33 75.09,-14.84 105.56,-98.52 149.15,-151.59 133.49,-162.61 492.47,-379.47 832.34,-394.15 125.29,-5.4 117.29,73.81 114.16,186.05l1.64 2066c11.42,58.94 -8.4,34.69 32.99,44.16 -13.6,-317.76 -0.45,-666.9 -0.45,-988.25 0,-330.17 0.23,-660.37 0,-990.54 -0.11,-174.17 50.07,-367.37 -160.97,-350.67 -316.66,25.08 -718.8,207.67 -891.53,475.2 -10.26,15.86 -16,27.37 -22.62,37.18 -19.34,28.58 -6.5,14.81 -28.75,34.43 -164.67,26.89 -333.87,-12.69 -436.01,98.47 -48.46,52.72 -138.98,294.46 -131.99,390.05 35.85,8.25 62.87,5.57 100.25,5.46 155.2,-0.51 101.15,20.86 58.83,334.47 -14.64,108.59 -17.36,242.36 -36.55,347.27l-214.15 84.13 3.76 496.6 131.91 3.65 -5.03 263.73 -131.77 31.83c1.24,148.48 68.89,300.94 215.93,308.71 161.25,8.51 339.5,-3.34 501.6,2.66 2.26,-76.92 -62.36,-291.86 90.58,-457.41 244.34,-264.5 591.73,-220 763.75,2.49 105.36,136.29 115.26,254.04 84.33,453.2 80.88,-3.76 104.54,-29.88 108.08,-109.6z"/>
  <path class="fil4" d="M5334.25 3029.55c-29.06,12.35 -17.92,3.93 -29.2,28.52 19.68,14.84 35,-10.74 -10.83,29.8 -35.82,31.69 -107.06,50.18 -158.94,45.54 -67.11,-5.97 -147.12,-59.25 -172.96,-87.95 -90.72,-100.87 -95.75,-262.41 13.23,-369.86 94.2,-92.95 243.01,-88.68 363.25,18.12 157.13,139.63 15.94,394.37 -4.55,335.82zm-290.79 195.72l24.79 20.21c2.86,-3.14 7.21,-5.48 10.54,-7.12 72.46,-35.56 57.9,4.47 148.82,-24.17 431.94,-135.95 307.61,-627.94 2.15,-681.68 -424.9,-74.72 -571.77,465.92 -253.44,641.03 77.18,42.46 144.04,26.97 67.14,51.73z"/>
  <path class="fil4" d="M1168.33 2617.17c312.42,-82.21 436.47,431.09 116.16,508.47 -149.89,36.19 -297.91,-77.32 -320.33,-196.31 -33.39,-176.97 76.08,-278.43 204.17,-312.16zm-295.17 290.85c35.03,429.77 703.79,423.77 692.6,-58.1 -10.32,-443.51 -732.77,-434.66 -692.6,58.1z"/>
  <path class="fil5" d="M6609.86 2943.8c-138.07,353.58 -581.86,162.89 -501.35,-149.18 28.07,-108.81 168.92,-209.68 319,-173.81 110.88,26.52 240.75,173.38 182.34,322.99zm-335.12 -406.58c-444.81,111.1 -274.9,790.58 167.5,671 455.97,-123.23 274.87,-781.48 -167.5,-671z"/>
  <path class="fil2" d="M1441.08 2931.87c38.9,-133.97 -59.34,-254.63 -160.32,-281.86 -148.19,-39.95 -255.14,56.68 -285.87,158.6 -87.84,291.1 360.45,418.54 446.19,123.26z"/>
  <path class="fil2" d="M6130.77 2908.01c17.24,113.96 122.13,208.66 260.29,192.13 117.24,-14.05 215.59,-125.27 197.13,-264.13 -36.98,-278.04 -504.37,-238.35 -457.41,72z"/>
  <path class="fil2" d="M5305.05 3058.07c11.28,-24.6 0.14,-16.17 29.2,-28.52 4.61,-20.38 121.08,-186.25 -11.85,-319.57 -75.62,-75.85 -233.8,-87.44 -324.06,-10.8 -82.49,70.03 -94.31,235.72 -15.75,325.99 124.93,143.5 282.36,43.62 322.45,32.91z"/>
  <path class="fil6" d="M5762.52 2913.13c154.07,41.9 84.1,-28.3 129.51,-181.69 142.06,-480.06 886.61,-454.05 952.6,82.24 6.22,50.52 -3.14,133.61 6.25,174.43 8.54,37.09 56.2,76.13 98.07,35.62 43.51,-42.07 -1.67,-235.12 6.39,-303.68 103.24,-25.61 410.63,-11.11 536.37,-11.03 213.3,0.14 143.98,14.56 229.5,-49.39 48.85,-36.53 131.99,-51.68 192.35,-72.29l-8.4 -127.98c-61.04,-21.54 -831.97,-11.53 -999.55,-9.98 -173.1,1.64 -121.22,-24.76 -238.04,-90.13 4.66,41.64 -21.49,7.8 77.49,89.02 77.18,63.35 336.08,34.97 471.61,34.8 104.63,-0.11 599.16,-8.42 657.65,7.24 9.75,112.35 -71.83,86.87 -152.26,133.66 -118.76,69.06 -64.34,56.2 -230.32,55.89 -136.09,-0.25 -461.29,-25.05 -556.67,29.49 -26.83,84.75 17.92,213.75 -0.06,287.14 -30.73,2.97 -25.67,-0.42 -55.04,-12.21 -13.85,-214.77 -14.08,-312.42 -127.24,-448.28 -165.1,-198.18 -519.04,-283.64 -786,7.32 -49.08,53.52 -81.84,94.62 -106.89,180.34 -16.45,56.31 -11.17,80.82 -20.07,125.21 -13.06,65.13 -27.76,42.09 -91.12,52.07 35.2,-8.91 4.16,-1.33 13.88,12.18z"/>
  <path class="fil7" d="M1797.63 2888.17c716.51,-9.56 1467.37,-0.57 2190.3,-0.57l535.38 2.01c69.57,15.1 26.4,57.11 126.4,31.78 51.48,-126.88 3.28,-208.55 117.86,-345.27 68.33,-81.5 148.31,-150.09 280.58,-175.28 -27.54,-28.21 23.04,-20.38 -51.9,-17.53 -29.18,1.13 -98.8,42.21 -122.55,58.52 -22.73,15.58 -52.33,33.39 -69.86,50.86 -174.32,173.69 -123.54,241.85 -181.55,402.15 -98.01,-1.95 4.72,-40.91 -335.4,-40l-2331.88 -0.14c-98.89,0.2 -155.54,-11.7 -157.38,33.47z"/>
  <path class="fil6" d="M6274.75 2537.22c442.37,-110.48 623.47,547.77 167.5,671 -442.4,119.58 -612.31,-559.89 -167.5,-671zm-295.45 358.86c39.04,503.55 786.51,452.75 760.78,-48.06 -25.58,-498.58 -799.46,-450.6 -760.78,48.06z"/>
  <path class="fil6" d="M873.16 2908.01c-40.17,-492.75 682.28,-501.6 692.6,-58.1 11.2,481.87 -657.57,487.86 -692.6,58.1zm716.6 47.75c114.55,-470.05 -618.84,-670.97 -742.29,-174.82 -122.04,490.43 621.52,670.26 742.29,174.82z"/>
  <path class="fil6" d="M397.03 1789.41c-42.89,-100.61 22.14,-529.81 61.46,-635.07l558.59 -0.88c16.96,75.26 0.08,218.93 -2.46,298.2 -5.09,158.85 16.09,255.54 -54.02,271.23 -72.12,16.11 -533.83,77.72 -563.57,66.52zm-3.96 27.34c66.24,7.83 535.61,-51.76 588.96,-70.51 82.3,-28.95 58.6,-179.63 63.69,-280.19 5.17,-102.82 26.6,-219.55 -2.49,-322.31 -82.07,-31.04 -404.86,-23.89 -524.16,-19.85 -71.67,2.43 -93.94,9.07 -109.35,77.4 -28.67,127.24 -92.87,527.69 -16.65,615.45z"/>
  <path class="fil8" d="M5043.46 3225.26c76.9,-24.76 10.04,-9.27 -67.14,-51.73 -318.32,-175.11 -171.46,-715.75 253.44,-641.03 305.46,53.74 429.79,545.73 -2.15,681.68 -90.92,28.64 -76.36,-11.39 -148.82,24.17 -3.34,1.64 -7.69,3.99 -10.54,7.12 547.63,71.41 615.53,-633.76 185,-741.36 -332.63,-83.14 -602.02,270.01 -423.66,566.34 33.02,54.87 124.95,156.34 213.87,154.81z"/>
  <path class="fil2" d="M6048.24 2343.2l-584.69 1.84c10.6,16.03 91.06,77.66 103.33,84.81 44.53,25.9 121.25,15.92 178.92,15.58 133.69,-0.71 187.32,14.9 283.83,-79.41 19.62,-19.17 1.39,5.77 18.6,-22.81z"/>
  <path class="fil9" d="M6130.77 2908.01c-46.96,-310.35 420.44,-350.04 457.41,-72 18.46,138.86 -79.89,250.08 -197.13,264.13 -138.16,16.54 -243.04,-78.17 -260.29,-192.13zm479.1 35.79c58.41,-149.61 -71.47,-296.47 -182.34,-322.99 -150.09,-35.88 -290.93,64.99 -319,173.81 -80.51,312.08 363.27,502.76 501.35,149.18z"/>
  <path class="fil9" d="M5305.05 3058.07c-40.09,10.71 -197.52,110.59 -322.45,-32.91 -78.56,-90.27 -66.75,-255.96 15.75,-325.99 90.27,-76.64 248.44,-65.05 324.06,10.8 132.93,133.32 16.45,299.19 11.85,319.57 20.5,58.55 161.68,-196.2 4.55,-335.82 -120.23,-106.81 -269.05,-111.07 -363.25,-18.12 -108.98,107.46 -103.95,268.99 -13.23,369.86 25.84,28.69 105.84,81.98 172.96,87.95 51.88,4.64 123.12,-13.85 158.94,-45.54 45.83,-40.54 30.5,-14.96 10.83,-29.8z"/>
  <path class="fil9" d="M1441.08 2931.87c-85.74,295.28 -534.03,167.84 -446.19,-123.26 30.73,-101.91 137.68,-198.54 285.87,-158.6 100.98,27.22 199.22,147.88 160.32,281.86zm-272.75 -314.71c-128.09,33.73 -237.56,135.19 -204.17,312.16 22.42,118.99 170.44,232.5 320.33,196.31 320.3,-77.38 196.25,-590.68 -116.16,-508.47z"/>
  <path class="fil6" d="M5084.11 2383.6c94.23,19.96 154.61,-8.74 261.25,40.71 137.79,63.95 247.22,178.1 285.02,336.33 19.85,83.11 0.03,195.57 29.01,267.44 61.18,15.35 109.75,3.99 98.75,-75.28 -29.57,-33.1 -5.48,38.45 -25.67,-35.88 -2.35,68.33 16.11,73.76 -46.45,74.78 -30.14,-73.9 -10.35,-196.31 -40.57,-281.74 -51.34,-145 -170.02,-277.08 -322.45,-323.92 -65.33,-20.1 -154.07,-45.12 -225.71,-28.38 -63.07,14.76 -51.34,4.89 -13.17,25.95z"/>
  <path class="fil10 str0" d="M1030.51 1735.53c-167.19,120.71 -599.53,28.04 -748.68,122.3 -39.95,11.42 -172.93,66.21 -197.52,88.06 -5.4,72.29 -14.67,382.1 6.47,423.35 65.84,80.54 9.27,360.64 10.57,362 -119.33,73.56 98.07,243.75 104.88,249.01l512.48 11.42c44.33,-226.67 -67.68,-90.97 96.8,-419.14 89,-177.57 207.05,-169.74 385.44,-227.27 199.79,-16.65 226.47,3.7 308.71,61.4 31.83,22.33 134.37,15.01 217.63,-32.45 2.63,-1.5 24.2,-19.73 19.2,-42.77l-19.99 -39.72c-29.49,-77.09 32.4,-1549.13 32.4,-1789.68 0,-309.93 -0.11,-171.94 -27.59,-336.47 -357.42,-72.57 -474.12,87.07 -774.52,240.07 -122.95,62.62 -82.21,200.1 -231.62,261.53 -73.76,2.63 -264.44,34.94 -310.49,49.84l-165.49 102.68c-42.18,121.7 -38.62,155.68 -55.89,274.36l234.64 36.55 638.51 13.26c22.98,81.11 15.92,554.24 -35.93,591.67z"/>
  <path class="fil11" d="M7906.68 40.13c34.66,41.11 29.01,951.98 24.99,1601.01 -1.55,256.55 -2.88,472.06 -1.78,574.74l1.02 27.08c2.71,55.58 4.69,96.15 -56.74,114.81 -34.32,18.55 -79.92,16.71 -118.91,15.18l-24.45 -0.76c-82.07,-0.08 -164.08,-0.11 -246.15,-0.65 -189.47,-1.41 -603.97,-4.55 -745.07,1.41l19.7 16.17c27.59,23.29 39.24,33.1 146.07,32.12l53.63 -0.54c238.74,-2.46 895.07,-9.27 955.54,12.07l17.53 6.22 11.03 168.1 -20.5 6.98c-17.98,6.13 -36.61,11.51 -55.64,16.93 -47.1,13.48 -97.7,28.02 -128.86,51.28 -16.99,12.69 -26.94,21.49 -34.35,28.04 -16.2,14.33 -24.43,21.57 -43.59,25.7 -15.04,3.25 -34.63,2.88 -73.79,2.18 -23.24,-0.4 -54.02,-1.02 -94.68,-1.02 -29.43,-0.03 -67.99,-0.82 -111.36,-1.67 -132.28,-2.69 -310.83,-6.28 -397.79,7.83 0.25,22.02 3.08,51.48 6.11,82.63 8.2,84.92 17.61,181.55 -20.19,218.08 -13.03,12.58 -26.97,19.96 -40.94,23.18 -15.52,3.53 -30.65,1.95 -44.36,-3.25 -12.67,-4.81 -24.17,-12.86 -33.7,-22.7 -12.89,-13.2 -22.31,-30.16 -26.12,-46.87 -5.8,-25.27 -5.31,-62 -4.86,-99.06 0.37,-28.07 0.74,-56.54 -1.92,-78.25 -18.26,-148.67 -91.6,-255.56 -189.21,-320.78 -66.97,-44.75 -145.71,-70.2 -226.22,-76.27 -80.68,-6.11 -163.09,7.21 -237.16,39.86 -111.36,49.11 -204.34,142.37 -244.91,279.48 -13.68,46.34 -16.28,85.43 -18.21,115.23 -1.3,20.21 -2.4,36.81 -6.19,50.8 -11.85,43.11 -36.13,57.78 -107.65,42.77l-0.48 4.47c2.35,19.53 1.55,36.07 -1.89,49.81 -4.44,17.78 -13.2,31.35 -25.25,41.25 -11.65,9.58 -25.81,15.15 -41.61,17.33 -19.59,2.71 -41.95,0.25 -65.25,-5.57l-13.94 -3.48 -5.4 -13.43c-17.84,-44.24 -19.05,-99.03 -20.24,-154.3 -0.88,-40.94 -1.81,-82.32 -10.09,-117.12 -16.99,-71.72 -49.9,-133.89 -93.89,-185.82 -47.38,-55.92 -107.82,-100.02 -175.45,-131.4 -60.47,-28.04 -105.67,-28.78 -151.92,-29.51 -29.51,-0.48 -59.54,-0.96 -93.91,-7.32l-30.84 14.81 -3.51 0.65c-61.83,11.76 -111.53,33.75 -153.68,62.22 -42.49,28.72 -77.8,64.54 -110.45,103.47 -66.21,79.04 -73.9,138.86 -81.84,201.34 -5.34,42.24 -10.91,85.66 -31.49,136.4l-5.4 13.26 -13.94 3.53c-75.88,19.2 -89.14,5.2 -107.99,-14.79 -5.15,-5.46 -11.34,-12.01 -28.92,-16.23l-531.71 -2.01c-205.24,0.11 -459.2,-0.93 -712.38,-1.89 -487.61,-1.92 -978.58,-3.9 -1454.68,2.15l-0.25 1.19c-2.29,45.46 -11.31,76.84 -32.85,99.03 -22.02,22.7 -54.08,32.6 -102.03,34.83l-34.32 1.61 5.29 -34.07c15.01,-96.68 20.16,-173.27 8.93,-241.37 -10.94,-66.52 -38.14,-126.11 -87.75,-190.32 -15.29,-19.79 -32.23,-38.22 -50.43,-55.04 -76.64,-70.79 -175.87,-112.74 -280.58,-117.77 -105,-5.06 -215.93,27 -315.64,104.09 -25.39,19.59 -50.21,42.32 -74.04,68.13 -114.04,123.46 -97.56,280.22 -87.58,375.03 2.66,25.44 4.92,46.87 4.41,64.03l-0.82 28.47 -28.33 -1.07c-75.31,-2.77 -154.07,-1.67 -232.86,-0.62 -91.31,1.24 -182.88,2.49 -269.19,-2.04 -77.46,-4.1 -135.5,-43.08 -175.59,-100.42 -44.72,-63.92 -66.35,-150.99 -67.06,-236.23l-0.17 -22.36 132.36 -31.97 4.07 -214.06 -131.15 -3.62 -4.13 -543.21 217.4 -85.43c8.91,-54.67 14.02,-118.03 19.03,-180.68 4.07,-51.06 8.17,-101.8 14.64,-149.86 10.35,-76.92 21.51,-136.63 30.08,-182.63 8.48,-45.57 14.39,-77.38 14.36,-97.42 -0.06,-20.27 -18.26,-22.67 -75,-22.5l-21.12 0.25c-29.18,0.51 -53.97,0.96 -85.77,-6.36l-20.33 -4.66 -1.53 -20.86c-3.56,-48.71 15.35,-129.85 41.59,-207.48 29.63,-87.55 69.6,-172.99 97.82,-203.66 79.07,-86.03 188.59,-90.55 306.82,-95.33 45.23,-1.84 91.88,-3.76 137.62,-10.63l5.77 -4.89c8.31,-16.23 24.23,-39.01 34.21,-55.33 84.81,-131.43 222.54,-242.67 378.43,-325.76 171.15,-91.2 364.91,-148.98 534.62,-162.38 146.36,-11.56 186.67,62.11 194.92,166.57 3.08,38.9 1.07,82.46 -0.96,127.16 -1.3,28.55 -2.63,57.7 -2.63,85.09l0 990.54c0.11,96.57 -1.39,209 -2.83,322.23 -2.77,214.91 -5.63,433.44 2.26,639.65 207.33,10.15 1348.98,5.6 2106.85,2.6 284.97,-1.1 515.82,-2.06 622.57,-1.89l24.6 0.06c75.65,0.2 114.81,0.31 143.61,-8.96 16.45,-5.29 31.55,-14.53 50.6,-29.6 -958.17,-0.65 -1940.87,21.66 -2895.93,-3.79l-1.92 -25.39c-7.46,-99.48 -3.48,-509.01 -0.42,-822.58 1.33,-137.79 2.49,-257.12 2.43,-322.93l-1.19 -134.28c-3.25,-308.32 -10.23,-968.85 22.62,-1025.54l3 -5.15 4.49 -3.36c57.53,-42.89 416.96,-33.67 620.68,-28.44 47.86,1.22 86.71,2.23 114.1,2.23l5082.3 -1.72c22.02,-0.03 41.81,-0.88 58.75,-1.58 64.09,-2.66 94.79,-3.96 129,36.58zm-31.32 1600.78c3.99,-640.35 9.56,-1539.04 -11.76,-1564.31 -16.48,-19.53 -38.28,-18.63 -83.71,-16.74 -16.88,0.68 -36.61,1.53 -60.95,1.58l-5082.3 1.84c-20.04,0.11 -62.68,-0.99 -115.4,-2.35 -189.95,-4.86 -520.12,-13.37 -580.22,14.36 -22.62,76.13 -16.09,696.92 -12.95,991.36l1.19 134.74c0.08,66.18 -1.1,185.57 -2.43,323.38 -2.8,289.88 -6.45,662.18 -0.99,792.59l18.04 0.51 2975.26 2.01 -57.13 50.35c-57.78,51.2 -85.83,76.02 -126.57,89.11 -37.12,11.96 -79.3,11.85 -160.86,11.62l-24.6 -0.06c-106.55,-0.14 -337.41,0.79 -622.34,1.89 -797.73,3.17 -2019.89,8.06 -2137.18,-4.49l-24.14 -2.57 -1.05 -24.37c-9.16,-214.23 -6.19,-442.97 -3.28,-667.8 1.33,-104.49 2.71,-208.07 2.71,-321.55l0.11 -990.54c-0.03,-29.74 1.33,-58.94 2.63,-87.53 1.95,-42.49 3.84,-83.91 0.96,-120.32 -5.68,-71.92 -33.44,-122.64 -134.2,-114.66 -162.55,12.83 -348.29,68.24 -512.51,155.77 -147.91,78.85 -278.15,183.64 -357.48,306.51 -4.83,7.41 -8.85,14.3 -12.35,20.33 -3.34,5.82 -6.28,10.86 -10.6,17.3l-9.78 15.27c-2.09,3.45 -3.28,5.43 -5.63,8.23 -2.66,3.17 -4.72,4.92 -9.19,8.71l-15.12 13.09 -7.92 1.27c-51.48,8.4 -102.71,10.49 -152.26,12.52 -105.99,4.3 -204.23,8.34 -267.52,77.23 -23.21,25.25 -58.43,102.4 -85.89,183.53 -20.3,60.13 -35.93,121.36 -38.62,163.63 16.74,1.92 32.6,1.64 50.32,1.33l21.68 -0.25c99.51,-0.31 131.4,7.97 131.66,78.82 0.06,25.33 -6.25,59.14 -15.27,107.6 -8.42,45.23 -19.39,103.89 -29.63,179.97 -5.99,44.36 -10.09,95.38 -14.19,146.75 -5.54,69.35 -11.2,139.51 -22.59,201.85l-2.83 15.46 -210.73 82.78 3.42 450.01 132.64 3.68 -5.97 313.41 -130.67 31.55c3.76,67.28 22.02,133.41 56.17,182.2 30.5,43.62 74.29,73.28 132.33,76.33 85.57,4.49 175.73,3.25 265.63,2.04 69.18,-0.93 138.3,-1.89 205.02,-0.28l-2.83 -28.44c-10.97,-104.35 -29.15,-276.88 102.17,-419.02 25.87,-28.02 53.04,-52.84 81.11,-74.52 110.99,-85.8 234.98,-121.45 352.73,-115.8 118.09,5.68 229.87,52.89 316.15,132.59 20.35,18.8 39.44,39.61 56.82,62.11 55.66,72 86.25,139.57 98.78,215.7 10.83,65.59 8,136.83 -3.65,222.69 13.63,-2.88 23.32,-7.35 29.71,-13.94 10.97,-11.28 15.66,-32.14 17.1,-64.85 0.79,-14.33 6.95,-36.78 9.98,-51.76l22.87 -0.31c483.45,-6.45 982.71,-4.44 1478.37,-2.46 224.64,0.88 447.1,1.78 712.27,1.78l538.92 2.15 2.43 0.51c36.38,7.89 49.5,21.82 60.39,33.33 4.78,5.03 8.34,8.79 38.98,2.06 13.99,-39.18 18.49,-74.44 22.87,-108.87 9.05,-71.02 17.75,-139.03 94.39,-230.52 35.65,-42.55 74.55,-81.87 122.16,-114.04 47.15,-31.89 102.59,-56.6 171.32,-70.14l41.3 -19.79 9.27 1.95c33.81,7.15 63.44,7.63 92.56,8.11 52.41,0.82 103.67,1.67 174.65,34.6 74.97,34.77 142.09,83.85 194.9,146.16 49.39,58.32 86.37,128.35 105.7,209.29 9.56,39.61 10.54,84.56 11.51,129 0.9,43.71 1.89,87.07 11.56,120.69 11.03,1.89 20.95,2.49 29.2,1.36 5.74,-0.79 10.43,-2.43 13.57,-5 2.71,-2.23 4.89,-5.97 6.25,-11.39 1.98,-7.94 2.21,-18.57 0.34,-32.23l-0.51 -3.48 8.4 -75.88 31.83 8.65c53.2,14.45 67.65,14.39 70.31,4.78 2.32,-9.05 3.25,-22.84 4.33,-39.58 2.12,-32.51 4.92,-75.14 20.41,-127.56 45.77,-154.67 150.62,-259.86 276.29,-315.27 82.66,-36.44 174.4,-51.31 264.07,-44.5 89.84,6.78 178.02,35.39 253.42,85.77 110.54,73.84 193.45,194.16 213.92,360.76 2.97,24.11 2.54,55.16 2.15,85.77 -0.42,33.44 -0.85,66.58 3.56,85.77 1.58,6.98 5.74,14.33 11.48,20.24 3.82,4.07 8.37,7.29 13.23,9.13 3.82,1.44 7.92,1.92 11.85,1.05 4.35,-0.99 9.27,-3.82 14.47,-8.82 18.12,-17.5 10.15,-99.79 3.17,-172.11 -4.38,-45.35 -8.45,-87.36 -5.29,-114.44l2.29 -19.48 19.03 -4.72c82.89,-20.55 285.81,-16.45 432.88,-13.46 43.39,0.85 81.96,1.67 110.23,1.67 41.61,0.03 72.34,0.62 95.58,1.02 34.32,0.62 51.48,0.93 60.95,-1.1 5.12,-1.1 9.53,-4.98 18.21,-12.64 8.93,-7.92 20.86,-18.46 37.85,-31.15 39.35,-29.43 95.24,-45.46 147.23,-60.33l32.43 -9.47 -5.54 -84.44c-116.64,-14.05 -698.28,-8 -918.96,-5.74l-53.63 0.54c-127.87,1.19 -144.21,-12.58 -182.99,-45.35 -14.93,-12.61 -34.04,-28.78 -68.95,-48.31l-44.7 -24.96c16.74,-9.1 48.63,-29.43 65.73,-35.28 41.81,-14.25 583.95,-10.12 809.97,-8.42l246.26 0.65 26.32 0.76c32.57,1.27 70.82,2.83 91.31,-9.33l3.17 -1.87 3.56 -1.02c21.63,-6.05 20.58,-28.24 19.08,-58.8l-1.02 -29.29c-1.13,-102.93 0.2,-318.64 1.78,-575.41zm-1924.22 1257.27c-14.79,-190.85 81.53,-320.61 212.96,-384.31 52.41,-25.42 110.51,-40.14 169.11,-43.9 58.55,-3.73 118.06,3.53 173.41,22.02 139.01,46.45 251.8,163.18 261.61,354.6 9.84,191.7 -86.42,322.2 -216.13,386.2 -51.76,25.53 -108.95,40.37 -166.68,44.07 -57.7,3.73 -116.22,-3.59 -170.78,-22.25 -136.66,-46.82 -248.61,-164.02 -263.51,-356.43zm237.5 -333.53c-111.92,54.25 -193.91,165.35 -181.18,329.35 12.89,166.29 108.59,267.21 225.29,307.19 47.52,16.26 98.64,22.62 149.13,19.37 50.41,-3.22 100.27,-16.14 145.31,-38.36 110.96,-54.73 193.26,-167.08 184.75,-332.71 -8.42,-164.39 -104.63,-264.44 -223.17,-304.05 -48.26,-16.11 -100.39,-22.45 -151.98,-19.14 -51.51,3.28 -102.4,16.2 -148.14,38.36zm-928.54 -87.92c161.4,40.31 257.8,158.85 289.83,292.85 14.16,59.23 15.66,121.59 4.61,181.44 -11.14,60.13 -34.97,117.94 -71.35,167.76 -80.03,109.43 -220.06,180.53 -418.57,154.64l-7.97 -1.02 -23.49 -19.2c-40.31,-2.26 -79.72,-20.81 -114.64,-46.08 -50.29,-36.41 -92.42,-87.75 -113.08,-122.07 -61.66,-102.59 -73.39,-211.63 -48.99,-309.28 13.17,-52.7 37.01,-102.23 69.18,-145.51 32.2,-43.28 72.8,-80.46 119.41,-108.53 88.15,-52.98 198.09,-74.24 315.07,-45.01zm235.04 305.86c-27.45,-114.86 -110.2,-216.47 -248.72,-251.07 -101.43,-25.36 -196.39,-7.1 -272.24,38.5 -40.4,24.4 -75.54,56.54 -103.27,93.83 -27.73,37.32 -48.29,80.06 -59.68,125.61 -20.98,83.93 -10.77,177.88 42.49,266.45 17.87,29.54 54.31,73.9 97.93,105.48 29.26,21.17 61.26,36.24 91.37,35.73l10.26 -0.17 26.49 21.57c170.72,20.02 290.17,-40.45 357.9,-133.1 31.32,-42.89 51.88,-92.73 61.46,-144.57 9.67,-52.24 8.34,-106.64 -3.99,-158.26zm-3877.99 179.8c-46.79,192.07 -181.38,289.66 -327.91,311.09 -56.46,8.25 -114.83,5.06 -170.47,-8.54 -55.78,-13.63 -108.98,-37.66 -154.98,-70.96 -118.23,-85.52 -190.54,-231.56 -143.73,-419.76 47.35,-190.26 178.89,-285.19 322.82,-305.55 56.06,-7.92 113.99,-4.38 169.31,9.36 55.35,13.74 108.39,37.8 154.58,70.73 120.04,85.55 194.92,230.77 150.37,413.62zm-336.11 255.22c125.49,-18.35 240.89,-102.54 281.32,-268.46 38.22,-156.9 -25.67,-281.29 -128.26,-354.43 -40.4,-28.81 -86.85,-49.87 -135.36,-61.91 -48.54,-12.07 -99.23,-15.18 -148.11,-8.28 -122.61,17.33 -234.95,99.06 -275.78,263.14 -40.37,162.24 21.17,287.59 122.07,360.56 40.17,29.09 86.56,50.07 135.08,61.91 48.65,11.87 99.68,14.67 149.04,7.46z"/>
 </g>
</svg>
