<?xml version="1.0" encoding="UTF-8"?>
<!DOCTYPE svg PUBLIC "-//W3C//DTD SVG 1.1//EN" "http://www.w3.org/Graphics/SVG/1.1/DTD/svg11.dtd">
<!-- Creator: CorelDRAW 2020 (64-Bit) -->
<svg xmlns="http://www.w3.org/2000/svg" xml:space="preserve" width="143.172mm" height="34.4346mm" version="1.1" style="shape-rendering:geometricPrecision; text-rendering:geometricPrecision; image-rendering:optimizeQuality; fill-rule:evenodd; clip-rule:evenodd"
viewBox="0 0 12995.59 3125.61"
 xmlns:xlink="http://www.w3.org/1999/xlink"
 xmlns:xodm="http://www.corel.com/coreldraw/odm/2003">
 <defs>
  <style type="text/css">
   <![CDATA[
    .str0 {stroke:#2B2A29;stroke-width:18.15;stroke-miterlimit:22.9256}
    .fil16 {fill:none}
    .fil15 {fill:#E31E24}
    .fil12 {fill:#0F0B0E}
    .fil7 {fill:#120D0E}
    .fil4 {fill:#120D11}
    .fil9 {fill:#120F10}
    .fil14 {fill:#130C0C}
    .fil10 {fill:#150E11}
    .fil8 {fill:#151112}
    .fil11 {fill:#161215}
    .fil1 {fill:#191616}
    .fil2 {fill:#1A1519}
    .fil5 {fill:#332D2F}
    .fil13 {fill:#342D2D}
    .fil6 {fill:#342E2F}
    .fil0 {fill:#352F31}
    .fil3 {fill:#FEFEFE}
   ]]>
  </style>
 </defs>
 <g id="Слой_x0020_1">
  <metadata id="CorelCorpID_0Corel-Layer"/>
  <path class="fil0" d="M5807.7 2239.22c-16.58,27.53 0.98,3.51 -17.92,21.98 -92.97,90.84 -144.62,75.81 -273.4,76.49 -55.55,0.33 -129.46,9.94 -172.34,-15 -11.82,-6.89 -89.32,-66.25 -99.53,-81.69l563.19 -1.77zm-5447.23 -507.09c-73.41,-84.52 -11.57,-470.25 16.04,-592.82 14.84,-65.82 36.3,-72.22 105.33,-74.56 114.91,-3.89 425.84,-10.78 504.89,19.12 28.02,98.98 7.38,211.42 2.4,310.46 -4.9,96.86 17.92,242 -61.35,269.88 -51.38,18.05 -503.5,75.46 -567.3,67.91zm1493.04 509.82l2794.73 1.88c-108.38,96.15 -102.55,91.55 -283.72,91.28 -390.22,-0.6 -2503.28,13.86 -2655.2,-2.4 -39.87,-9.12 -20.78,14.24 -31.78,-42.53l-1.58 -1990.03c3.02,-108.11 10.73,-184.41 -109.96,-179.21 -327.37,14.13 -673.15,223.02 -801.73,379.65 -41.99,51.11 -71.34,131.72 -143.67,146.01 -238.38,47.16 -398.63,-95.83 -488.33,414.51 72.95,5.15 123.71,6.37 185.44,24.81 16.88,93.4 -41.36,340.79 -52.72,462.6 -6.18,66.44 -3.4,187.18 -46.37,223.54 -42.29,35.78 -135.34,46.54 -177.93,84.36 -5.2,69.63 -14.13,368.05 6.24,407.78 25.13,20.12 20.23,13.15 47.68,21.16 43.9,12.77 19.52,-9.91 50.35,18.79 38.2,42.53 30.83,152.44 25.95,215.31 -7.65,98.63 -56.53,63.48 -129.4,114.37 -6.89,89.21 62.77,223.59 187.87,227.87 103.37,3.51 332.3,11 422.43,-1.44 1.31,-3.29 2.53,-11.71 2.89,-10.21l5.91 -43.24c4.08,-130.87 -20.37,-230.62 107.43,-371.56 74.56,-82.21 199.33,-178.72 371.07,-183.78 220.13,-6.45 418.78,133.89 487.38,333.66 34.04,99.09 18.3,151.29 22,253.82 27.29,-14.84 0.95,-0.14 21.73,-19.01 2.42,-2.21 10.1,-9.83 12.91,-12.23 23.34,-19.85 -14.24,1.42 25.41,-19.33l4.85 -24.21c1.77,-43.51 56.34,-32.05 151.59,-32.24l2246.13 0.14c327.61,-0.87 228.66,36.65 323.07,38.53 55.88,-154.4 6.97,-220.05 174.88,-387.36 16.88,-16.83 45.39,-33.98 67.29,-48.99 22.87,-15.71 89.94,-55.28 118.05,-56.37 72.19,-2.75 23.47,-10.29 50,16.88l34.64 -16.61c-36.76,-20.29 -48.06,-10.78 12.69,-25 69,-16.12 154.48,7.98 217.41,27.34 146.83,45.12 261.14,172.34 310.59,312.01 29.11,82.29 10.05,200.2 39.08,271.38 60.26,-0.98 42.48,-6.21 44.74,-72.03 19.44,71.59 -3.76,2.67 24.73,34.56l4.22 -38.2c-9.37,-13.02 20.53,-20.31 -13.37,-11.74 61.02,-9.61 75.18,12.58 87.76,-50.16 8.58,-42.75 3.49,-66.36 19.33,-120.61 24.13,-82.56 55.69,-122.16 102.96,-173.71 257.14,-280.26 598.07,-197.94 757.1,-7.05 109,130.87 109.22,224.93 122.57,431.8 28.29,11.36 23.42,14.62 53.02,11.76 17.32,-70.69 -25.79,-194.95 0.05,-276.58 91.88,-52.53 405.11,-28.65 536.2,-28.4 159.87,0.3 107.45,12.69 221.85,-53.84 77.47,-45.07 156.06,-20.53 146.67,-128.75 -56.34,-15.09 -532.69,-7.08 -633.47,-6.97 -130.54,0.16 -379.92,27.5 -454.26,-33.52 -95.34,-78.23 -70.15,-45.64 -74.64,-85.75l15.79 -8.58c43.3,-14.76 782.4,-6.13 858.67,-6.15 49.94,0 99.88,-0.33 149.8,0.05 38.5,0.27 94.25,7.65 127.36,-11.98 -75.65,-19.91 -985.21,-7.98 -1144.13,-7.98 86.38,-23.8 443.97,-11.74 567.49,-11.16 119.24,0.54 480.24,14.05 571.44,-11.9 29.71,-101.49 8.71,-907.03 8.71,-1080.57 0,-152.36 23.45,-996.73 -16.31,-1057.59 -38.78,-33.85 -3713.44,-7.6 -4272.82,-7.6 -218.36,0 -1294.93,-14.38 -1418.18,7.54l-6.37 2147.4c157.78,25.05 530.78,5.53 710.4,4.85 622.14,-2.34 1540.88,-23.15 2105.65,9.04l-2808.23 21.89z"/>
  <path class="fil0" d="M10862.56 2317.75c37.99,19.28 -54.98,52.66 -70.2,55.77 -55.63,11.33 -252.29,10.62 -304.3,-10.89 -20.56,-8.52 -79.11,-49.15 -67.45,-67.07 -19.82,-43.95 -5.83,-18.6 2.7,-31.37l483.07 0.6 -38.15 45.67c-1.28,1.61 -3.92,4.77 -5.66,7.3zm-1124.03 -55.01c-0.6,25.79 5.77,6.59 -4.71,32.49 15.9,28.65 -59.77,69.28 -93.97,75.89 -66.66,12.88 -139.61,5.91 -207.14,4.77 -335.95,-5.69 -718.51,8.01 -1036.95,-0.76 -83.84,-2.31 -130.08,-22.08 -111.4,82.65 41.39,19.93 98.33,30.85 142.25,52.45 44.9,22.06 86.78,62.71 123.17,72.49 62.09,16.69 314.52,3.57 399.18,5.53 180.13,4.14 181,-5.75 317.29,72.43 74.64,42.83 202.79,112.03 289.65,105.6 47.46,-78.75 11.38,-215.37 174.03,-364.48 172.43,-158.05 372.74,-207.58 591.05,-80.93 286.71,166.33 237.29,401.85 268.39,548.7 74.12,-15.82 15.9,-26.25 67.07,-70.66l31.75 -5.15c-16.34,-15.6 25.87,-35.29 -30.69,-15.88l71.18 -10.54c45.69,-206.63 38.48,-239.03 158.1,-372.71 117.2,-130.95 370.04,-199.63 592.49,-80 216.38,116.36 250.99,295.78 259.02,546.52 67.83,4.08 48.58,-32.76 61.43,-65.68 14.98,-38.4 -22.82,-40.33 13.62,-11.3l21.43 -30.93c-24.67,1.23 -16.56,32.05 -9.2,-6.32 5.47,-28.65 170.11,-101.87 196.25,-115.98 165.7,-89.37 530.97,-10.51 668,-45.86 38.23,-9.86 70.09,-46.59 113.06,-71.24 26.39,-15.14 116.93,-29.16 135.91,-48.63 2.21,-2.26 51.47,-86.46 -37.66,-92.83l-1084.06 2.31c-26.14,0.6 -112.68,5.17 -136.24,-6.81 -32.08,-16.31 -15.71,12.83 -24.56,-27.75 -3.16,-2.7 -69.66,-56.4 -88.45,-70.04 112.57,-23.31 1034.09,-0.3 1309.69,-4.36l70.28 -13.67 -1372.32 -9.04c221.71,-47.11 1271.43,20.86 1359.34,-23.04 40.74,-66.06 15.41,-928.24 15.41,-1080.6 0,-156.22 18.82,-1002.12 -11.65,-1080.57 -86.27,-33.33 -2047.38,-10.78 -2319.44,-11.71 -262.18,-0.87 -2228.79,-15.66 -2315.76,11.65 -11.79,98.33 -0.46,1730.98 -3.1,2058.3 -0.54,67.42 -5.53,79.98 19.85,100.18 71.64,51.71 1211.15,-26.69 1423.6,25.52 -0.38,0.46 1.28,1.12 1.25,1.25l-6.43 18.73z"/>
  <path class="fil1" d="M1853.51 2241.94l2808.23 -21.89c-564.77,-32.19 -1483.51,-11.38 -2105.65,-9.04 -179.61,0.68 -552.62,20.21 -710.4,-4.85l6.37 -2147.4c123.25,-21.92 1199.82,-7.54 1418.18,-7.54 559.38,0 4234.04,-26.25 4272.82,7.6 39.76,60.86 16.31,905.23 16.31,1057.59 0,173.54 20.99,979.08 -8.71,1080.57 -91.2,25.95 -452.2,12.44 -571.44,11.9 -123.52,-0.57 -481.11,-12.64 -567.49,11.16 158.92,0 1068.48,-11.93 1144.13,7.98 50.24,-14.08 37.8,-55.31 37.17,-111.24 -3.87,-347.76 21.76,-2033.65 -15.98,-2078.39 -32,-37.91 -65.33,-24.37 -160.09,-24.15l-4895.42 1.77c-113.85,0 -631.43,-24.97 -691.47,19.82 -33.6,57.97 -17.18,957.19 -17.02,1103.56 0.25,207.93 -12.31,963.62 -1.93,1101.38l42.4 1.17z"/>
  <path class="fil2" d="M9738.52 2262.75l6.43 -18.73c0.03,-0.14 -1.63,-0.79 -1.25,-1.25 -212.45,-52.2 -1351.96,26.2 -1423.6,-25.52 -25.38,-20.21 -20.4,-32.76 -19.85,-100.18 2.64,-327.31 -8.69,-1959.97 3.1,-2058.3 86.98,-27.31 2053.59,-12.53 2315.76,-11.65 272.06,0.93 2233.17,-21.62 2319.44,11.71 30.47,78.45 11.65,924.35 11.65,1080.57 0,152.36 25.32,1014.54 -15.41,1080.6 -87.9,43.9 -1137.62,-24.07 -1359.34,23.04l1372.32 9.04c59.44,-25.27 32.76,-186.45 32.76,-250.5 -0.05,-299.65 13.26,-1933.44 -11.46,-1965.74 -49.45,-40.76 -205.21,-21.54 -276.61,-21.51l-4296.72 -0.25c-76.03,-0.6 -87.79,-7.13 -114.21,24.24 -32.76,38.94 -17.21,1426.27 -17.21,1664.38 0,93.05 -26.25,490.02 18.11,536.77 24.45,32.7 24.86,24.83 78.1,24.7 421.53,-1.03 994.17,-13.72 1377.99,-1.42z"/>
  <path class="fil3" d="M364.28 1705.79c28.65,10.78 473.38,-48.55 542.85,-64.07 67.53,-15.11 47.14,-108.24 52.04,-261.25 2.45,-76.36 18.71,-214.74 2.37,-287.23l-538.05 0.84c-37.88,101.38 -100.51,514.8 -59.2,611.71z"/>
  <path class="fil4" d="M1708.53 2788.35c-39.65,20.75 -2.07,-0.52 -25.41,19.33 -2.8,2.4 -10.48,10.02 -12.91,12.23 -20.78,18.87 5.56,4.17 -21.73,19.01 -3.7,-102.52 12.04,-154.73 -22,-253.82 -68.59,-199.77 -267.24,-340.11 -487.38,-333.66 -171.74,5.06 -296.52,101.57 -371.07,183.78 -127.79,140.95 -103.34,240.69 -107.43,371.56l-5.91 43.24c-0.35,-1.5 -1.58,6.92 -2.89,10.21 -90.13,12.44 -319.06,4.96 -422.43,1.44 -125.1,-4.28 -194.75,-138.66 -187.87,-227.87 72.87,-50.89 121.75,-15.74 129.4,-114.37 4.87,-62.88 12.25,-172.78 -25.95,-215.31 -30.83,-28.7 -6.45,-6.02 -50.35,-18.79 -27.45,-8.01 -22.55,-1.03 -47.68,-21.16 -20.37,-39.73 -11.44,-338.15 -6.24,-407.78 42.59,-37.82 135.64,-48.58 177.93,-84.36 42.97,-36.35 40.19,-157.09 46.37,-223.54 11.36,-121.8 69.6,-369.2 52.72,-462.6 -61.73,-18.44 -112.49,-19.66 -185.44,-24.81 89.7,-510.33 249.95,-367.34 488.33,-414.51 72.33,-14.3 101.68,-94.9 143.67,-146.01 128.58,-156.63 474.36,-365.52 801.73,-379.65 120.69,-5.2 112.98,71.1 109.96,179.21l1.58 1990.03c11,56.78 -8.09,33.41 31.78,42.53 -13.1,-306.07 -0.44,-642.38 -0.44,-951.91 0,-318.03 0.22,-636.08 0,-954.11 -0.11,-167.77 48.23,-353.86 -155.05,-337.77 -305.01,24.15 -692.37,200.04 -858.75,457.72 -9.88,15.28 -15.41,26.36 -21.78,35.81 -18.63,27.53 -6.26,14.27 -27.69,33.17 -158.62,25.9 -321.6,-12.23 -419.98,94.84 -46.67,50.79 -133.87,283.64 -127.14,375.7 34.53,7.95 60.56,5.36 96.56,5.26 149.5,-0.49 97.43,20.1 56.67,322.17 -14.11,104.59 -16.72,233.45 -35.21,334.5l-206.27 81.04 3.62 478.34 127.06 3.51 -4.85 254.04 -126.92 30.66c1.2,143.02 66.36,289.87 207.99,297.36 155.32,8.2 327.01,-3.21 483.16,2.56 2.18,-74.1 -60.07,-281.13 87.25,-440.59 235.36,-254.77 569.97,-211.91 735.67,2.4 101.49,131.28 111.02,244.7 81.23,436.54 77.91,-3.62 100.7,-28.78 104.1,-105.57z"/>
  <path class="fil5" d="M10319.3 2806.25c-37.66,159.41 -265.28,295.29 -442.2,84.91 -143.37,-170.52 32.84,-445.88 266.56,-380.96 116.11,32.24 211.39,144.79 175.64,296.05zm-323.83 -384.36c-418.67,99.42 -280.97,775.81 164.64,651.5 39.97,-11.14 82.24,-30.09 111.43,-51.06 14.3,-10.27 74.67,-72.16 85.56,-86.16 145.6,-187.32 -2.12,-599.68 -361.63,-514.28z"/>
  <path class="fil5" d="M5119.96 2900.33c-27.99,11.9 -17.26,3.79 -28.13,27.48 18.95,14.3 33.71,-10.35 -10.43,28.7 -34.5,30.53 -103.12,48.33 -153.09,43.87 -64.65,-5.75 -141.71,-57.08 -166.6,-84.72 -87.38,-97.16 -92.23,-252.76 12.74,-356.26 90.73,-89.53 234.08,-85.42 349.89,17.45 151.35,134.49 15.36,379.87 -4.38,323.47zm-280.1 188.52l23.88 19.47c2.75,-3.02 6.94,-5.28 10.16,-6.86 69.79,-34.26 55.77,4.3 143.34,-23.28 416.06,-130.95 296.3,-604.85 2.07,-656.62 -409.28,-71.97 -550.74,448.79 -244.12,617.46 74.34,40.9 138.74,25.98 64.67,49.83z"/>
  <path class="fil6" d="M11158.72 2514.39c148.65,-56.42 292.13,49.64 320.37,160.14 36.41,142.5 -55.47,273.64 -151.87,310.98 -284.32,110.09 -510.74,-341.28 -168.5,-471.12zm-251.53 291.86c68.95,429.97 727.83,329.25 664.65,-111.81 -61.43,-428.97 -737.74,-343.79 -664.65,111.81z"/>
  <path class="fil5" d="M1107.22 2503.11c300.93,-79.19 420.42,415.24 111.89,489.77 -144.38,34.86 -286.96,-74.48 -308.55,-189.09 -32.16,-170.46 73.28,-268.2 196.66,-300.68zm-284.32 280.15c33.74,413.96 677.91,408.19 667.13,-55.96 -9.94,-427.2 -705.82,-418.67 -667.13,55.96z"/>
  <path class="fil6" d="M6348.67 2817.74c-133,340.58 -560.46,156.9 -482.91,-143.7 27.04,-104.81 162.7,-201.97 307.27,-167.42 106.8,25.54 231.9,167.01 175.64,311.11zm-322.79 -391.63c-428.45,107.02 -264.79,761.51 161.34,646.32 439.21,-118.7 264.77,-752.74 -161.34,-646.32z"/>
  <path class="fil3" d="M10288.45 2817.74c45.26,-129.51 -43.08,-249.87 -137.19,-280.56 -134.14,-43.73 -253.82,41.77 -285.57,138.36 -91.14,277.48 324.4,423.82 422.76,142.2z"/>
  <path class="fil3" d="M1369.95 2806.25c37.47,-129.05 -57.16,-245.27 -154.43,-271.49 -142.74,-38.48 -245.76,54.6 -275.36,152.76 -84.61,280.4 347.19,403.15 429.78,118.73z"/>
  <path class="fil3" d="M11178.49 2534.75c-101.03,27.01 -194.1,142.74 -153.04,278.98 29.08,96.37 143.23,186.89 278.14,146.34 274.84,-82.59 159.16,-501.37 -125.1,-425.32z"/>
  <path class="fil3" d="M5887.19 2783.26c16.61,109.77 117.64,200.99 250.71,185.06 112.93,-13.53 207.66,-120.66 189.88,-254.42 -35.62,-267.82 -485.83,-229.58 -440.59,69.36z"/>
  <path class="fil3" d="M5091.83 2927.8c10.87,-23.69 0.14,-15.58 28.13,-27.48 4.44,-19.63 116.63,-179.4 -11.41,-307.82 -72.84,-73.06 -225.2,-84.22 -312.15,-10.4 -79.46,67.45 -90.84,227.05 -15.17,314 120.33,138.22 271.98,42.02 310.59,31.7z"/>
  <path class="fil7" d="M9733.81 2295.23c-62,10.78 -22.08,47.68 -139.12,47.71 -197.15,0.08 -1257.52,-10.02 -1339.84,3.89l3.32 148.76c64.16,14.98 99.75,7.41 165.7,41.53 50.54,26.14 77.04,71.7 124.44,78.59 91.22,13.23 295.73,0.52 400.59,2.15 214.36,3.35 170.6,-3.57 328.73,79.02 34.56,18.05 101.57,63.23 135.85,71.67 44.55,11 44.85,-0.98 88.12,15.63 146.39,56.2 73.63,-43.41 134.06,-200.58 24.34,-63.37 73.9,-134.3 108.05,-168.2 204.45,-203.01 570.87,-185.69 745.28,106.77 132.21,221.71 -29.35,416.3 157.23,377.61 20.94,-47.46 14.79,-42.07 10.18,-100.89 -51.17,44.41 7.05,54.84 -67.07,70.66 -31.1,-146.86 18.33,-382.38 -268.39,-548.7 -218.31,-126.65 -418.62,-77.12 -591.05,80.93 -162.65,149.12 -126.57,285.73 -174.03,364.48 -86.87,6.43 -215.01,-62.77 -289.65,-105.6 -136.29,-78.18 -137.16,-68.29 -317.29,-72.43 -84.66,-1.96 -337.09,11.16 -399.18,-5.53 -36.38,-9.78 -78.26,-50.43 -123.17,-72.49 -43.92,-21.59 -100.86,-32.51 -142.25,-52.45 -18.68,-104.73 27.56,-84.96 111.4,-82.65 318.44,8.77 701,-4.93 1036.95,0.76 67.53,1.14 140.48,8.11 207.14,-4.77 34.2,-6.62 109.88,-47.25 93.97,-75.89z"/>
  <path class="fil8" d="M5532.48 2788.19c148.41,40.36 81.01,-27.26 124.74,-175.01 136.83,-462.41 854.01,-437.35 917.57,79.21 5.99,48.66 -3.02,128.69 6.02,168.01 8.22,35.73 54.13,73.33 94.46,34.31 41.91,-40.52 -1.61,-226.48 6.15,-292.51 99.45,-24.67 395.53,-10.7 516.65,-10.62 205.46,0.14 138.69,14.02 221.06,-47.57 47.05,-35.18 127.14,-49.78 185.28,-69.63l-8.09 -123.27c-58.79,-20.75 -801.38,-11.11 -962.8,-9.61 -166.73,1.58 -116.77,-23.85 -229.28,-86.81 4.49,40.11 -20.7,7.52 74.64,85.75 74.34,61.02 323.72,33.68 454.26,33.52 100.78,-0.11 577.13,-8.11 633.47,6.97 9.39,108.22 -69.19,83.68 -146.67,128.75 -114.4,66.52 -61.98,54.13 -221.85,53.84 -131.09,-0.25 -444.33,-24.13 -536.2,28.4 -25.84,81.64 17.26,205.89 -0.05,276.58 -29.6,2.86 -24.73,-0.41 -53.02,-11.76 -13.34,-206.87 -13.56,-300.93 -122.57,-431.8 -159.03,-190.89 -499.96,-273.21 -757.1,7.05 -47.27,51.55 -78.83,91.14 -102.96,173.71 -15.85,54.24 -10.76,77.85 -19.33,120.61 -12.58,62.74 -26.74,40.55 -87.76,50.16 33.9,-8.58 4,-1.28 13.37,11.74z"/>
  <path class="fil7" d="M1713.38 2764.15c690.17,-9.2 1413.42,-0.54 2109.76,-0.54l515.7 1.93c67.02,14.54 25.43,55.01 121.75,30.61 49.59,-122.21 3.16,-200.88 113.53,-332.57 65.82,-78.51 142.85,-144.57 270.27,-168.83 -26.52,-27.18 22.19,-19.63 -50,-16.88 -28.1,1.09 -95.17,40.66 -118.05,56.37 -21.89,15 -50.4,32.16 -67.29,48.99 -167.91,167.31 -119,232.96 -174.88,387.36 -94.41,-1.88 4.55,-39.4 -323.07,-38.53l-2246.13 -0.14c-95.25,0.19 -149.82,-11.27 -151.59,32.24z"/>
  <path class="fil7" d="M11834.75 2753.23c69.41,-10.16 168.67,-88.31 236.58,-118.35 63.53,-28.07 249.6,-16.75 333.17,-17.51 479.26,-4.33 221.55,4.25 424.01,-88.91 113.69,-52.31 171.28,34.64 148.05,-178.72 -90.62,-29.49 -1086.92,9.26 -1320.31,-9.61 8.85,40.57 -7.52,11.44 24.56,27.75 23.55,11.98 110.09,7.41 136.24,6.81l1084.06 -2.31c89.13,6.37 39.87,90.57 37.66,92.83 -18.98,19.47 -109.52,33.49 -135.91,48.63 -42.97,24.64 -74.83,61.38 -113.06,71.24 -137.03,35.35 -502.3,-43.51 -668,45.86 -26.14,14.11 -190.78,87.33 -196.25,115.98 -7.35,38.37 -15.47,7.54 9.2,6.32z"/>
  <path class="fil8" d="M6025.87 2426.1c426.11,-106.42 600.55,527.62 161.34,646.32 -426.14,115.19 -589.79,-539.31 -161.34,-646.32zm-284.59 345.67c37.61,485.04 757.59,436.1 732.81,-46.29 -24.64,-480.24 -770.06,-434.03 -732.81,46.29z"/>
  <path class="fil8" d="M822.91 2783.26c-38.69,-474.63 657.19,-483.16 667.13,-55.96 10.78,464.15 -633.39,469.92 -667.13,55.96zm690.25 45.99c110.34,-452.77 -596.08,-646.3 -715,-168.4 -117.56,472.4 598.67,645.62 715,168.4z"/>
  <path class="fil8" d="M364.28 1705.79c-41.31,-96.91 21.32,-510.33 59.2,-611.71l538.05 -0.84c16.34,72.49 0.08,210.88 -2.37,287.23 -4.9,153.01 15.49,246.14 -52.04,261.25 -69.47,15.52 -514.2,74.86 -542.85,64.07zm-3.81 26.33c63.8,7.54 515.92,-49.86 567.3,-67.91 79.27,-27.88 56.45,-173.02 61.35,-269.88 4.98,-99.04 25.62,-211.47 -2.4,-310.46 -79.05,-29.9 -389.97,-23.01 -504.89,-19.12 -69.03,2.34 -90.49,8.74 -105.33,74.56 -27.61,122.57 -89.45,508.29 -16.04,592.82z"/>
  <path class="fil9" d="M10907.19 2806.25c-73.09,-455.6 603.22,-540.78 664.65,-111.81 63.18,441.06 -595.7,541.78 -664.65,111.81zm691.15 11.49c43.22,-217.9 -109.52,-395.77 -284.97,-428.42 -491.73,-91.55 -613.97,627.72 -144.49,719.11 225.23,43.81 393.95,-111.78 429.46,-290.69z"/>
  <path class="fil10" d="M9995.47 2421.88c359.5,-85.4 507.23,326.96 361.63,514.28 -10.89,14 -71.26,75.89 -85.56,86.16 -29.19,20.97 -71.45,39.92 -111.43,51.06 -445.61,124.31 -583.31,-552.08 -164.64,-651.5zm445.5 384.36c34.58,-213.22 -122.81,-392.04 -298.67,-418.27 -487.05,-72.6 -602.51,630.72 -127.85,721.94 221.66,42.59 397.46,-124.5 426.52,-303.68z"/>
  <path class="fil9" d="M4839.86 3088.85c74.07,-23.85 9.67,-8.93 -64.67,-49.83 -306.62,-168.67 -165.15,-689.43 244.12,-617.46 294.23,51.77 413.99,525.66 -2.07,656.62 -87.57,27.58 -73.55,-10.97 -143.34,23.28 -3.21,1.58 -7.41,3.84 -10.16,6.86 527.49,68.79 592.9,-610.46 178.2,-714.1 -320.4,-80.09 -579.88,260.08 -408.08,545.52 31.81,52.86 120.36,150.59 206,149.12z"/>
  <path class="fil11" d="M10688.17 2793.75c93.29,58.36 78.32,-111.59 97.27,-177.6 118.97,-414.78 712.25,-455.9 888.02,-46.02 47.38,110.45 22.63,159.38 37.06,271.41 14.32,110.94 144.62,84.72 102.8,-57.38 -36.43,-29.03 1.36,-27.09 -13.62,11.3 -12.85,32.92 6.4,69.77 -61.43,65.68 -8.03,-250.74 -42.64,-430.17 -259.02,-546.52 -222.45,-119.63 -475.29,-50.95 -592.49,80 -119.63,133.68 -112.41,166.08 -158.1,372.71l-71.18 10.54c56.56,-19.42 14.35,0.27 30.69,15.88z"/>
  <path class="fil3" d="M5807.7 2239.22l-563.19 1.77c10.21,15.44 87.71,74.8 99.53,81.69 42.89,24.94 116.79,15.33 172.34,15 128.77,-0.68 180.43,14.35 273.4,-76.49 18.9,-18.46 1.33,5.56 17.92,-21.98z"/>
  <path class="fil11" d="M5887.19 2783.26c-45.23,-298.94 404.98,-337.17 440.59,-69.36 17.78,133.76 -76.95,240.88 -189.88,254.42 -133.08,15.93 -234.1,-75.29 -250.71,-185.06zm461.48 34.47c56.26,-144.11 -68.84,-285.57 -175.64,-311.11 -144.57,-34.56 -280.23,62.6 -307.27,167.42 -77.55,300.6 349.92,484.27 482.91,143.7z"/>
  <path class="fil11" d="M5091.83 2927.8c-38.61,10.32 -190.26,106.53 -310.59,-31.7 -75.67,-86.95 -64.29,-246.55 15.17,-314 86.95,-73.82 239.3,-62.66 312.15,10.4 128.04,128.42 15.85,288.18 11.41,307.82 19.74,56.4 155.73,-188.98 4.38,-323.47 -115.81,-102.88 -259.16,-106.99 -349.89,-17.45 -104.97,103.5 -100.13,259.1 -12.74,356.26 24.89,27.64 101.95,78.97 166.6,84.72 49.97,4.47 118.59,-13.34 153.09,-43.87 44.14,-39.05 29.38,-14.41 10.43,-28.7z"/>
  <path class="fil8" d="M11178.49 2534.75c284.26,-76.06 399.94,342.73 125.1,425.32 -134.9,40.55 -249.05,-49.97 -278.14,-146.34 -41.06,-136.24 52.01,-251.97 153.04,-278.98zm-19.77 -20.37c-342.24,129.84 -115.81,581.21 168.5,471.12 96.4,-37.33 188.27,-168.48 151.87,-310.98 -28.24,-110.5 -171.72,-216.57 -320.37,-160.14z"/>
  <path class="fil11" d="M1369.95 2806.25c-82.59,284.43 -514.39,161.67 -429.78,-118.73 29.6,-98.17 132.61,-191.24 275.36,-152.76 97.27,26.22 191.9,142.44 154.43,271.49zm-262.72 -303.13c-123.38,32.49 -228.82,130.22 -196.66,300.68 21.59,114.61 164.17,223.95 308.55,189.09 308.53,-74.53 189.04,-568.96 -111.89,-489.77z"/>
  <path class="fil12" d="M10288.45 2817.74c-98.36,281.62 -513.9,135.28 -422.76,-142.2 31.75,-96.59 151.43,-182.09 285.57,-138.36 94.11,30.69 182.45,151.05 137.19,280.56zm30.85 -11.49c35.75,-151.27 -59.53,-263.81 -175.64,-296.05 -233.72,-64.92 -409.93,210.44 -266.56,380.96 176.92,210.39 404.54,74.5 442.2,-84.91z"/>
  <path class="fil3" d="M10420.6 2295.56c59.66,13.48 31.53,35.97 85.75,46.89 14.65,2.94 280.23,10.18 320.51,-7.35 22.36,-9.72 -3.57,-6.48 35.7,-17.35 1.74,-2.53 4.38,-5.69 5.66,-7.3l38.15 -45.67 -483.07 -0.6c-8.52,12.77 -22.52,-12.58 -2.7,31.37z"/>
  <path class="fil8" d="M4879.02 2278.13c90.76,19.22 148.93,-8.41 251.64,39.21 132.72,61.6 238.13,171.55 274.54,323.97 19.12,80.06 0.03,188.38 27.94,257.6 58.93,14.79 105.71,3.84 95.12,-72.52 -28.48,-31.89 -5.28,37.03 -24.73,-34.56 -2.26,65.82 15.52,71.05 -44.74,72.03 -29.03,-71.18 -9.97,-189.09 -39.08,-271.38 -49.45,-139.67 -163.77,-266.89 -310.59,-312.01 -62.93,-19.36 -148.41,-43.46 -217.41,-27.34 -60.75,14.21 -49.45,4.71 -12.69,25z"/>
  <path class="fil12" d="M7774.61 2395.88l317.43 1.03c14.11,53.45 5.72,34.58 2.29,49.94 -0.63,2.72 -2.89,6.78 -3.54,8.99 -0.65,2.23 -2.53,6.05 -4.19,8.85l-304.74 5.58 -7.24 -74.39zm-35.84 99.53l387.71 -5.39 3.02 -124.06 -392.26 1.36 1.52 128.09z"/>
  <path class="fil13" d="M8094.33 2446.85c3.43,-15.36 11.82,3.51 -2.29,-49.94l-317.43 -1.03 7.24 74.39 304.74 -5.58c1.66,-2.8 3.54,-6.62 4.19,-8.85 0.65,-2.21 2.91,-6.26 3.54,-8.99z"/>
  <path class="fil14" d="M10862.56 2317.75c-39.27,10.87 -13.34,7.62 -35.7,17.35 -40.27,17.54 -305.86,10.29 -320.51,7.35 -54.22,-10.92 -26.09,-33.41 -85.75,-46.89 -11.65,17.92 46.89,58.55 67.45,67.07 52.01,21.51 248.67,22.22 304.3,10.89 15.22,-3.1 108.19,-36.49 70.2,-55.77z"/>
  <path class="fil15 str0" d="M974.47 1653.89c-161.04,116.28 -577.48,27.01 -721.15,117.8 -38.48,11 -166.57,63.77 -190.26,84.82 -5.2,69.63 -14.13,368.05 6.24,407.78 63.42,77.58 8.93,347.38 10.18,348.69 -114.94,70.85 94.46,234.78 101.03,239.85l493.64 11c42.7,-218.34 -65.19,-87.63 93.24,-403.72 85.72,-171.04 199.44,-163.49 371.27,-218.91 192.44,-16.04 218.15,3.57 297.36,59.15 30.66,21.51 129.43,14.46 209.62,-31.26 2.53,-1.44 23.31,-19.01 18.49,-41.2l-19.25 -38.26c-28.4,-74.26 31.21,-1492.17 31.21,-1723.87 0,-298.53 -0.11,-165.62 -26.58,-324.1 -344.28,-69.9 -456.69,83.87 -746.04,231.24 -118.43,60.32 -79.19,192.74 -223.1,251.91 -71.05,2.53 -254.72,33.66 -299.08,48.01l-159.41 98.9c-40.63,117.23 -37.2,149.96 -53.84,264.28l226.02 35.21 615.04 12.77c22.14,78.13 15.33,533.86 -34.61,569.91z"/>
  <path class="fil16 str0" d="M8395.74 14.08l4296.72 0.25c71.4,-0.03 227.16,-19.25 276.61,21.51 24.73,32.3 11.41,1666.09 11.46,1965.74 0,64.05 26.69,225.23 -32.76,250.5l-70.28 13.67c-275.6,4.06 -1197.12,-18.95 -1309.69,4.36 18.79,13.64 85.29,67.34 88.45,70.04 233.4,18.87 1229.69,-19.88 1320.31,9.61 23.23,213.35 -34.37,126.41 -148.05,178.72 -202.46,93.16 55.25,84.58 -424.01,88.91 -83.57,0.76 -269.64,-10.57 -333.17,17.51 -67.91,30.04 -167.17,108.19 -236.58,118.35l-21.43 30.93c41.83,142.09 -88.47,168.31 -102.8,57.38 -14.43,-112.03 10.32,-160.96 -37.06,-271.41 -175.77,-409.88 -769.05,-368.76 -888.02,46.02 -18.95,66.01 -3.98,235.96 -97.27,177.6l-31.75 5.15c4.6,58.82 10.76,53.43 -10.18,100.89 -186.59,38.69 -25.03,-155.9 -157.23,-377.61 -174.41,-292.46 -540.83,-309.78 -745.28,-106.77 -34.15,33.9 -83.71,104.84 -108.05,168.2 -60.43,157.18 12.34,256.79 -134.06,200.58 -43.27,-16.61 -43.57,-4.63 -88.12,-15.63 -34.28,-8.44 -101.3,-53.62 -135.85,-71.67 -158.13,-82.59 -114.37,-75.67 -328.73,-79.02 -104.87,-1.63 -309.37,11.08 -400.59,-2.15 -47.41,-6.89 -73.9,-52.45 -124.44,-78.59 -65.95,-34.12 -101.54,-26.55 -165.7,-41.53l-3.32 -148.76c82.32,-13.91 1142.69,-3.81 1339.84,-3.89 117.04,-0.03 77.12,-36.92 139.12,-47.71 10.48,-25.9 4.11,-6.7 4.71,-32.49 -383.82,-12.31 -956.46,0.38 -1377.99,1.42 -53.24,0.14 -53.64,8.01 -78.1,-24.7 -44.36,-46.76 -18.11,-443.73 -18.11,-536.77 0,-238.11 -15.55,-1625.44 17.21,-1664.38 26.41,-31.37 38.18,-24.83 114.21,-24.24zm-818.69 24.32c37.74,44.74 12.12,1730.63 15.98,2078.39 0.63,55.93 13.07,97.16 -37.17,111.24 -33.11,19.63 -88.85,12.25 -127.36,11.98 -49.91,-0.38 -99.86,-0.05 -149.8,-0.05 -76.27,0.03 -815.37,-8.6 -858.67,6.15l-15.79 8.58c112.52,62.96 62.55,88.39 229.28,86.81 161.42,-1.5 904.01,-11.14 962.8,9.61l8.09 123.27c-58.14,19.85 -138.22,34.45 -185.28,69.63 -82.37,61.6 -15.6,47.71 -221.06,47.57 -121.12,-0.08 -417.2,-14.05 -516.65,10.62 -7.76,66.03 35.75,251.99 -6.15,292.51 -40.33,39.02 -86.24,1.42 -94.46,-34.31 -9.04,-39.32 -0.03,-119.35 -6.02,-168.01 -63.56,-516.57 -780.73,-541.62 -917.57,-79.21 -43.73,147.75 23.66,215.37 -124.74,175.01l-4.22 38.2c10.59,76.36 -36.19,87.3 -95.12,72.52 -27.91,-69.22 -8.82,-177.54 -27.94,-257.6 -36.41,-152.41 -141.82,-262.37 -274.54,-323.97 -102.71,-47.63 -160.88,-19.99 -251.64,-39.21l-34.64 16.61c-127.41,24.26 -204.45,90.32 -270.27,168.83 -110.37,131.69 -63.94,210.36 -113.53,332.57 -96.32,24.4 -54.73,-16.07 -121.75,-30.61l-515.7 -1.93c-696.35,0 -1419.6,-8.66 -2109.76,0.54l-4.85 24.21c-3.4,76.79 -26.2,101.95 -104.1,105.57 29.79,-191.84 20.26,-305.26 -81.23,-436.54 -165.7,-214.31 -500.31,-257.17 -735.67,-2.4 -147.32,159.46 -85.07,366.5 -87.25,440.59 -156.14,-5.77 -327.83,5.64 -483.16,-2.56 -141.63,-7.49 -206.79,-154.34 -207.99,-297.36l126.92 -30.66 4.85 -254.04 -127.06 -3.51 -3.62 -478.34 206.27 -81.04c18.49,-101.05 21.1,-229.91 35.21,-334.5 40.76,-302.07 92.83,-322.66 -56.67,-322.17 -36,0.11 -62.03,2.7 -96.56,-5.26 -6.73,-92.07 80.47,-324.92 127.14,-375.7 98.38,-107.07 261.36,-68.95 419.98,-94.84 21.43,-18.9 9.07,-5.64 27.69,-33.17 6.37,-9.45 11.9,-20.53 21.78,-35.81 166.38,-257.69 553.74,-433.57 858.75,-457.72 203.28,-16.09 154.94,170 155.05,337.77 0.22,318.03 0,636.08 0,954.11 0,309.53 -12.66,645.83 0.44,951.91 151.92,16.26 2264.98,1.8 2655.2,2.4 181.17,0.27 175.34,4.87 283.72,-91.28l-2794.73 -1.88 -42.4 -1.17c-10.37,-137.76 2.18,-893.44 1.93,-1101.38 -0.16,-146.37 -16.58,-1045.58 17.02,-1103.56 60.04,-44.79 577.62,-19.82 691.47,-19.82l4895.42 -1.77c94.76,-0.22 128.09,-13.75 160.09,24.15zm3736.31 2350.92c175.45,32.65 328.19,210.52 284.97,428.42 -35.51,178.91 -204.23,334.5 -429.46,290.69 -469.49,-91.39 -347.25,-810.66 144.49,-719.11zm-1171.06 -1.33c175.86,26.22 333.25,205.05 298.67,418.27 -29.06,179.18 -204.86,346.27 -426.52,303.68 -474.66,-91.22 -359.2,-794.54 127.85,-721.94zm-4401.02 383.79c-37.25,-480.32 708.16,-526.54 732.81,-46.29 24.78,482.39 -695.2,531.33 -732.81,46.29zm-699.34 -377.56c414.7,103.64 349.29,782.89 -178.2,714.1l-23.88 -19.47c-85.64,1.47 -174.2,-96.26 -206,-149.12 -171.8,-285.43 87.68,-625.6 408.08,-545.52zm-3528.79 435.04c-116.33,477.22 -832.56,304 -715,-168.4 118.92,-477.9 825.34,-284.37 715,168.4zm6224.09 -461.94l392.26 -1.36 -3.02 124.06 -387.71 5.39 -1.52 -128.09z"/>
 </g>
</svg>
